<svg xmlns="http://www.w3.org/2000/svg" stroke-width="0" viewBox="0 0 32 32"><path fill="#f35" d="M16 32C7.164 32 0 24.836 0 16S7.164 0 16 0s16 7.164 16 16-7.164 16-16 16zm-5.818-17.09c0 .69.545 1.272 1.236 1.272-.69 0-1.236.545-1.236 1.236s.545 1.237 1.236 1.237h4.91l-.946 2.509c-.51 1.381.145 2.872 1.49 3.381a2.635 2.635 0 0 0 3.346-1.6l1.6-4.29V8.69H11.418c-.69 0-1.236.582-1.236 1.273 0 .69.545 1.236 1.236 1.236-.69 0-1.236.545-1.236 1.236s.545 1.237 1.236 1.237c-.69 0-1.236.545-1.236 1.236z"/></svg>