<svg xmlns="http://www.w3.org/2000/svg" stroke-width="0" viewBox="0 0 32 32"><path fill="#b2b2b2" d="M16 0c8.836 0 16 7.164 16 16s-7.164 16-16 16S0 24.836 0 16 7.164 0 16 0zm5.818 17.09c0-.69-.545-1.272-1.236-1.272.69 0 1.236-.545 1.236-1.236s-.545-1.237-1.236-1.237h-4.91l.946-2.509c.51-1.381-.145-2.872-1.49-3.381a2.635 2.635 0 0 0-3.346 1.6l-1.6 4.29v9.964H20.582c.69 0 1.236-.582 1.236-1.273 0-.69-.545-1.236-1.236-1.236.69 0 1.236-.545 1.236-1.236s-.545-1.237-1.236-1.237c.69 0 1.236-.545 1.236-1.236z"/></svg>