<svg xmlns="http://www.w3.org/2000/svg" width="48" height="48"><g fill="none" fill-rule="evenodd"><path d="M23.5 44c-11.046 0-20-8.954-20-20 0-11.045 8.954-20 20-20s20 8.955 20 20c0 11.046-8.954 20-20 20" fill="#F2F2F2"/><path fill="#FFF" stroke="#333" stroke-linejoin="round" stroke-width="2" d="M34.494 2.612L14.798 6.085l3.473 19.697 19.696-3.473z"/><path fill="#FFF" stroke="#333" stroke-linejoin="round" stroke-width="2" d="M21.111 13.095L1.415 16.568l3.473 19.697 19.696-3.473z"/><path fill="#FFF" stroke="#333" stroke-linejoin="round" stroke-width="2" d="M41.212 17.675l-23.635 4.167 4.167 23.635L45.38 41.31z"/><path fill="#FFA602" fill-rule="nonzero" d="M38.739 24.312l-2.496.212-1.35-2.155a.5.5 0 00-.912.162l-.53 2.49-2.414.65a.5.5 0 00-.138.907l2.182 1.376-.116 2.602a.5.5 0 00.836.392l1.84-1.675 2.302.946a.5.5 0 00.652-.653l-.997-2.409 1.579-2.041a.5.5 0 00-.438-.804z"/><path fill="#1368CE" fill-rule="nonzero" d="M13.715 20.602l-2.497.21-1.35-2.154a.499.499 0 00-.912.162l-.53 2.49-2.415.651a.499.499 0 00-.136.906l2.182 1.376-.116 2.602a.5.5 0 00.836.392l1.839-1.675 2.302.946a.5.5 0 00.653-.653l-.997-2.409 1.578-2.04a.5.5 0 00-.437-.805z"/><path fill="#F35" fill-rule="nonzero" d="M32.022 9.25l-2.497.211-1.35-2.154a.499.499 0 00-.912.16l-.53 2.49-2.415.652a.5.5 0 00-.136.906l2.182 1.376-.116 2.602a.5.5 0 00.836.393l1.84-1.675 2.301.945a.5.5 0 00.653-.654l-.997-2.407 1.578-2.041a.499.499 0 00-.437-.804z"/><path fill="#CCC" d="M24.642 38.874l15.757-2.778.347 1.97-15.757 2.778zM23.774 33.95l8.863-1.562.347 1.97-8.863 1.562zM22.905 29.026l5.909-1.042.347 1.97-5.909 1.042z"/></g></svg>