<svg xmlns="http://www.w3.org/2000/svg" xmlns:xlink="http://www.w3.org/1999/xlink" width="48" height="48" viewBox="0 0 48 48">
  <defs>
    <path id="question-type---slide-a" d="M21.7042232,19.2578982 L24.3109647,19.0492889 L24.0739882,24.8903485 L21.9411997,24.8903485 L21.7042232,19.2578982 Z M22.6606139,17.8823633 C21.8382985,17.7327826 21.4888611,16.994823 21.6267894,16.1879864 C21.7647176,15.3811499 22.3377809,14.8109689 23.1601042,14.9605047 C23.9824195,15.1100854 24.3318569,15.848045 24.1939287,16.6548815 C24.0560004,17.4617181 23.4829371,18.0318991 22.6606139,17.8823633 Z"/>
  </defs>
  <g fill="none" fill-rule="evenodd">
    <path fill="#F2F2F2" d="M23.9995735,44 L23.9995735,44 C12.9545735,44 3.99957352,35.046 3.99957352,24 C3.99957352,12.955 12.9545735,4 23.9995735,4 C35.0455735,4 43.9995735,12.955 43.9995735,24 C43.9995735,35.046 35.0455735,44 23.9995735,44"/>
    <path fill="#333" d="M47.3735735,34.7017 L5.42757352,41.8207 C5.01857352,41.8897 4.63057352,41.6147 4.56157352,41.2047 L0.0105735194,14.1637 C-0.0584264806,13.7547 0.217573519,13.3677 0.625573519,13.2987 L42.5725735,6.1797 C42.9805735,6.1107 43.3685735,6.3867 43.4365735,6.7947 L47.9895735,33.8367 C48.0585735,34.2447 47.7825735,34.6327 47.3735735,34.7017"/>
    <path fill="#1368CE" d="M45.7300735,32.4532 L6.24307352,39.1562 C6.02107352,39.1932 5.81207352,39.0472 5.77407352,38.8282 L1.80107352,15.2252 C1.76507352,15.0072 1.91507352,14.8002 2.13707352,14.7632 L41.6240735,8.0592 C41.8460735,8.0222 42.0560735,8.1692 42.0930735,8.3872 L46.0660735,31.9902 C46.1030735,32.2082 45.9520735,32.4152 45.7300735,32.4532"/>
    <path fill="#F2F2F2" d="M44.0122735,30.8047 L7.32027352,36.9947 C7.11427352,37.0297 6.93927352,37.0147 6.93027352,36.9607 L5.95298614,31.1617 C5.94527352,31.1087 6.10527352,31.0367 6.31127352,31.0017 L43.0032735,24.8117 C43.2102735,24.7767 43.3842735,24.7917 43.3932735,24.8457 L44.3692735,30.6447 C44.3792735,30.6987 44.2192735,30.7697 44.0122735,30.8047"/>
    <polygon fill="#FFF" points="18.863 13.283 15.094 21.888 23.16 27.283 31.094 22.723 27.722 13.283" transform="rotate(-10 23.094 20.283)"/>
    <use fill="#333" transform="rotate(-10 22.954 19.913)" xlink:href="#question-type---slide-a"/>
  </g>
</svg>
