<svg xmlns="http://www.w3.org/2000/svg" xmlns:xlink="http://www.w3.org/1999/xlink" width="48" height="48"><defs><path id="a" d="M21.704 19.258l2.607-.209-.237 5.841h-2.133l-.237-5.632zm.957-1.376c-.823-.15-1.172-.887-1.034-1.694.138-.807.71-1.377 1.533-1.227.822.15 1.172.887 1.034 1.694-.138.807-.711 1.377-1.533 1.227z"/></defs><g fill="none" fill-rule="evenodd"><path fill="#F2F2F2" d="M24 44C12.955 44 4 35.046 4 24 4 12.955 12.955 4 24 4c11.046 0 20 8.955 20 20 0 11.046-8.954 20-20 20"/><path fill="#333" d="M47.374 34.702L5.428 41.82a.751.751 0 01-.866-.616L.01 14.164a.75.75 0 01.615-.865l41.947-7.12a.75.75 0 01.864.616l4.553 27.042a.751.751 0 01-.616.865"/><path fill="#1368CE" d="M45.73 32.453L6.243 39.156a.405.405 0 01-.469-.328L1.801 15.225a.404.404 0 01.336-.462L41.624 8.06a.406.406 0 01.47.328l3.972 23.603a.405.405 0 01-.336.463"/><path fill="#F2F2F2" d="M44.012 30.805L7.32 36.995c-.206.035-.38.02-.39-.034l-.977-5.8c-.008-.052.152-.124.358-.16l36.692-6.19c.207-.034.381-.02.39.035l.976 5.799c.01.054-.15.125-.357.16"/><path fill="#FFF" d="M17.712 14.124l-2.218 9.129 8.88 3.912 7.022-5.868-4.96-8.711z"/><use fill="#333" transform="rotate(-10 22.954 19.913)" xlink:href="#a"/></g></svg>