<svg xmlns="http://www.w3.org/2000/svg" xmlns:xlink="http://www.w3.org/1999/xlink" width="53" height="40"><defs><path id="a" d="M0 0h52.555v39.55H0z"/></defs><g fill="none" fill-rule="evenodd"><g transform="translate(0 .449)"><mask id="b" fill="#fff"><use xlink:href="#a"/></mask><path fill="#333" d="M45.493.03L1.552 7.836A1.893 1.893 0 00.028 10.03l4.86 27.954a1.879 1.879 0 002.174 1.539l43.941-7.807a1.893 1.893 0 001.524-2.193L47.668 1.568A1.88 1.88 0 0045.493.03" mask="url(#b)"/></g><path fill="#FFF" d="M45.867 2.135L3.607 9.642l4.895 28.163 42.26-7.508z"/><path fill="#6E6E6E" d="M5.381 23.937a1.117 1.117 0 00-1.292-.917 1.128 1.128 0 00-.907 1.307 1.118 1.118 0 001.293.917 1.128 1.128 0 00.906-1.307"/><path fill="#E8E8E8" d="M18.373 34.605L16.33 22.85a.154.154 0 00-.178-.126l-8.448 1.501a.155.155 0 00-.125.18l2.043 11.754a.154.154 0 00.179.127l8.447-1.501a.155.155 0 00.125-.18"/><path fill="#B3B3B3" d="M13.157 9.55a.216.216 0 01-.037-.428l.571-.101a.216.216 0 01.073.425l-.57.1a.172.172 0 01-.037.004m-1.712.305a.214.214 0 01-.21-.179.216.216 0 01.173-.25l.57-.1c.12-.02.227.057.247.174a.215.215 0 01-.172.25l-.57.101a.215.215 0 01-.038.004m-1.712.304a.214.214 0 01-.21-.179.215.215 0 01.173-.25l.57-.1a.214.214 0 01.247.174.215.215 0 01-.173.25l-.57.102a.204.204 0 01-.037.003m-1.713.304a.216.216 0 01-.037-.428l.571-.101a.216.216 0 01.073.425l-.57.1a.206.206 0 01-.037.004m-1.712.304a.215.215 0 01-.21-.178.215.215 0 01.173-.25l.571-.101a.216.216 0 01.073.425l-.57.1a.206.206 0 01-.037.004m7.957.155a.214.214 0 01-.21-.178l-.1-.577a.215.215 0 01.172-.25c.12-.02.227.058.247.175l.1.577a.215.215 0 01-.21.253m-8.888.76a.215.215 0 01-.21-.178l-.1-.574a.215.215 0 01.21-.257c.106 0 .194.079.21.18v.002l.1.574a.216.216 0 01-.21.254m9.19.97a.214.214 0 01-.21-.178l-.1-.577a.215.215 0 01.173-.25.216.216 0 01.247.175l.1.577a.215.215 0 01-.21.253m-8.889.76a.215.215 0 01-.21-.178l-.1-.577a.216.216 0 01.172-.25.212.212 0 01.248.175l.1.577a.215.215 0 01-.21.253m9.19.971a.214.214 0 01-.21-.178l-.1-.577a.215.215 0 01.172-.25c.12-.02.227.058.247.175l.101.577a.215.215 0 01-.21.253m-8.889.76a.214.214 0 01-.21-.178l-.1-.577a.215.215 0 01.173-.25.214.214 0 01.247.175l.1.577a.215.215 0 01-.21.254m9.19.97a.214.214 0 01-.21-.178l-.1-.577a.213.213 0 11.42-.075l.1.577a.216.216 0 01-.21.253m-8.889.76a.214.214 0 01-.21-.178l-.1-.577a.214.214 0 01.42-.075l.1.577a.215.215 0 01-.21.254m9.19.97a.214.214 0 01-.21-.178l-.1-.577a.215.215 0 01.173-.25.213.213 0 01.247.175l.1.578a.215.215 0 01-.21.253m-8.89.76a.214.214 0 01-.21-.179l-.1-.577a.214.214 0 01.173-.25c.12-.02.227.058.248.175l.1.578a.215.215 0 01-.21.253m9.19.97a.214.214 0 01-.21-.178l-.101-.577a.215.215 0 01.173-.25.213.213 0 01.247.175l.1.578a.215.215 0 01-.21.253m-8.888.76a.213.213 0 01-.21-.179l-.1-.577a.214.214 0 01.42-.075l.1.577a.215.215 0 01-.21.254m9.188.955c-.112 0-.202-.068-.21-.178l-.099-.562a.216.216 0 01.173-.25.215.215 0 01.247.175l.1.578c0 .12-.093.237-.21.237m-1.605.458a.213.213 0 01-.21-.178.215.215 0 01.173-.25l.571-.1a.215.215 0 11.073.425l-.57.1a.209.209 0 01-.037.003m-1.712.305a.214.214 0 01-.21-.178.215.215 0 01.173-.25l.57-.102a.215.215 0 01.247.175.214.214 0 01-.173.25l-.57.101a.205.205 0 01-.037.004m-5.571.013a.214.214 0 01-.21-.179l-.1-.576a.215.215 0 01.172-.25.211.211 0 01.247.174l.101.578a.215.215 0 01-.21.253m3.858.29a.214.214 0 01-.21-.178.215.215 0 01.173-.249l.571-.102a.216.216 0 01.073.425l-.57.102a.2.2 0 01-.037.003m-1.712.305a.216.216 0 01-.037-.428l.572-.102a.213.213 0 01.246.175.215.215 0 01-.173.25l-.571.1a.198.198 0 01-.037.005m-1.712.303a.216.216 0 01-.037-.428l.57-.101a.216.216 0 01.073.425l-.57.101a.204.204 0 01-.036.003"/><path fill="#E8E8E8" d="M28.636 32.78l-2.043-11.755a.154.154 0 00-.178-.126l-8.448 1.5a.154.154 0 00-.125.18l2.044 11.755a.153.153 0 00.177.127l8.448-1.501a.156.156 0 00.125-.18"/><path fill="#FFA602" d="M38.896 30.959l-2.043-11.755a.154.154 0 00-.178-.126l-8.448 1.5a.155.155 0 00-.124.18l2.043 11.755a.154.154 0 00.178.126l8.448-1.5a.155.155 0 00.124-.18"/><path fill="#FFF" d="M34.997 25.592a1.523 1.523 0 00-1.76-1.248A1.536 1.536 0 0032 26.124a1.522 1.522 0 001.762 1.249 1.536 1.536 0 001.234-1.78"/><path fill="#E8E8E8" d="M49.161 29.13l-2.043-11.756a.154.154 0 00-.178-.126l-8.448 1.501a.155.155 0 00-.124.18l2.043 11.755a.154.154 0 00.178.126l8.448-1.5a.155.155 0 00.124-.18"/><path fill="#E21B3C" d="M26.268 19.162L24.224 7.407a.154.154 0 00-.178-.126l-8.447 1.5a.155.155 0 00-.125.18l2.043 11.756a.154.154 0 00.178.126l8.448-1.5a.156.156 0 00.125-.18"/><path fill="#FFF" d="M19.488 15.832l1.126-3.249 2.154 2.666z"/><path fill="#1368CE" d="M36.53 17.343L34.486 5.588a.154.154 0 00-.177-.126L25.86 6.963a.155.155 0 00-.125.18l2.043 11.755a.154.154 0 00.178.126l8.448-1.5a.155.155 0 00.125-.18"/><path fill="#FFF" d="M30.835 10.53l2.022 1.407-1.426 2.02-2.022-1.408z"/><path fill="#26890C" d="M20.61 28.405L18.567 16.65a.154.154 0 00-.178-.127L9.94 18.024a.154.154 0 00-.125.18L11.86 29.96a.154.154 0 00.178.126l8.448-1.5a.155.155 0 00.125-.18"/><path fill="#FFF" d="M17.024 24.484l-2.882.512-.506-2.913 2.881-.511z"/></g></svg>