<svg xmlns="http://www.w3.org/2000/svg" width="48" height="48"><g fill="none" fill-rule="evenodd"><path fill="#F2F2F2" d="M4 24.267c.144 10.924 9.044 19.732 20 19.732 11.046 0 19.999-8.954 19.999-20.001 0-11.045-8.953-20-19.999-20-10.956 0-19.856 8.81-20 19.731v.538z"/><path fill="#333" d="M32.331 0a1.177 1.177 0 00-.13.015L8.397 4.022a1.159 1.159 0 00-.95 1.334l7.018 41.678a1.158 1.158 0 001.334.949l23.805-4.006a1.158 1.158 0 00.949-1.333L33.535.965A1.16 1.16 0 0032.457 0h-.126z"/><path fill="#FFF" d="M31.518 1.745L9.608 5.432a.65.65 0 00-.532.748l6.433 38.198a.65.65 0 00.747.533l21.909-3.69a.644.644 0 00.532-.745L32.266 2.277a.648.648 0 00-.639-.541.677.677 0 00-.109.009z"/><path fill="#1368CE" d="M31 3.316l-9.302 1.567-1.762.297-9.299 1.564a.219.219 0 00-.178.251l3.807 23.048a.218.218 0 00.25.178l5.823-.979.423-.071 3.054-.515 4.663-.785 6.399-1.076a.217.217 0 00.178-.25L31.249 3.497a.22.22 0 00-.216-.184.184.184 0 00-.033.003z"/><path fill="#CCC" d="M18.318 34.168l-3.141.544-.544-3.141 3.14-.544zm4.397-.762l-3.142.545-.544-3.142 3.142-.544zm4.397-.761l-3.141.544-.544-3.14 3.14-.545z"/><path fill="#FFA602" d="M31.51 31.884l-3.142.544-.544-3.141 3.141-.544z"/><path fill="#E21B3C" d="M19.08 38.565l-3.141.544-.544-3.14 3.14-.545z"/><path fill="#CCC" d="M23.476 37.804l-3.14.544-.545-3.141 3.141-.544zm4.397-.762l-3.14.544-.544-3.141 3.14-.544zm4.397-.762l-3.141.544-.544-3.14 3.141-.545zm4.397-.76l-3.14.543-.544-3.142 3.14-.544zm-16.826 7.442l-3.14.544-.545-3.141 3.141-.544zm13.191-2.284l-11.935 2.067-.544-3.141 11.935-2.067zm2.874-9.556l-3.141.544-.544-3.141 3.14-.544z"/><path fill="#26890C" d="M37.43 39.916l-3.142.544-.544-3.141 3.141-.544z"/><path fill="#FFF" d="M29.439 24.082L26.458 7.174 27.442 7l2.98 16.908zm-10.132-10.91l-3.975.7L15 11.99l10.177-1.795.332 1.884-3.975.7 1.783 10.11-2.227.393z"/></g></svg>