<svg xmlns="http://www.w3.org/2000/svg" width="48" height="48"><g fill="none" fill-rule="evenodd"><path fill="#F2F2F2" d="M24 44C12.954 44 4 35.046 4 24 4 12.955 12.954 4 24 4s20 8.955 20 20c0 11.046-8.954 20-20 20"/><path fill="#333" d="M39.603 43.977l-23.805 4.006a1.157 1.157 0 01-1.334-.949L7.447 5.356a1.158 1.158 0 01.95-1.334L32.201.016a1.158 1.158 0 011.334.95l7.017 41.678a1.157 1.157 0 01-.95 1.333"/><path fill="#FFF" d="M38.166 41.223L16.255 44.91a.648.648 0 01-.746-.532L9.075 6.18a.649.649 0 01.532-.748l21.91-3.688a.649.649 0 01.748.533l6.431 38.198a.649.649 0 01-.532.747"/><path fill="#26890C" d="M36.997 40.1l-9.3 1.565a.217.217 0 01-.25-.178L24.612 24.65a.218.218 0 01.178-.25l9.3-1.566c.118-.02.23.06.25.18l2.835 16.837c.02.118-.06.23-.178.25"/><path fill="#FFA602" d="M25.935 41.962l-9.3 1.565a.217.217 0 01-.25-.178L13.55 26.511a.218.218 0 01.178-.251l9.3-1.565c.118-.02.23.06.25.179l2.835 16.838c.02.118-.06.23-.178.25"/><path fill="#1368CE" d="M33.894 21.67l-9.3 1.565a.218.218 0 01-.25-.178L21.28 4.867a.218.218 0 01.179-.25l9.299-1.566c.119-.02.23.06.25.178l3.064 18.191a.218.218 0 01-.18.25"/><path fill="#E11C3C" d="M22.831 23.531l-9.298 1.565a.218.218 0 01-.252-.178l-3.063-18.19a.218.218 0 01.18-.25l9.299-1.566c.117-.02.23.06.25.18l3.063 18.19a.216.216 0 01-.179.25"/><path fill="#FFF" d="M14.635 17.353l1.58-4.345 2.873 3.623zM27.191 10.873l2.837 1.959-1.995 2.811-2.838-1.959zM21.58 33.454a2.023 2.023 0 00-2.307-1.692 2.022 2.022 0 00-1.684 2.311 2.024 2.024 0 002.306 1.693 2.023 2.023 0 001.684-2.312M33.237 33.685l-3.98.677-.68-3.994 3.98-.677z"/></g></svg>