<svg xmlns="http://www.w3.org/2000/svg" width="48" height="48" viewBox="0 0 48 48">
  <g fill="none" fill-rule="evenodd">
    <path fill="#F2F2F2" d="M24,43.9996101 L24,43.9996101 C12.954,43.9996101 4,35.0456101 4,23.9996101 C4,12.9546101 12.954,3.9996101 24,3.9996101 C35.046,3.9996101 44,12.9546101 44,23.9996101 C44,35.0456101 35.046,43.9996101 24,43.9996101"/>
    <path fill="#333" d="M39.6035,43.9772101 L15.7985,47.9832101 C15.1675,48.0892101 14.5705,47.6652101 14.4645,47.0342101 L7.4475,5.3562101 C7.3415,4.7262101 7.7665,4.1282101 8.3965,4.0222101 L32.2015,0.0162100999 C32.8325,-0.0897899001 33.4295,0.3352101 33.5355,0.9652101 L40.5525,42.6442101 C40.6595,43.2742101 40.2335,43.8712101 39.6035,43.9772101"/>
    <path fill="#FFF" d="M38.1655,41.2228101 L16.2545,44.9108101 C15.9015,44.9698101 15.5674942,44.7318101 15.5085,44.3788101 L9.0765,6.1808101 C9.0175,5.8268101 9.2545,5.4928101 9.6085,5.4328101 L31.5185,1.7448101 C31.8715,1.6858101 32.2065,1.9238101 32.2655,2.2778101 L38.6975,40.4758101 C38.7565,40.8288101 38.5185,41.1638101 38.1655,41.2228101"/>
    <path fill="#26890C" d="M36.9971,40.1002101 L27.6971,41.6652101 C27.5791,41.6852101 27.4671,41.6052101 27.4471,41.4872101 L24.6121,24.6492101 C24.5921,24.5312101 24.6721,24.4182101 24.7901,24.3982101 L34.0901,22.8332101 C34.2081,22.8132101 34.3201,22.8932101 34.3401,23.0122101 L37.1751,39.8502101 C37.1951,39.9682101 37.1151,40.0802101 36.9971,40.1002101"/>
    <path fill="#FFA602" d="M25.9351,41.9620101 L16.6351,43.5270101 C16.5171,43.5470101 16.4051,43.4670101 16.3851,43.3490101 L13.5501,26.5110101 C13.5301,26.3930101 13.6101,26.2800101 13.7281,26.2600101 L23.0271,24.6950101 C23.1461,24.6750101 23.2581,24.7550101 23.2781,24.8740101 L26.1131,41.7120101 C26.1331,41.8300101 26.0531,41.9420101 25.9351,41.9620101"/>
    <path fill="#1368CE" d="M33.8936,21.6701101 L24.5946,23.2351101 C24.4766,23.2551101 24.3636,23.1751101 24.3436,23.0571101 L21.2806,4.8671101 C21.2616,4.7481101 21.3406,4.6361101 21.4596,4.6161101 L30.7586,3.0511101 C30.8776,3.0311101 30.9896,3.1111101 31.0096,3.2291101 L34.0726,21.4201101 C34.0916,21.5381101 34.0126,21.6501101 33.8936,21.6701101"/>
    <path fill="#E11C3C" d="M22.8315,23.5314101 L13.5325,25.0964101 C13.4135,25.1164101 13.3015,25.0364101 13.2815,24.9184101 L10.2185,6.7284101 C10.1985,6.6104101 10.2785,6.4974101 10.3975,6.4774101 L19.6965,4.9124101 C19.8145,4.8924101 19.9275,4.9724101 19.9475,5.0914101 L23.0095,23.2814101 C23.0295,23.3994101 22.9505,23.5114101 22.8315,23.5314101"/>
    <polygon fill="#FFF" points="14.635 17.353 16.215 13.008 19.088 16.631"/>
    <polygon fill="#FFF" points="27.191 10.873 30.028 12.832 28.033 15.643 25.195 13.684"/>
    <path fill="#FFF" d="M21.5791,33.4542101 C21.4081,32.3492101 20.3751,31.5912101 19.2731,31.7622101 C18.1721,31.9332101 17.4181,32.9672101 17.5891,34.0732101 C17.7611,35.1792101 18.7931,35.9362101 19.8951,35.7662101 C20.9961,35.5952101 21.7501,34.5602101 21.5791,33.4542101"/>
    <polygon fill="#FFF" points="33.237 33.685 29.257 34.362 28.577 30.368 32.557 29.691"/>
  </g>
</svg>
