<svg xmlns="http://www.w3.org/2000/svg" width="48" height="48"><g fill="none" fill-rule="evenodd"><path fill="#F2F2F2" d="M24 44.075c-11.046 0-20-8.954-20-20 0-11.045 8.954-20 20-20s20 8.955 20 20c0 11.046-8.954 20-20 20"/><path d="M0 6.244h48v35.662H0z"/><path fill="#333" d="M47.374 34.777L5.428 41.896a.75.75 0 01-.865-.616L.01 14.239a.75.75 0 01.616-.865l41.946-7.12a.75.75 0 01.865.616l4.552 27.042a.751.751 0 01-.616.865"/><path fill="#FFF" d="M45.73 32.528L6.243 39.231a.405.405 0 01-.469-.328L1.801 15.3a.404.404 0 01.336-.462l39.487-6.704a.404.404 0 01.468.328l3.974 23.603a.405.405 0 01-.336.463"/><path fill="#26890C" fill-rule="nonzero" d="M25.438 28.446a4.601 4.601 0 001.329-.273l1.88 4.411a9.236 9.236 0 01-3.209.67v-4.808z"/><path fill="#1368CE" fill-rule="nonzero" d="M27.31 27.992a4.865 4.865 0 002.683-4.098h4.805a9.836 9.836 0 01-.29 2.126 9.71 9.71 0 01-5.282 6.432l-1.916-4.46z"/><path fill="#E21B3C" fill-rule="nonzero" d="M29.96 23.36c-.139-2.534-2.246-4.546-4.826-4.546-.605 0-1.191.11-1.74.32l-1.967-4.4A9.68 9.68 0 0125.134 14c5.25 0 9.522 4.166 9.664 9.36h-4.837z"/><path fill="#FFA602" fill-rule="nonzero" d="M22.951 19.444a4.78 4.78 0 00-2.594 4.246c0 2.553 2.013 4.639 4.547 4.777v4.787c-5.194-.14-9.36-4.369-9.36-9.564a9.563 9.563 0 015.448-8.62l1.96 4.374z"/></g></svg>