<svg xmlns="http://www.w3.org/2000/svg" width="48" height="48"><g fill="none" fill-rule="evenodd"><path fill="#F2F2F2" d="M24 44C12.955 44 4 35.046 4 24 4 12.955 12.955 4 24 4c11.046 0 20 8.955 20 20 0 11.046-8.954 20-20 20"/><path fill="#333" d="M39.603 43.977l-23.805 4.006a1.157 1.157 0 01-1.334-.949L7.447 5.356a1.158 1.158 0 01.95-1.334L32.2.016a1.158 1.158 0 011.334.95l7.018 41.678a1.157 1.157 0 01-.95 1.333"/><path fill="#FFF" d="M38.166 41.223l-21.91 3.688a.649.649 0 01-.748-.532L9.078 6.18a.65.65 0 01.531-.748l21.91-3.688a.648.648 0 01.747.533l6.433 38.198a.648.648 0 01-.532.747"/><path fill="#E21B3C" d="M36.988 40.049l-9.299 1.565a.218.218 0 01-.25-.178L21.28 4.867a.218.218 0 01.178-.251l9.3-1.565c.118-.02.23.06.25.178l6.158 36.57a.218.218 0 01-.179.25"/><path fill="#1368CE" d="M25.926 41.91l-9.299 1.566a.218.218 0 01-.25-.178l-6.158-36.57a.217.217 0 01.178-.25l9.3-1.565c.118-.02.23.06.25.178l6.157 36.57a.216.216 0 01-.178.25"/><path fill="#FFF" d="M27.3 24.745l1.58-4.345 2.873 3.623zM17.796 22.5l2.837 1.959-1.996 2.811-2.837-1.959z"/></g></svg>