<svg xmlns="http://www.w3.org/2000/svg" width="48" height="48" viewBox="0 0 48 48">
  <g fill="none" fill-rule="evenodd" transform="translate(4)">
    <path fill="#F2F2F2" d="M20,43.9996101 L20,43.9996101 C8.955,43.9996101 0,35.0456101 0,23.9996101 C0,12.9546101 8.955,3.9996101 20,3.9996101 C31.046,3.9996101 40,12.9546101 40,23.9996101 C40,35.0456101 31.046,43.9996101 20,43.9996101"/>
    <path fill="#333" d="M35.6035,43.9772101 L11.7985,47.9832101 C11.1675,48.0892101 10.5715,47.6652101 10.4645,47.0342101 L3.4475,5.3562101 C3.3415,4.7262101 3.7665,4.1282101 4.3965,4.0222101 L28.2015,0.0162100999 C28.8325,-0.0897899001 29.4295,0.3352101 29.5355,0.9652101 L36.5525,42.6442101 C36.6595,43.2742101 36.2335,43.8712101 35.6035,43.9772101"/>
    <path fill="#FFF" d="M34.1655,41.2228101 L12.2555,44.9108101 C11.9025,44.9698101 11.5675,44.7318101 11.5085,44.3788101 L5.0765,6.1808101 C5.0175,5.8268101 5.2555,5.4928101 5.6085,5.4328101 L27.5185,1.7448101 C27.8725,1.6858101 28.2065,1.9238101 28.2655,2.2778101 L34.6975,40.4758101 C34.7565,40.8288101 34.5195,41.1638101 34.1655,41.2228101"/>
    <path fill="#E21B3C" d="M32.9883,40.0490101 L23.6893,41.6140101 C23.5703,41.6340101 23.4583,41.5540101 23.4383,41.4360101 L17.2813,4.8670101 C17.2613,4.7480101 17.3413,4.6360101 17.4593,4.6160101 L26.7593,3.0510101 C26.8773,3.0310101 26.9893,3.1110101 27.0093,3.2290101 L33.1673,39.7990101 C33.1863,39.9170101 33.1073,40.0290101 32.9883,40.0490101"/>
    <path fill="#1368CE" d="M21.9263,41.9108101 L12.6273,43.4758101 C12.5083,43.4958101 12.3963,43.4158101 12.3763,43.2978101 L6.2193,6.7278101 C6.1993,6.6098101 6.2793,6.4978101 6.3973,6.4778101 L15.6973,4.9128101 C15.8153,4.8928101 15.9273,4.9728101 15.9473,5.0908101 L22.1043,41.6608101 C22.1243,41.7788101 22.0453,41.8908101 21.9263,41.9108101"/>
    <path fill="#FFF" d="M23.3 24.745L24.88 20.4 27.753 24.023zM13.796 22.5L16.633 24.459 14.637 27.27 11.8 25.311z"/>
  </g>
</svg>
