<svg xmlns="http://www.w3.org/2000/svg" xmlns:xlink="http://www.w3.org/1999/xlink" width="48" height="48"><defs><path id="a" d="M0 0h19.683v5.249H0z"/></defs><g fill="none" fill-rule="evenodd"><path fill="#F2F2F2" d="M24 44C12.955 44 4 35.046 4 24 4 12.955 12.955 4 24 4c11.046 0 20 8.955 20 20 0 11.046-8.954 20-20 20"/><path fill="#333" d="M47.374 34.702L5.428 41.82a.751.751 0 01-.866-.616L.01 14.164a.75.75 0 01.615-.865l41.947-7.12a.75.75 0 01.864.616l4.553 27.042a.751.751 0 01-.616.865"/><path fill="#FFF" d="M45.73 32.453L6.243 39.156a.405.405 0 01-.469-.328L1.801 15.225a.404.404 0 01.336-.462L41.624 8.06a.406.406 0 01.47.328l3.972 23.603a.405.405 0 01-.336.463"/><g transform="rotate(-10 142.437 -20.915)"><mask id="b" fill="#fff"><use xlink:href="#a"/></mask><path fill="#E21B3C" d="M19.319 5.249H.364A.364.364 0 010 4.885V.365C0 .162.163 0 .364 0H19.32c.201 0 .364.163.364.364v4.52a.364.364 0 01-.364.365" mask="url(#b)"/></g><path fill="#FFA602" d="M39.567 29.121L20.9 32.413a.364.364 0 01-.422-.296l-.557-3.16a.364.364 0 01.295-.421l18.667-3.292a.364.364 0 01.422.296l.557 3.16a.364.364 0 01-.295.421m-21.435-8.212l-7.036 1.24a.364.364 0 01-.422-.295l-.33-1.867a.364.364 0 01.296-.422l7.036-1.24a.364.364 0 01.422.294l.33 1.868a.364.364 0 01-.296.422"/><path fill="#26890C" d="M36.07 24.408l-8.328 1.468a.364.364 0 01-.422-.295l-.33-1.867a.364.364 0 01.296-.422l8.329-1.469a.364.364 0 01.422.296l.329 1.867a.364.364 0 01-.295.422"/><path fill="#1368CE" d="M18.663 31.475l-8.33 1.468a.364.364 0 01-.421-.295l-.33-1.868a.364.364 0 01.296-.421l8.329-1.469a.364.364 0 01.422.295l.329 1.868a.364.364 0 01-.295.422M40.1 17.035l-19.959 3.52a.364.364 0 01-.421-.296l-.558-3.16a.364.364 0 01.296-.421l19.959-3.52a.364.364 0 01.422.296l.557 3.16a.364.364 0 01-.296.421"/></g></svg>