<?xml version="1.0" encoding="utf-8"?>
<!-- Svg Vector Icons : http://www.onlinewebfonts.com/icon -->
<!DOCTYPE svg PUBLIC "-//W3C//DTD SVG 1.1//EN" "http://www.w3.org/Graphics/SVG/1.1/DTD/svg11.dtd">
<svg version="1.1" xmlns="http://www.w3.org/2000/svg" xmlns:xlink="http://www.w3.org/1999/xlink" x="0px" y="0px" viewBox="0 0 1000 1000" enable-background="new 0 0 1000 1000" xml:space="preserve">
<metadata> Svg Vector Icons : http://www.onlinewebfonts.com/icon </metadata>
<g><path d="M983.9,420.4c6.1-12.2,6.1-30.6,0-42.9L941,334.6c-6.1-6.1-12.2-6.1-24.5-6.1c-6.1,0-18.4,0-24.5,6.1L561.3,659.2v24.5V745h98L983.9,420.4z"/><path d="M193.8,193.7h612.5V255H193.8V193.7L193.8,193.7z"/><path d="M193.8,377.5h569.6l42.9-42.9v-18.4H193.8V377.5z"/><path d="M193.8,683.7H500V745H193.8V683.7L193.8,683.7z"/><path d="M193.8,500h447.1l61.2-61.3H193.8V500z"/><path d="M928.7,561.2v245c0,67.4-55.1,122.5-122.5,122.5H193.8c-67.4,0-122.5-55.1-122.5-122.5V193.7c0-67.4,55.1-122.5,122.5-122.5h612.5c67.4,0,122.5,55.1,122.5,122.5v73.5c18.4,0,36.8,12.2,55.1,24.5l6.1,6.1V193.8C990,89.6,910.4,10,806.3,10H193.8C89.6,10,10,89.6,10,193.8v612.5C10,910.4,89.6,990,193.8,990h612.5C910.4,990,990,910.4,990,806.3V500L928.7,561.2z"/><path d="M193.8,622.5h324.6l6.1-6.1l55.1-55.1H193.8V622.5z"/></g>
</svg>