<?xml version="1.0" encoding="utf-8"?>
<!-- Generator: Adobe Illustrator 24.0.0, SVG Export Plug-In . SVG Version: 6.00 Build 0)  -->
<svg version="1.1" id="Layer_1" xmlns="http://www.w3.org/2000/svg" xmlns:xlink="http://www.w3.org/1999/xlink" x="0px" y="0px"
	 viewBox="0 0 354 124" style="enable-background:new 0 0 354 124;" xml:space="preserve">
<style type="text/css">
	.st0{fill:#FFFFFF;}
</style>
<g>
	<polygon class="st0" points="69.01,32 53.23,25.96 22.47,55.31 22.47,18.66 4.26,23.29 4.26,109.39 22.47,110.01 22.31,79.88 
		33.53,69.05 45.38,110.01 61.47,110.01 46.64,56.57 	"/>
	<path class="st0" d="M139.65,59.64c0-5.49,1.1-10.72,3.08-15.5c-4.65-6.94-12.43-5.8-23.73-2.24l-0.31-38.61l-15.54,4.08
		l2.51,95.43l15.3,0.55l-0.86-49.28c3.37-1.49,14.44-4.55,14.83,7.61l1.49,17.34l1.02,24.41h16.01l-2.21-15.4
		C144.08,80.69,139.65,70.67,139.65,59.64z"/>
	<path class="st0" d="M291.1,86.94l-1.41-32.96l17.03-0.94V42.13l-17.5-1.18l0.24-22.29l-12.16-5.02v25.19l-13.58-0.47l0.68,4.72
		c2.54,1.92,5.21,6.42,5.48,9.38c1.98,0.76,6.01,0.9,6.34,3.8h1.07l0.78,42.61c0,0-1.73,15.3,21.66,11.85c0,0,7.3-2.2,7.06-7.3
		V86.63C305.56,88.09,291.8,91.96,291.1,86.94z"/>
	<polygon class="st0" points="349.57,18.82 317.39,12.7 337.17,97.85 	"/>
	<polygon class="st0" points="330.11,103.89 325.63,114.41 335.21,121 344.62,115.43 340.62,103.89 	"/>
	<path class="st0" d="M205.47,50.93l11.02-1.01c-6.51-24.45-34.89-35.14-55.82-22.24c-24.75,15.24-23.05,50.8,0.91,64.45
		c-6.11,19.15-4.09,11.73,17.62,13.05c28.66-0.99,27.57,4.4,19.13-12.66c3.64-2,6.9-4.6,9.68-7.64l-4.83-30.89
		C202.89,52.48,203.96,51.07,205.47,50.93z M205.5,48.57c1.72-0.05,0.38,3.49-0.94,0.94C204.6,49.21,204.64,48.93,205.5,48.57z
		 M194.59,47.94c0.05,1.72-3.49,0.38-0.94-0.94C193.95,47.04,194.23,47.08,194.59,47.94z M192.09,33.53c2.03-0.03,2.86,3.52,0,3.9
		C190.06,37.45,189.23,33.91,192.09,33.53z M173.6,32.91c1.72-0.05,0.38,3.49-0.94,0.94C172.71,33.55,172.75,33.27,173.6,32.91z
		 M169.47,57.58c1.69-1.1,8.41-10.26,8.71-12.59c0.93-1.34,3.26-1.34,4.19,0c0.28,2.3,7.03,11.48,8.71,12.59
		c1.04,1.57-0.9,3.39-3.07,3.03c1.44,3.14,11.5,12.4,3.02,12.14c10.86,14.34,5.92,11.22-7.08,11.63c0.12,0.04,0.05,5.14,0.07,5.36
		l-7.5-0.05c0.05-1.08-0.11-4.34,0.07-5.3c-16.51,0.22-15.7,0.55-7.08-11.63c-8.73,0.28,1.99-9.38,3.02-12.14
		C170.84,60.97,168.36,59.51,169.47,57.58z M164.14,37.42c4.31,0.11,4.5,6.56,0,6.83C159.83,44.14,159.64,37.69,164.14,37.42z
		 M154.72,53.61c1.72-0.05,0.38,3.49-0.94,0.94C153.82,54.25,153.87,53.97,154.72,53.61z M153.78,74.69c-2.03,0.03-2.86-3.52,0-3.9
		C155.81,70.77,156.64,74.31,153.78,74.69z M160.73,61c-0.03-2.03,3.52-2.86,3.9,0C164.65,63.04,161.1,63.86,160.73,61z
		 M200.15,102.29l-38.64,0.2l2.88-10.13l30.88,0.22L200.15,102.29z M197.06,65.27c-4.31-0.11-4.5-6.56,0-6.83
		C201.37,58.56,201.56,65,197.06,65.27z M204.07,73.68c0.05,1.72-3.49,0.38-0.94-0.94C203.43,72.79,203.72,72.83,204.07,73.68z"/>
	<path class="st0" d="M274.4,56.67c0-1.16-3.62-1.58-4.49-1.95c-0.11,1.06-0.48,2.63-1.41,4.2c0,0,0,0,0,0l3.21-0.41l-2.3,46.5
		l-11.48,2.48l-0.39-42.83c-3.79-0.51-8.13-3.13-12.23-5.43l-14.97,1.93l-3.64-1.24l12.43-1.56c-0.53-0.38-0.95-0.81-1.26-1.21
		c-2.57-0.38-6.51-0.69-10.03-1.04l-9.62,0.93c0,0-4.36-1.48-4.56-1.55c1.71-0.17,6-0.59,7.72-0.76c-1.07-0.75-1.29-0.64-2.75-2.4
		c-17.25,1.96-12.36-2.15-10.22,17.75c2.64,14.12,2.33,21.43,5.65,33.62c-0.02-0.01,13.07,7.32,18.17,10.18
		c2.08,0.96,1.28,1.18,2.9,1.24c0.66-0.15,26.3-5.68,33.79-7.3c2.4-0.32,3.24-0.9,3.11-2.5c0.31-6.28,2.28-45.94,2.28-45.97
		C274.15,59.1,274.63,57.21,274.4,56.67z M215.93,101.71c-1.71-11.19-5.19-33.94-6.87-44.98l5.92,2.01
		c0.43,3.06,5.83,41.93,6.4,46.02L215.93,101.71z M228.02,108.48l-6.72-47.59l7.65,2.6l4.34,47.95L228.02,108.48z M236.05,112.21
		c-0.64-7.54-3.53-39.03-4.41-48.55l16.8-2.17l0.52,47.92L236.05,112.21z"/>
	<path class="st0" d="M259.74,53.68c-0.16-0.59-0.24-0.73-1.23-2.13l-0.87-0.24c-0.75,0.24-1.81,0.86-3.1,1.89l-0.18,0.35
		c1.89,0.64,3.35,0.99,4.01,1C259.01,54.31,259.57,53.91,259.74,53.68z"/>
	<path class="st0" d="M258.5,62.43c19.02-3.21,4.69-29.24-9.96-14.52c0.07,1.75,0.04,6.54-2.03,9.36
		C250.04,59.22,255.13,62.43,258.5,62.43z M258.18,48.9c3.7,0.75,5.68,6.75,0.75,7.88c-1.01,0.15-1.75-0.05-3.45-0.48l0.01,0
		c-1-0.27-3.03-0.92-5.53-1.97C252.4,51.78,255.76,48.96,258.18,48.9z"/>
	<path class="st0" d="M220.13,50.48c3.52,4.89,11.09,2.94,17.13,4.28c-0.75-4.38,1.6-7.47,3.21-8.66
		C236.34,33.58,214.01,35.22,220.13,50.48z M224.6,45.99c1.9-6.48,10.38-0.9,11.54,4.08C231.6,48.55,224.51,49.39,224.6,45.99z"/>
	<path class="st0" d="M239.51,55.52c0.45,0.83,2.28,1.96,4.05,1.54c2.12-1.65,2.73-5.33,2.7-8.56c-1.04-0.44-2.71-0.84-4.39-0.75
		l0.07,0.1C240.17,48.72,238.94,53.01,239.51,55.52z"/>
	<path class="st0" d="M65.16,42.44l4.24,11.14c10.59-6.36,16.56,0,16.56,0l-0.08,7.14C54.33,66.3,62.33,95.49,62.33,95.49
		c3.22,11.46,13.58,11.07,13.58,11.07h23.62L100,53.43C96.32,28.71,65.16,42.44,65.16,42.44z M85.88,96.36c0,0-11.46,2.75-12.71-8.4
		c0,0,0.24-17.27,13.11-15.38L85.88,96.36z"/>
</g>
</svg>
