<?xml version="1.0" encoding="utf-8"?>
<!-- Generator: Adobe Illustrator 19.1.0, SVG Export Plug-In . SVG Version: 6.00 Build 0)  -->
<svg version="1.1" id="Layer_1" xmlns="http://www.w3.org/2000/svg" xmlns:xlink="http://www.w3.org/1999/xlink" x="0px" y="0px"
	 viewBox="188 -43 440 150" style="enable-background:new 188 -43 440 150;" xml:space="preserve">
<style type="text/css">
	.st0{fill:#FFFFFF;}
</style>
<g>
	<path class="st0" d="M414.8,9.5c-18.7,0.3-34.8,16.1-36,35.1c-1.1,19.1,14.1,36.1,33.9,38.1c19.9,2,36-13.8,36-35.1
		C448.7,26.2,433.5,9.2,414.8,9.5z M428.2,49c-0.8,9.9-7,15.3-11.1,15.7c-10.3,1.2-19.1-8.1-18.5-20c0.6-11.9,5.4-19.3,15.1-19.5
		C423.4,25,429.3,36.1,428.2,49z"/>
	<path class="st0" d="M488.3,11.4c-18.7-0.3-33.9,16.7-33.9,38.1s16.1,37.1,36,35.1c19.9-2,35.1-19,33.9-38.1
		C523.2,27.5,507.1,11.8,488.3,11.4z M486,66.7c-4.1-0.5-10.2-5.9-11.1-15.7c-1.1-12.9,4.8-24,14.5-23.8s14.5,7.6,15.1,19.5
		C505.1,58.5,496.3,67.9,486,66.7z"/>
	<polygon class="st0" points="270.5,-6.4 250.4,-14.1 211.2,23.3 211.2,-23.4 188,-17.5 188,92.2 211.2,93 211,54.6 225.3,40.8 
		240.4,93 260.9,93 242,24.9 	"/>
	<path class="st0" d="M334.2,6.2L333.8-43L314-37.8l3.2,121.6l19.5,0.7l-1.1-62.8c4.3-1.9,18.4-5.8,18.9,9.7l1.9,22.1l1.3,31.1h20.4
		l-7.7-53.7C367.3-0.5,355.8-0.6,334.2,6.2z"/>
	<polygon class="st0" points="603.2,85.2 597.5,98.6 609.7,107 621.7,99.9 616.6,85.2 	"/>
	<path class="st0" d="M551.4-23.4l-15.5-6.4V2.3l-17.3-0.6l3.3,22.8h14l1,54.3c0,0-2.2,19.5,27.6,15.1c0,0,9.3-2.8,9-9.3V63.2
		c0,0-6.3,3.7-13.1,3.7c-6.8,0-6.9-3.3-6.9-3.3l-1.8-42l21.7-1.2V6.5L551.1,5L551.4-23.4z"/>
	<polygon class="st0" points="628,-23.2 587,-31 612.2,77.5 	"/>
	<path class="st0" d="M265.6,6.9l5.4,14.2c13.5-8.1,21.1,0,21.1,0l-0.1,9.1c-40.2,7.1-30,44.3-30,44.3c4.1,14.6,17.3,14.1,17.3,14.1
		h30.1l0.6-67.7C305.3-10.6,265.6,6.9,265.6,6.9z M292,75.6c0,0-14.6,3.5-16.2-10.7c0,0,0.3-22,16.7-19.6L292,75.6z"/>
</g>
</svg>
