<?xml version="1.0" encoding="utf-8"?>
<!-- Generator: Adobe Illustrator 23.1.1, SVG Export Plug-In . SVG Version: 6.00 Build 0)  -->
<svg version="1.1" id="Layer_1" xmlns="http://www.w3.org/2000/svg" xmlns:xlink="http://www.w3.org/1999/xlink" x="0px" y="0px"
	 viewBox="0 0 878 313" style="enable-background:new 0 0 878 313;" xml:space="preserve">
<style type="text/css">
	.st0{fill:white}
</style>
<g>
	<polygon class="st0" points="186.6,86 149.7,71.9 77.7,140.5 77.7,54.8 35.1,65.6 35.1,267 77.7,268.5 77.4,198 103.6,172.7
		131.3,268.5 169,268.5 134.3,143.5 	"/>
	<polygon class="st0" points="797.3,254.2 786.9,278.8 809.3,294.2 831.3,281.1 821.9,254.2 	"/>
	<path class="st0" d="M742.8,213.8c0,0-11.6,6.8-24,6.8c-12.5,0-12.7-6.1-12.7-6.1l-3.3-77.1l39.8-2.2v-25.5l-40.9-2.8l0.6-52.1
		L673.8,43V102l-31.8-1.1l6.1,41.9h25.7l0.7,38.1c1.5,4,2.7,8,3.4,12.1c1.7,8.6,1.8,17.7,0.4,26.3c-0.6,3.7-1.6,7.4-2.9,11.2
		l0.2,12.1c0,0-4,35.8,50.7,27.7c0,0,17.1-5.1,16.5-17.1V213.8z"/>
	<polygon class="st0" points="842.9,55.2 767.6,40.8 813.9,240 	"/>
	<path class="st0" d="M177.6,110.4l9.9,26.1c24.8-14.9,38.7,0,38.7,0l-0.2,16.7c-73.8,13-55.1,81.3-55.1,81.3
		c7.5,26.8,31.8,25.9,31.8,25.9H258l1.1-124.3C250.5,78.3,177.6,110.4,177.6,110.4z M226.1,236.5c-48.5,8.7-29.4-65.6,0.9-55
		C226.9,187.7,226.1,236.5,226.1,236.5z"/>
	<path class="st0" d="M630,232.9C630,232.9,630,232.9,630,232.9C630,232.9,630,232.9,630,232.9z"/>
	<path class="st0" d="M630,232.9C630,232.9,630,232.9,630,232.9C630,232.9,630,232.9,630,232.9z"/>
	<path class="st0" d="M630,232.9C630,232.9,630,232.9,630,232.9C630,232.9,630,232.9,630,232.9z"/>
	<g>
		<path class="st0" d="M520.2,165c-4.9-39.6-24.6-91.9-68.8-100.3c-3.9-8.5-2.4-14.4,5.5-17.4c-1.5-0.6-6.7-2.7-9.4-3.7
			c-2-2.8-10.4,10.5-12.5,20.2c-9.5,0.8-18,8.3-25.6,20c-21.9,33.3-37.9,109.7-30.3,150.5c2.5,24.4,38,30.9,62.6,22
			c0.7-0.9,8.4,3.7,18.5,3.8c16.5,1.5,47.5-10.1,54.2-28.9c1.3-2.6,1.8-3.8,0.1-6.9c-6.7-18.6-5.2-38.7,4.7-55.2
			C520.3,167.4,520.8,167.4,520.2,165z M472.8,169.9l8.9,17h0l-19.3-0.3L472.8,169.9z M452.4,139.4c20.1,1.2,18.4,28.6,0,29.1
			C432.3,167.3,434,139.9,452.4,139.4z M497.9,204.1c-0.3,6.7-1.7,14.3-6.4,20.4c-1,0.9-5,6.6-4.1,2.1c0-2.6,0.2-5.9,0.1-5.6
			c-0.8,0-9.1,0-10.6,0c-1.1-1,0.8,12.2-1.3,11.4c-22,5.5-51.1-7.9-63.3-34.3c3.8,0,39.4,0,42.5,0c0.6-1.2,0,7.7,0.2,10.9
			c-0.1,0.9,0,0.3,1.7,0.4c3.7,0,11.5,0,11.6,0c0,0,0-12,0-11.3c0.8,0,26-1.2,29-1.3C498.1,196.2,497.8,200.6,497.9,204.1z
			 M491.6,168.5c-20.1-1.2-18.4-28.6,0-29.1C511.7,140.6,510,168.1,491.6,168.5z"/>
		<path class="st0" d="M366.6,201.6c0.6-12.4,2.1-25.8,4.5-39.2l-1.1-7.9c-5.7-57.6-26.8-57.8-66.5-45.3l-0.7-90.3l-36.3,9.5
			l5.9,223.2l35.8,1.3l-2-115.3c7.9-3.5,33.8-10.6,34.7,17.8l3.5,40.6l2.4,57.1h28.4c-3.2-4.6-5.5-10.8-6.9-18.7
			C366.6,225.4,366.1,214.4,366.6,201.6z"/>
		<path class="st0" d="M668.1,200.5c-1.3-25.3-24.8-45.8-50.9-44.9c1.4-8.9-3.8-19-9.8-26.3c-0.8-0.5-1.3-3.2-3.2-2.1
			c-3.8,1.5-7.9,2.9-12.6,4.5c0.6,0.2,1.5,0.5,2.8,1.2c5.2,2.2,8,8.7,5.9,14.7c-2.1,4.5-1.8,4.7-2.8,4.1c2.4-2.9,2.1-1.8,1,0.6
			c-29.7-13.7-67.3,4.3-75.3,35.3c-15,61.4,65,88.1,112.7,71.3C658.5,250.6,670.9,222.9,668.1,200.5z M592.2,202.4
			c2.7-4.2,2.9,5.9,4.5,9.7c0.6,2.2,1,3.2,1.5,6.1c-0.5-0.1-0.9-0.2-2.5-0.6c-5.2-1.3-9.3-2.4-15-3.7
			C584.3,210.4,588.6,206,592.2,202.4z M561.6,181.6c3-3.1,6.9-7.1,10.2-10.3c2.4,8.9,4.9,18.3,7.3,27.5
			C545,189.1,548.6,196.1,561.6,181.6z M630,232.9c-12.2,23-52.5,16.9-71.2,2.8c-4.7-2-17-19.8-11.7-23.3c5.3,1.3,9.6,2.4,15.4,3.8
			c12.3,3,23.3,5.6,35.6,8.8c0.4,2.6-1.4,5.8-1.9,9.4c2,0.8,4.7,1.2,7.7,2c1.9,0.3,2.1,0.9,5.1,1.1c1.4-2.4,0.7-6.4,2.7-9
			C617.3,229.9,624.2,231.7,630,232.9z M611.9,206.7c-8.6-0.5,1.1-4.9,3.7-8.9c12.8-12.4,12.7-12.8,13-11.5
			c-8.7,7.1-4.9,3.6-0.3-1.2C637,222,640.9,212,611.9,206.7z"/>
	</g>
</g>
</svg>
