<svg xmlns="http://www.w3.org/2000/svg" xmlns:xlink="http://www.w3.org/1999/xlink" viewBox="0 0 32 32" stroke="none" stroke-width="0"><path d="M16,0 C7.16363636,0 0,7.16363636 0,16 C0,24.8363636 7.16363636,32 16,32 C24.8363636,32 32,24.8363636 32,16 C32,7.16363636 24.8363636,0 16,0 Z M10.1818182,9.45454545 C11.3818182,9.45454545 12.3636364,10.4363636 12.3636364,11.6363636 C12.3636364,12.8363636 11.3818182,13.8181818 10.1818182,13.8181818 C8.98181818,13.8181818 8,12.8363636 8,11.6363636 C8,10.4363636 8.98181818,9.45454545 10.1818182,9.45454545 Z M20.5090909,24 C20.5090909,21.4909091 18.4727273,19.4909091 16,19.4909091 C13.4909091,19.4909091 11.4909091,21.5272727 11.4909091,24 L8,24 C8,19.5636364 11.5636364,16 16,16 C20.4363636,16 24,19.5636364 24,24 L20.5090909,24 Z M21.8181818,13.8181818 C20.6181818,13.8181818 19.6363636,12.8363636 19.6363636,11.6363636 C19.6363636,10.4363636 20.6181818,9.45454545 21.8181818,9.45454545 C23.0181818,9.45454545 24,10.4363636 24,11.6363636 C24,12.8363636 23.0181818,13.8181818 21.8181818,13.8181818 Z" style="fill: rgb(226, 27, 60);"></path></svg>
