<?xml version="1.0" encoding="UTF-8" standalone="no"?>
<svg
   xmlns:dc="http://purl.org/dc/elements/1.1/"
   xmlns:cc="http://creativecommons.org/ns#"
   xmlns:rdf="http://www.w3.org/1999/02/22-rdf-syntax-ns#"
   xmlns:svg="http://www.w3.org/2000/svg"
   xmlns="http://www.w3.org/2000/svg"
   xmlns:sodipodi="http://sodipodi.sourceforge.net/DTD/sodipodi-0.dtd"
   xmlns:inkscape="http://www.inkscape.org/namespaces/inkscape"
   width="5.5279021mm"
   height="5.6014271mm"
   viewBox="0 0 5.5279021 5.6014271"
   version="1.1"
   id="svg170"
   inkscape:version="1.0 (4035a4f, 2020-05-01)"
   sodipodi:docname="yellow-rezero.svg">
  <defs
     id="defs164" />
  <sodipodi:namedview
     inkscape:snap-global="false"
     inkscape:pagecheckerboard="true"
     id="base"
     pagecolor="#ffffff"
     bordercolor="#666666"
     borderopacity="1.0"
     inkscape:pageopacity="0.0"
     inkscape:pageshadow="2"
     inkscape:zoom="22.4"
     inkscape:cx="5.8535665"
     inkscape:cy="11.819433"
     inkscape:document-units="mm"
     inkscape:current-layer="layer1"
     inkscape:document-rotation="0"
     showgrid="false"
     inkscape:window-width="1252"
     inkscape:window-height="755"
     inkscape:window-x="0"
     inkscape:window-y="23"
     inkscape:window-maximized="0" />
  <metadata
     id="metadata167">
    <rdf:RDF>
      <cc:Work
         rdf:about="">
        <dc:format>image/svg+xml</dc:format>
        <dc:type
           rdf:resource="http://purl.org/dc/dcmitype/StillImage" />
        <dc:title></dc:title>
      </cc:Work>
    </rdf:RDF>
  </metadata>
  <g
     inkscape:label="Layer 1"
     inkscape:groupmode="layer"
     id="layer1"
     transform="translate(-71.326968,-145.37595)">
    <g
       inkscape:label="Layer 2"
       id="layer2"
       inkscape:groupmode="layer">
      <circle
         r="2.7639511"
         cy="148.21342"
         cx="74.090919"
         id="path27"
         style="fill:#ffffff;stroke-width:0.264583" />
    </g>
    <g
       transform="translate(-0.03543527,-0.17481399)"
       id="g186">
      <path
         style="fill:#f5d4ba;stroke-width:0.0330729"
         d="m 73.438415,151.05461 c -0.131965,-0.0295 -0.498267,-0.15299 -0.587082,-0.19787 -0.09099,-0.046 -0.09099,-0.046 0.0034,-0.23528 0.05193,-0.10411 0.121216,-0.26072 0.153978,-0.34801 0.03276,-0.0873 0.09429,-0.18603 0.136723,-0.21941 0.07348,-0.0578 0.07545,-0.0699 0.04144,-0.2547 -0.03525,-0.19145 -0.07618,-0.27668 -0.132871,-0.27668 -0.01596,0 -0.02902,0.0223 -0.02902,0.0496 0,0.14549 -0.193647,-0.0789 -0.3711,-0.42995 -0.05516,-0.10914 -0.128179,-0.23794 -0.162255,-0.28622 -0.04272,-0.0605 -0.06196,-0.14525 -0.06196,-0.27286 0,-0.18506 0,-0.18506 -0.152686,-0.18506 -0.168291,0 -0.164999,0.0124 -0.06591,-0.24805 0.02768,-0.0728 0.05098,-0.19554 0.05178,-0.27285 0.0014,-0.13668 -0.0015,-0.14058 -0.106035,-0.14128 -0.113976,-7.7e-4 -0.388607,-0.11018 -0.388607,-0.15481 0,-0.0146 0.06697,-0.062 0.148829,-0.10544 0.08185,-0.0434 0.148828,-0.10197 0.148828,-0.1301 0,-0.0281 0.03174,-0.0849 0.07053,-0.12623 0.07053,-0.0751 0.07053,-0.0751 -0.08305,-0.2459 -0.134974,-0.15012 -0.218303,-0.30757 -0.181619,-0.34316 0.0067,-0.007 0.106935,0.0128 0.222672,0.0429 0.242684,0.0632 0.187384,0.10311 0.47345,-0.34212 0.0935,-0.14552 0.194581,-0.2869 0.224626,-0.31419 0.03005,-0.0273 0.119198,-0.12875 0.198119,-0.22547 0.147118,-0.1803 0.198093,-0.18396 0.199247,-0.0143 2.78e-4,0.0409 0.0078,0.0744 0.01663,0.0744 0.0089,0 0.159325,-0.0372 0.33435,-0.0827 0.175024,-0.0455 0.350657,-0.0827 0.390295,-0.0827 0.03964,0 0.130452,-0.0298 0.20181,-0.0662 0.108956,-0.0555 0.195037,-0.0661 0.537323,-0.0661 0.407582,0 0.407582,0 0.369213,0.0744 -0.0211,0.0409 -0.06851,0.10752 -0.105337,0.14797 -0.08297,0.0911 -0.0824,0.0914 0.372443,0.15866 0.190751,0.0282 0.36017,0.0647 0.376486,0.081 0.02572,0.0257 -0.123188,0.14215 -0.226297,0.17694 -0.01769,0.006 0.06789,0.12557 0.190169,0.26577 0.12228,0.14021 0.222328,0.27129 0.222328,0.2913 0,0.0233 0.04739,0.03 0.132285,0.0186 0.167339,-0.0224 0.187472,0.0108 0.0823,0.13576 -0.08351,0.0993 -0.08351,0.0993 -0.0146,0.27565 0.0379,0.097 0.135144,0.29947 0.216091,0.44988 0.147177,0.27348 0.147177,0.27348 0.06169,0.30598 -0.08901,0.0338 -0.233637,0.0134 -0.265061,-0.0374 -0.06631,-0.10729 -0.141772,0.12053 -0.07886,0.23809 0.03186,0.0595 0.02964,0.0782 -0.01207,0.10153 -0.02811,0.0157 -0.06824,0.11114 -0.08918,0.21202 -0.0395,0.19027 -0.191462,0.65764 -0.265408,0.81628 -0.05066,0.10868 -0.07855,0.11326 -0.141597,0.0232 -0.04581,-0.0654 -0.05043,-0.0626 -0.135705,0.0829 -0.145178,0.24773 -0.316714,0.31755 -0.316714,0.1289 0,-0.0908 -0.05585,-0.0925 -0.112002,-0.004 -0.02547,0.0404 -0.01864,0.071 0.02715,0.12159 0.0598,0.0661 0.05921,0.0706 -0.02613,0.19956 -0.08732,0.13194 -0.08732,0.13194 0.0083,0.1814 0.184896,0.0956 0.292459,0.2402 0.384667,0.51707 0.04999,0.15011 0.07664,0.28031 0.06064,0.2963 -0.03682,0.0368 -0.462041,0.19713 -0.522881,0.19713 -0.02554,0 -0.05266,-0.026 -0.06027,-0.0579 -0.01242,-0.0519 -0.01667,-0.0511 -0.04135,0.008 -0.04324,0.10398 -0.07973,0.11471 -0.391727,0.11525 -0.288277,5e-4 -0.292895,-7.5e-4 -0.272593,-0.0739 0.06293,-0.22676 0.06308,-0.22324 -0.0095,-0.22324 -0.05485,0 -0.07841,0.032 -0.109664,0.14883 -0.03174,0.11868 -0.05441,0.14883 -0.111873,0.14883 -0.06006,0 -0.07579,-0.0248 -0.09439,-0.14883 -0.01456,-0.0971 -0.03886,-0.14883 -0.0699,-0.14883 -0.03435,0 -0.04758,0.0414 -0.04758,0.14883 0,0.15774 -0.02061,0.16985 -0.214974,0.12635 z m -0.08624,-2.41137 c 0.07041,-0.0895 0.09538,-0.24506 0.03934,-0.24506 -0.0167,0 -0.05078,-0.008 -0.07572,-0.0174 -0.02947,-0.0113 -0.06012,0.0234 -0.08752,0.0992 -0.05657,0.15643 -0.148575,0.20456 -0.256217,0.13403 -0.04488,-0.0294 -0.09045,-0.0977 -0.101273,-0.15186 -0.01082,-0.0541 -0.03496,-0.10786 -0.05365,-0.1194 -0.05719,-0.0353 0.0014,0.17953 0.07673,0.28143 0.05704,0.0772 0.0962,0.0943 0.228718,0.10039 0.138509,0.006 0.169213,-0.005 0.229596,-0.0813 z m 1.412231,-0.0203 c 0.105045,-0.072 0.144348,-0.1439 0.145303,-0.26589 3.31e-4,-0.0419 -0.01983,-0.0539 -0.07396,-0.0438 -0.04093,0.008 -0.0986,0.015 -0.128157,0.0163 -0.03115,10e-4 -0.06148,0.0407 -0.07214,0.0934 -0.02748,0.13586 -0.14479,0.24735 -0.232243,0.22074 -0.103702,-0.0316 -0.187573,-0.11406 -0.187573,-0.18452 0,-0.0336 -0.01488,-0.061 -0.03307,-0.061 -0.06656,0 -0.03057,0.13988 0.05903,0.22948 0.07998,0.08 0.11328,0.0907 0.252982,0.081 0.09775,-0.007 0.203631,-0.0404 0.269836,-0.0857 z m -1.805548,-0.35705 c 0,-0.0182 -0.01488,-0.0331 -0.03307,-0.0331 -0.01819,0 -0.03307,0.0149 -0.03307,0.0331 0,0.0182 0.01488,0.0331 0.03307,0.0331 0.01819,0 0.03307,-0.0149 0.03307,-0.0331 z"
         id="path200" />
      <path
         style="fill:#a99d95;stroke-width:0.0330729"
         d="m 73.274246,151.00677 c -0.126674,-0.0361 -0.245736,-0.0776 -0.264584,-0.0923 -0.01885,-0.0147 -0.0752,-0.0365 -0.125219,-0.0484 -0.05002,-0.0119 -0.09095,-0.0381 -0.09095,-0.0581 0,-0.02 0.05953,-0.16855 0.132291,-0.33014 0.07276,-0.16159 0.132292,-0.30759 0.132292,-0.32443 0,-0.0169 0.03532,-0.0584 0.07848,-0.0924 0.06994,-0.055 0.0767,-0.0814 0.06209,-0.24218 -0.01495,-0.16454 -0.07863,-0.2962 -0.143271,-0.2962 -0.01404,0 -0.03088,0.026 -0.03744,0.0579 -0.01843,0.0895 -0.19878,-0.12308 -0.327042,-0.38555 -0.0586,-0.11992 -0.141348,-0.26986 -0.183878,-0.3332 -0.05871,-0.0874 -0.07733,-0.16089 -0.07733,-0.3051 0,-0.18993 0,-0.18993 -0.0982,-0.17029 -0.184025,0.0368 -0.208092,0.003 -0.133248,-0.18682 0.03634,-0.0922 0.06608,-0.23211 0.06608,-0.3109 0,-0.14124 -0.0018,-0.14349 -0.127605,-0.16036 -0.158269,-0.0212 -0.374297,-0.12081 -0.349417,-0.16107 0.01017,-0.0164 0.07701,-0.0598 0.148537,-0.0963 0.07272,-0.0371 0.130048,-0.0906 0.130048,-0.12142 0,-0.0303 0.03192,-0.089 0.07093,-0.13058 0.07093,-0.0755 0.07093,-0.0755 -0.04774,-0.20686 -0.136969,-0.15161 -0.232733,-0.3221 -0.20559,-0.36602 0.01082,-0.0175 0.0761,-0.0101 0.154338,0.0175 0.257387,0.0908 0.312696,0.0717 0.422444,-0.14567 0.05373,-0.10643 0.133262,-0.23665 0.176748,-0.28939 0.04349,-0.0527 0.08857,-0.12192 0.100193,-0.15375 0.01162,-0.0318 0.03469,-0.0579 0.05126,-0.0579 0.01658,0 0.09194,-0.0819 0.167474,-0.1819 0.07554,-0.10005 0.15211,-0.1819 0.170165,-0.1819 0.01806,0 0.042,0.0458 0.0532,0.10185 0.01677,0.0839 0.03271,0.0986 0.09012,0.0831 0.03836,-0.0103 0.21858,-0.05 0.400481,-0.0883 0.181901,-0.0382 0.390991,-0.0985 0.464645,-0.13379 0.114315,-0.0549 0.19334,-0.0629 0.539904,-0.0549 0.405988,0.009 0.405988,0.009 0.301865,0.15297 -0.05727,0.079 -0.09931,0.14833 -0.09342,0.15406 0.0059,0.006 0.181856,0.0355 0.391043,0.0662 0.209186,0.0307 0.391743,0.0629 0.405682,0.0715 0.04222,0.0261 -0.0063,0.0746 -0.145745,0.14574 -0.13245,0.0676 -0.13245,0.0676 0.101463,0.31382 0.128652,0.13544 0.233912,0.26109 0.233912,0.27922 0,0.0181 0.06874,0.033 0.152754,0.033 0.152753,0 0.152753,0 0.06259,0.11821 -0.09016,0.11821 -0.09016,0.11821 0.01569,0.37207 0.05822,0.13962 0.149117,0.32477 0.201993,0.41145 0.128923,0.21134 0.125134,0.25582 -0.02179,0.25582 -0.06486,0 -0.148609,-0.0164 -0.186107,-0.0365 -0.05235,-0.028 -0.07476,-0.0261 -0.09654,0.008 -0.04132,0.0652 -0.0356,0.2072 0.01019,0.25299 0.0307,0.0307 0.02742,0.0488 -0.01465,0.081 -0.02982,0.0228 -0.08554,0.16581 -0.123836,0.31778 -0.07815,0.31016 -0.213311,0.68681 -0.271716,0.75718 -0.03248,0.0391 -0.04723,0.0351 -0.09297,-0.0256 -0.05417,-0.0718 -0.05475,-0.0715 -0.163293,0.0977 -0.15834,0.24675 -0.299141,0.30141 -0.299141,0.11612 0,-0.0951 -0.02254,-0.10052 -0.105396,-0.0255 -0.05912,0.0535 -0.05879,0.0575 0.01063,0.13144 0.07162,0.0762 0.07162,0.0762 -0.01347,0.20481 -0.08509,0.12858 -0.08509,0.12858 0.06131,0.23178 0.08052,0.0567 0.176282,0.15182 0.212802,0.21127 0.08264,0.13451 0.204407,0.52911 0.17218,0.55799 -0.03938,0.0353 -0.461226,0.19501 -0.515024,0.19501 -0.02746,0 -0.055,-0.0335 -0.06119,-0.0744 -0.01058,-0.07 -0.01421,-0.0685 -0.06051,0.0248 -0.04763,0.0959 -0.05771,0.0995 -0.305239,0.10888 -0.14079,0.005 -0.255982,0.001 -0.255982,-0.009 0,-0.0104 0.02252,-0.0729 0.05004,-0.13876 0.02752,-0.0659 0.04328,-0.12654 0.03501,-0.13481 -0.01572,-0.0157 -0.118127,0.21031 -0.118127,0.26074 0,0.016 -0.01417,0.029 -0.03149,0.029 -0.018,0 -0.01245,-0.0633 0.01297,-0.14774 0.04192,-0.1393 0.04066,-0.14893 -0.02225,-0.1689 -0.08033,-0.0255 -0.117034,0.0231 -0.14538,0.19261 -0.01677,0.10027 -0.03494,0.12403 -0.0949,0.12403 -0.06347,0 -0.0766,-0.0217 -0.09111,-0.15047 -0.01924,-0.17068 -0.02977,-0.18894 -0.0946,-0.16406 -0.03278,0.0126 -0.04283,0.061 -0.03448,0.16614 0.01094,0.13758 0.0061,0.14822 -0.06594,0.14604 -0.04276,-0.001 -0.181386,-0.0319 -0.308059,-0.068 z m 0.592848,-0.7623 c 0.144003,-0.12676 0.155325,-0.14761 0.138025,-0.25422 -0.01082,-0.0667 -0.0028,-0.13552 0.01892,-0.16165 0.03103,-0.0374 0.02198,-0.0416 -0.05069,-0.0233 -0.05381,0.0135 -0.08846,0.009 -0.08846,-0.0125 0,-0.0191 0.06325,-0.0472 0.14056,-0.0625 0.08893,-0.0176 0.14056,-0.0456 0.14056,-0.0764 0,-0.08 -0.319371,-0.0473 -0.517096,0.0529 -0.09211,0.0467 -0.176727,0.0756 -0.188034,0.0643 -0.01131,-0.0113 -9.22e-4,-0.0327 0.02308,-0.0475 0.05629,-0.0348 0.03654,-0.1342 -0.0357,-0.17969 -0.07818,-0.0492 -0.09652,-0.0182 -0.06144,0.10413 0.02256,0.0787 0.01425,0.14745 -0.03364,0.27846 -0.03498,0.0957 -0.06338,0.19654 -0.06311,0.22408 4.38e-4,0.0452 0.293819,0.22004 0.383465,0.22851 0.02018,0.002 0.107277,-0.0587 0.193557,-0.13462 z m 0.447977,-0.2093 c 0.09866,-0.051 0.12874,-0.12642 0.06592,-0.16525 -0.01819,-0.0112 -0.03307,-0.0642 -0.03307,-0.1177 0,-0.12641 -0.02986,-0.12265 -0.179376,0.0225 -0.08042,0.0781 -0.112112,0.13109 -0.09102,0.15218 0.01912,0.0191 0.02133,0.0708 0.0054,0.12632 -0.02559,0.0892 -0.02292,0.0924 0.0531,0.0635 0.04403,-0.0167 0.1246,-0.0535 0.179046,-0.0816 z M 74.0668,149.55993 c 0.336395,-0.0246 0.477326,-0.0785 0.818876,-0.31345 0.12296,-0.0846 0.258405,-0.15377 0.300989,-0.15377 0.267526,0 0.451099,-0.21689 0.451099,-0.53298 0,-0.38187 -0.258333,-0.44499 -0.450179,-0.11 -0.03141,0.0549 -0.03678,0.0443 -0.03683,-0.0722 -6.9e-5,-0.14649 -0.02495,-0.21084 -0.08151,-0.21084 -0.0219,0 -0.02842,0.0433 -0.01705,0.11336 0.02732,0.16831 -0.004,0.25044 -0.09546,0.25044 -0.07058,0 -0.07486,-0.008 -0.04491,-0.0871 0.03952,-0.10396 0.0084,-0.24668 -0.03784,-0.17363 -0.0209,0.033 -0.02909,0.0342 -0.02946,0.004 -2.65e-4,-0.0227 -0.01627,-0.0413 -0.03553,-0.0413 -0.01926,0 -0.02583,0.0149 -0.01458,0.0331 0.01149,0.0186 -0.01481,0.0331 -0.06006,0.0331 -0.06402,0 -0.08481,0.0216 -0.101563,0.10532 -0.05542,0.27712 -0.337717,0.30589 -0.404152,0.0412 -0.02251,-0.0897 -0.04711,-0.0992 -0.105605,-0.0407 -0.03087,0.0309 -0.03969,0.0162 -0.03969,-0.0661 0,-0.0624 -0.01699,-0.10604 -0.04134,-0.10634 -0.02994,-3.7e-4 -0.02877,-0.008 0.0042,-0.0294 0.02507,-0.0159 0.03516,-0.0457 0.02242,-0.0663 -0.02754,-0.0445 0.192429,-0.14543 0.27424,-0.12576 0.05114,0.0123 0.0033,0.0395 -0.18988,0.10798 -0.09388,0.0333 -0.01383,0.0432 0.113149,0.014 0.07225,-0.0166 0.283912,-0.0403 0.470361,-0.0526 0.186448,-0.0123 0.338467,-0.0314 0.337819,-0.0424 -0.0064,-0.1079 -0.107118,-0.41991 -0.182629,-0.56564 -0.09425,-0.1819 -0.09425,-0.1819 -0.114132,-0.0496 -0.03212,0.21377 -0.130785,0.34688 -0.294108,0.39678 -0.06492,0.0198 -0.07549,0.0145 -0.05788,-0.0292 0.01185,-0.0294 0.03073,-0.0762 0.04196,-0.10394 0.01299,-0.0321 -0.05017,-0.009 -0.173633,0.063 -0.10673,0.0624 -0.22754,0.12337 -0.268468,0.13543 -0.06517,0.0192 -0.07441,0.01 -0.07441,-0.0745 0,-0.0931 0.0097,-0.099 0.277685,-0.1698 0.313452,-0.0828 0.329173,-0.10482 0.293364,-0.41092 -0.02442,-0.20875 -0.101851,-0.25113 -0.321839,-0.17618 -0.13142,0.0448 -0.155764,0.0455 -0.171302,0.005 -0.01507,-0.0393 -0.03955,-0.0363 -0.145911,0.018 -0.158957,0.0811 -0.184582,0.081 -0.33763,-10e-4 -0.102648,-0.055 -0.123534,-0.0578 -0.123534,-0.0165 0,0.0413 -0.02089,0.0385 -0.123533,-0.0165 -0.135587,-0.0727 -0.207196,-0.0841 -0.207196,-0.0331 0,0.0182 -0.02948,0.0331 -0.06552,0.0331 -0.111558,0 -0.125523,0.19595 -0.04592,0.6444 0.02339,0.13176 0.02339,0.13176 -0.05661,0.0795 -0.04627,-0.0302 -0.114339,-0.1394 -0.161449,-0.25895 -0.08145,-0.20669 -0.08145,-0.20669 -0.121508,-0.096 -0.04423,0.12219 -0.05483,0.34504 -0.02498,0.52545 0.01938,0.11714 0.01938,0.11714 0.345755,0.15617 0.312602,0.0374 0.620782,0.13079 0.536662,0.16265 -0.02563,0.01 -0.03324,0.053 -0.02113,0.12033 0.01836,0.1021 0.0174,0.10312 -0.03319,0.0351 -0.0705,-0.0948 -0.219824,-0.0705 -0.219824,0.0357 0,0.0405 -0.02917,0.10009 -0.06481,0.13235 -0.09405,0.0851 -0.214828,0.0444 -0.264817,-0.0893 -0.09041,-0.24179 -0.09569,-0.24757 -0.09859,-0.10791 -0.0019,0.0898 -0.0121,0.11752 -0.03188,0.0863 -0.02676,-0.0423 -0.02348,0.13489 0.01013,0.54735 0.02215,0.27183 0.293917,0.49378 0.554415,0.45279 0.102781,-0.0162 0.132602,-0.006 0.198158,0.0697 0.06052,0.0696 0.09507,0.0839 0.160131,0.0663 0.04563,-0.0123 0.216907,-0.0322 0.380618,-0.0442 z m -0.479557,-0.16956 c 0,-0.0187 0.09371,-0.0331 0.214974,-0.0331 0.121267,0 0.214974,0.0144 0.214974,0.0331 0,0.0187 -0.09371,0.0331 -0.214974,0.0331 -0.121268,0 -0.214974,-0.0144 -0.214974,-0.0331 z m 1.66291,-0.46181 c 0.0093,-0.0357 -0.0038,-0.0822 -0.02921,-0.10327 -0.02541,-0.0211 -0.04619,-0.0752 -0.04619,-0.12027 0,-0.10043 0.21055,-0.3237 0.270385,-0.28672 0.02576,0.0159 0.02788,0.0293 0.0058,0.0367 -0.02093,0.007 -0.02854,0.0762 -0.01914,0.17401 0.013,0.13526 0.0025,0.17903 -0.06284,0.26165 -0.09069,0.11471 -0.143254,0.1315 -0.118791,0.0379 z m -1.596764,-0.0197 c 0,-0.0284 0.01512,-0.0422 0.03361,-0.0308 0.01849,0.0114 0.02505,0.0346 0.01459,0.0516 -0.02835,0.0459 -0.0482,0.0373 -0.0482,-0.0208 z m -0.264584,-0.77482 c -0.02729,-0.0158 -0.07937,-0.0399 -0.115755,-0.0535 -0.06388,-0.0239 -0.06366,-0.0252 0.0066,-0.0375 0.08063,-0.0142 0.208412,0.0421 0.208412,0.0917 0,0.0383 -0.03224,0.0381 -0.09922,-7.2e-4 z m -0.117701,-0.34991 c -0.225584,-0.13541 -0.266693,-0.17013 -0.236816,-0.20001 0.01178,-0.0118 0.102108,0.0113 0.200738,0.0514 0.09863,0.04 0.207065,0.068 0.240967,0.0622 0.0481,-0.008 0.06392,0.013 0.072,0.0969 0.01349,0.13989 -0.0291,0.13828 -0.276893,-0.0105 z m -0.62477,0.92709 c -0.03044,-0.0641 -0.04456,-0.14641 -0.03301,-0.19241 0.01109,-0.0442 0.0041,-0.0903 -0.01559,-0.10244 -0.01966,-0.0121 -0.03575,-0.037 -0.03575,-0.0552 0,-0.0182 0.01488,-0.0239 0.03307,-0.0126 0.01819,0.0112 0.03307,-0.002 0.03307,-0.0292 0,-0.0273 -0.01414,-0.0583 -0.03141,-0.069 -0.05543,-0.0343 -0.100878,0.10472 -0.100878,0.30845 0,0.16775 0.01392,0.21467 0.09095,0.30649 0.08751,0.10431 0.09136,0.10556 0.101837,0.0332 0.006,-0.0414 -0.01304,-0.12565 -0.04229,-0.18728 z m 0.477888,-0.18429 c 0,-0.0162 -0.02977,-0.0295 -0.06615,-0.0295 -0.06446,0 -0.08619,0.0351 -0.04638,0.0749 0.02649,0.0265 0.112522,-0.008 0.112522,-0.0454 z m 1.373827,0.006 c -0.02273,-0.0368 -0.150129,-0.0326 -0.150129,0.005 0,0.0143 0.03808,0.026 0.08463,0.026 0.04655,0 0.07602,-0.0139 0.06549,-0.031 z M 72.69236,148.1878 c -0.03101,-0.0288 -0.03547,-0.0185 -0.01957,0.0454 0.01132,0.0455 0.02302,0.105 0.02599,0.13229 0.003,0.0273 0.01178,0.007 0.01957,-0.0454 0.0078,-0.0522 -0.0039,-0.11177 -0.02599,-0.13229 z m 1.647981,0.10531 c -0.02044,-0.0613 -0.09164,-0.0715 -0.09164,-0.0131 0,0.0288 0.02357,0.0524 0.05237,0.0524 0.0288,0 0.04647,-0.0177 0.03927,-0.0393 z m -1.381484,-0.0269 c 0,-0.0182 -0.01488,-0.0331 -0.03307,-0.0331 -0.01819,0 -0.03307,0.0149 -0.03307,0.0331 0,0.0182 0.01488,0.0331 0.03307,0.0331 0.01819,0 0.03307,-0.0149 0.03307,-0.0331 z"
         id="path198" />
      <path
         style="fill:#cc9d6b;stroke-width:0.0330729"
         d="m 73.504561,151.06083 c -0.01819,-0.006 -0.14149,-0.0427 -0.274,-0.0814 -0.13251,-0.0387 -0.232948,-0.0832 -0.223197,-0.099 0.0098,-0.0158 -0.0083,-0.0219 -0.04019,-0.0136 -0.03186,0.008 -0.08464,-0.005 -0.11729,-0.0285 -0.05591,-0.041 -0.05048,-0.0637 0.09336,-0.39019 0.084,-0.19065 0.182084,-0.36953 0.217971,-0.39751 0.06479,-0.0505 0.06701,-0.13614 0.01083,-0.41676 -0.01686,-0.0842 -0.114513,-0.13067 -0.150913,-0.0718 -0.04167,0.0674 -0.175923,-0.0842 -0.324363,-0.36632 -0.07287,-0.13849 -0.162673,-0.29646 -0.199561,-0.35103 -0.04837,-0.0716 -0.06713,-0.15326 -0.06729,-0.29306 -2.18e-4,-0.19385 -2.18e-4,-0.19385 -0.116536,-0.17203 -0.06397,0.012 -0.129519,0.0137 -0.145654,0.004 -0.01614,-0.01 -10e-4,-0.0927 0.03363,-0.18386 0.03464,-0.0911 0.06297,-0.23064 0.06297,-0.30998 0,-0.14333 -8.64e-4,-0.14438 -0.135763,-0.16595 -0.154132,-0.0246 -0.327258,-0.10521 -0.327258,-0.15229 0,-0.0173 0.05953,-0.0619 0.132292,-0.099 0.07436,-0.0379 0.132292,-0.0916 0.132292,-0.12257 0,-0.0303 0.03172,-0.0888 0.07049,-0.1301 0.07049,-0.075 0.07049,-0.075 -0.06131,-0.23365 -0.149201,-0.17954 -0.221961,-0.30411 -0.193976,-0.3321 0.01045,-0.0104 0.07664,-0.002 0.147076,0.0194 0.07044,0.0211 0.174466,0.0384 0.231167,0.0384 0.09051,0 0.113336,-0.0202 0.186989,-0.16556 0.04614,-0.0911 0.139412,-0.23696 0.207263,-0.32423 0.326244,-0.41959 0.450242,-0.56854 0.473311,-0.56854 0.01383,0 0.03529,0.0462 0.04769,0.10267 0.01982,0.0902 0.03317,0.10041 0.110114,0.084 0.508709,-0.10877 0.85706,-0.19953 0.89785,-0.23394 0.05524,-0.0466 0.859896,-0.0718 0.859896,-0.027 0,0.0142 -0.03853,0.0825 -0.08562,0.15184 -0.04709,0.0693 -0.07899,0.13264 -0.07088,0.14075 0.0081,0.008 0.184302,0.0386 0.391546,0.0678 0.207245,0.0292 0.389741,0.0648 0.405548,0.0792 0.01581,0.0144 -0.03628,0.0589 -0.115755,0.099 -0.07947,0.0401 -0.150635,0.0785 -0.158138,0.0852 -0.0075,0.007 0.07563,0.10541 0.18474,0.21918 0.109111,0.11376 0.216232,0.24033 0.238049,0.28125 0.03091,0.058 0.06861,0.0744 0.170793,0.0744 0.07212,0 0.131128,0.009 0.131128,0.0197 0,0.0108 -0.03144,0.0638 -0.06986,0.1178 -0.06823,0.0958 -0.06852,0.10172 -0.01272,0.25315 0.03142,0.0853 0.122841,0.27853 0.203149,0.42944 0.08031,0.15091 0.136382,0.28998 0.124607,0.30903 -0.01899,0.0307 -0.104223,0.0281 -0.32786,-0.01 -0.05866,-0.01 -0.06633,0.007 -0.06777,0.1541 -8.96e-4,0.091 -0.01852,0.20258 -0.03917,0.24805 -0.02065,0.0455 -0.07598,0.22191 -0.122965,0.39207 -0.09275,0.33594 -0.209961,0.63319 -0.24967,0.63319 -0.01372,0 -0.04348,-0.0223 -0.06612,-0.0496 -0.05923,-0.0714 -0.08607,-0.062 -0.130682,0.0457 -0.09134,0.22051 -0.332339,0.344 -0.332339,0.17028 0,-0.0836 -0.03917,-0.0857 -0.111464,-0.006 -0.04961,0.0548 -0.05016,0.0659 -0.0051,0.10327 0.06795,0.0564 0.0635,0.12059 -0.01746,0.25158 -0.0679,0.10987 -0.0679,0.10987 0.05788,0.18979 0.19201,0.12199 0.247321,0.20117 0.34603,0.49537 0.09088,0.27087 0.09088,0.27087 0.0057,0.3155 -0.09377,0.0491 -0.434936,0.17059 -0.479175,0.17059 -0.01534,0 -0.0279,-0.0298 -0.0279,-0.0661 0,-0.0364 -0.01488,-0.0661 -0.03307,-0.0661 -0.01819,0 -0.03307,0.0213 -0.03307,0.0473 0,0.10493 -0.09627,0.14804 -0.32899,0.14731 -0.228205,-7.2e-4 -0.228205,-7.2e-4 -0.192856,-0.10591 0.01944,-0.0579 0.0499,-0.12379 0.06767,-0.14653 0.02291,-0.0293 0.01698,-0.0413 -0.02033,-0.0413 -0.03358,0 -0.07121,0.0569 -0.103873,0.1571 -0.03876,0.11891 -0.04633,0.12895 -0.03112,0.0413 0.03516,-0.20255 0.03283,-0.21464 -0.04337,-0.22549 -0.07714,-0.011 -0.115829,0.0471 -0.155758,0.23376 -0.0191,0.0893 -0.117236,0.13069 -0.117598,0.0496 -1.03e-4,-0.0227 -0.01568,-0.0972 -0.03463,-0.16537 -0.02478,-0.0892 -0.05257,-0.12402 -0.09903,-0.12402 -0.05546,0 -0.06459,0.0234 -0.06459,0.16536 0,0.16 -0.0171,0.18203 -0.115755,0.14911 z m 1.041796,-0.11604 c 0,-0.0182 -0.01488,-0.0331 -0.03307,-0.0331 -0.01819,0 -0.03307,0.0149 -0.03307,0.0331 0,0.0182 0.01488,0.0331 0.03307,0.0331 0.01819,0 0.03307,-0.0149 0.03307,-0.0331 z m 0.03307,-0.0791 c 0,-0.007 -0.0231,-0.0219 -0.05133,-0.0327 -0.02943,-0.0113 -0.04271,-0.006 -0.03112,0.013 0.01942,0.0314 0.08245,0.0465 0.08245,0.0197 z m -0.745014,-0.56683 c 0.166735,-0.13663 0.244706,-0.28813 0.185194,-0.35984 -0.02646,-0.0319 -0.02774,-0.0534 -0.004,-0.0681 0.05766,-0.0356 0.03912,-0.0783 -0.03974,-0.0916 -0.05328,-0.009 -0.03214,-0.0216 0.07441,-0.0447 0.203463,-0.044 0.202439,-0.12584 -0.0017,-0.13915 -0.111231,-0.007 -0.208227,0.0161 -0.37126,0.0892 -0.192214,0.0862 -0.215492,0.0907 -0.180401,0.0345 0.04423,-0.0708 0.01315,-0.14854 -0.08388,-0.20974 -0.08164,-0.0515 -0.09661,-0.01 -0.0428,0.11882 0.045,0.1077 0.04277,0.12949 -0.03185,0.311 -0.04413,0.10735 -0.07983,0.21007 -0.07932,0.22826 6.98e-4,0.0251 0.226202,0.15499 0.421889,0.24311 0.006,0.003 0.07512,-0.0476 0.153521,-0.11187 z m 1.274181,0.006 c 0,-0.006 -0.03187,-0.0398 -0.07083,-0.0744 -0.07058,-0.0628 -0.07067,-0.0627 -0.02512,0.0114 0.03885,0.0632 0.09595,0.10073 0.09595,0.063 z m -0.810286,-0.25095 c 0.103138,-0.0592 0.105713,-0.0721 0.0644,-0.32211 -0.01621,-0.0981 -0.03599,-0.13292 -0.06841,-0.12048 -0.02508,0.01 -0.0456,0.0372 -0.0456,0.0613 0,0.0241 -0.02978,0.0533 -0.06618,0.0648 -0.08553,0.0272 -0.147392,0.13982 -0.105566,0.19228 0.01735,0.0218 0.01941,0.0687 0.0046,0.10537 -0.01466,0.0364 -0.02771,0.0783 -0.02899,0.0932 -0.003,0.0351 0.119827,-0.002 0.245723,-0.0744 z m -0.942579,-0.29634 c 0,-0.0344 -0.0231,-0.0715 -0.05133,-0.0823 -0.02823,-0.0108 -0.04541,-0.009 -0.03817,0.005 0.0072,0.0134 0.02242,0.0505 0.03375,0.0823 0.02712,0.0762 0.05575,0.0738 0.05575,-0.005 z m 0.720885,-0.19299 c 0.201041,0.0161 0.228253,0.009 0.505671,-0.12972 0.161257,-0.0807 0.334484,-0.18065 0.384947,-0.22206 0.05046,-0.0414 0.175314,-0.0935 0.277443,-0.11566 0.285647,-0.0621 0.403185,-0.2242 0.407155,-0.56145 0.0022,-0.18272 -0.0077,-0.21784 -0.07656,-0.27362 -0.101556,-0.0823 -0.188972,-0.0576 -0.323746,0.0914 -0.06766,0.0748 -0.09988,0.0946 -0.09042,0.0556 0.01905,-0.0787 -0.02945,-0.25139 -0.07485,-0.26653 -0.0194,-0.006 -0.0519,0.0521 -0.07223,0.13014 -0.05611,0.21547 -0.09967,0.25943 -0.07947,0.0802 0.01728,-0.15329 0.01728,-0.15329 -0.135852,-0.15329 -0.141807,0 -0.153129,0.006 -0.153129,0.0838 0,0.15125 -0.08768,0.30897 -0.185389,0.33349 -0.07324,0.0184 -0.105238,0.006 -0.167544,-0.0668 -0.04526,-0.0526 -0.07732,-0.13309 -0.07775,-0.19518 -7.36e-4,-0.10564 -7.36e-4,-0.10564 -0.06876,-0.023 -0.06802,0.0827 -0.06802,0.0827 -0.04824,-0.008 0.01564,-0.0719 0.0076,-0.0914 -0.03873,-0.0933 -0.178542,-0.007 0.267343,-0.10474 0.623101,-0.13643 0.417025,-0.0371 0.417025,-0.0371 0.360648,-0.25511 -0.0902,-0.34874 -0.345903,-0.7959 -0.287158,-0.50218 0.02781,0.13907 -0.03947,0.29627 -0.175978,0.41113 -0.127617,0.10739 -0.15337,0.0959 -0.103796,-0.0463 0.03633,-0.1042 0.03616,-0.10443 -0.03752,-0.0513 -0.123061,0.0887 -0.382713,0.21877 -0.436708,0.21877 -0.03087,0 -0.05071,-0.0298 -0.05071,-0.0761 0,-0.0658 0.02561,-0.0816 0.190169,-0.11686 0.104593,-0.0224 0.240565,-0.0628 0.302161,-0.0896 0.111991,-0.0488 0.111991,-0.0488 0.0942,-0.27046 -0.01389,-0.17299 -0.03332,-0.23424 -0.08848,-0.2789 -0.06402,-0.0519 -0.08342,-0.0528 -0.205843,-0.01 -0.168199,0.0593 -0.192989,0.0595 -0.192989,10e-4 0,-0.0356 -0.04003,-0.0273 -0.168822,0.0348 -0.168821,0.0814 -0.168821,0.0814 -0.304457,0.0143 -0.0843,-0.0417 -0.143411,-0.0545 -0.156178,-0.0339 -0.01286,0.0208 -0.07509,0.009 -0.166495,-0.0321 -0.124531,-0.0557 -0.149886,-0.0583 -0.172739,-0.0175 -0.01473,0.0263 -0.05784,0.0479 -0.09579,0.0479 -0.06624,0 -0.06831,0.0123 -0.05165,0.30592 0.0095,0.16826 0.02883,0.33401 0.04285,0.36832 0.01877,0.0459 0.01319,0.0583 -0.02112,0.0471 -0.07473,-0.0246 -0.19473,-0.22566 -0.216716,-0.36315 -0.02572,-0.16085 -0.05733,-0.16049 -0.10578,0.001 -0.06027,0.20118 -0.04472,0.51924 0.04467,0.91333 0.04531,0.19976 0.08238,0.45709 0.08238,0.57183 0,0.30122 0.07947,0.43987 0.319431,0.55727 0.130653,0.0639 0.192744,0.08 0.201952,0.0524 0.02191,-0.0657 0.137759,-0.0452 0.222382,0.0394 0.10839,0.10839 0.149975,0.11804 0.262849,0.061 0.06898,-0.0349 0.158665,-0.0442 0.309583,-0.032 z m -0.456204,-0.18262 c -5.3e-5,-0.0136 0.08176,-0.0248 0.181804,-0.0248 0.100045,0 0.181904,0.0112 0.181908,0.0248 3e-6,0.0136 -0.08181,0.0248 -0.181804,0.0248 -0.1,0 -0.181854,-0.0112 -0.181908,-0.0248 z m 1.632017,-0.43293 c 0.01226,-0.0343 -0.0021,-0.10123 -0.03294,-0.15343 -0.05207,-0.0881 -0.05114,-0.0983 0.01938,-0.21241 0.08268,-0.13378 0.184255,-0.20503 0.216927,-0.15217 0.01127,0.0182 0.0072,0.0332 -0.009,0.0332 -0.01621,0 -0.02318,0.0781 -0.01548,0.17363 0.01302,0.1615 0.0065,0.18056 -0.09333,0.27285 -0.07606,0.0703 -0.100992,0.0815 -0.08558,0.0384 z m -1.59643,-0.0411 c 0.0016,-0.0385 0.0094,-0.0464 0.01998,-0.02 0.0096,0.0239 0.0084,0.0524 -0.0026,0.0634 -0.01099,0.011 -0.01881,-0.009 -0.01737,-0.0434 z m -0.730578,-0.38585 c -0.03605,-0.0591 -0.06476,-0.13725 -0.06381,-0.17363 0.001,-0.0385 0.02694,-0.004 0.06197,0.0827 0.06093,0.15052 0.114984,0.18852 0.194885,0.13702 0.05506,-0.0355 0.09512,-0.30238 0.04538,-0.30238 -0.01938,0 -0.03994,0.0409 -0.0457,0.0909 -0.01512,0.13138 -0.107006,0.11873 -0.120048,-0.0165 -0.0061,-0.0633 -0.02879,-0.10748 -0.05517,-0.10748 -0.02465,0 -0.06743,-0.009 -0.09509,-0.0193 -0.03933,-0.0151 -0.05271,0.0119 -0.06147,0.12403 -0.01119,0.14331 -0.01119,0.14331 -0.03692,0.011 -0.01415,-0.0728 -0.03979,-0.15813 -0.05699,-0.18972 -0.0172,-0.0316 -0.03127,-0.0645 -0.03127,-0.0733 0,-0.025 0.324812,0.0121 0.580513,0.0663 0.233246,0.0494 0.233246,0.0494 0.236513,0.16469 0.0033,0.11526 0.0033,0.11526 -0.06201,0.0323 -0.0359,-0.0456 -0.09397,-0.083 -0.129027,-0.083 -0.04998,0 -0.06375,0.0234 -0.06375,0.10839 0,0.13275 -0.08055,0.25541 -0.167726,0.25541 -0.03757,0 -0.09227,-0.0451 -0.130293,-0.10749 z m 2.069425,-0.0579 c 0.02711,-0.10205 0.08068,-0.16553 0.08068,-0.0956 0,0.0274 -0.02309,0.0788 -0.05132,0.1141 -0.04932,0.0617 -0.05047,0.061 -0.02936,-0.0185 z m -1.639115,-0.3658 c -0.06367,-0.0335 -0.09785,-0.0617 -0.07597,-0.0626 0.05954,-0.002 0.208262,0.0711 0.208262,0.10294 0,0.0153 -0.0037,0.0262 -0.0083,0.0242 -0.0045,-0.002 -0.06036,-0.031 -0.124024,-0.0646 z m 0.775267,-0.0121 c 0.03531,-0.0286 0.09484,-0.0508 0.132292,-0.0492 0.05464,0.002 0.05064,0.008 -0.02027,0.0295 -0.0486,0.0147 -0.108129,0.0368 -0.132292,0.0492 -0.02416,0.0124 -0.01504,-8.9e-4 0.02027,-0.0295 z m -0.797811,-0.28353 c -0.109329,-0.0546 -0.2265,-0.12996 -0.26038,-0.1674 -0.05845,-0.0646 -0.04989,-0.0638 0.167503,0.0151 0.148211,0.0538 0.236578,0.0711 0.250277,0.0489 0.01165,-0.0188 0.03082,0.014 0.04261,0.0729 0.01179,0.0589 0.01634,0.11227 0.0101,0.1185 -0.0062,0.006 -0.100782,-0.0334 -0.210111,-0.088 z m -0.622778,1.0831 c -0.01177,-0.0409 -0.04448,-0.12541 -0.07269,-0.18773 -0.03757,-0.083 -0.04198,-0.12824 -0.01646,-0.1691 0.02624,-0.042 0.02119,-0.0703 -0.02049,-0.11462 -0.05192,-0.0552 -0.05153,-0.0575 0.0062,-0.0372 0.04706,0.0165 0.0568,0.009 0.04134,-0.0311 -0.01112,-0.029 -0.02022,-0.0663 -0.02022,-0.0831 0,-0.055 -0.09441,-0.0316 -0.111057,0.0275 -0.07327,0.26025 -0.04141,0.48525 0.08546,0.60345 0.09346,0.0871 0.134366,0.084 0.10788,-0.008 z m 1.821052,-0.36994 c 0.05733,-0.0875 0.05394,-0.25424 -0.0056,-0.27375 -0.02279,-0.007 -0.0313,0.0177 -0.02215,0.0656 0.01909,0.0999 -0.07835,0.19454 -0.124764,0.1212 -0.01653,-0.0261 -0.03027,-0.081 -0.03055,-0.1219 -2.98e-4,-0.0439 -0.02087,-0.0744 -0.05012,-0.0744 -0.0581,0 -0.06401,0.0901 -0.01447,0.22041 0.06158,0.16198 0.165401,0.18832 0.247619,0.0628 z m -0.912803,-2.17115 c 0.07808,-0.21415 0.07231,-0.29815 -0.0096,-0.13975 -0.05084,0.0983 -0.107437,0.34093 -0.07953,0.34093 0.0087,0 0.04879,-0.0905 0.08914,-0.20118 z m 0.833084,0.13316 c 0.06136,-0.0534 0.06392,-0.0608 0.01193,-0.0342 -0.112192,0.0574 -0.167156,0.10116 -0.127687,0.10169 0.02072,2.8e-4 0.07281,-0.0301 0.115755,-0.0675 z"
         id="path196" />
      <path
         style="fill:#8f7057;stroke-width:0.0330729"
         d="m 73.289587,150.99838 c -0.258388,-0.0783 -0.496094,-0.17244 -0.496094,-0.19646 0,-0.0641 0.317009,-0.71183 0.367715,-0.75137 0.06479,-0.0505 0.06701,-0.13614 0.01083,-0.41676 -0.01686,-0.0842 -0.114513,-0.13067 -0.150913,-0.0718 -0.04167,0.0674 -0.175923,-0.0842 -0.324363,-0.36632 -0.07287,-0.13849 -0.162673,-0.29646 -0.199561,-0.35103 -0.04837,-0.0716 -0.06713,-0.15326 -0.06729,-0.29306 -2.18e-4,-0.19385 -2.18e-4,-0.19385 -0.116536,-0.17203 -0.06397,0.012 -0.129519,0.0137 -0.145654,0.004 -0.01614,-0.01 -0.001,-0.0927 0.03363,-0.18386 0.03464,-0.0911 0.06297,-0.23064 0.06297,-0.30998 0,-0.14333 -8.64e-4,-0.14438 -0.135763,-0.16595 -0.154132,-0.0246 -0.327258,-0.10521 -0.327258,-0.15229 0,-0.0173 0.05953,-0.0619 0.132292,-0.099 0.07436,-0.0379 0.132292,-0.0916 0.132292,-0.12257 0,-0.0303 0.03172,-0.0888 0.07049,-0.1301 0.07049,-0.075 0.07049,-0.075 -0.06131,-0.23365 -0.149201,-0.17954 -0.221961,-0.30411 -0.193976,-0.3321 0.01045,-0.0104 0.07664,-0.002 0.147076,0.0194 0.07044,0.0211 0.174466,0.0384 0.231167,0.0384 0.09051,0 0.113336,-0.0202 0.186989,-0.16556 0.04614,-0.0911 0.139412,-0.23696 0.207263,-0.32423 0.326244,-0.41959 0.450242,-0.56854 0.473311,-0.56854 0.01383,0 0.03529,0.0462 0.04769,0.10267 0.01982,0.0902 0.03317,0.10041 0.110114,0.084 0.508709,-0.10877 0.85706,-0.19953 0.89785,-0.23394 0.05524,-0.0466 0.859896,-0.0718 0.859896,-0.027 0,0.0142 -0.03853,0.0825 -0.08562,0.15184 -0.04709,0.0693 -0.07899,0.13264 -0.07088,0.14075 0.0081,0.008 0.184302,0.0386 0.391546,0.0678 0.207245,0.0292 0.389741,0.0648 0.405548,0.0792 0.01581,0.0144 -0.03628,0.0589 -0.115755,0.099 -0.07947,0.0401 -0.150635,0.0785 -0.158138,0.0852 -0.0075,0.007 0.07563,0.10541 0.18474,0.21918 0.109111,0.11376 0.216232,0.24033 0.238049,0.28125 0.03091,0.058 0.06861,0.0744 0.170793,0.0744 0.07212,0 0.131128,0.009 0.131128,0.0197 0,0.0108 -0.03144,0.0638 -0.06986,0.1178 -0.06823,0.0958 -0.06852,0.10172 -0.01272,0.25315 0.03142,0.0853 0.122841,0.27853 0.203149,0.42944 0.08031,0.15091 0.136382,0.28998 0.124607,0.30903 -0.01899,0.0307 -0.104223,0.0281 -0.32786,-0.01 -0.05866,-0.01 -0.06633,0.007 -0.06777,0.1541 -8.96e-4,0.091 -0.01852,0.20258 -0.03917,0.24805 -0.02065,0.0455 -0.07598,0.22191 -0.122965,0.39207 -0.09275,0.33594 -0.209961,0.63319 -0.24967,0.63319 -0.01372,0 -0.04348,-0.0223 -0.06612,-0.0496 -0.05923,-0.0714 -0.08607,-0.062 -0.130682,0.0457 -0.09134,0.22051 -0.332339,0.344 -0.332339,0.17028 0,-0.0836 -0.03917,-0.0857 -0.111464,-0.006 -0.04961,0.0548 -0.05016,0.0659 -0.0051,0.10327 0.06795,0.0564 0.0635,0.12059 -0.01746,0.25158 -0.0679,0.10987 -0.0679,0.10987 0.05788,0.18979 0.191937,0.12195 0.247319,0.20117 0.345784,0.49464 0.08626,0.2571 0.08465,0.31859 -0.0084,0.32095 -0.01097,2.6e-4 -0.06077,-0.12498 -0.110659,-0.27836 -0.04989,-0.15337 -0.120696,-0.30592 -0.15734,-0.339 -0.0621,-0.056 -0.06166,-0.0517 0.0065,0.064 0.09972,0.16926 0.206359,0.58642 0.154669,0.60503 -0.372389,0.13405 -0.385848,0.13573 -0.385848,0.0481 0,-0.0364 -0.01488,-0.0661 -0.03307,-0.0661 -0.01819,0 -0.03307,0.0213 -0.03307,0.0473 0,0.10493 -0.09627,0.14804 -0.32899,0.14731 -0.228205,-7.2e-4 -0.228205,-7.2e-4 -0.192856,-0.10591 0.01944,-0.0579 0.0499,-0.12379 0.06767,-0.14653 0.02291,-0.0293 0.01698,-0.0413 -0.02033,-0.0413 -0.03358,0 -0.07121,0.0569 -0.103873,0.1571 -0.03876,0.11891 -0.04633,0.12895 -0.03112,0.0413 0.03516,-0.20255 0.03283,-0.21464 -0.04337,-0.22549 -0.07714,-0.011 -0.115829,0.0471 -0.155758,0.23376 -0.0191,0.0893 -0.117236,0.13069 -0.117598,0.0496 -1.03e-4,-0.0227 -0.01568,-0.0972 -0.03463,-0.16537 -0.02478,-0.0892 -0.05257,-0.12402 -0.09903,-0.12402 -0.05546,0 -0.06459,0.0234 -0.06459,0.16536 0,0.19201 0.0091,0.18963 -0.330729,0.0867 z m 1.25677,-0.0536 c 0,-0.0182 -0.01488,-0.0331 -0.03307,-0.0331 -0.01819,0 -0.03307,0.0149 -0.03307,0.0331 0,0.0182 0.01488,0.0331 0.03307,0.0331 0.01819,0 0.03307,-0.0149 0.03307,-0.0331 z m -1.45959,-0.1819 c 0.03756,-0.0637 0.0543,-0.11575 0.03719,-0.11575 -0.02791,0 -0.132026,0.16822 -0.132026,0.21333 0,0.0426 0.03087,0.0108 0.09484,-0.0976 z m 1.492663,0.10276 c 0,-0.007 -0.0231,-0.0219 -0.05133,-0.0327 -0.02943,-0.0113 -0.04271,-0.006 -0.03112,0.013 0.01942,0.0314 0.08245,0.0465 0.08245,0.0197 z m 0.222822,-0.17208 c -0.0077,-0.008 -0.153365,-0.0444 -0.323658,-0.0816 -0.309624,-0.0676 -0.309624,-0.0676 -0.367344,0.009 -0.0684,0.0903 -0.08659,0.0821 0.341928,0.15406 0.331997,0.0558 0.341522,0.0556 0.352167,-0.005 0.006,-0.0342 0.0046,-0.0685 -0.0031,-0.0762 z m -1.182608,-0.0451 c 0.120811,-0.23681 0.05824,-0.28586 -0.07559,-0.0593 -0.05882,0.0996 -0.07183,0.1476 -0.0447,0.16486 0.02105,0.0134 0.04169,0.0246 0.04587,0.0249 0.0042,2.7e-4 0.03766,-0.0584 0.07441,-0.13046 z m -0.11531,-0.0866 c 0.04881,-0.0833 0.08371,-0.15581 0.07756,-0.16116 -0.0364,-0.0317 -0.234438,-0.12011 -0.245102,-0.10944 -0.007,0.007 -0.05027,0.0833 -0.09608,0.16942 -0.08328,0.15663 -0.08328,0.15663 0.02414,0.20332 0.147539,0.0641 0.14021,0.0673 0.239485,-0.10214 z m 0.2152,0.11835 c 0,-0.0182 -0.01488,-0.0331 -0.03307,-0.0331 -0.01819,0 -0.03307,0.0149 -0.03307,0.0331 0,0.0182 0.01488,0.0331 0.03307,0.0331 0.01819,0 0.03307,-0.0149 0.03307,-0.0331 z M 73.204077,150.428 c 0.04703,-0.0841 0.08551,-0.15683 0.08551,-0.16151 0,-0.005 -0.03013,-0.0164 -0.06695,-0.026 -0.08995,-0.0235 -0.224238,0.21901 -0.162472,0.29343 0.02149,0.0259 0.04343,0.0471 0.04874,0.0471 0.0053,0 0.04814,-0.0688 0.09517,-0.15299 z m 0.630339,-0.12918 c 0.166735,-0.13663 0.244706,-0.28813 0.185194,-0.35984 -0.02646,-0.0319 -0.02774,-0.0534 -0.004,-0.0681 0.05766,-0.0356 0.03912,-0.0783 -0.03974,-0.0916 -0.05328,-0.009 -0.03214,-0.0216 0.07441,-0.0447 0.203463,-0.044 0.202439,-0.12584 -0.0017,-0.13915 -0.11217,-0.007 -0.209166,0.0164 -0.380339,0.093 -0.126373,0.0566 -0.211166,0.0841 -0.188428,0.0611 0.05656,-0.0571 0.05184,-0.12748 -0.01339,-0.19956 -0.07202,-0.0796 -0.15972,-0.0814 -0.126027,-0.003 0.05621,0.13144 0.05086,0.24296 -0.02113,0.4404 -0.0596,0.16346 -0.06652,0.21151 -0.03212,0.22298 0.02412,0.008 0.120125,0.0561 0.213345,0.10682 0.09322,0.0507 0.174428,0.0935 0.180461,0.0951 0.006,0.002 0.07512,-0.0497 0.153521,-0.11393 z m 0.419391,-0.21927 c 0.158394,-0.0681 0.165207,-0.0763 0.145121,-0.17363 -0.01159,-0.0562 -0.02932,-0.14947 -0.03939,-0.20731 -0.01259,-0.0723 -0.03276,-0.0996 -0.06458,-0.0874 -0.02544,0.01 -0.04626,0.0361 -0.04626,0.0585 0,0.0224 -0.03721,0.0577 -0.08268,0.0784 -0.04548,0.0207 -0.08407,0.0492 -0.08578,0.0632 -0.01038,0.0856 -0.0133,0.3397 -0.0039,0.3397 0.0062,0 0.08606,-0.0322 0.177472,-0.0715 z m 0.511348,-0.30182 c 0.15238,-0.19256 0.101672,-0.25951 -0.08047,-0.10624 -0.09549,0.0803 -0.228821,0.11576 -0.188167,0.05 0.01166,-0.0189 -0.0019,-0.0242 -0.03196,-0.0127 -0.03801,0.0146 -0.0427,0.0314 -0.01727,0.0621 0.02109,0.0254 0.02582,0.0988 0.01195,0.18555 -0.02295,0.14349 -0.02295,0.14349 0.08767,0.0504 0.06084,-0.0512 0.159053,-0.15429 0.218259,-0.22911 z m -1.409423,-0.02 c 0,-0.0344 -0.0231,-0.0715 -0.05133,-0.0823 -0.02823,-0.0108 -0.04541,-0.009 -0.03817,0.005 0.0072,0.0134 0.02242,0.0505 0.03375,0.0823 0.02712,0.0762 0.05575,0.0738 0.05575,-0.005 z m 0.720885,-0.19299 c 0.201041,0.0161 0.228253,0.009 0.505671,-0.12972 0.161257,-0.0807 0.334484,-0.18065 0.384947,-0.22206 0.05046,-0.0414 0.175314,-0.0935 0.277443,-0.11566 0.285647,-0.0621 0.403185,-0.2242 0.407155,-0.56145 0.0022,-0.18272 -0.0077,-0.21784 -0.07656,-0.27362 -0.101556,-0.0823 -0.188972,-0.0576 -0.323746,0.0914 -0.06766,0.0748 -0.09988,0.0946 -0.09042,0.0556 0.01905,-0.0787 -0.02945,-0.25139 -0.07485,-0.26653 -0.0194,-0.006 -0.0519,0.0521 -0.07223,0.13014 -0.05611,0.21547 -0.09967,0.25943 -0.07947,0.0802 0.01728,-0.15329 0.01728,-0.15329 -0.135852,-0.15329 -0.141807,0 -0.153129,0.006 -0.153129,0.0838 0,0.15125 -0.08768,0.30897 -0.185389,0.33349 -0.07324,0.0184 -0.105238,0.006 -0.167544,-0.0668 -0.04526,-0.0526 -0.07732,-0.13309 -0.07775,-0.19518 -7.36e-4,-0.10564 -7.36e-4,-0.10564 -0.06876,-0.023 -0.06802,0.0827 -0.06802,0.0827 -0.04824,-0.008 0.01332,-0.0613 0.0061,-0.0918 -0.02219,-0.0936 -0.02308,-0.001 0.007,-0.0241 0.06685,-0.0503 0.05985,-0.0262 0.299605,-0.0645 0.53278,-0.0853 0.423956,-0.0377 0.423956,-0.0377 0.367579,-0.25567 -0.0902,-0.34874 -0.345903,-0.7959 -0.287158,-0.50218 0.02781,0.13907 -0.03947,0.29627 -0.175978,0.41113 -0.127617,0.10739 -0.15337,0.0959 -0.103796,-0.0463 0.03633,-0.1042 0.03616,-0.10443 -0.03752,-0.0513 -0.123061,0.0887 -0.382713,0.21877 -0.436708,0.21877 -0.03087,0 -0.05071,-0.0298 -0.05071,-0.0761 0,-0.0658 0.02561,-0.0816 0.190169,-0.11686 0.104593,-0.0224 0.240565,-0.0628 0.302161,-0.0896 0.111991,-0.0488 0.111991,-0.0488 0.0942,-0.27046 -0.01389,-0.17299 -0.03332,-0.23424 -0.08848,-0.2789 -0.06402,-0.0519 -0.08342,-0.0528 -0.205843,-0.01 -0.168199,0.0593 -0.192989,0.0595 -0.192989,0.001 0,-0.0356 -0.04003,-0.0273 -0.168822,0.0348 -0.168821,0.0814 -0.168821,0.0814 -0.304457,0.0143 -0.0843,-0.0417 -0.143411,-0.0545 -0.156178,-0.0339 -0.01286,0.0208 -0.07509,0.009 -0.166495,-0.0321 -0.124531,-0.0557 -0.149886,-0.0583 -0.172739,-0.0175 -0.01473,0.0263 -0.05784,0.0479 -0.09579,0.0479 -0.06624,0 -0.06831,0.0123 -0.05165,0.30592 0.0095,0.16826 0.02883,0.33401 0.04285,0.36832 0.01877,0.0459 0.01319,0.0583 -0.02112,0.0471 -0.07473,-0.0246 -0.19473,-0.22566 -0.216716,-0.36315 -0.02572,-0.16085 -0.05733,-0.16049 -0.10578,0.001 -0.06027,0.20118 -0.04472,0.51924 0.04467,0.91333 0.04531,0.19976 0.08238,0.45709 0.08238,0.57183 0,0.30122 0.07947,0.43987 0.319431,0.55727 0.130653,0.0639 0.192744,0.08 0.201952,0.0524 0.02191,-0.0657 0.137759,-0.0452 0.222382,0.0394 0.10839,0.10839 0.149975,0.11804 0.262849,0.061 0.06898,-0.0349 0.158665,-0.0442 0.309583,-0.032 z m -0.456204,-0.18262 c -5.3e-5,-0.0136 0.08176,-0.0248 0.181804,-0.0248 0.100045,0 0.181904,0.0112 0.181908,0.0248 3e-6,0.0136 -0.08181,0.0248 -0.181804,0.0248 -0.1,0 -0.181854,-0.0112 -0.181908,-0.0248 z m 1.633624,-0.44408 c 0.01113,-0.0351 -0.0017,-0.0927 -0.02848,-0.12816 -0.02679,-0.0354 -0.04919,-0.0825 -0.04976,-0.1046 -0.0014,-0.0538 0.194239,-0.2743 0.242152,-0.27291 0.02085,6.1e-4 0.007,0.0269 -0.03073,0.0585 -0.03776,0.0316 -0.0939,0.096 -0.124769,0.14306 -0.05007,0.0764 -0.05069,0.0902 -0.0058,0.12744 0.05851,0.0486 0.06711,0.1848 0.01374,0.21779 -0.02408,0.0149 -0.02969,8e-4 -0.01638,-0.0411 z m -2.328615,-0.41582 c -0.03605,-0.0591 -0.06476,-0.13725 -0.06381,-0.17363 0.001,-0.0385 0.02694,-0.004 0.06197,0.0827 0.06093,0.15052 0.114984,0.18852 0.194885,0.13702 0.05506,-0.0355 0.09512,-0.30238 0.04538,-0.30238 -0.01938,0 -0.03994,0.0409 -0.0457,0.0909 -0.01512,0.13138 -0.107006,0.11873 -0.120048,-0.0165 -0.0061,-0.0633 -0.02879,-0.10748 -0.05517,-0.10748 -0.02465,0 -0.06743,-0.009 -0.09509,-0.0193 -0.03933,-0.0151 -0.05271,0.0119 -0.06147,0.12403 -0.01119,0.14331 -0.01119,0.14331 -0.03692,0.011 -0.01415,-0.0728 -0.03979,-0.15813 -0.05699,-0.18972 -0.0172,-0.0316 -0.03127,-0.0645 -0.03127,-0.0733 0,-0.0399 0.659248,0.0612 0.765962,0.11741 0.03496,0.0184 0.04845,0.0536 0.03714,0.0968 -0.01614,0.0617 -0.02289,0.0633 -0.07404,0.017 -0.09739,-0.0881 -0.166825,-0.0642 -0.166825,0.0575 0,0.13275 -0.08055,0.25541 -0.167726,0.25541 -0.03757,0 -0.09227,-0.0451 -0.130293,-0.10749 z m 2.06742,-0.0579 c 0.01318,-0.0455 0.03885,-0.0976 0.05704,-0.11576 0.02205,-0.0221 0.02508,-0.006 0.0091,0.0496 -0.01318,0.0455 -0.03885,0.0976 -0.05704,0.11576 -0.02205,0.022 -0.02508,0.006 -0.0091,-0.0496 z m -1.63711,-0.3658 c -0.06367,-0.0335 -0.09136,-0.0617 -0.06154,-0.0626 0.02982,-8.8e-4 0.08935,0.0277 0.132292,0.0635 0.09476,0.0789 0.08046,0.0788 -0.07075,-8.9e-4 z m 0.775267,-0.0121 c 0.03531,-0.0286 0.09484,-0.0508 0.132292,-0.0492 0.05464,0.002 0.05064,0.008 -0.02027,0.0295 -0.0486,0.0147 -0.108129,0.0368 -0.132292,0.0492 -0.02416,0.0124 -0.01504,-8.9e-4 0.02027,-0.0295 z m -0.797811,-0.28353 c -0.109329,-0.0546 -0.2265,-0.12996 -0.26038,-0.1674 -0.05845,-0.0646 -0.04989,-0.0638 0.167503,0.0151 0.148211,0.0538 0.236578,0.0711 0.250277,0.0489 0.01165,-0.0188 0.03082,0.014 0.04261,0.0729 0.01179,0.0589 0.01634,0.11227 0.0101,0.1185 -0.0062,0.006 -0.100782,-0.0334 -0.210111,-0.088 z m -0.631265,0.9508 c -0.0088,-0.13954 -0.03535,-0.23803 -0.08156,-0.30312 -0.06022,-0.0848 -0.06144,-0.0937 -0.01012,-0.074 0.0442,0.017 0.05343,0.01 0.03811,-0.0303 -0.01112,-0.029 -0.02022,-0.0663 -0.02022,-0.0831 0,-0.055 -0.09441,-0.0316 -0.111057,0.0275 -0.04876,0.17319 -0.05466,0.281 -0.02202,0.40224 0.03221,0.11961 0.142386,0.26749 0.199297,0.26749 0.01137,0 0.01478,-0.093 0.0076,-0.20671 z m 1.829539,-0.23764 c 0.05733,-0.0875 0.05394,-0.25424 -0.0056,-0.27375 -0.02279,-0.007 -0.0313,0.0177 -0.02215,0.0656 0.01909,0.0999 -0.07835,0.19454 -0.124764,0.1212 -0.01653,-0.0261 -0.03027,-0.081 -0.03055,-0.1219 -2.98e-4,-0.0439 -0.02087,-0.0744 -0.05012,-0.0744 -0.0581,0 -0.06401,0.0901 -0.01447,0.22041 0.06158,0.16198 0.165401,0.18832 0.247619,0.0628 z m -0.912803,-2.17115 c 0.07808,-0.21415 0.07231,-0.29815 -0.0096,-0.13975 -0.05084,0.0983 -0.107437,0.34093 -0.07953,0.34093 0.0087,0 0.04879,-0.0905 0.08914,-0.20118 z m 0.833084,0.13316 c 0.06136,-0.0534 0.06392,-0.0608 0.01193,-0.0342 -0.112192,0.0574 -0.167156,0.10116 -0.127687,0.10169 0.02072,2.8e-4 0.07281,-0.0301 0.115755,-0.0675 z"
         id="path194" />
      <path
         style="fill:#5a5858;stroke-width:0.0330729"
         d="m 73.324064,151.00887 c -0.135654,-0.0355 -0.260267,-0.0782 -0.276918,-0.0949 -0.01832,-0.0183 -0.0025,-0.0692 0.03994,-0.12888 0.03862,-0.0542 0.07021,-0.11444 0.07021,-0.1338 0,-0.0697 -0.08949,0.001 -0.142861,0.11301 -0.05989,0.12559 -0.08111,0.13475 -0.166898,0.072 -0.05387,-0.0394 -0.04866,-0.0619 0.07636,-0.33001 0.0738,-0.15826 0.134179,-0.30365 0.134179,-0.32311 0,-0.0194 0.03659,-0.0693 0.08131,-0.11072 0.0757,-0.0702 0.07969,-0.0898 0.05788,-0.28429 -0.01643,-0.14649 -0.04101,-0.21987 -0.08225,-0.24552 -0.04539,-0.0282 -0.06576,-0.0255 -0.08921,0.0121 -0.0467,0.0749 -0.171583,-0.0606 -0.331022,-0.35918 -0.07396,-0.13849 -0.163859,-0.30366 -0.19978,-0.36705 -0.04273,-0.0754 -0.06531,-0.17695 -0.06531,-0.29371 0,-0.17848 0,-0.17848 -0.117484,-0.15941 -0.144697,0.0235 -0.167589,-0.0194 -0.09853,-0.18473 0.02786,-0.0667 0.05065,-0.1942 0.05065,-0.28341 0,-0.1622 0,-0.1622 -0.135763,-0.18391 -0.146465,-0.0234 -0.327258,-0.10454 -0.327258,-0.14684 0,-0.0144 0.05172,-0.0508 0.114922,-0.0809 0.0743,-0.0354 0.132225,-0.0962 0.163871,-0.17195 0.02692,-0.0644 0.07148,-0.1258 0.09901,-0.13637 0.03891,-0.0149 0.01406,-0.0637 -0.111573,-0.21897 -0.0889,-0.10987 -0.169298,-0.22907 -0.178664,-0.26488 -0.0147,-0.0562 -0.0049,-0.0622 0.07173,-0.0438 0.04881,0.0117 0.158292,0.03 0.243284,0.0405 0.154532,0.0191 0.154532,0.0191 0.237224,-0.14194 0.104705,-0.20393 0.612846,-0.87185 0.683704,-0.89869 0.01455,-0.006 0.03644,0.0354 0.04863,0.0909 0.0254,0.11563 0.03533,0.11745 0.281504,0.0514 0.100046,-0.0269 0.271198,-0.0645 0.380339,-0.0836 0.229727,-0.0402 0.380338,-0.0938 0.380338,-0.13539 0,-0.016 0.04465,-0.0291 0.09922,-0.0291 0.05457,0 0.09922,0.0145 0.09922,0.0323 0,0.021 0.02971,0.021 0.08483,0 0.09651,-0.0367 0.54355,-0.0443 0.54355,-0.009 0,0.0127 -0.03942,0.0799 -0.08759,0.14942 -0.04818,0.0695 -0.07947,0.13453 -0.06953,0.14447 0.0099,0.01 0.172137,0.04 0.360447,0.0667 0.18831,0.0268 0.372148,0.0608 0.408528,0.0757 0.0582,0.0237 0.04827,0.036 -0.08268,0.10211 -0.08186,0.0413 -0.154968,0.0807 -0.162471,0.0875 -0.0075,0.007 0.07563,0.10541 0.18474,0.21918 0.109111,0.11376 0.216232,0.24033 0.238049,0.28125 0.03091,0.058 0.06861,0.0744 0.170793,0.0744 0.07212,0 0.131128,0.008 0.131128,0.0179 0,0.01 -0.03205,0.0612 -0.07123,0.11422 -0.07017,0.0949 -0.07035,0.0987 -0.01262,0.25497 0.03223,0.0873 0.12374,0.28296 0.203354,0.43492 0.07961,0.15195 0.135643,0.29101 0.124509,0.30903 -0.01792,0.029 -0.105671,0.0258 -0.326694,-0.0118 -0.05915,-0.0101 -0.06581,0.006 -0.063,0.1541 0.0017,0.091 -0.0077,0.17281 -0.02105,0.18191 -0.01331,0.009 -0.06182,0.15792 -0.107817,0.33072 -0.0844,0.31711 -0.195845,0.63737 -0.252745,0.72629 -0.02636,0.0412 -0.04163,0.0388 -0.103899,-0.0165 -0.05458,-0.0485 -0.0768,-0.0539 -0.08807,-0.0216 -0.0083,0.0238 -0.06269,0.10561 -0.120875,0.1819 -0.118132,0.15488 -0.228323,0.18376 -0.245291,0.0643 -0.01295,-0.0912 -0.09066,-0.0972 -0.13703,-0.0106 -0.02558,0.0478 -0.02172,0.0763 0.01537,0.11339 0.06651,0.0665 0.06263,0.10798 -0.02308,0.24665 -0.04692,0.0759 -0.05939,0.12191 -0.03522,0.12996 0.02057,0.007 0.09919,0.0572 0.17471,0.11194 0.141798,0.10272 0.217167,0.23661 0.307961,0.54708 0.04513,0.15434 0.04496,0.17301 -0.0018,0.19095 -0.06502,0.025 -0.05703,0.0376 -0.124003,-0.19566 -0.06673,-0.23238 -0.170875,-0.44748 -0.216657,-0.44748 -0.04465,0 -0.0416,0.0135 0.03133,0.13867 0.05273,0.0905 0.167778,0.45908 0.167778,0.53752 0,0.0214 -0.147244,0.089 -0.286721,0.13151 -0.05433,0.0166 -0.07695,0.006 -0.09318,-0.0456 -0.02869,-0.0904 -0.07147,-0.0854 -0.09571,0.0112 -0.02741,0.10919 -0.291512,0.17204 -0.32931,0.0784 -0.01335,-0.0331 -0.0172,-0.0331 -0.01929,0 -0.0015,0.0233 -0.04599,0.0413 -0.102274,0.0413 -0.09966,0 -0.09966,0 -0.04833,-0.12287 0.02823,-0.0676 0.06936,-0.13432 0.09139,-0.14832 0.05118,-0.0325 0.217037,-0.0336 0.170965,-0.001 -0.01895,0.0134 -0.02608,0.069 -0.01583,0.12352 0.013,0.0693 0.0269,0.0861 0.04604,0.0557 0.01508,-0.0239 0.01919,-0.0518 0.0091,-0.0618 -0.04689,-0.0469 0.083,-0.11373 0.179736,-0.0925 0.09606,0.0211 0.100927,0.0173 0.09073,-0.0707 -0.0103,-0.0889 -0.02405,-0.0957 -0.31656,-0.15725 -0.295454,-0.0621 -0.308028,-0.0623 -0.37207,-0.004 -0.08163,0.0739 -0.08451,0.11484 -0.0084,0.11918 0.03615,0.002 0.02684,0.0117 -0.0248,0.0258 -0.06278,0.0171 -0.09404,0.0601 -0.129855,0.1786 -0.04509,0.14925 -0.134729,0.21655 -0.134729,0.10116 0,-0.0803 -0.107427,-0.40805 -0.133745,-0.40805 -0.01235,0 -0.01533,-0.0372 -0.0066,-0.0827 0.01121,-0.0587 0.0013,-0.0827 -0.03412,-0.0827 -0.02746,0 -0.05841,-0.0221 -0.06878,-0.0491 -0.0154,-0.0401 -0.0078,-0.0422 0.0418,-0.0112 0.07002,0.0437 0.202544,-0.0346 0.345122,-0.20408 0.04962,-0.059 0.08807,-0.0822 0.09609,-0.0581 0.0153,0.0459 0.263122,-0.0527 0.349465,-0.13904 0.04507,-0.0451 0.04796,-0.0409 0.0276,0.0403 -0.01252,0.0499 -0.009,0.0906 0.0079,0.0906 0.01683,0 0.1294,-0.10671 0.250148,-0.23712 0.194511,-0.21009 0.213923,-0.24275 0.170255,-0.28642 -0.04367,-0.0437 -0.06244,-0.0392 -0.164629,0.0387 -0.132219,0.10085 -0.185902,0.11083 -0.185902,0.0346 0,-0.049 -0.0069,-0.0489 -0.08268,7.7e-4 -0.0788,0.0516 -0.08268,0.051 -0.08268,-0.0127 0,-0.0908 -0.04722,-0.0842 -0.112714,0.0158 -0.0298,0.0455 -0.07616,0.0827 -0.103023,0.0827 -0.02687,0 -0.04885,0.0215 -0.04885,0.0477 0,0.0262 -0.01273,0.0555 -0.0283,0.0651 -0.01556,0.01 -0.02143,-0.0184 -0.01303,-0.0624 0.0096,-0.0502 0.04163,-0.0836 0.08617,-0.0899 0.039,-0.006 0.07091,-0.0324 0.07091,-0.0597 0,-0.03 0.07244,-0.0764 0.18296,-0.11725 0.168636,-0.0623 0.543149,-0.26841 0.660399,-0.36336 0.02729,-0.0221 0.109141,-0.0509 0.181901,-0.0639 0.297781,-0.0535 0.425807,-0.22325 0.428413,-0.5681 0.0012,-0.15483 -0.01345,-0.21972 -0.06147,-0.27285 -0.09007,-0.0997 -0.205525,-0.0876 -0.315695,0.0331 -0.09385,0.10275 -0.09385,0.10275 -0.116798,-0.0331 -0.03219,-0.19056 -0.149425,-0.17022 -0.149425,0.0259 0,0.0314 -0.01909,0.0832 -0.04241,0.11513 -0.03655,0.05 -0.04064,0.0394 -0.0296,-0.0764 0.01281,-0.13437 0.01281,-0.13437 -0.139488,-0.13437 -0.143591,0 -0.152422,0.005 -0.154398,0.091 -0.002,0.0874 -0.0033,0.0881 -0.03201,0.0165 -0.0364,-0.0906 -0.14522,-0.10435 -0.116799,-0.0148 0.01041,0.0328 -0.0015,0.0876 -0.02649,0.12171 -0.04385,0.06 -0.04679,0.0595 -0.08538,-0.0126 -0.02199,-0.0411 -0.03185,-0.0959 -0.02193,-0.12172 0.03068,-0.0799 -0.10782,-0.0544 -0.198922,0.0367 -0.07838,0.0784 -0.08229,0.0792 -0.0611,0.0124 0.01399,-0.0441 0.0065,-0.0813 -0.01965,-0.0975 -0.02792,-0.0173 0.0018,-0.0378 0.08741,-0.0605 0.168049,-0.0446 0.834165,-0.11149 0.872709,-0.0877 0.05984,0.037 0.06121,-0.04 0.0044,-0.24865 -0.06011,-0.2209 -0.208144,-0.54054 -0.267264,-0.57708 -0.02122,-0.0131 -0.0337,0.0423 -0.0337,0.1498 0,0.14994 -0.01363,0.18425 -0.112448,0.28307 -0.154437,0.15444 -0.188177,0.14382 -0.132362,-0.0416 0.02551,-0.0847 0.04637,-0.20939 0.04637,-0.27698 0,-0.33534 -0.09199,-0.43038 -0.333949,-0.34501 -0.167824,0.0592 -0.162144,0.0592 -0.162144,3.9e-4 0,-0.038 -0.03621,-0.0313 -0.172578,0.0319 -0.172579,0.08 -0.172579,0.08 -0.314193,8.1e-4 -0.107919,-0.0603 -0.141615,-0.0679 -0.141615,-0.0319 0,0.0593 0.0059,0.06 -0.148828,-0.0189 -0.13867,-0.0707 -0.231504,-0.0866 -0.199037,-0.0341 0.01091,0.0177 -0.01797,0.0416 -0.06419,0.0532 -0.08083,0.0203 -0.08404,0.0307 -0.08404,0.27404 0,0.13912 0.01384,0.30122 0.03077,0.36022 0.01692,0.059 0.01923,0.10726 0.0051,0.10726 -0.072,0 -0.234328,-0.30063 -0.234328,-0.43398 0,-0.10362 -0.05853,-0.0696 -0.100839,0.0586 -0.03653,0.11067 -0.02951,0.63212 0.01106,0.82191 0.0078,0.0364 0.0077,0.0475 -7.6e-5,0.0248 -0.01917,-0.0557 -0.05853,-0.052 -0.110324,0.0104 -0.02531,0.0305 -0.04393,0.14473 -0.04539,0.27846 -0.0027,0.25087 0.07234,0.40444 0.207546,0.42454 0.05257,0.008 0.0711,0.0338 0.0711,0.0998 0,0.14636 0.141716,0.31779 0.329488,0.39857 0.09272,0.0399 0.181816,0.0643 0.197998,0.0543 0.01618,-0.01 0.04702,0.0351 0.06853,0.10031 0.03353,0.10159 0.02855,0.1513 -0.03489,0.3486 -0.04069,0.12656 -0.06825,0.23513 -0.06124,0.24125 0.007,0.006 0.0574,0.036 0.111967,0.0663 0.06726,0.0374 0.07575,0.0489 0.02636,0.0357 -0.06011,-0.0161 -0.08482,0.004 -0.141232,0.11454 -0.03761,0.0737 -0.07582,0.13403 -0.08491,0.13403 -0.0091,0 0.01409,-0.06 0.05153,-0.13343 0.07016,-0.13752 0.06423,-0.1973 -0.01955,-0.1973 -0.05376,0 -0.17992,0.1876 -0.177939,0.26458 0.0016,0.0607 0.205354,0.19517 0.334957,0.22109 0.05216,0.0104 0.102854,0.0319 0.112644,0.0478 0.03081,0.0499 0.101804,0.0314 0.132865,-0.0346 0.02553,-0.0542 0.03604,-0.0566 0.0725,-0.0165 0.03514,0.0386 0.03368,0.0469 -0.0083,0.0469 -0.03905,0 -0.05091,0.0385 -0.05091,0.16536 0,0.0909 -0.01116,0.16455 -0.02481,0.16355 -0.01364,-0.001 -0.135794,-0.0309 -0.271447,-0.0664 z m 0.03167,-1.25275 c 0,-0.0605 -0.0552,-0.12314 -0.08357,-0.0948 -0.02272,0.0227 0.02387,0.15897 0.05436,0.15897 0.01607,0 0.02922,-0.0289 0.02922,-0.0642 z m 0.311323,-3.51186 c 0.05979,-0.11986 0.06552,-0.16118 0.02236,-0.16118 -0.04487,0 -0.168315,0.27249 -0.168315,0.37153 0,0.0473 0.01073,0.11334 0.02385,0.14666 0.01716,0.0436 0.03028,0.0168 0.04674,-0.0956 0.01259,-0.0859 0.0465,-0.20353 0.07536,-0.26139 z m 0.767912,0.26607 c 0.103181,-0.0638 0.146526,-0.1296 0.08534,-0.1296 -0.03711,0 -0.261143,0.19547 -0.225897,0.1971 0.01604,7.3e-4 0.07929,-0.0296 0.14056,-0.0675 z m -0.61672,-0.12328 c 2.78e-4,-0.0238 -0.01438,-0.0341 -0.03257,-0.0228 -0.01819,0.0112 -0.03284,0.053 -0.03257,0.0929 4.12e-4,0.0589 0.0065,0.0632 0.03257,0.0229 0.01763,-0.0273 0.03229,-0.0691 0.03257,-0.0929 z m -0.702128,-0.14688 c -0.0075,-0.0227 -0.04966,-0.0455 -0.09371,-0.0506 -0.07756,-0.009 -0.07806,-0.008 -0.01589,0.0413 0.07774,0.0613 0.128126,0.0655 0.109599,0.009 z m 1.002901,4.78455 c 0.0016,-0.0385 0.0094,-0.0464 0.01998,-0.02 0.0096,0.0239 0.0084,0.0524 -0.0026,0.0634 -0.01099,0.011 -0.01881,-0.009 -0.01737,-0.0434 z m 0.04618,-0.14607 c 0.009,-0.0455 0.01665,-0.0939 0.0169,-0.10749 2.48e-4,-0.0136 0.03394,-0.0231 0.07487,-0.021 0.05264,0.003 0.05809,0.008 0.01862,0.0186 -0.03069,0.008 -0.07178,0.0547 -0.09132,0.10365 -0.03391,0.0849 -0.03477,0.0852 -0.01907,0.006 z m -0.123827,-0.89032 c -0.01439,-0.055 -0.01008,-0.0679 0.01446,-0.0434 0.01922,0.0192 0.02844,0.0545 0.02048,0.0783 -0.0083,0.0248 -0.02325,0.01 -0.03494,-0.0349 z m 0.359463,-0.12171 c -0.01177,-0.0307 -0.01396,-0.0632 -0.0049,-0.0723 0.0091,-0.009 0.02617,0.009 0.03794,0.0392 0.01177,0.0307 0.01396,0.0632 0.0049,0.0723 -0.0091,0.009 -0.02617,-0.009 -0.03794,-0.0392 z m -0.867927,-0.19888 c -0.0042,-0.069 0.003,-0.0734 0.06615,-0.0406 0.03898,0.0203 0.07465,0.0398 0.07928,0.0435 0.0046,0.004 -0.02514,0.022 -0.06615,0.0406 -0.0654,0.0298 -0.07513,0.0245 -0.07928,-0.0435 z m 0.39333,-0.10173 c 0.03183,-0.008 0.08392,-0.008 0.115755,0 0.03183,0.008 0.0058,0.0151 -0.05788,0.0151 -0.06367,0 -0.08971,-0.007 -0.05788,-0.0151 z m -0.181515,-0.19903 c 0.04114,-0.008 0.100671,-0.008 0.132291,6.6e-4 0.03162,0.008 -0.002,0.0147 -0.0748,0.0144 -0.07276,-3.7e-4 -0.09863,-0.007 -0.05749,-0.015 z m 1.487895,-0.55658 c -0.0826,-0.11046 -0.07187,-0.14128 0.01204,-0.0346 0.03845,0.0489 0.0645,0.0941 0.05788,0.10044 -0.0066,0.006 -0.03808,-0.0233 -0.06992,-0.0658 z m -2.276386,-0.23859 c -0.03726,-0.0492 -0.03688,-0.0517 0.0026,-0.0165 0.06592,0.0588 0.156427,0.0511 0.195847,-0.0165 0.01854,-0.0318 0.03416,-0.0422 0.03472,-0.0231 0.0032,0.10905 -0.162856,0.14909 -0.233128,0.0562 z m 1.490253,0.0154 c 0.04512,-0.0228 0.100708,-0.0784 0.123536,-0.12354 0.02547,-0.0503 0.04169,-0.0619 0.04199,-0.0299 5.95e-4,0.0638 -0.134883,0.19611 -0.200082,0.19544 -0.02611,-2.6e-4 -0.01056,-0.0192 0.03455,-0.042 z m -1.749602,-0.043 c 0.0016,-0.0385 0.0094,-0.0464 0.01998,-0.02 0.0096,0.0239 0.0084,0.0524 -0.0026,0.0634 -0.01099,0.011 -0.01881,-0.009 -0.01737,-0.0434 z m 1.584889,-0.0138 c -0.01947,-0.0364 -0.02796,-0.0661 -0.01886,-0.0661 0.0091,0 0.03247,0.0298 0.05194,0.0661 0.01947,0.0364 0.02796,0.0661 0.01886,0.0661 -0.0091,0 -0.03247,-0.0298 -0.05194,-0.0661 z m 1.049146,-0.0347 c 0.04042,-0.0425 0.07989,-0.0707 0.08771,-0.0626 0.0078,0.008 -0.02525,0.0429 -0.0735,0.0773 -0.08771,0.0626 -0.08771,0.0626 -0.01422,-0.0147 z m -0.335952,-0.0411 c 0.01242,-0.0326 0.03091,-0.051 0.0411,-0.0408 0.01018,0.0102 2.1e-5,0.0369 -0.02258,0.0593 -0.03266,0.0324 -0.03646,0.0286 -0.01851,-0.0185 z m -2.348891,-0.0211 c -0.01047,-0.0169 -0.0039,-0.0401 0.01458,-0.0516 0.01849,-0.0114 0.03361,0.002 0.03361,0.0308 0,0.0581 -0.01985,0.0667 -0.0482,0.0208 z m 0.542686,-0.0659 c -0.0082,-0.0623 -0.03455,-0.11965 -0.05853,-0.12753 -0.02398,-0.008 -0.04082,0.006 -0.03742,0.0305 0.02432,0.17665 -0.07067,0.21687 -0.101087,0.0428 -0.02358,-0.13492 -0.171475,-0.14847 -0.222249,-0.0204 -0.03471,0.0876 -0.03513,0.0872 -0.03861,-0.0327 -0.0019,-0.0667 -0.02212,-0.12878 -0.04486,-0.13795 -0.07814,-0.0315 0.260858,-0.0219 0.456947,0.013 0.2938,0.0523 0.30373,0.0573 0.30373,0.15416 0,0.078 -0.0047,0.0816 -0.04085,0.0322 -0.02247,-0.0307 -0.07176,-0.0559 -0.109526,-0.0559 -0.05297,0 -0.07141,0.0246 -0.08064,0.10749 -0.01197,0.10748 -0.01197,0.10748 -0.0269,-0.006 z m 1.032087,-0.003 c 0,-0.0455 0.0075,-0.0641 0.01668,-0.0413 0.0092,0.0227 0.0092,0.0599 0,0.0827 -0.0092,0.0227 -0.01668,0.004 -0.01668,-0.0413 z m -1.3586,-0.0193 c 0.0016,-0.0385 0.0094,-0.0464 0.01998,-0.02 0.0096,0.0239 0.0084,0.0524 -0.0026,0.0634 -0.01099,0.011 -0.01881,-0.009 -0.01737,-0.0434 z m 0.526555,-0.24529 c -0.02981,-0.0193 -0.03389,-0.0323 -0.01022,-0.0326 0.02166,-2.8e-4 0.04859,0.0144 0.05983,0.0326 0.02538,0.0411 0.01393,0.0411 -0.04961,0 z m 0.820622,-0.0557 c 0.02387,-0.01 0.0524,-0.008 0.06339,0.003 0.01099,0.011 -0.0085,0.0188 -0.04341,0.0174 -0.03853,-0.002 -0.04637,-0.009 -0.01998,-0.02 z m -0.787549,-0.1989 c -0.07832,-0.0281 -0.367663,-0.21562 -0.353949,-0.22933 0.0068,-0.007 0.09841,0.0172 0.203575,0.0534 0.105164,0.0362 0.204344,0.0577 0.2204,0.0478 0.01606,-0.01 0.02919,-0.004 0.02919,0.0143 0,0.0178 0.009,0.0559 0.02008,0.0846 0.02047,0.0533 -0.02277,0.064 -0.119294,0.0293 z m 0.54058,-0.028 c -0.01077,-0.0281 -0.01009,-0.0605 0.0015,-0.0721 0.02682,-0.0268 0.490327,-0.14529 0.506229,-0.12939 0.01258,0.0126 -0.431299,0.25255 -0.467142,0.25255 -0.01155,0 -0.02982,-0.023 -0.04059,-0.051 z"
         id="path192" />
      <path
         style="fill:#48372b;stroke-width:0.0330729"
         d="m 73.818917,151.00267 c 2.15e-4,-0.0978 -0.104668,-0.3886 -0.140152,-0.3886 -0.01524,0 -0.01118,-0.0309 0.009,-0.0686 0.03091,-0.0578 0.02624,-0.0713 -0.02962,-0.0859 -0.03648,-0.01 -0.07425,-0.038 -0.08393,-0.0632 -0.01424,-0.0371 -0.0057,-0.0384 0.0447,-0.007 0.05191,0.0324 0.08543,0.0229 0.200979,-0.0572 0.07627,-0.0529 0.146021,-0.11523 0.154991,-0.1386 0.009,-0.0234 0.05252,-0.0425 0.09677,-0.0425 0.09692,0 0.32957,-0.11376 0.353284,-0.17274 0.01343,-0.0334 0.01752,-0.0331 0.01959,0.001 0.0014,0.0239 -0.0128,0.0723 -0.03163,0.10748 -0.0707,0.13211 0.03439,0.0568 0.264285,-0.18936 0.210318,-0.2252 0.231073,-0.25883 0.186961,-0.30294 -0.04411,-0.0441 -0.06243,-0.0399 -0.164962,0.0383 -0.134333,0.10246 -0.152829,0.10668 -0.152829,0.0348 0,-0.0295 -0.01841,-0.0456 -0.04134,-0.0362 -0.02274,0.009 -0.06608,0.0269 -0.09633,0.039 -0.03754,0.0151 -0.0586,0.003 -0.06636,-0.0369 -0.0087,-0.0451 0.04963,-0.0886 0.246922,-0.184 0.142065,-0.0687 0.307699,-0.16259 0.368075,-0.20864 0.06038,-0.0461 0.195454,-0.10605 0.300173,-0.13332 0.233332,-0.0608 0.238262,-0.0638 0.316678,-0.19237 0.06752,-0.11073 0.0884,-0.0963 0.0269,0.0186 -0.04279,0.0799 -0.06026,0.25534 -0.02746,0.27561 0.05356,0.0331 0.338156,-0.91233 0.289331,-0.96116 -0.0067,-0.007 -0.07555,-0.0264 -0.153109,-0.0438 -0.111921,-0.0251 -0.133911,-0.0231 -0.106605,0.01 0.02738,0.033 0.01085,0.0341 -0.0809,0.005 -0.09064,-0.0284 -0.103008,-0.041 -0.05782,-0.0589 0.03162,-0.0125 0.04009,-0.0238 0.01882,-0.0251 -0.02127,-0.001 -0.120399,-0.077 -0.220282,-0.1683 -0.100761,-0.0921 -0.187317,-0.14885 -0.194434,-0.1275 -0.0071,0.0212 -0.02949,-0.0343 -0.04986,-0.12335 -0.03218,-0.14061 -0.03103,-0.15316 0.0087,-0.0957 0.02517,0.0363 0.06116,0.0841 0.07997,0.10603 0.01881,0.022 0.0342,0.0488 0.0342,0.0596 0,0.0336 0.243424,0.24898 0.33945,0.3003 0.108587,0.058 0.383519,0.11401 0.403238,0.0821 0.0076,-0.0123 -0.05249,-0.079 -0.133584,-0.14811 -0.08109,-0.0691 -0.163775,-0.15764 -0.183744,-0.19668 -0.01997,-0.039 0.03666,-2.8e-4 0.125836,0.0861 0.08918,0.0864 0.17212,0.1571 0.184314,0.1571 0.01219,0 0.03159,-0.0558 0.04309,-0.12402 0.04328,-0.25654 0.04492,-0.25813 0.148964,-0.14422 0.05826,0.0638 0.126089,0.10288 0.178511,0.10288 0.105993,0 0.106239,-0.0378 0.0012,-0.19193 -0.04581,-0.0673 -0.129198,-0.24133 -0.185299,-0.38685 -0.130502,-0.33851 -0.116341,-0.32206 -0.227719,-0.26447 -0.05263,0.0272 -0.17244,0.0659 -0.266246,0.0861 -0.170556,0.0366 -0.170556,0.0366 -0.07424,0.12403 0.05298,0.0481 0.165729,0.13954 0.250563,0.20321 0.08483,0.0637 0.154706,0.12624 0.155268,0.13906 0.0013,0.0307 -0.212642,0.0702 -0.379316,0.07 -0.138324,-1.4e-4 -0.341087,-0.0878 -0.476349,-0.20583 -0.04371,-0.0382 -0.09713,-0.0694 -0.118715,-0.0694 -0.02158,0 -0.05774,-0.0409 -0.08036,-0.0909 -0.04111,-0.091 -0.04111,-0.091 0.05257,-0.002 0.05153,0.0488 0.182105,0.14182 0.290176,0.20671 0.156885,0.0942 0.230216,0.11787 0.363802,0.11747 0.148505,-4.5e-4 0.291369,-0.0426 0.249034,-0.0734 -0.0086,-0.006 -0.120353,-0.0955 -0.24841,-0.1983 -0.176994,-0.14212 -0.272173,-0.19421 -0.396875,-0.21722 -0.149701,-0.0276 -0.136574,-0.0302 0.150149,-0.0298 0.339771,5.2e-4 0.549873,-0.0629 0.674853,-0.20361 0.063,-0.071 0.063,-0.071 -0.124009,-0.071 -0.102857,0 -0.324685,-0.0238 -0.492951,-0.0529 -0.168267,-0.0291 -0.383374,-0.0465 -0.478016,-0.0387 -0.09464,0.008 -0.164457,0.002 -0.155145,-0.0132 0.02495,-0.0404 0.0091,-0.0355 -0.179057,0.0553 -0.09426,0.0455 -0.18817,0.0827 -0.208677,0.0827 -0.02719,0 -0.02693,0.0125 9.84e-4,0.0461 0.03118,0.0376 0.0094,0.0559 -0.117315,0.0991 -0.08557,0.0291 -0.16298,0.0456 -0.172022,0.0366 -0.009,-0.009 0.0027,-0.0164 0.0262,-0.0164 0.034,0 0.03436,-0.01 0.0018,-0.0492 -0.03339,-0.0402 -0.0296,-0.0532 0.02075,-0.0709 0.51074,-0.17969 0.59399,-0.2239 0.763906,-0.40571 0.232683,-0.24896 0.228614,-0.28144 -0.03258,-0.26007 -0.360575,0.0295 -0.853919,0.32101 -0.900722,0.53221 -0.01278,0.0577 -0.03001,0.0878 -0.03829,0.0669 -0.01825,-0.0459 0.260573,-0.89087 0.355184,-1.07633 0.03715,-0.0728 0.06045,-0.1395 0.05178,-0.14817 -0.03821,-0.0382 -0.445501,0.21934 -0.615133,0.38897 -0.1502,0.1502 -0.205248,0.2777 -0.211516,0.48988 -0.0061,0.20529 0.0657,0.36158 0.179715,0.3914 0.03453,0.009 0.06278,0.0292 0.06278,0.0449 0,0.0518 -0.16339,-0.0448 -0.218743,-0.1293 -0.02987,-0.0456 -0.06186,-0.17698 -0.07109,-0.29199 -0.01672,-0.20823 -0.01746,-0.20953 -0.17883,-0.31308 -0.09621,-0.0617 -0.22336,-0.1109 -0.312974,-0.121 -0.15093,-0.017 -0.15093,-0.017 -0.09341,0.0951 0.09478,0.1848 0.231289,0.37029 0.393866,0.5352 0.08444,0.0857 0.138833,0.15574 0.120869,0.15574 -0.01796,0 -0.04126,-0.0139 -0.05176,-0.0309 -0.0105,-0.017 -0.104401,-0.0559 -0.208658,-0.0864 -0.147152,-0.0431 -0.245048,-0.0499 -0.437605,-0.0305 -0.339805,0.0344 -0.528792,0.035 -0.63822,0.002 -0.09252,-0.0277 -0.09252,-0.0277 0.0054,0.11681 0.05385,0.0795 0.140359,0.16936 0.192245,0.19971 0.08881,0.0519 0.104821,0.0515 0.273361,-0.008 0.09846,-0.0347 0.186095,-0.056 0.194738,-0.0473 0.01668,0.0167 -0.201924,0.11581 -0.255397,0.11581 -0.01736,0 -0.09598,0.073 -0.174695,0.16234 -0.07872,0.0893 -0.201609,0.19652 -0.27309,0.23828 -0.129964,0.0759 -0.129964,0.0759 -0.03307,0.11729 0.172579,0.0736 0.510304,0.0334 0.510304,-0.0609 0,-0.0434 0.16804,-0.30004 0.185213,-0.28286 0.0083,0.008 2.62e-4,0.054 -0.01784,0.10164 -0.0181,0.0476 -0.03651,0.14003 -0.04091,0.20535 -0.0044,0.0653 -0.02209,0.12748 -0.03932,0.13813 -0.01891,0.0117 -0.02332,-0.0318 -0.01113,-0.10981 0.02019,-0.12917 0.02019,-0.12917 -0.04721,-0.0382 -0.03707,0.05 -0.08734,0.0909 -0.111709,0.0909 -0.03169,0 -0.04368,0.0495 -0.0421,0.17363 0.0012,0.0955 -0.02159,0.24002 -0.05069,0.32117 -0.02909,0.0811 -0.04681,0.15362 -0.03937,0.16107 0.04307,0.0431 0.178909,-0.0395 0.217234,-0.13198 0.024,-0.0579 0.04944,-0.0879 0.05655,-0.0666 0.0071,0.0213 0.03565,0.0388 0.06344,0.0388 0.0357,0 0.02761,0.0185 -0.02756,0.0632 -0.06983,0.0565 -0.07808,0.0901 -0.07808,0.31798 0,0.25475 0,0.25475 0.13509,0.37499 0.0743,0.0661 0.144988,0.16002 0.157087,0.20864 0.03421,0.1375 0.175087,0.28177 0.334608,0.3427 0.07994,0.0305 0.158458,0.0474 0.174483,0.0375 0.01603,-0.01 0.04563,0.0257 0.06578,0.0791 0.03513,0.0931 0.0333,0.0962 -0.04468,0.0767 -0.08132,-0.0204 -0.08132,-0.0204 -0.01922,0.0908 0.05811,0.10402 0.05881,0.12147 0.01084,0.27146 -0.04703,0.14705 -0.04677,0.1628 0.0031,0.19072 0.04903,0.0274 0.04621,0.0451 -0.02866,0.179 -0.103268,0.18477 -0.136058,0.19612 -0.04373,0.0151 0.03744,-0.0734 0.05919,-0.14779 0.04833,-0.16536 -0.0431,-0.0697 -0.137894,-0.0277 -0.191611,0.0849 -0.07098,0.14886 -0.07043,0.21046 0.0021,0.23746 0.03183,0.0118 0.09508,0.0483 0.14056,0.0811 0.04548,0.0327 0.115785,0.0644 0.156244,0.0703 0.04046,0.006 0.08387,0.0211 0.09646,0.0337 0.04438,0.0444 0.106885,0.0221 0.128422,-0.0457 0.01198,-0.0378 0.02971,-0.0607 0.03939,-0.051 0.0097,0.01 0.0063,0.0443 -0.0074,0.0769 -0.01377,0.0326 -0.02192,0.11512 -0.01809,0.18333 0.0041,0.0737 -0.0081,0.12402 -0.03015,0.12402 -0.02451,0 -0.02971,-0.0394 -0.01531,-0.11616 0.01849,-0.0986 0.01364,-0.11303 -0.03199,-0.0955 -0.02958,0.0114 -0.0722,0.006 -0.09471,-0.0113 -0.02251,-0.0176 -0.08908,-0.0482 -0.147931,-0.068 -0.0868,-0.0292 -0.116684,-0.0263 -0.158238,0.0152 -0.03476,0.0348 -0.04077,0.0638 -0.0187,0.0904 0.02313,0.0279 0.01328,0.0406 -0.03408,0.0442 -0.0664,0.005 -0.0664,0.005 0.0017,-0.11074 0.07506,-0.12722 0.08532,-0.17811 0.03589,-0.17811 -0.01782,0 -0.06351,0.061 -0.101526,0.13549 -0.07025,0.1377 -0.138355,0.15778 -0.07307,0.0215 0.0599,-0.125 0.07313,-0.18719 0.04369,-0.20538 -0.01547,-0.01 -0.0519,0.042 -0.08097,0.1147 -0.02907,0.0726 -0.06785,0.13207 -0.08619,0.13207 -0.04589,0 -0.04887,0.009 0.09895,-0.30622 0.07276,-0.15526 0.132292,-0.29668 0.132292,-0.31426 0,-0.0176 0.03659,-0.0686 0.08132,-0.11328 0.07538,-0.0754 0.07961,-0.0966 0.05788,-0.28995 -0.01846,-0.16428 -0.03927,-0.21913 -0.09786,-0.25796 -0.06685,-0.0443 -0.07441,-0.0439 -0.07441,0.004 0,0.15031 -0.152588,-0.015 -0.332109,-0.35977 -0.07577,-0.14552 -0.161614,-0.29147 -0.190766,-0.32433 -0.03284,-0.037 -0.05817,-0.14083 -0.06657,-0.27285 -0.01357,-0.2131 -0.01357,-0.2131 -0.142008,-0.2131 -0.07064,0 -0.127953,-0.0112 -0.127359,-0.0248 5.94e-4,-0.0136 0.02987,-0.10666 0.06507,-0.2067 0.03519,-0.10005 0.06447,-0.2273 0.06507,-0.28277 0.001,-0.0965 -0.0072,-0.10258 -0.191019,-0.14055 -0.199377,-0.0412 -0.353865,-0.12909 -0.280775,-0.15976 0.112586,-0.0473 0.253258,-0.16868 0.261356,-0.2256 0.005,-0.0355 0.04269,-0.0898 0.08364,-0.12069 0.07446,-0.0562 0.07446,-0.0562 -0.09284,-0.23921 -0.09201,-0.10068 -0.175742,-0.21535 -0.186063,-0.25482 -0.01669,-0.0638 -0.0089,-0.0694 0.06999,-0.0501 0.04881,0.0119 0.164,0.0299 0.255968,0.0401 0.167217,0.0184 0.167217,0.0184 0.221842,-0.12064 0.05785,-0.14729 0.187393,-0.33631 0.404692,-0.59054 0.07276,-0.0851 0.164199,-0.19552 0.203198,-0.24532 0.039,-0.0498 0.07827,-0.0905 0.08727,-0.0905 0.009,0 0.02637,0.0533 0.0386,0.11852 0.01341,0.0715 0.03784,0.11264 0.06156,0.1037 0.111504,-0.042 0.428098,-0.12279 0.6181,-0.15772 0.118236,-0.0217 0.264194,-0.0675 0.324352,-0.10163 0.121536,-0.069 0.226221,-0.0806 0.244088,-0.027 0.0083,0.0248 0.0389,0.0248 0.104128,0 0.05083,-0.0193 0.124933,-0.0339 0.164676,-0.0324 0.06276,0.002 0.05922,0.009 -0.02696,0.0486 -0.05457,0.0252 -0.152026,0.0552 -0.216568,0.0666 -0.08467,0.0149 -0.127958,0.0452 -0.155451,0.1085 -0.08528,0.1965 -0.236632,0.60979 -0.256599,0.7007 -0.02132,0.0971 -0.02132,0.0971 0.146086,-0.0156 0.24652,-0.1659 0.498375,-0.25005 0.748355,-0.25005 0.117554,0 0.213734,0.0114 0.213734,0.0253 0,0.0139 -0.09048,0.12552 -0.20107,0.24805 -0.20107,0.22278 -0.20107,0.22278 0.0083,0.22475 0.115136,0.001 0.283752,0.0158 0.374703,0.0327 0.09095,0.0169 0.245705,0.0407 0.343899,0.0528 0.178535,0.022 0.178535,0.022 0.115755,-0.0857 -0.06741,-0.11568 -0.426487,-0.46476 -0.478076,-0.46476 -0.08106,0 -0.01614,-0.0629 0.117641,-0.114 0.08185,-0.0313 0.148828,-0.0684 0.148828,-0.0824 0,-0.0141 -0.116169,-0.0353 -0.258152,-0.0471 -0.295323,-0.0246 -0.543746,-0.0883 -0.533591,-0.13681 0.01078,-0.0515 0.262576,-0.32794 0.262576,-0.28831 0,0.0194 -0.03721,0.0794 -0.08268,0.13345 -0.142499,0.16935 -0.134046,0.1749 0.363802,0.23899 0.163711,0.0211 0.310805,0.0507 0.326876,0.0659 0.02503,0.0236 -0.123732,0.13848 -0.227657,0.17584 -0.01819,0.007 0.04984,0.0996 0.151188,0.20684 0.101344,0.10722 0.210956,0.23587 0.243582,0.2859 0.04789,0.0734 0.08407,0.091 0.187809,0.091 0.144113,0 0.159232,0.0281 0.06234,0.11575 -0.03638,0.0329 -0.06615,0.0925 -0.06615,0.13233 0,0.0399 0.08837,0.24883 0.19638,0.46438 0.10801,0.21556 0.188987,0.40388 0.17995,0.4185 -0.028,0.0453 -0.209174,0.0293 -0.293451,-0.0259 -0.0772,-0.0506 -0.08097,-0.0493 -0.102091,0.0349 -0.01206,0.0481 -0.01361,0.13867 -0.0034,0.20135 0.01017,0.0627 0.0068,0.11396 -0.0075,0.11396 -0.01429,0 -0.05984,0.13022 -0.10122,0.28938 -0.08159,0.31383 -0.258184,0.80202 -0.290117,0.80202 -0.01089,0 -0.04919,-0.026 -0.08511,-0.0579 -0.05002,-0.0443 -0.06884,-0.0478 -0.08039,-0.0147 -0.03092,0.0886 -0.228415,0.32069 -0.281569,0.33092 -0.03616,0.007 -0.06246,-0.0186 -0.07643,-0.0743 -0.02419,-0.0964 -0.08473,-0.1096 -0.148725,-0.0325 -0.0341,0.0411 -0.03493,0.0643 -0.0038,0.10749 0.07854,0.1092 0.08009,0.14405 0.01059,0.23805 -0.09348,0.12645 -0.09073,0.13844 0.04904,0.21371 0.169004,0.091 0.272225,0.24182 0.35981,0.5257 0.07249,0.23496 0.07316,0.24654 0.01502,0.26174 -0.04695,0.0123 -0.06551,-0.008 -0.08132,-0.088 -0.03373,-0.17105 -0.154107,-0.46321 -0.219593,-0.53294 -0.07987,-0.085 -0.07849,-0.0177 0.0025,0.12122 0.03505,0.0601 0.08714,0.20082 0.115756,0.31259 0.06031,0.23557 0.06108,0.24327 0.02446,0.24327 -0.01516,0 -0.0276,-0.0186 -0.02766,-0.0413 -6.6e-5,-0.0227 -0.034,-0.15073 -0.07543,-0.28443 -0.06277,-0.20255 -0.08264,-0.23564 -0.119087,-0.19844 -0.02406,0.0246 -0.04841,0.0893 -0.0541,0.14387 -0.0057,0.0546 -0.02524,0.11015 -0.04343,0.12352 -0.01838,0.0135 -0.0056,0.0245 0.02885,0.0248 0.04985,4.1e-4 0.0543,0.01 0.02279,0.0477 -0.02152,0.0259 -0.03647,0.0669 -0.0332,0.0909 0.01071,0.0791 -0.0016,0.23706 -0.0172,0.22143 -0.0084,-0.008 -0.0235,-0.0806 -0.03352,-0.1603 -0.01002,-0.0798 -0.0263,-0.15308 -0.03619,-0.16297 -0.02686,-0.0268 -0.481234,-0.13249 -0.576769,-0.13409 -0.05105,-8.6e-4 -0.101197,0.0273 -0.13029,0.073 -0.09055,0.14247 -0.167054,0.31971 -0.167054,0.38701 0,0.0382 -0.02166,0.0677 -0.04961,0.0677 -0.02945,0 -0.04954,-0.0302 -0.04945,-0.0744 z m 1.01034,-0.50221 c 0.01172,-0.0625 0.0101,-0.13176 -0.0036,-0.15394 -0.01592,-0.0257 -0.01112,-0.0318 0.01326,-0.0167 0.02276,0.0141 0.03818,0.002 0.03818,-0.0291 0,-0.029 0.0242,-0.0897 0.05378,-0.13481 0.05059,-0.0772 0.05027,-0.0807 -0.0054,-0.0594 -0.04383,0.0168 -0.05218,0.0113 -0.03214,-0.0211 0.01696,-0.0274 0.01421,-0.0359 -0.0074,-0.0225 -0.01894,0.0117 -0.05347,-0.002 -0.07674,-0.0297 -0.04754,-0.0573 -0.02074,-0.0761 -0.370499,0.26016 -0.190336,0.18299 -0.190336,0.18299 -0.03307,0.2337 0.08649,0.0279 0.20191,0.0566 0.256481,0.0639 0.05457,0.007 0.109706,0.0154 0.122524,0.0181 0.01282,0.003 0.0329,-0.0462 0.04462,-0.10865 z m -1.605816,-0.3679 c 0,-0.0284 -0.01513,-0.0422 -0.03361,-0.0308 -0.01849,0.0114 -0.02505,0.0346 -0.01458,0.0516 0.02835,0.0459 0.0482,0.0373 0.0482,-0.0208 z m 1.039601,-3.15313 c 0.03543,-0.0139 0.04905,-0.0343 0.03055,-0.0457 -0.04325,-0.0267 -0.177178,0.008 -0.177178,0.0462 0,0.0345 0.05771,0.0344 0.146633,-4.7e-4 z m -1.220618,-0.41747 c -0.08179,-0.10041 -0.172329,-0.22825 -0.201203,-0.28408 -0.05152,-0.0996 -0.05376,-0.10039 -0.120548,-0.0407 -0.07352,0.0657 -0.188453,0.24103 -0.247319,0.3772 -0.03668,0.0848 -0.03668,0.0848 0.232682,0.0715 0.148147,-0.007 0.306565,0.002 0.35204,0.0205 0.139486,0.0572 0.138088,0.0443 -0.01565,-0.1445 z m 0.492606,-0.42101 c 0.04932,-0.0773 0.157458,-0.19205 0.240308,-0.25498 0.08285,-0.0629 0.134509,-0.1198 0.114797,-0.12637 -0.04184,-0.0139 -0.487516,0.10456 -0.652546,0.17351 -0.113367,0.0474 -0.113367,0.0474 -0.113859,-0.075 -4.92e-4,-0.12234 -4.92e-4,-0.12234 -0.114513,0.01 -0.06271,0.0728 -0.114581,0.14155 -0.115264,0.15287 -6.83e-4,0.0113 0.05576,0.0297 0.125433,0.0408 0.06967,0.0111 0.185014,0.0641 0.256316,0.11771 0.0713,0.0536 0.138644,0.0985 0.149649,0.0997 0.011,0.001 0.06036,-0.061 0.109679,-0.1383 z m 0.683275,4.90969 c -0.0043,-0.0692 0.08943,-0.22833 0.147633,-0.25067 0.07187,-0.0276 0.115121,-0.0259 0.110357,0.004 -0.0022,0.0137 -0.0022,0.0657 0,0.11576 0.0046,0.10734 0.05458,0.12067 0.08052,0.0215 0.01,-0.0382 0.0334,-0.0601 0.05202,-0.0486 0.01862,0.0115 0.02547,0.0428 0.01522,0.0695 -0.01025,0.0267 -0.0022,0.0486 0.01798,0.0486 0.05735,0 0.04287,-0.10371 -0.02127,-0.1524 -0.05268,-0.04 -0.05292,-0.044 -0.0027,-0.045 0.03034,-5.7e-4 0.07835,0.008 0.106669,0.0187 0.04636,0.0178 0.04645,0.0295 9.86e-4,0.11744 -0.03813,0.0737 -0.0663,0.0927 -0.114937,0.0772 -0.03639,-0.0115 -0.06443,-0.005 -0.06443,0.0148 0,0.0194 -0.02976,0.0353 -0.06615,0.0353 -0.03638,0 -0.06615,-0.0167 -0.06615,-0.0371 0,-0.0267 -0.01311,-0.0262 -0.04667,0.002 -0.02937,0.0244 -0.05409,0.0267 -0.06669,0.006 -0.01101,-0.0178 -0.005,-0.0417 0.01342,-0.0531 0.01839,-0.0114 0.04903,-0.0498 0.0681,-0.0854 0.02615,-0.0489 0.02439,-0.0626 -0.0072,-0.056 -0.023,0.005 -0.06708,0.0608 -0.09796,0.1245 -0.03087,0.0637 -0.05734,0.0964 -0.05881,0.0728 z m -0.0089,-0.2938 c 0.02387,-0.01 0.0524,-0.008 0.06339,0.003 0.01099,0.011 -0.0085,0.0188 -0.04341,0.0174 -0.03853,-0.002 -0.04637,-0.009 -0.01998,-0.02 z m 0.193614,-0.89243 c -0.01213,-0.0121 -0.02205,-0.0374 -0.02205,-0.0562 0,-0.0207 0.0154,-0.0188 0.03914,0.005 0.02152,0.0215 0.03145,0.0468 0.02205,0.0562 -0.0094,0.009 -0.02701,0.007 -0.03914,-0.005 z m -0.848871,-0.19292 c 0,-0.0287 0.01969,-0.04 0.04961,-0.0285 0.02728,0.0105 0.04961,0.0233 0.04961,0.0285 0,0.005 -0.02233,0.018 -0.04961,0.0285 -0.02992,0.0115 -0.04961,1.7e-4 -0.04961,-0.0285 z m 2.125674,-1.14102 c 0,-0.0819 0.0065,-0.11534 0.01433,-0.0744 0.0079,0.0409 0.0079,0.1079 0,0.14883 -0.0079,0.0409 -0.01433,0.007 -0.01433,-0.0744 z m -3.033767,-0.0969 c -0.01047,-0.0169 -0.0039,-0.0401 0.01458,-0.0516 0.01849,-0.0114 0.03361,0.002 0.03361,0.0308 0,0.0581 -0.01985,0.0667 -0.0482,0.0208 z m 0.363288,-0.0436 c -0.0075,-0.0227 -0.01828,-0.0711 -0.02404,-0.10749 -0.01448,-0.0915 -0.2133,-0.1143 -0.232275,-0.0267 -0.0079,0.0363 -0.01995,0.0158 -0.03076,-0.052 -0.01782,-0.11177 -0.01782,-0.11177 0.200325,-0.0906 0.326051,0.0317 0.514796,0.0913 0.520979,0.16453 0.0038,0.0449 -0.0047,0.0516 -0.03142,0.0248 -0.04986,-0.0499 -0.188498,-0.0464 -0.189742,0.005 -5.58e-4,0.0229 -0.01601,0.0156 -0.03472,-0.0165 -0.05149,-0.0884 -0.09657,-0.0691 -0.09657,0.0413 0,0.0982 -0.05563,0.1376 -0.08178,0.0579 z m 1.371628,-0.0579 c 0,-0.0878 -0.01121,-0.0992 -0.09758,-0.0992 -0.05541,0 -0.110484,0.0231 -0.127448,0.0534 -0.02601,0.0465 -0.0322,0.0445 -0.04785,-0.0154 -0.01207,-0.0461 -5.7e-5,-0.074 0.0365,-0.0846 0.295989,-0.0861 0.979284,-0.12082 0.904455,-0.046 -0.02183,0.0218 -0.03992,0.0702 -0.04019,0.10749 -2.65e-4,0.0373 -0.01581,0.0901 -0.0345,0.11741 -0.0257,0.0375 -0.03163,0.0214 -0.0243,-0.0661 0.0088,-0.10495 0.002,-0.11535 -0.07298,-0.11142 -0.04548,0.002 -0.125203,0.006 -0.177172,0.008 -0.07486,0.003 -0.0903,0.016 -0.07433,0.0618 0.0192,0.0551 0.01801,0.0551 -0.02491,0 -0.07142,-0.0917 -0.120458,-0.0682 -0.120458,0.0579 0,0.0808 -0.01496,0.11575 -0.04961,0.11575 -0.03307,0 -0.04961,-0.0331 -0.04961,-0.0992 z m 0.749287,-0.1724 c -0.06272,-0.26131 -0.054,-0.34913 0.01006,-0.1014 0.06908,0.26714 0.06149,0.2564 0.134516,0.19031 0.09804,-0.0887 0.09602,-0.0456 -0.0026,0.0565 -0.08575,0.0887 -0.08575,0.0887 -0.141928,-0.14536 z m -2.559957,-0.24101 c 3.67e-4,-0.0728 0.0071,-0.0986 0.01505,-0.0575 0.0079,0.0411 0.0076,0.10067 -6.68e-4,0.13229 -0.0083,0.0316 -0.01475,-0.002 -0.01438,-0.0748 z m 0.750162,-0.13137 c -0.08305,-0.0433 -0.170288,-0.10191 -0.193858,-0.13031 -0.03817,-0.046 -0.03161,-0.0477 0.06001,-0.0158 0.05658,0.0197 0.09458,0.0493 0.08445,0.0657 -0.01013,0.0164 0.0085,0.0275 0.04138,0.0246 0.138531,-0.012 0.201801,0.009 0.21821,0.0714 0.02234,0.0854 -0.02273,0.0821 -0.210195,-0.0156 z m 0.164783,0.003 c -0.0076,-0.007 -0.05099,-0.0223 -0.09646,-0.0344 -0.08268,-0.022 -0.08268,-0.022 -4.9e-5,0.0263 0.07017,0.041 0.139406,0.0469 0.09651,0.008 z m 0.481532,0.0442 c -0.01081,-0.0175 0.01471,-0.0323 0.05671,-0.033 0.08943,-0.001 0.268454,-0.0938 0.192121,-0.0992 -0.02728,-0.002 0.0086,-0.0248 0.0798,-0.0509 0.178685,-0.0655 0.184988,-0.0363 0.01375,0.0636 -0.200054,0.11677 -0.318491,0.15809 -0.342375,0.11945 z m 0.524552,-0.13444 c 0.0245,-0.0654 0.04234,-0.0834 0.04914,-0.0497 0.0085,0.0424 0.02499,0.046 0.08268,0.0182 0.04959,-0.0239 0.04111,-0.008 -0.02721,0.0496 -0.129753,0.1102 -0.151288,0.10649 -0.104615,-0.018 z m -1.62743,-0.0483 c -0.07598,-0.0966 -0.153018,-0.3067 -0.123335,-0.33639 0.01091,-0.0109 0.02016,0.001 0.02056,0.027 4e-4,0.0258 0.03094,0.11346 0.06786,0.19486 0.05229,0.11527 0.07396,0.13721 0.09799,0.0992 0.02443,-0.0386 0.03096,-0.0333 0.03136,0.0256 6.47e-4,0.095 -0.01272,0.0935 -0.09443,-0.0103 z m 1.18014,0.0622 c 0.02388,-0.01 0.0524,-0.008 0.06339,0.003 0.01099,0.011 -0.0085,0.0188 -0.04341,0.0174 -0.03853,-0.002 -0.04636,-0.009 -0.01998,-0.02 z m -1.144903,-0.22546 c 6.74e-4,-0.0546 0.0081,-0.0729 0.01647,-0.0407 0.0084,0.0322 0.0078,0.0768 -0.0012,0.0992 -0.0091,0.0224 -0.01592,-0.004 -0.01525,-0.0585 z m 1.653646,0 c 6.75e-4,-0.0546 0.0081,-0.0729 0.01647,-0.0407 0.0084,0.0322 0.0078,0.0768 -0.0012,0.0992 -0.0091,0.0224 -0.01592,-0.004 -0.01525,-0.0585 z m 0.15091,-0.1213 c -0.01119,-0.11647 -0.03624,-0.18481 -0.07862,-0.21453 -0.09946,-0.0697 -0.21846,-0.1768 -0.196503,-0.1768 0.01108,0 0.09587,0.0521 0.188422,0.11576 0.09255,0.0637 0.15391,0.11575 0.136349,0.11575 -0.01838,0 -0.02519,0.0702 -0.01604,0.16537 0.0087,0.0909 0.0084,0.16536 -6.48e-4,0.16536 -0.0091,0 -0.02393,-0.0769 -0.03296,-0.17091 z m -0.149685,-0.0937 c 0,-0.0637 0.0068,-0.0897 0.01513,-0.0579 0.0083,0.0318 0.0083,0.0839 0,0.11576 -0.0083,0.0318 -0.01513,0.006 -0.01513,-0.0579 z m -1.852848,-0.0247 c -0.04481,-0.0155 -0.0212,-0.0406 0.244044,-0.25969 0.135198,-0.11165 0.135198,-0.11165 0.277349,-0.043 0.114681,0.0554 0.147407,0.0602 0.16935,0.0247 0.0223,-0.0361 0.0349,-0.0352 0.06992,0.005 0.02349,0.0268 0.0292,0.038 0.01269,0.0248 -0.01652,-0.0132 -0.04753,-0.009 -0.06893,0.008 -0.02586,0.0215 -0.08413,0.0145 -0.173877,-0.0207 -0.141795,-0.0557 -0.136582,-0.0571 -0.288191,0.0788 -0.02535,0.0227 -0.05567,0.0413 -0.06736,0.0413 -0.02787,0 -0.101441,0.0742 -0.118708,0.11965 -0.0075,0.0197 -0.0328,0.0291 -0.05629,0.021 z m 0.867577,-0.19209 c -0.06053,-0.0485 -0.05948,-0.0492 0.01848,-0.0121 0.101237,0.0482 0.12,0.0635 0.07798,0.0635 -0.01775,0 -0.06115,-0.0231 -0.09646,-0.0514 z m 0.150775,0.0388 c 0,-0.007 0.02979,-0.0205 0.06619,-0.03 0.03641,-0.01 0.05785,-0.004 0.04766,0.0127 -0.0178,0.0288 -0.113849,0.0434 -0.11385,0.0173 z m 0.198438,-0.0865 c 0.02728,-0.0176 0.06449,-0.0321 0.08268,-0.0321 0.01819,0 0.01075,0.0144 -0.01654,0.0321 -0.02728,0.0176 -0.06449,0.0321 -0.08268,0.0321 -0.01819,0 -0.01075,-0.0144 0.01654,-0.0321 z"
         id="path190" />
      <path
         style="fill:#352f2b;stroke-width:0.0330729"
         d="m 73.824759,150.96365 c 0.0073,-0.0624 0.0015,-0.10616 -0.01292,-0.0973 -0.01439,0.009 -0.0273,-0.0108 -0.02869,-0.0437 -0.0044,-0.10484 -0.02506,-0.18333 -0.05641,-0.21468 -0.06143,-0.0614 0.0037,-0.19328 0.153561,-0.31068 0.153428,-0.12023 0.153428,-0.12023 0.01004,0.0156 -0.143748,0.13612 -0.150524,0.18077 -0.01279,0.0843 0.04043,-0.0283 0.07373,-0.0395 0.07401,-0.0248 2.78e-4,0.0147 0.01335,0.047 0.02906,0.0717 0.02207,0.0348 0.05765,0.0161 0.156854,-0.0827 0.07057,-0.0703 0.115003,-0.11754 0.09875,-0.10506 -0.01626,0.0125 -0.05163,6e-4 -0.07861,-0.0264 -0.05533,-0.0553 -0.05527,-0.0554 0.05803,-0.1094 0.07331,-0.0349 0.07612,-0.0341 0.02481,0.007 -0.07869,0.0636 -0.07271,0.0912 0.01654,0.0761 0.04145,-0.007 0.06967,-0.0322 0.0637,-0.0567 -0.0065,-0.027 0.01822,-0.0187 0.06356,0.0211 0.04085,0.0359 0.06184,0.0441 0.04663,0.0183 -0.02101,-0.0357 -0.01356,-0.0416 0.03107,-0.0244 0.04364,0.0167 0.05379,0.01 0.03954,-0.0275 -0.01055,-0.0275 -0.0037,-0.05 0.01527,-0.05 0.01895,0 0.08753,-0.0591 0.152406,-0.13139 0.06487,-0.0723 0.133056,-0.12206 0.151518,-0.11065 0.01922,0.0119 0.02342,0.004 0.0098,-0.0177 -0.01328,-0.0215 -0.001,-0.0471 0.02777,-0.0582 0.02833,-0.0109 0.04514,-0.0301 0.03735,-0.0427 -0.0078,-0.0126 -0.0011,-0.0441 0.01495,-0.07 0.02438,-0.0395 0.03259,-0.038 0.05052,0.009 0.01259,0.0328 -0.0071,0.0958 -0.04783,0.15301 -0.03808,0.0535 -0.06921,0.10981 -0.06917,0.1252 3.2e-5,0.0154 0.06561,0.0694 0.14573,0.11999 0.08012,0.0506 0.1687,0.12718 0.196848,0.17013 0.09159,0.13978 0.240679,0.64638 0.169191,0.57489 -0.0095,-0.01 -0.04708,-0.12468 -0.08344,-0.25588 -0.08456,-0.30513 -0.151046,-0.40942 -0.249091,-0.39067 -0.04765,0.009 -0.06869,2e-4 -0.05902,-0.025 0.01791,-0.0467 -0.06014,-0.11761 -0.14344,-0.13038 -0.06721,-0.0103 -0.15168,0.0495 -0.390251,0.27624 -0.09095,0.0865 -0.205767,0.16725 -0.255148,0.17956 -0.05901,0.0147 -0.08364,0.0384 -0.07185,0.0691 0.0101,0.0263 -0.01117,0.0623 -0.04872,0.0824 -0.03666,0.0196 -0.06701,0.0617 -0.06745,0.0935 -4.41e-4,0.0318 -0.01963,0.12851 -0.04265,0.21491 -0.0501,0.18806 -0.140731,0.22103 -0.120025,0.0437 z m 0.09009,-0.31169 c -0.04888,-0.0168 -0.07371,0.0173 -0.04566,0.0626 0.01778,0.0288 0.03119,0.0272 0.05186,-0.006 0.01638,-0.0264 0.01382,-0.0497 -0.0062,-0.0566 z m 0.0036,-0.0848 c 2.79e-4,-0.0197 0.01493,-0.0135 0.03257,0.0138 0.02655,0.0411 0.03206,0.0382 0.03206,-0.0165 0,-0.0873 -0.05455,-0.17091 -0.08814,-0.13508 -0.01463,0.0156 -0.0058,0.0358 0.01968,0.0448 0.03479,0.0123 0.02777,0.0304 -0.02827,0.0726 -0.0566,0.0427 -0.06177,0.0562 -0.02147,0.0562 0.02919,0 0.0533,-0.0161 0.05358,-0.0358 z m -0.347772,0.34767 c 0,-0.071 0.01116,-0.12224 0.02481,-0.1138 0.01364,0.008 0.02481,0.0665 0.02481,0.12913 0,0.0626 -0.01116,0.1138 -0.02481,0.1138 -0.01364,0 -0.02481,-0.0581 -0.02481,-0.12913 z m 0.795877,0.0533 c 0.01242,-0.0326 0.03091,-0.051 0.04109,-0.0408 0.01018,0.0102 2.1e-5,0.0369 -0.02258,0.0593 -0.03266,0.0324 -0.03646,0.0286 -0.01851,-0.0185 z m 0.345139,-0.0895 c 0,-0.0182 0.01576,-0.0331 0.03503,-0.0331 0.01926,0 0.02583,0.0149 0.01458,0.0331 -0.01124,0.0182 -0.027,0.0331 -0.03503,0.0331 -0.008,0 -0.01458,-0.0149 -0.01458,-0.0331 z m -1.854868,-0.19017 c 0.03865,-0.0773 0.07709,-0.14056 0.08543,-0.14056 0.02529,0 -0.05855,0.17849 -0.108742,0.23151 -0.02583,0.0273 -0.01534,-0.0136 0.02331,-0.0909 z m 1.958028,-0.0579 c -0.0033,-0.0736 0.05879,-0.26223 0.11973,-0.3638 0.04714,-0.0786 0.0559,-0.0412 0.0098,0.0418 -0.01754,0.0316 -0.0532,0.13184 -0.07924,0.22279 -0.02604,0.0909 -0.04867,0.1356 -0.05029,0.0992 z m -1.844645,-0.19818 c 0.02103,-0.0453 0.04907,-0.0825 0.06233,-0.0827 0.01325,-1.3e-4 0.0071,0.0369 -0.01358,0.0824 -0.02072,0.0455 -0.04877,0.0827 -0.06233,0.0827 -0.01356,0 -0.0074,-0.0371 0.01358,-0.0824 z m 1.013881,-0.0664 c 0,-0.0273 0.02333,-0.0496 0.05184,-0.0496 0.03734,0 0.04577,-0.0191 0.03015,-0.0683 -0.02104,-0.0663 -0.01964,-0.0666 0.04738,-0.009 0.03799,0.0325 0.06906,0.0658 0.06906,0.0738 0,0.008 -0.0098,0.005 -0.02184,-0.007 -0.01201,-0.012 -0.04262,0.008 -0.06802,0.0441 -0.05463,0.078 -0.108578,0.0861 -0.108578,0.0163 z m 1.040437,0.0143 c -0.01199,-0.0194 -0.01471,-0.0424 -0.006,-0.051 0.0087,-0.009 0.02457,0.007 0.03535,0.0353 0.02236,0.0583 0.0033,0.0685 -0.02931,0.0158 z m -1.98131,-0.13009 c 0.011,-0.0455 0.06327,-0.1232 0.116158,-0.17274 0.08464,-0.0793 0.09204,-0.10088 0.06178,-0.18045 -0.0189,-0.0497 -0.03014,-0.13074 -0.02497,-0.18004 0.01,-0.0951 -0.08297,-0.22744 -0.159802,-0.22744 -0.02447,0 -0.04448,0.0232 -0.04448,0.0516 0,0.08 -0.0616,0.0234 -0.177275,-0.1627 -0.140077,-0.2254 -0.230698,-0.42724 -0.184973,-0.412 0.02006,0.007 0.03467,0.0233 0.03245,0.037 -0.0052,0.0323 0.224719,0.45969 0.270511,0.5027 0.02443,0.0229 0.03013,0.0119 0.01861,-0.0362 -0.01654,-0.0691 -0.01623,-0.0691 0.109658,-0.008 0.06944,0.0335 0.141853,0.061 0.160922,0.061 0.01907,0 0.03467,0.0158 0.03467,0.035 0,0.0193 0.0124,0.0274 0.02756,0.018 0.01516,-0.009 0.02756,0.004 0.02756,0.0293 0,0.0255 -0.01612,0.0434 -0.03583,0.0399 -0.05088,-0.009 -0.04603,0.11699 0.0066,0.17146 0.02423,0.0251 0.03576,0.0672 0.02562,0.0937 -0.01014,0.0264 -0.01844,0.0756 -0.01844,0.10919 0,0.0382 -0.02789,0.0651 -0.07424,0.0717 -0.04569,0.007 -0.0969,0.0551 -0.133173,0.12632 -0.042,0.0825 -0.05319,0.092 -0.03893,0.0331 z m 1.503112,-0.59531 c 0,-0.0182 -0.01984,-0.0331 -0.0441,-0.0331 -0.02425,0 -0.0441,-0.0217 -0.0441,-0.0482 0,-0.0265 0.0124,-0.0405 0.02756,-0.0311 0.01516,0.009 0.02779,-0.002 0.02807,-0.0263 3.97e-4,-0.034 0.0067,-0.0335 0.02938,0.002 0.0171,0.027 0.04723,0.0351 0.07391,0.0199 0.035,-0.0199 0.0364,-0.0163 0.0063,0.0163 -0.02132,0.0231 -0.03089,0.0625 -0.02127,0.0875 0.0096,0.0251 10e-4,0.0456 -0.01912,0.0456 -0.02014,0 -0.03661,-0.0149 -0.03661,-0.0331 z m -0.179774,-0.0565 c -0.01795,-0.0471 -0.01415,-0.0509 0.01851,-0.0185 0.0226,0.0224 0.03276,0.0491 0.02258,0.0593 -0.01018,0.0102 -0.02868,-0.008 -0.04109,-0.0408 z m 0.351589,-0.0428 c 0.0095,-0.0273 0.04217,-0.0474 0.07268,-0.0448 0.04573,0.004 0.04823,-0.004 0.01418,-0.045 -0.02652,-0.0319 -0.04567,-0.0366 -0.05353,-0.013 -0.0067,0.0202 -0.03704,0.0362 -0.06735,0.0356 -0.0436,-8.7e-4 -0.03843,-0.015 0.02472,-0.0676 0.04392,-0.0366 0.08856,-0.0547 0.09922,-0.0402 0.01065,0.0144 0.0405,0.0308 0.06631,0.0364 0.03909,0.008 0.03969,0.001 0.0036,-0.0421 -0.03657,-0.0441 -0.03538,-0.0492 0.0076,-0.0327 0.02802,0.0108 0.06219,10e-4 0.07593,-0.0209 0.01598,-0.0259 0.01122,-0.0319 -0.01319,-0.0168 -0.021,0.013 -0.03818,0.008 -0.03818,-0.0114 0,-0.0494 0.156315,-0.0438 0.176534,0.006 0.01,0.0247 0.01773,0.018 0.01929,-0.0165 0.0014,-0.0318 0.01563,-0.0579 0.03155,-0.0579 0.04033,0 0.03682,0.17719 -0.004,0.20301 -0.01836,0.0116 -0.02313,0.0377 -0.01058,0.058 0.01447,0.0234 0.05487,-0.001 0.110591,-0.0674 0.08779,-0.10433 0.08779,-0.10433 0.01451,-0.15299 -0.08007,-0.0532 -0.09884,-0.13981 -0.03029,-0.13981 0.0661,0 0.119431,0.0684 0.09763,0.12521 -0.01343,0.035 -0.0066,0.043 0.0218,0.0254 0.02526,-0.0156 0.03337,-0.0575 0.02083,-0.10742 -0.01321,-0.0526 -0.0083,-0.0743 0.01386,-0.0606 0.01892,0.0117 0.0344,0.006 0.0344,-0.0127 0,-0.0187 0.02477,-0.0245 0.05503,-0.0129 0.03429,0.0132 0.04689,0.008 0.03344,-0.0138 -0.01188,-0.0192 -10e-4,-0.052 0.02417,-0.0729 0.03618,-0.03 0.04476,-0.0256 0.04098,0.0211 -0.0026,0.0325 -0.01954,0.0696 -0.03758,0.0825 -0.02114,0.0151 -0.01912,0.0371 0.0057,0.0619 0.02116,0.0212 0.03099,0.0627 0.02183,0.0923 -0.01254,0.0405 -0.0037,0.038 0.03566,-0.0103 0.02877,-0.0353 0.05231,-0.0787 0.05231,-0.0965 0,-0.0177 0.008,-0.0243 0.01777,-0.0145 0.02317,0.0232 -0.05363,0.19169 -0.08735,0.19169 -0.01424,0 -0.04733,-0.0306 -0.07352,-0.068 -0.04643,-0.0663 -0.04954,-0.0648 -0.122981,0.0579 -0.169077,0.28249 -0.283598,0.34577 -0.317652,0.1755 -0.02441,-0.12206 -0.05313,-0.12439 -0.14193,-0.0115 -0.03796,0.0482 -0.07859,0.0781 -0.09031,0.0664 -0.01171,-0.0117 -0.04369,-0.003 -0.07106,0.0198 -0.04075,0.0336 -0.04665,0.0321 -0.03256,-0.009 z m 0.588862,-0.34531 c 0,-0.008 -0.01488,-0.0238 -0.03307,-0.035 -0.01819,-0.0112 -0.03307,-0.005 -0.03307,0.0146 0,0.0193 0.01488,0.035 0.03307,0.035 0.01819,0 0.03307,-0.007 0.03307,-0.0146 z m -0.246151,-0.0323 c 0.03528,-0.0258 0.07118,-0.0399 0.07978,-0.0313 0.0182,0.0182 -0.06708,0.0769 -0.112798,0.0777 -0.01712,2.6e-4 -0.0023,-0.0206 0.03302,-0.0464 z m 0.611757,-0.0957 c -0.0037,-0.0549 0.109888,-0.36567 0.121205,-0.33172 0.0065,0.0194 -0.01775,0.10802 -0.05382,0.19692 -0.03607,0.0889 -0.06639,0.14957 -0.06738,0.1348 z m -3.23349,-0.50231 c 2.48e-4,-0.091 0.0067,-0.12423 0.01427,-0.074 0.0076,0.0503 0.0074,0.12469 -4.51e-4,0.16537 -0.0079,0.0407 -0.01407,-4.6e-4 -0.01382,-0.0914 z m 3.38278,0.0165 c 0.0093,-0.0637 0.02575,-0.17901 0.0366,-0.25632 0.01085,-0.0773 0.02939,-0.14056 0.04121,-0.14056 0.01181,0 0.02487,-0.0811 0.02902,-0.1802 0.0041,-0.0991 0.01851,-0.20834 0.03191,-0.24272 0.02231,-0.0572 0.03117,-0.0542 0.105029,0.0359 0.07787,0.095 0.07814,0.097 0.0078,0.0594 -0.0935,-0.05 -0.119826,0.008 -0.09678,0.21208 0.0098,0.0873 0.0024,0.15061 -0.0184,0.15756 -0.01917,0.006 -0.06149,0.1149 -0.09404,0.24113 -0.03255,0.12623 -0.05159,0.17742 -0.04232,0.11376 z m -1.42635,-0.20813 c -0.01212,-0.0316 -0.01466,-0.0857 -0.0056,-0.1202 0.014,-0.0536 0.0012,-0.0608 -0.08722,-0.0497 -0.057,0.007 -0.121444,0.0374 -0.143214,0.0672 -0.03522,0.0481 -0.03901,0.0465 -0.0344,-0.0147 0.0041,-0.0546 0.03965,-0.0762 0.171872,-0.10456 0.181562,-0.0389 0.8209,-0.0788 0.753733,-0.047 -0.02274,0.0108 -0.04228,0.0593 -0.04344,0.10777 -0.0021,0.0882 -0.0021,0.0882 -0.03338,0.0101 -0.02896,-0.0723 -0.04294,-0.0762 -0.188073,-0.053 -0.08624,0.0138 -0.190277,0.0231 -0.231204,0.0206 -0.05623,-0.003 -0.07454,0.0136 -0.07492,0.0695 -2.64e-4,0.0407 -0.01436,0.0959 -0.03129,0.12272 -0.02634,0.0416 -0.03397,0.0404 -0.05283,-0.009 z m -2.015499,-0.025 c -0.03638,-0.0147 -0.04732,-0.0279 -0.02432,-0.0291 0.023,-0.001 0.07132,-0.0507 0.107363,-0.10981 0.07127,-0.11689 0.08732,-0.0618 0.02295,0.0787 -0.03173,0.0693 -0.05332,0.0816 -0.105996,0.0602 z m 0.644922,-0.049 c 0,-0.0867 -0.05124,-0.12237 -0.186231,-0.12958 -0.04263,-0.002 -0.0963,-0.0241 -0.119273,-0.0485 -0.03475,-0.0369 -0.01398,-0.0408 0.123603,-0.0231 0.411822,0.0531 0.578776,0.0939 0.578776,0.14144 0,0.0265 -0.01523,0.0387 -0.03384,0.0272 -0.01861,-0.0115 -0.09855,-0.028 -0.17764,-0.0367 -0.139355,-0.0153 -0.143299,-0.0132 -0.127666,0.0686 0.0095,0.0497 9.58e-4,0.0844 -0.0208,0.0844 -0.02031,0 -0.03693,-0.0377 -0.03693,-0.0837 z m -0.857109,0.0301 c -0.0015,-0.0204 0.02782,-0.10633 0.06523,-0.19089 0.07506,-0.16968 0.07912,-0.43971 0.0064,-0.42517 -0.02274,0.005 -0.04134,-0.007 -0.04134,-0.0248 0,-0.0182 0.0315,-0.0331 0.07,-0.0331 0.06534,0 0.06905,0.0138 0.05575,0.2067 -0.012,0.1741 -0.147571,0.58005 -0.156037,0.46723 z m 3.252949,-0.26235 c -0.06165,-0.0494 -0.06124,-0.05 0.01021,-0.0154 0.04093,0.0198 0.07441,0.043 0.07441,0.0514 0,0.0253 -0.01715,0.018 -0.08463,-0.0361 z m 0.820501,-0.17069 c 0.11072,-0.0168 0.112538,-0.0421 0.01439,-0.20021 -0.101668,-0.16383 -0.269304,-0.56574 -0.245778,-0.58927 0.01025,-0.0103 0.02919,0.016 0.04208,0.0583 0.0397,0.13027 0.175638,0.41693 0.264378,0.5575 0.0985,0.15603 0.08491,0.19927 -0.06048,0.19244 -0.100011,-0.005 -0.100775,-0.006 -0.01458,-0.0187 z m -1.207783,-0.20517 c -0.01439,-0.055 -0.01008,-0.0679 0.01446,-0.0434 0.01922,0.0192 0.02844,0.0545 0.02048,0.0783 -0.0083,0.0248 -0.02325,0.01 -0.03494,-0.0349 z m -3.048171,-0.0289 c -0.08975,-0.031 -0.167892,-0.0713 -0.173649,-0.0896 -0.0058,-0.0182 0.05718,-0.069 0.139851,-0.11287 0.09325,-0.0495 0.143915,-0.0964 0.133452,-0.1237 -0.0093,-0.0242 0.02227,-0.0802 0.0701,-0.1246 0.08697,-0.0806 0.08697,-0.0806 -0.0794,-0.26268 -0.192453,-0.21057 -0.247074,-0.33693 -0.131574,-0.30437 0.03966,0.0112 0.146517,0.0413 0.237468,0.0669 0.115463,0.0325 0.139137,0.0473 0.07845,0.0488 -0.0478,10e-4 -0.140819,-0.0203 -0.206706,-0.0478 -0.06589,-0.0275 -0.119794,-0.0417 -0.119794,-0.0314 0,0.0582 0.112131,0.21826 0.218057,0.31127 0.09956,0.0874 0.14126,0.10382 0.224931,0.0885 0.102715,-0.0188 0.102715,-0.0188 0.0035,0.0368 -0.05457,0.0306 -0.108608,0.0531 -0.120085,0.05 -0.01148,-0.003 -0.04727,0.0236 -0.07954,0.0592 -0.06448,0.0712 -0.02395,0.0895 0.05219,0.0235 0.02623,-0.0227 0.0032,0.008 -0.05126,0.0685 -0.05443,0.0604 -0.149052,0.1408 -0.210272,0.17869 -0.111308,0.0689 -0.111308,0.0689 -0.03307,0.11226 0.04303,0.0239 0.103402,0.0439 0.134161,0.0445 0.03076,6.5e-4 0.06512,0.0161 0.07637,0.0343 0.02506,0.0405 0.03426,0.042 -0.163181,-0.0263 z m 3.414662,-0.0294 c 0.02387,-0.01 0.0524,-0.008 0.06339,0.003 0.01099,0.011 -0.0085,0.0188 -0.04341,0.0174 -0.03853,-0.002 -0.04636,-0.009 -0.01998,-0.02 z m 0.264583,0 c 0.02387,-0.01 0.0524,-0.008 0.06339,0.003 0.01099,0.011 -0.0085,0.0188 -0.04341,0.0174 -0.03853,-0.002 -0.04637,-0.009 -0.01998,-0.02 z m 0.171566,-0.0455 c 0,-0.0193 0.01488,-0.0258 0.03307,-0.0146 0.01819,0.0113 0.03307,0.027 0.03307,0.035 0,0.008 -0.01488,0.0146 -0.03307,0.0146 -0.01819,0 -0.03307,-0.0158 -0.03307,-0.035 z m -3.30624,-0.14883 c 5.79e-4,-0.0171 0.0229,-0.06 0.04961,-0.0953 0.02671,-0.0353 0.04808,-0.0502 0.04751,-0.0331 -5.78e-4,0.0171 -0.0229,0.06 -0.04961,0.0953 -0.02671,0.0353 -0.04808,0.0502 -0.04751,0.0331 z m 2.361715,-0.0991 c -0.06165,-0.0494 -0.06124,-0.05 0.01022,-0.0154 0.04093,0.0198 0.07441,0.043 0.07441,0.0514 0,0.0253 -0.01715,0.018 -0.08463,-0.0361 z m 0.611293,-0.0395 c -0.08018,-0.091 -0.08018,-0.091 0.01077,-0.0108 0.05002,0.0441 0.09095,0.085 0.09095,0.0909 0,0.0259 -0.02678,0.005 -0.101722,-0.0802 z m -0.821709,-0.12678 c 0.0016,-0.0385 0.0094,-0.0464 0.01998,-0.02 0.0096,0.0239 0.0084,0.0524 -0.0026,0.0634 -0.01099,0.011 -0.01881,-0.009 -0.01737,-0.0434 z m 0.658847,-0.0138 c -0.0424,-0.0274 -0.04119,-0.0321 0.0083,-0.0326 0.03183,-2.8e-4 0.05788,0.0144 0.05788,0.0326 0,0.0403 -0.0037,0.0403 -0.06615,0 z m -0.255685,-0.056 c 0.03218,-0.008 0.07683,-0.008 0.09922,10e-4 0.02239,0.009 -0.0039,0.0159 -0.05851,0.0152 -0.05457,-6.7e-4 -0.07289,-0.008 -0.04071,-0.0165 z m 0.480995,3.3e-4 c 0.02387,-0.01 0.0524,-0.008 0.06339,0.003 0.01099,0.011 -0.0085,0.0188 -0.04341,0.0174 -0.03853,-0.002 -0.04636,-0.009 -0.01998,-0.02 z m -1.052133,-0.0455 c 0,-0.0193 0.01488,-0.0258 0.03307,-0.0146 0.01819,0.0112 0.03307,0.027 0.03307,0.035 0,0.008 -0.01488,0.0146 -0.03307,0.0146 -0.01819,0 -0.03307,-0.0158 -0.03307,-0.035 z m 1.431799,-0.046 c -0.03208,-0.0365 -0.02393,-0.056 0.04134,-0.0987 0.129009,-0.0845 0.09649,-0.11089 -0.125419,-0.10168 -0.113688,0.005 -0.158268,0.002 -0.09907,-0.006 0.10764,-0.0144 0.10764,-0.0144 0.02111,-0.13642 -0.08653,-0.12202 -0.08653,-0.12202 0.02465,-0.001 0.09633,0.10472 0.125989,0.1185 0.222108,0.10323 0.102038,-0.0162 0.108148,-0.0124 0.07622,0.0472 -0.01909,0.0357 -0.05696,0.0833 -0.08416,0.10589 -0.0272,0.0226 -0.0413,0.0623 -0.03134,0.0882 0.02252,0.0587 0.0066,0.0584 -0.04545,-7.8e-4 z m -2.948133,-0.0693 c 0.03005,-0.0307 0.07266,-0.0498 0.0947,-0.0424 0.02204,0.007 -0.0025,0.0325 -0.05463,0.0558 -0.08865,0.0397 -0.09121,0.0389 -0.04007,-0.0134 z m 1.270235,-0.0326 c -0.03531,-0.0267 -0.05019,-0.0481 -0.03307,-0.0475 0.01712,5.8e-4 0.06002,0.0229 0.09532,0.0496 0.03531,0.0267 0.05019,0.0481 0.03307,0.0475 -0.01712,-5.8e-4 -0.06002,-0.0229 -0.09532,-0.0496 z m -0.694532,-0.0331 c -0.03531,-0.0267 -0.05019,-0.0481 -0.03307,-0.0475 0.01712,5.8e-4 0.06002,0.0229 0.09533,0.0496 0.03531,0.0267 0.05019,0.0481 0.03307,0.0475 -0.01712,-5.8e-4 -0.06002,-0.0229 -0.09533,-0.0496 z m 0.910315,-0.094 c 0.03403,-0.0305 0.228754,-0.11994 0.228754,-0.10512 0,0.019 -0.18335,0.11745 -0.218844,0.11745 -0.01303,0 -0.01749,-0.006 -0.0099,-0.0123 z m 0.981163,-0.01 c 0.02274,-0.009 0.05994,-0.009 0.08268,0 0.02274,0.009 0.0041,0.0167 -0.04134,0.0167 -0.04547,0 -0.06408,-0.008 -0.04134,-0.0167 z m -2.295812,-0.0593 c 0,-0.0265 0.01265,-0.0403 0.0281,-0.0308 0.01546,0.01 0.01954,0.0312 0.0091,0.0482 -0.02674,0.0433 -0.03717,0.0384 -0.03717,-0.0174 z m 2.080838,0.0254 c 0.03183,-0.008 0.08392,-0.008 0.115755,0 0.03183,0.008 0.0058,0.0151 -0.05788,0.0151 -0.06367,0 -0.08971,-0.007 -0.05788,-0.0151 z m -2.832646,-0.11776 c 0.09104,-0.17901 0.103583,-0.1633 0.02411,0.0302 -0.0087,0.0211 0.01135,0.0455 0.04451,0.054 0.03969,0.0103 0.02892,0.0169 -0.03149,0.0194 -0.0918,0.004 -0.0918,0.004 -0.03714,-0.10365 z m 2.502371,0.0838 c 0.05027,-0.008 0.124687,-0.007 0.165365,4.5e-4 0.04068,0.008 -4.56e-4,0.0141 -0.09141,0.0138 -0.09095,-2.4e-4 -0.124232,-0.007 -0.07396,-0.0143 z m -2.314929,-0.0323 c 0.03218,-0.008 0.07683,-0.008 0.09922,10e-4 0.02239,0.009 -0.0039,0.0159 -0.05851,0.0152 -0.05457,-6.7e-4 -0.07289,-0.008 -0.04071,-0.0165 z m 0.282557,3.3e-4 c 0.02388,-0.01 0.0524,-0.008 0.06339,0.003 0.01099,0.011 -0.0085,0.0188 -0.04341,0.0174 -0.03853,-0.002 -0.04636,-0.009 -0.01998,-0.02 z m 1.064535,-0.0581 c 0,-0.0284 0.01488,-0.0516 0.03307,-0.0516 0.01819,0 0.03307,0.014 0.03307,0.0311 0,0.0171 -0.01488,0.0403 -0.03307,0.0516 -0.01819,0.0112 -0.03307,-0.003 -0.03307,-0.0311 z m 0.79375,0.0352 c 0,-0.007 0.02605,-0.0329 0.05788,-0.0579 0.05246,-0.0411 0.05363,-0.04 0.01249,0.0125 -0.04321,0.0551 -0.07036,0.0726 -0.07036,0.0454 z m 0.76845,-0.27038 c -0.09577,-0.0802 -0.175549,-0.15665 -0.177288,-0.16983 -0.0017,-0.0132 0.04552,-0.0501 0.105013,-0.082 0.182836,-0.0981 0.177736,-0.1159 -0.03961,-0.13862 -0.399991,-0.0418 -0.623487,-0.0921 -0.623487,-0.14039 0,-0.0254 0.01479,-0.0462 0.03287,-0.0462 0.01808,0 0.07761,-0.0618 0.132292,-0.13725 0.05468,-0.0755 0.09943,-0.12066 0.09943,-0.10037 0,0.0203 -0.04595,0.0892 -0.102111,0.15318 -0.10211,0.1163 -0.10211,0.1163 -0.0248,0.151 0.04252,0.0191 0.222903,0.0529 0.400856,0.075 0.177953,0.0222 0.325379,0.0552 0.327614,0.0734 0.0022,0.0182 -0.05768,0.0676 -0.133139,0.10983 -0.137202,0.0768 -0.137202,0.0768 0.03619,0.23852 0.215219,0.20078 0.197897,0.2078 -0.03381,0.0137 z m -1.264544,0.0351 c 0,-0.0226 0.202503,-0.12303 0.217632,-0.1079 0.0072,0.007 -0.03886,0.0378 -0.102292,0.068 -0.06344,0.0303 -0.11534,0.0482 -0.11534,0.0399 z m -1.718691,-0.022 c -0.0011,-0.0212 0.159345,-0.22653 0.306546,-0.39236 0.04067,-0.0458 0.118313,-0.14596 0.172538,-0.22254 0.104329,-0.14733 0.148201,-0.1737 0.148201,-0.0891 0,0.0284 -0.01326,0.0434 -0.02945,0.0334 -0.0162,-0.01 -0.05614,0.0226 -0.08875,0.0725 -0.03261,0.0499 -0.07889,0.11033 -0.102837,0.13437 -0.06311,0.0633 -0.05371,0.0985 0.03087,0.11542 0.04823,0.01 0.03784,0.0139 -0.02952,0.0121 -0.103956,-0.003 -0.108615,0.001 -0.345108,0.2844 -0.03377,0.0405 -0.06189,0.0638 -0.06249,0.0519 z m 1.505844,-0.0707 c 0.01242,-0.0326 0.03091,-0.051 0.04109,-0.0408 0.01018,0.0102 2.1e-5,0.0369 -0.02258,0.0593 -0.03266,0.0324 -0.03646,0.0286 -0.01851,-0.0185 z m -0.574167,-0.0549 c 0.0222,-0.0356 0.045,-0.06 0.05067,-0.0543 0.0196,0.0196 -0.03153,0.11899 -0.06122,0.11899 -0.0164,0 -0.01165,-0.0291 0.01055,-0.0646 z m 1.324449,-0.0583 c 0.05002,-0.008 0.131878,-0.008 0.181901,0 0.05002,0.008 0.0091,0.0138 -0.09095,0.0138 -0.100046,0 -0.140974,-0.006 -0.09095,-0.0138 z m -0.669727,-0.10665 c 0,-0.0171 0.01471,-0.0402 0.03269,-0.0513 0.01875,-0.0116 0.02429,0.002 0.013,0.0311 -0.02199,0.0573 -0.04569,0.0678 -0.04569,0.0202 z m -0.446484,-0.13424 c 0.03292,-0.0364 0.0673,-0.0661 0.0764,-0.0661 0.0091,0 -0.0104,0.0298 -0.04333,0.0661 -0.03292,0.0364 -0.0673,0.0661 -0.0764,0.0661 -0.0091,0 0.0104,-0.0298 0.04333,-0.0661 z m -0.543378,-0.0579 c 0.0013,-0.0136 0.01511,-0.0546 0.03075,-0.091 0.02619,-0.0609 0.02861,-0.0613 0.03075,-0.005 0.0016,0.042 0.01886,0.0551 0.05453,0.0414 0.112278,-0.0431 0.573959,-0.15223 0.631296,-0.14925 0.03335,0.002 -0.07331,0.0368 -0.237021,0.078 -0.163711,0.0411 -0.339553,0.0918 -0.39076,0.1126 -0.109665,0.0445 -0.122632,0.0459 -0.119545,0.013 z m 1.089081,-0.0725 c 0,-0.0171 0.01471,-0.0402 0.03269,-0.0513 0.01875,-0.0116 0.02429,0.002 0.013,0.0311 -0.02199,0.0573 -0.04569,0.0678 -0.04569,0.0202 z m -0.253559,-0.11771 c 0,-0.0273 0.02357,-0.0497 0.05237,-0.0497 0.0288,-7e-5 0.101094,-0.0298 0.160651,-0.0661 0.114977,-0.0701 0.301499,-0.0974 0.205907,-0.0301 -0.03744,0.0263 -0.02323,0.0303 0.05788,0.016 0.05912,-0.0104 0.155857,-0.0263 0.214974,-0.0355 0.107487,-0.0166 0.107487,-0.0166 -0.0083,0.0306 -0.06367,0.0259 -0.148178,0.0483 -0.187807,0.0497 -0.03963,0.001 -0.09617,0.0266 -0.125656,0.0561 -0.04942,0.0494 -0.05188,0.0467 -0.03148,-0.0346 0.02213,-0.0882 0.02213,-0.0882 -0.130659,-0.0139 -0.08403,0.0408 -0.152788,0.0862 -0.152788,0.10072 0,0.0146 -0.0124,0.0265 -0.02756,0.0265 -0.01516,0 -0.02756,-0.0223 -0.02756,-0.0496 z"
         id="path188" />
    </g>
  </g>
</svg>
