<svg xmlns="http://www.w3.org/2000/svg" version="1.1" id="Layer_1" x="0" y="0" viewBox="188 -43 605.582 150" xml:space="preserve" width="605.582" height="150"><style type="text/css" id="style833">.st0{fill:#fff}</style><g id="g851" transform="translate(165.582)"><path class="st0" d="M414.8 9.5c-18.7.3-34.8 16.1-36 35.1-1.1 19.1 14.1 36.1 33.9 38.1 19.9 2 36-13.8 36-35.1 0-21.4-15.2-38.4-33.9-38.1zM428.2 49c-.8 9.9-7 15.3-11.1 15.7-10.3 1.2-19.1-8.1-18.5-20 .6-11.9 5.4-19.3 15.1-19.5 9.7-.2 15.6 10.9 14.5 23.8z" id="path835"/><path class="st0" d="M488.3 11.4c-18.7-.3-33.9 16.7-33.9 38.1 0 21.4 16.1 37.1 36 35.1s35.1-19 33.9-38.1c-1.1-19-17.2-34.7-36-35.1zM486 66.7c-4.1-.5-10.2-5.9-11.1-15.7-1.1-12.9 4.8-24 14.5-23.8 9.7.2 14.5 7.6 15.1 19.5.6 11.8-8.2 21.2-18.5 20z" id="path837"/><path class="st0" id="polygon839" d="M211.2 23.3v-46.7L188-17.5V92.2l23.2.8-.2-38.4 14.3-13.8L240.4 93h20.5L242 24.9l28.5-31.3-20.1-7.7z"/><path class="st0" d="M334.2 6.2l-.4-49.2-19.8 5.2 3.2 121.6 19.5.7-1.1-62.8c4.3-1.9 18.4-5.8 18.9 9.7l1.9 22.1 1.3 31.1h20.4l-7.7-53.7C367.3-.5 355.8-.6 334.2 6.2z" id="path841"/><path class="st0" id="polygon843" d="M609.7 107l12-7.1-5.1-14.7h-13.4l-5.7 13.4z"/><path class="st0" d="M551.4-23.4l-15.5-6.4V2.3l-17.3-.6 3.3 22.8h14l1 54.3s-2.2 19.5 27.6 15.1c0 0 9.3-2.8 9-9.3V63.2s-6.3 3.7-13.1 3.7-6.9-3.3-6.9-3.3l-1.8-42 21.7-1.2V6.5L551.1 5z" id="path845"/><path class="st0" id="polygon847" d="M612.2 77.5L628-23.2 587-31z"/><path class="st0" d="M265.6 6.9l5.4 14.2c13.5-8.1 21.1 0 21.1 0l-.1 9.1c-40.2 7.1-30 44.3-30 44.3 4.1 14.6 17.3 14.1 17.3 14.1h30.1l.6-67.7c-4.7-31.5-44.4-14-44.4-14zM292 75.6s-14.6 3.5-16.2-10.7c0 0 .3-22 16.7-19.6z" id="path849"/></g><path id="path860" d="M188.953-23.699l-.487 113.695 17.521 3.462-.06-53.6 13.226 2.062 22.22 48.51 18.637-2.906-24.82-53.905s28.332-4.192 18.207-36.884c-3.903-12.604-30.705-19.376-36.61-20.284-13.07-1.386-21.097-.178-27.834-.15zM211.48-8.105c4.478-.123 18.141 3.252 21.247 7.744 8.073 11.675 4.816 23.62-7.393 26.066-13.197 2.644-22.781-3.912-22.781-3.912-.078-6.75-.609-8.577.048-21.574.283-5.592 4.401-8.201 8.879-8.324z" fill="#fff" stroke="none" stroke-width=".928" stroke-linecap="butt" stroke-linejoin="miter" stroke-opacity="1"/><path id="path867" d="M313.345 58.36c3.042-8.03 2.946-9.052 3.611-13.678 1.766-12.275-2.062-16.405-6.613-21.166-3.901-4.082-9.751-10.737-16.712-10.677-10.165.089-23.435 2.568-30.002 8.457-3.327 2.984-4.15 14.285-4.15 14.285l-.495 44.155c11.459 16.872 42.185 18.344 60.463 1.923l-3.436-11.228s-17.388 7.96-27.6 8.428c-4.216.193-7.354.456-12.715-2.859-3.046-1.884-2.52-7.54-3.594-10.149m-.571-14.303l.258-16.284 14.608-5.98c4.742.617 7.485.976 10.531 3.483 3.12 2.822 4.43 6.605-.505 13.773" fill="#fff" stroke="none" stroke-width="1.293" stroke-linecap="butt" stroke-linejoin="miter" stroke-opacity="1"/><path id="polygon843-6" class="st0" transform="scale(1 -1) rotate(28.812 736.647 -506.48)" fill="#fff" d="M616.6 85.2h-13.4l-5.7 13.4 12.2 8.4 12-7.1z"/><path id="polygon843-65" class="st0" transform="rotate(42.1 504.11 -274.471)" fill="#fff" d="M603.2 85.2l-5.7 13.4 12.2 8.4 12-7.1-5.1-14.7z"/></svg>