<?xml version="1.0" encoding="UTF-8" standalone="no"?>
<svg
   xmlns:dc="http://purl.org/dc/elements/1.1/"
   xmlns:cc="http://creativecommons.org/ns#"
   xmlns:rdf="http://www.w3.org/1999/02/22-rdf-syntax-ns#"
   xmlns:svg="http://www.w3.org/2000/svg"
   xmlns="http://www.w3.org/2000/svg"
   xmlns:sodipodi="http://sodipodi.sourceforge.net/DTD/sodipodi-0.dtd"
   xmlns:inkscape="http://www.inkscape.org/namespaces/inkscape"
   version="1.1"
   id="Layer_1"
   x="0px"
   y="0px"
   viewBox="188 -43 605.58197 150"
   xml:space="preserve"
   sodipodi:docname="logo-rezero.svg"
   width="605.58197"
   height="150"
   inkscape:version="1.0 (4035a4f, 2020-05-01)"><metadata
   id="metadata858"><rdf:RDF><cc:Work
       rdf:about=""><dc:format>image/svg+xml</dc:format><dc:type
         rdf:resource="http://purl.org/dc/dcmitype/StillImage" /><dc:title /></cc:Work></rdf:RDF></metadata><defs
   id="defs856" /><sodipodi:namedview
   inkscape:document-rotation="0"
   pagecolor="#000000"
   bordercolor="#666666"
   borderopacity="1"
   objecttolerance="10"
   gridtolerance="10"
   guidetolerance="10"
   inkscape:pageopacity="0"
   inkscape:pageshadow="2"
   inkscape:window-width="1280"
   inkscape:window-height="682"
   id="namedview854"
   showgrid="false"
   inkscape:zoom="1.807859"
   inkscape:cx="101.35387"
   inkscape:cy="101.28815"
   inkscape:window-x="0"
   inkscape:window-y="23"
   inkscape:window-maximized="0"
   inkscape:current-layer="Layer_1" />
<style
   type="text/css"
   id="style833">
	.st0{fill:#FFFFFF;}
</style>
<g
   id="g851"
   transform="translate(165.58197)">
	<path
   class="st0"
   d="m 414.8,9.5 c -18.7,0.3 -34.8,16.1 -36,35.1 -1.1,19.1 14.1,36.1 33.9,38.1 19.9,2 36,-13.8 36,-35.1 0,-21.4 -15.2,-38.4 -33.9,-38.1 z M 428.2,49 c -0.8,9.9 -7,15.3 -11.1,15.7 -10.3,1.2 -19.1,-8.1 -18.5,-20 0.6,-11.9 5.4,-19.3 15.1,-19.5 9.7,-0.2 15.6,10.9 14.5,23.8 z"
   id="path835" />
	<path
   class="st0"
   d="m 488.3,11.4 c -18.7,-0.3 -33.9,16.7 -33.9,38.1 0,21.4 16.1,37.1 36,35.1 19.9,-2 35.1,-19 33.9,-38.1 -1.1,-19 -17.2,-34.7 -36,-35.1 z M 486,66.7 c -4.1,-0.5 -10.2,-5.9 -11.1,-15.7 -1.1,-12.9 4.8,-24 14.5,-23.8 9.7,0.2 14.5,7.6 15.1,19.5 0.6,11.8 -8.2,21.2 -18.5,20 z"
   id="path837" />
	<polygon
   class="st0"
   points="211.2,23.3 211.2,-23.4 188,-17.5 188,92.2 211.2,93 211,54.6 225.3,40.8 240.4,93 260.9,93 242,24.9 270.5,-6.4 250.4,-14.1 "
   id="polygon839" />
	<path
   class="st0"
   d="m 334.2,6.2 -0.4,-49.2 -19.8,5.2 3.2,121.6 19.5,0.7 -1.1,-62.8 c 4.3,-1.9 18.4,-5.8 18.9,9.7 l 1.9,22.1 1.3,31.1 h 20.4 L 370.4,30.9 C 367.3,-0.5 355.8,-0.6 334.2,6.2 Z"
   id="path841" />
	<polygon
   class="st0"
   points="609.7,107 621.7,99.9 616.6,85.2 603.2,85.2 597.5,98.6 "
   id="polygon843" />
	<path
   class="st0"
   d="m 551.4,-23.4 -15.5,-6.4 V 2.3 l -17.3,-0.6 3.3,22.8 h 14 l 1,54.3 c 0,0 -2.2,19.5 27.6,15.1 0,0 9.3,-2.8 9,-9.3 V 63.2 c 0,0 -6.3,3.7 -13.1,3.7 -6.8,0 -6.9,-3.3 -6.9,-3.3 l -1.8,-42 21.7,-1.2 V 6.5 L 551.1,5 Z"
   id="path845" />
	<polygon
   class="st0"
   points="612.2,77.5 628,-23.2 587,-31 "
   id="polygon847" />
	<path
   class="st0"
   d="m 265.6,6.9 5.4,14.2 c 13.5,-8.1 21.1,0 21.1,0 l -0.1,9.1 c -40.2,7.1 -30,44.3 -30,44.3 4.1,14.6 17.3,14.1 17.3,14.1 h 30.1 L 310,20.9 c -4.7,-31.5 -44.4,-14 -44.4,-14 z M 292,75.6 c 0,0 -14.6,3.5 -16.2,-10.7 0,0 0.3,-22 16.7,-19.6 z"
   id="path849" />
</g>
<path
   id="path860"
   style="fill:#ffffff;stroke:none;stroke-width:0.92787699999999995px;stroke-linecap:butt;stroke-linejoin:miter;stroke-opacity:1"
   d="m 188.95286,-23.698557 -0.48722,113.694417 17.52165,3.461798 -0.0598,-53.600353 13.22538,2.063025 22.22009,48.50982 18.63734,-2.905961 -24.82084,-53.90542 c 0,0 28.33251,-4.191814 18.20783,-36.8836193 -3.90353,-12.6041887 -30.70518,-19.3758627 -36.61061,-20.2839507 -13.06939,-1.38638 -21.09621,-0.178399 -27.83382,-0.149756 z m 22.52715,15.5934002 c 4.47758,-0.1230748 18.14109,3.2521931 21.24731,7.74454131 8.07225,11.67443649 4.81592,23.61926249 -7.39358,26.06565549 -13.19709,2.644278 -22.78096,-3.91252 -22.78096,-3.91252 -0.0778,-6.749418 -0.60829,-8.57635 0.0484,-21.57347704 0.28255,-5.59181086 4.40121,-8.20112406 8.87879,-8.32419976 z"
   sodipodi:nodetypes="ccccccccsccsscssss" /><path
   id="path867"
   style="fill:#ffffff;stroke:none;stroke-width:1.29266px;stroke-linecap:butt;stroke-linejoin:miter;stroke-opacity:1"
   d="m 313.34476,58.359702 c 3.04219,-8.029341 2.94582,-9.052084 3.61134,-13.677636 1.76622,-12.275524 -2.06189,-16.405489 -6.61261,-21.166235 -3.90193,-4.082019 -9.75188,-10.737065 -16.71288,-10.676564 -10.16448,0.08834 -23.43498,2.567771 -30.00153,8.456909 -3.32686,2.983662 -4.14981,14.285174 -4.14981,14.285174 l -0.49496,44.154937 c 11.45829,16.871892 42.1844,18.343239 60.46296,1.922921 l -3.43609,-11.227869 c 0,0 -17.38825,7.959407 -27.60081,8.427355 -4.21502,0.193136 -7.35357,0.455925 -12.71394,-2.858535 -3.04641,-1.883677 -2.51992,-7.539973 -3.59486,-10.149189 m -0.57081,-14.302503 0.2585,-16.284194 14.60748,-5.980564 c 4.74228,0.617258 7.4854,0.975933 10.53138,3.482872 3.12028,2.822571 4.43047,6.605741 -0.50475,13.773123"
   sodipodi:nodetypes="cssssccccsscccccc" /><polygon
   id="polygon843-6"
   points="616.6,85.2 603.2,85.2 597.5,98.6 609.7,107 621.7,99.9 "
   class="st0"
   style="fill:#ffffff"
   transform="matrix(0.87620686,-0.4819352,-0.4819352,-0.87620686,-152.89907,417.71504)" /><polygon
   id="polygon843-65"
   points="603.2,85.2 597.5,98.6 609.7,107 621.7,99.9 616.6,85.2 "
   class="st0"
   style="fill:#ffffff"
   transform="rotate(42.09922,504.10931,-274.47111)" /></svg>
