<svg xmlns="http://www.w3.org/2000/svg" width="20.893" height="21.171" viewBox="0 0 5.528 5.601"><circle r="2.764" cy="148.213" cx="74.091" fill="#fff" transform="translate(-71.327 -145.376)"/><path d="M2.076 5.504a4.509 4.509 0 01-.587-.198c-.091-.046-.091-.046.003-.235.052-.104.122-.261.154-.348a.605.605 0 01.137-.22c.074-.058.075-.07.041-.254-.035-.192-.076-.277-.132-.277-.016 0-.03.022-.03.05 0 .145-.193-.08-.37-.43a3.03 3.03 0 00-.163-.287c-.042-.06-.062-.145-.062-.273 0-.185 0-.185-.152-.185-.169 0-.165.013-.066-.248A.949.949 0 00.9 2.327C.902 2.19.9 2.186.794 2.185c-.114 0-.388-.11-.388-.155 0-.014.067-.062.149-.105.081-.043.148-.102.148-.13 0-.028.032-.085.071-.126.07-.075.07-.075-.083-.246-.135-.15-.218-.308-.182-.343a.934.934 0 01.223.042c.243.064.187.104.473-.342A2.71 2.71 0 011.43.466c.03-.027.12-.129.198-.225.147-.18.198-.184.2-.015 0 .041.007.075.016.075.009 0 .16-.037.334-.083a3 3 0 01.39-.083.6.6 0 00.203-.066c.108-.055.195-.066.537-.066.407 0 .407 0 .37.075a.843.843 0 01-.106.147c-.083.092-.083.092.372.16.19.027.36.064.377.08.025.026-.124.142-.227.177-.017.006.068.126.19.266.123.14.223.271.223.291 0 .023.047.03.132.019.167-.023.188.01.082.136-.083.099-.083.099-.014.275.038.097.135.3.216.45.147.274.147.274.062.306-.09.034-.234.013-.265-.037-.067-.108-.142.12-.08.238.033.06.03.078-.011.101-.028.016-.069.111-.09.212a5.78 5.78 0 01-.265.817c-.05.108-.079.113-.142.023-.045-.066-.05-.063-.135.083-.145.247-.317.317-.317.129 0-.091-.056-.093-.112-.004-.025.04-.019.07.027.121.06.066.06.07-.026.2-.087.132-.087.132.008.181.185.096.293.24.385.517.05.15.077.28.06.296-.036.037-.461.198-.522.198-.026 0-.053-.026-.06-.058-.013-.052-.017-.051-.042.008-.043.104-.08.114-.392.115-.288 0-.292 0-.272-.074.063-.227.063-.223-.01-.223-.055 0-.078.032-.11.149-.031.118-.054.148-.111.148-.06 0-.076-.024-.095-.148-.014-.097-.038-.15-.07-.15-.034 0-.047.042-.047.15 0 .157-.02.17-.215.126zM1.99 3.092c.07-.089.095-.245.04-.245a.274.274 0 01-.077-.017c-.03-.011-.06.023-.087.1-.057.156-.149.204-.256.133a.272.272 0 01-.102-.152c-.01-.054-.035-.107-.053-.119-.057-.035.001.18.076.281.058.078.097.095.23.1.138.007.168-.004.229-.08zm1.412-.02c.105-.072.144-.144.145-.266 0-.042-.02-.054-.074-.044-.04.008-.098.015-.128.017-.031 0-.061.04-.072.093-.027.136-.145.248-.232.22-.104-.03-.188-.113-.188-.184 0-.033-.015-.06-.033-.06-.066 0-.03.14.06.229.08.08.112.09.252.08a.587.587 0 00.27-.085zm-1.806-.357a.033.033 0 00-.033-.033.033.033 0 00-.033.033c0 .018.015.033.033.033a.033.033 0 00.033-.033z" fill="#f5d4ba"/><path d="M1.912 5.456a1.568 1.568 0 01-.265-.092.426.426 0 00-.125-.049c-.05-.012-.09-.038-.09-.058 0-.02.059-.168.131-.33.073-.162.133-.308.133-.324 0-.017.035-.059.078-.093.07-.055.077-.081.062-.242-.015-.164-.078-.296-.143-.296-.014 0-.03.026-.037.058-.019.09-.2-.123-.328-.386a3.595 3.595 0 00-.183-.333c-.06-.087-.078-.16-.078-.305 0-.19 0-.19-.098-.17-.184.036-.208.003-.133-.187.036-.092.066-.232.066-.311 0-.141-.002-.144-.128-.16-.158-.022-.374-.121-.35-.162a.592.592 0 01.15-.096c.072-.037.13-.09.13-.121 0-.03.031-.09.07-.13.071-.076.071-.076-.047-.208C.59 1.31.494 1.14.52 1.095c.01-.017.076-.01.154.018.258.09.313.071.423-.146a1.97 1.97 0 01.177-.29.722.722 0 00.1-.153c.011-.032.034-.058.051-.058.017 0 .092-.082.168-.182.075-.1.152-.182.17-.182.018 0 .042.046.053.102.017.084.033.099.09.083.038-.01.219-.05.4-.088a2.8 2.8 0 00.465-.134c.114-.055.193-.063.54-.055.406.01.406.01.302.153a.573.573 0 00-.094.154c.006.006.182.036.392.066.209.031.391.063.405.072.042.026-.006.075-.146.146-.132.067-.132.067.102.314.129.135.234.26.234.279 0 .018.069.033.153.033.152 0 .152 0 .062.118s-.09.118.016.372c.058.14.149.325.202.411.129.212.125.256-.022.256a.48.48 0 01-.186-.036c-.052-.028-.075-.026-.097.008-.04.065-.035.207.01.253.031.03.028.049-.014.08-.03.024-.086.167-.124.319-.078.31-.213.686-.272.757-.032.039-.047.035-.093-.026-.054-.072-.054-.071-.163.098-.158.247-.299.301-.299.116 0-.095-.023-.1-.105-.026-.06.054-.06.058.01.132.072.076.072.076-.013.205-.085.128-.085.128.061.231.08.057.176.152.213.212.083.134.204.529.172.558a2.66 2.66 0 01-.515.195c-.027 0-.055-.034-.061-.075-.01-.07-.014-.068-.06.025-.048.096-.058.1-.306.109-.14.005-.256.001-.256-.009 0-.01.023-.073.05-.139.028-.066.043-.126.035-.135-.016-.015-.118.21-.118.261 0 .016-.014.03-.031.03-.018 0-.013-.064.013-.149.041-.139.04-.148-.023-.168-.08-.026-.117.023-.145.192-.017.1-.035.124-.095.124-.063 0-.077-.021-.091-.15-.02-.17-.03-.19-.095-.164-.032.012-.043.06-.034.166.01.137.006.148-.066.146a1.96 1.96 0 01-.308-.068zm.593-.762c.144-.127.155-.148.138-.255-.011-.066-.003-.135.019-.161.03-.038.022-.042-.051-.023-.054.013-.089.009-.089-.013 0-.02.064-.047.141-.062.089-.018.14-.046.14-.077 0-.08-.319-.047-.516.053-.093.047-.177.076-.189.064-.01-.011 0-.032.024-.047.056-.035.036-.134-.036-.18-.078-.05-.097-.018-.062.104.023.079.015.148-.033.279a1.104 1.104 0 00-.063.224c0 .045.293.22.383.228.02.002.107-.058.194-.134zm.448-.21c.098-.05.128-.126.066-.165-.019-.011-.033-.064-.033-.118 0-.126-.03-.122-.18.023-.08.078-.112.131-.09.152.018.02.02.07.005.126-.026.09-.023.093.053.064.044-.017.124-.054.179-.082zm-.249-.475c.337-.024.478-.078.82-.313.122-.085.258-.154.3-.154.268 0 .451-.217.451-.533 0-.382-.258-.445-.45-.11-.031.055-.037.044-.037-.072 0-.147-.025-.211-.081-.211-.022 0-.029.043-.017.113.027.169-.004.25-.096.25-.07 0-.075-.007-.045-.086.04-.104.009-.247-.037-.174-.021.033-.03.034-.03.004 0-.023-.016-.041-.035-.041-.02 0-.026.015-.015.033.012.018-.015.033-.06.033-.064 0-.085.021-.102.105-.055.277-.337.306-.404.041-.022-.09-.047-.099-.105-.04-.031.03-.04.016-.04-.066 0-.063-.017-.106-.041-.107-.03 0-.03-.008.004-.03.025-.015.035-.045.022-.065-.027-.045.193-.146.274-.126.052.012.004.04-.19.108-.093.033-.013.043.114.014.072-.017.284-.04.47-.053.187-.012.339-.031.338-.042-.006-.108-.107-.42-.183-.566-.094-.182-.094-.182-.114-.05-.032.214-.13.347-.294.397-.065.02-.075.015-.058-.029l.042-.104c.013-.032-.05-.009-.174.063a1.89 1.89 0 01-.268.136c-.065.019-.074.01-.074-.075 0-.093.01-.099.277-.17.314-.082.33-.104.294-.41-.025-.21-.102-.252-.322-.177-.132.045-.156.046-.171.005-.016-.04-.04-.036-.146.018-.16.081-.185.081-.338 0-.103-.056-.124-.059-.124-.017 0 .041-.02.038-.123-.017-.136-.072-.207-.084-.207-.033 0 .018-.03.033-.066.033-.111 0-.125.196-.046.645.024.131.024.131-.056.08-.047-.031-.115-.14-.162-.26-.081-.207-.081-.207-.121-.096a1.209 1.209 0 00-.025.526c.02.117.02.117.345.156.313.037.621.13.537.162-.025.01-.033.053-.021.12.018.103.017.104-.033.036-.07-.095-.22-.07-.22.036 0 .04-.03.1-.065.132-.094.085-.215.044-.265-.09-.09-.241-.095-.247-.098-.107-.002.09-.012.117-.032.086-.027-.042-.024.135.01.547.022.272.294.494.554.453.103-.016.133-.006.199.07.06.07.095.084.16.066.045-.012.217-.032.38-.044zm-.48-.17c0-.018.095-.032.216-.032s.215.014.215.033c0 .018-.094.033-.215.033s-.215-.015-.215-.033zm1.664-.461c.009-.036-.004-.082-.03-.103-.025-.022-.046-.076-.046-.12 0-.101.21-.324.27-.287.026.015.029.029.007.036-.021.007-.029.076-.02.174.013.136.003.18-.062.262-.091.115-.144.131-.12.038zm-1.597-.02c0-.028.015-.042.034-.03.018.01.025.034.014.05-.028.047-.048.038-.048-.02zm-.265-.775a.932.932 0 00-.115-.053c-.064-.024-.064-.025.006-.038.08-.014.209.042.209.092 0 .038-.033.038-.1 0zm-.117-.35c-.226-.135-.267-.17-.237-.2.012-.011.102.012.2.052.1.04.208.068.242.062.048-.008.064.013.072.097.013.14-.03.138-.277-.01zm-.625.927a.336.336 0 01-.033-.192c.011-.044.004-.09-.016-.102-.02-.012-.035-.037-.035-.056 0-.018.014-.023.033-.012.018.011.033-.002.033-.03 0-.027-.014-.058-.032-.068-.055-.035-.1.104-.1.308 0 .168.013.215.09.307.088.104.092.105.102.033a.412.412 0 00-.042-.188zm.478-.184c0-.016-.03-.03-.066-.03-.065 0-.087.036-.047.076.027.026.113-.008.113-.046zm1.374.006c-.023-.037-.15-.032-.15.005 0 .014.038.026.084.026.047 0 .076-.014.066-.03zM1.33 2.637c-.031-.029-.036-.018-.02.045.012.046.023.105.026.133.003.027.012.007.02-.046.008-.052-.004-.111-.026-.132zm1.648.105c-.02-.061-.092-.071-.092-.013 0 .029.024.053.053.053.028 0 .046-.018.039-.04zm-1.382-.027a.033.033 0 00-.033-.033.033.033 0 00-.033.033c0 .019.015.034.033.034a.033.033 0 00.033-.034z" fill="#a99d95"/><path d="M2.142 5.51a20.318 20.318 0 00-.274-.081c-.132-.039-.233-.084-.223-.1.01-.015-.008-.021-.04-.013a.165.165 0 01-.118-.028c-.055-.041-.05-.064.094-.39.084-.191.182-.37.218-.398.065-.05.067-.136.01-.417-.016-.084-.114-.13-.15-.072-.042.068-.176-.084-.325-.366a5.182 5.182 0 00-.2-.351c-.048-.072-.066-.153-.066-.293 0-.194 0-.194-.117-.172-.064.012-.13.014-.146.004-.016-.01 0-.093.034-.184a1.06 1.06 0 00.063-.31c0-.143 0-.144-.136-.166C.612 2.148.44 2.068.44 2.021c0-.018.06-.062.132-.1.075-.037.132-.09.132-.122 0-.03.032-.089.071-.13.07-.075.07-.075-.061-.234-.15-.18-.222-.304-.194-.332.01-.01.076-.002.147.02.07.02.174.038.23.038.091 0 .114-.02.188-.165.046-.091.14-.237.207-.325.326-.42.45-.568.473-.568.014 0 .036.046.048.103.02.09.033.1.11.084.509-.11.857-.2.898-.234.055-.047.86-.072.86-.027a.662.662 0 01-.086.151c-.047.07-.079.133-.07.141.008.008.184.039.391.068.207.03.39.065.406.08.015.014-.037.058-.116.098-.08.04-.15.079-.158.085-.008.007.075.106.184.22.11.113.217.24.239.28.03.059.068.075.17.075.072 0 .131.01.131.02s-.031.064-.07.118c-.068.095-.068.101-.012.253.031.085.123.278.203.43.08.15.136.29.125.308-.02.031-.105.028-.328-.01-.059-.01-.067.007-.068.154a.783.783 0 01-.04.248c-.02.046-.075.222-.122.393-.093.335-.21.633-.25.633-.014 0-.043-.023-.066-.05-.06-.071-.086-.062-.13.046-.092.22-.333.344-.333.17 0-.084-.04-.086-.111-.006-.05.055-.05.066-.006.103.068.057.064.121-.017.252-.068.11-.068.11.058.19.192.122.247.2.346.495.09.271.09.271.006.316a2.89 2.89 0 01-.48.17c-.015 0-.027-.03-.027-.066 0-.036-.015-.066-.034-.066-.018 0-.033.021-.033.047 0 .105-.096.148-.329.148-.228-.001-.228-.001-.192-.106a.644.644 0 01.067-.147c.023-.03.017-.041-.02-.041-.034 0-.071.057-.104.157-.039.119-.046.129-.031.041.035-.202.033-.214-.043-.225-.078-.011-.116.047-.156.234-.02.089-.117.13-.118.05a.996.996 0 00-.034-.166c-.025-.09-.053-.124-.1-.124-.055 0-.064.023-.064.165 0 .16-.017.182-.116.15zm1.042-.116a.033.033 0 00-.033-.033.033.033 0 00-.033.033c0 .018.015.033.033.033a.033.033 0 00.033-.033zm.033-.08c0-.006-.023-.021-.051-.032-.03-.011-.043-.006-.031.013.019.032.082.047.082.02zm-.745-.566c.167-.137.245-.288.185-.36-.026-.032-.028-.053-.004-.068.058-.035.04-.078-.04-.091-.053-.01-.032-.022.075-.045.203-.044.202-.126-.002-.14-.111-.006-.208.017-.371.09-.192.086-.216.09-.18.034.044-.07.013-.148-.084-.21-.082-.05-.097-.01-.043.12.045.107.043.129-.032.31a1.37 1.37 0 00-.08.229c.001.025.227.155.423.243a.875.875 0 00.153-.112zm1.274.006a.366.366 0 00-.07-.074c-.071-.063-.071-.063-.026.011.04.063.096.1.096.063zm-.81-.25c.103-.06.106-.073.064-.323-.016-.098-.036-.133-.068-.12-.025.01-.046.037-.046.06 0 .025-.03.054-.066.066-.085.027-.147.14-.105.192.017.022.019.069.004.105a.48.48 0 00-.029.094c-.003.035.12-.002.246-.075zm-.943-.297c0-.035-.023-.072-.051-.082-.028-.011-.045-.01-.038.005.007.013.022.05.034.082.027.076.055.074.055-.005zm.721-.193c.201.016.228.009.506-.13.161-.08.334-.18.385-.222a.8.8 0 01.277-.116c.286-.062.403-.224.407-.561.003-.183-.007-.218-.076-.274-.102-.082-.19-.057-.324.092-.068.075-.1.094-.09.055.019-.078-.03-.251-.075-.266-.02-.006-.052.052-.072.13-.056.215-.1.26-.08.08.017-.153.017-.153-.136-.153-.142 0-.153.006-.153.084 0 .15-.088.309-.185.333-.073.019-.105.006-.168-.067a.334.334 0 01-.078-.195c0-.106 0-.106-.068-.023-.068.083-.068.083-.049-.008.016-.072.008-.091-.038-.093-.179-.007.267-.105.623-.137.417-.037.417-.037.36-.255-.09-.348-.345-.796-.287-.502.028.14-.04.296-.176.411-.127.108-.153.096-.103-.046.036-.104.036-.104-.038-.051-.123.088-.383.218-.437.218-.03 0-.05-.03-.05-.076 0-.065.025-.081.19-.117.104-.022.24-.062.302-.09.112-.048.112-.048.094-.27-.014-.173-.033-.234-.088-.279-.064-.051-.084-.052-.206-.01-.168.06-.193.06-.193.001 0-.035-.04-.027-.169.035-.169.082-.169.082-.304.015-.085-.042-.144-.055-.157-.034-.012.02-.075.009-.166-.032-.125-.056-.15-.059-.173-.018-.015.026-.058.048-.096.048-.066 0-.068.012-.051.306.01.168.029.334.043.368.018.046.013.059-.022.047-.074-.024-.194-.225-.216-.363-.026-.16-.058-.16-.106.001-.06.201-.045.52.045.914.045.2.082.457.082.571 0 .302.08.44.32.558.13.064.192.08.201.052.022-.066.138-.045.223.04.108.108.15.117.263.06.069-.034.158-.044.31-.032zm-.456-.183c0-.013.082-.025.182-.025.1 0 .182.012.182.025 0 .014-.082.025-.182.025-.1 0-.182-.011-.182-.025zm1.632-.433c.012-.034-.002-.101-.033-.153-.052-.088-.051-.098.02-.213.082-.133.184-.205.216-.152.012.018.008.033-.009.033-.016 0-.023.079-.015.174.013.162.006.18-.093.273-.076.07-.101.081-.086.038zm-1.596-.04c.001-.04.009-.047.02-.02.01.023.008.052-.003.063-.011.01-.019-.01-.017-.044zm-.731-.387a.421.421 0 01-.064-.173c.001-.039.027-.004.062.082.061.15.115.189.195.137.055-.035.095-.302.045-.302-.019 0-.04.04-.045.09-.015.132-.107.12-.12-.016-.006-.063-.03-.107-.055-.107a.332.332 0 01-.096-.02c-.039-.014-.052.013-.061.125-.011.143-.011.143-.037.01a.87.87 0 00-.057-.189.288.288 0 01-.031-.073c0-.025.325.012.58.066.234.05.234.05.237.165.003.115.003.115-.062.032-.036-.046-.094-.083-.13-.083-.05 0-.063.023-.063.108 0 .133-.08.256-.168.256-.037 0-.092-.045-.13-.108zm2.07-.058c.027-.102.08-.165.08-.095a.233.233 0 01-.051.114c-.05.062-.05.06-.03-.019zm-1.64-.365c-.063-.034-.098-.062-.076-.063.06-.002.209.071.209.103 0 .015-.004.026-.009.024a8.168 8.168 0 01-.124-.064zm.776-.012a.234.234 0 01.132-.05c.055.002.05.008-.02.03a1.028 1.028 0 00-.133.049c-.024.012-.015 0 .02-.03zm-.798-.284a1.179 1.179 0 01-.26-.167c-.059-.065-.05-.064.167.015.148.053.236.07.25.049.012-.02.031.014.043.072.012.06.016.113.01.119a.917.917 0 01-.21-.088zm-.623 1.083a1.763 1.763 0 00-.073-.188c-.037-.083-.042-.128-.016-.169.026-.042.021-.07-.02-.114-.053-.056-.052-.058.006-.038.047.017.056.01.04-.03a.304.304 0 01-.02-.084c0-.055-.094-.031-.11.028-.074.26-.042.485.085.603.094.087.134.084.108-.008zm1.821-.37c.057-.087.054-.254-.006-.274-.022-.007-.03.018-.022.066.02.1-.078.195-.124.121a.275.275 0 01-.031-.122c0-.044-.02-.074-.05-.074-.058 0-.064.09-.015.22.062.162.166.189.248.063zM2.256.794c.078-.214.073-.298-.01-.14-.05.099-.107.341-.079.341.009 0 .049-.09.09-.201zm.833.133c.062-.053.064-.06.012-.034-.112.057-.167.101-.127.102.02 0 .072-.03.115-.068z" fill="#cc9d6b"/><path d="M1.927 5.448c-.258-.079-.496-.173-.496-.197 0-.064.317-.712.368-.751.065-.05.067-.136.01-.417-.016-.084-.114-.13-.15-.072-.042.068-.176-.084-.325-.366a5.182 5.182 0 00-.2-.351c-.048-.072-.066-.153-.066-.293 0-.194 0-.194-.117-.172-.064.012-.13.013-.146.004-.016-.01 0-.093.034-.184a1.06 1.06 0 00.063-.31c0-.143 0-.144-.136-.166C.612 2.148.44 2.068.44 2.021c0-.018.06-.062.132-.1.075-.037.132-.09.132-.122 0-.03.032-.089.071-.13.07-.075.07-.075-.061-.234-.15-.18-.222-.304-.194-.332.01-.01.076-.002.147.02.07.02.174.038.23.038.091 0 .114-.02.188-.165.046-.092.14-.237.207-.325.326-.42.45-.568.473-.568.014 0 .036.046.048.102.02.09.033.1.11.084.509-.108.857-.2.898-.234.055-.046.86-.071.86-.027a.662.662 0 01-.086.152c-.047.07-.079.133-.07.141.008.008.184.039.391.068.207.03.39.065.406.08.015.013-.037.058-.116.098-.08.04-.15.079-.158.085-.008.007.075.106.184.22.11.113.217.24.239.28.03.059.068.075.17.075.072 0 .131.01.131.02s-.031.064-.07.118c-.068.095-.068.101-.012.253.031.085.123.278.203.43.08.15.136.29.125.308-.02.03-.105.028-.328-.01-.059-.01-.067.007-.068.154a.783.783 0 01-.04.248c-.02.046-.075.222-.122.392-.093.336-.21.634-.25.634-.014 0-.043-.023-.066-.05-.06-.071-.086-.062-.13.046-.092.22-.333.344-.333.17 0-.084-.04-.086-.111-.006-.05.055-.05.066-.006.103.068.057.064.12-.017.252-.068.11-.068.11.058.19.192.122.247.2.346.494.086.257.084.319-.009.321-.01 0-.06-.125-.11-.278-.05-.153-.121-.306-.158-.34-.062-.055-.061-.05.007.065.1.17.206.586.154.605-.372.134-.385.136-.385.048 0-.036-.015-.066-.033-.066-.019 0-.034.021-.034.047 0 .105-.096.148-.329.148-.228-.001-.228-.001-.192-.106a.644.644 0 01.067-.147c.023-.03.017-.041-.02-.041-.034 0-.071.057-.104.157-.039.119-.046.129-.031.041.035-.202.033-.214-.043-.225-.078-.011-.116.047-.156.233-.02.09-.117.131-.118.05a.996.996 0 00-.034-.165c-.025-.09-.053-.124-.1-.124-.055 0-.064.023-.064.165 0 .192.01.19-.33.087zm1.257-.054a.033.033 0 00-.033-.033.033.033 0 00-.033.033c0 .018.015.033.033.033a.033.033 0 00.033-.033zm-1.46-.182c.038-.064.055-.116.038-.116-.028 0-.132.169-.132.214 0 .042.03.01.094-.098zm1.493.103c0-.007-.023-.022-.051-.033-.03-.011-.043-.006-.031.013.019.032.082.047.082.02zm.223-.172a2.805 2.805 0 00-.324-.082c-.31-.067-.31-.067-.367.01-.069.09-.087.081.342.153.332.056.341.056.352-.005.006-.034.005-.068-.003-.076zm-1.183-.045c.121-.237.058-.286-.075-.06-.06.1-.072.148-.045.165a.239.239 0 00.046.025.842.842 0 00.074-.13zm-.115-.087a.577.577 0 00.077-.161c-.036-.032-.234-.12-.245-.11-.007.007-.05.084-.096.17-.083.157-.083.157.024.203.148.064.14.068.24-.102zm.215.118a.033.033 0 00-.033-.033.033.033 0 00-.033.033c0 .019.015.034.033.034a.033.033 0 00.033-.034zm-.515-.252c.047-.084.085-.157.085-.161 0-.005-.03-.017-.067-.026-.09-.024-.224.219-.162.293a.187.187 0 00.049.047c.005 0 .048-.069.095-.153zm.63-.129c.167-.137.245-.288.185-.36-.026-.032-.028-.053-.004-.068.058-.035.04-.078-.04-.091-.053-.01-.032-.022.075-.045.203-.044.202-.126-.002-.14-.112-.006-.209.017-.38.094-.127.056-.211.084-.189.06.057-.056.052-.127-.013-.199-.072-.08-.16-.081-.126-.003.056.132.05.243-.021.44-.06.164-.067.212-.032.224.024.008.12.056.213.106a4.3 4.3 0 00.18.096c.007.002.076-.05.154-.114zm.42-.22c.158-.067.165-.076.145-.173a8.249 8.249 0 01-.04-.207c-.012-.072-.033-.1-.064-.088-.026.01-.047.037-.047.059s-.037.058-.082.078c-.046.021-.084.05-.086.064-.01.085-.013.34-.004.34.006 0 .086-.033.177-.072zm.51-.301c.153-.193.102-.26-.08-.106-.095.08-.229.115-.188.05.012-.02-.002-.024-.032-.013-.038.015-.043.031-.017.062.021.026.026.099.012.186-.023.143-.023.143.088.05.06-.051.159-.154.218-.229zm-1.409-.02c0-.034-.023-.072-.051-.082-.028-.011-.045-.01-.038.005.007.013.022.05.034.082.027.076.055.074.055-.005zm.721-.193c.201.016.228.009.506-.13.161-.08.334-.18.385-.222a.8.8 0 01.277-.115c.286-.063.403-.225.407-.562.003-.183-.007-.218-.076-.274-.102-.082-.19-.057-.324.092-.068.075-.1.094-.09.055.019-.078-.03-.25-.075-.266-.02-.006-.052.052-.072.13-.056.216-.1.26-.08.08.017-.153.017-.153-.136-.153-.142 0-.153.006-.153.084 0 .151-.088.309-.185.333-.073.019-.105.006-.168-.067a.334.334 0 01-.078-.195c0-.105 0-.105-.068-.023-.068.083-.068.083-.049-.008.014-.061.007-.092-.022-.093-.023-.001.007-.024.067-.05.06-.027.3-.065.533-.086.424-.038.424-.038.368-.256-.09-.348-.346-.795-.288-.502.028.14-.04.297-.176.411-.127.108-.153.096-.103-.046.036-.104.036-.104-.038-.051-.123.088-.383.219-.437.219-.03 0-.05-.03-.05-.077 0-.065.025-.081.19-.116.104-.023.24-.063.302-.09.112-.049.112-.049.094-.27-.014-.173-.033-.235-.088-.28-.064-.051-.084-.052-.206-.01-.168.06-.193.06-.193.002 0-.036-.04-.028-.169.034-.169.082-.169.082-.304.015-.085-.042-.144-.055-.157-.034-.012.02-.075.009-.166-.032-.125-.056-.15-.059-.173-.018-.015.027-.058.048-.096.048-.066 0-.068.012-.051.306.01.168.029.334.043.368.018.046.013.059-.022.047-.074-.024-.194-.225-.216-.363-.026-.16-.058-.16-.106.001-.06.201-.045.52.045.914.045.2.082.457.082.571 0 .302.08.44.32.558.13.064.192.08.201.052.022-.066.138-.045.223.04.108.108.15.118.263.06.069-.034.158-.044.31-.031zm-.456-.183c0-.013.082-.024.182-.024.1 0 .182.01.182.024s-.082.025-.182.025c-.1 0-.182-.011-.182-.025zm1.634-.444c.01-.035-.002-.092-.029-.128a.247.247 0 01-.05-.104c-.001-.054.195-.275.243-.273.02 0 .007.027-.031.058a.784.784 0 00-.125.143c-.05.077-.05.09-.006.128.059.048.067.184.014.217-.024.015-.03.001-.016-.04zm-2.329-.416a.421.421 0 01-.064-.173c.001-.039.027-.004.062.083.061.15.115.188.195.137.055-.036.095-.303.045-.303-.019 0-.04.041-.045.091-.015.131-.107.119-.12-.016-.006-.064-.03-.108-.055-.108a.332.332 0 01-.096-.02c-.039-.014-.052.013-.061.125-.011.143-.011.143-.037.01a.87.87 0 00-.057-.189.288.288 0 01-.031-.073c0-.04.659.061.766.117.035.019.048.054.037.097-.016.062-.023.063-.074.017-.098-.088-.167-.064-.167.058 0 .132-.08.255-.168.255-.037 0-.092-.045-.13-.108zm2.067-.057a.332.332 0 01.057-.116c.023-.022.026-.006.01.05a.332.332 0 01-.057.115c-.023.022-.026.006-.01-.05zm-1.637-.366c-.063-.034-.091-.062-.061-.063.03 0 .09.028.132.064.095.079.08.078-.07-.001zm.776-.012a.234.234 0 01.132-.05c.055.002.05.008-.02.03a1.028 1.028 0 00-.133.05c-.024.012-.015-.002.02-.03zm-.798-.284a1.179 1.179 0 01-.26-.167c-.059-.065-.05-.064.167.015.148.054.236.07.25.049.012-.02.031.014.043.073.012.059.016.112.01.118a.917.917 0 01-.21-.088zm-.631.95c-.01-.139-.036-.237-.082-.302-.06-.085-.061-.094-.01-.074.044.017.053.01.038-.03a.304.304 0 01-.02-.084c0-.055-.095-.031-.111.028-.05.173-.055.28-.022.402.032.12.142.268.199.268.011 0 .015-.093.008-.207zm1.83-.237c.056-.087.053-.254-.007-.273-.022-.007-.03.017-.022.065.02.1-.078.195-.124.121a.275.275 0 01-.031-.122c0-.043-.02-.074-.05-.074-.058 0-.064.09-.015.22.062.162.166.189.248.063zM2.255.795c.078-.215.073-.299-.01-.14-.05.098-.107.34-.079.34.009 0 .049-.09.09-.2zm.833.132c.062-.053.064-.06.012-.034-.112.057-.167.101-.127.102.02 0 .072-.03.115-.068z" fill="#8f7057"/><path d="M1.962 5.458a1.251 1.251 0 01-.277-.095c-.019-.018-.003-.069.04-.129a.402.402 0 00.07-.133c0-.07-.09 0-.143.113-.06.125-.081.134-.167.072-.054-.04-.049-.062.076-.33a2.43 2.43 0 00.135-.324c0-.019.036-.069.081-.11.076-.07.08-.09.058-.285-.017-.146-.041-.22-.082-.245-.046-.028-.066-.026-.09.012-.046.075-.171-.06-.33-.36a22.83 22.83 0 00-.2-.366.601.601 0 01-.066-.294c0-.178 0-.178-.117-.16-.145.024-.168-.019-.099-.184a.884.884 0 00.05-.284c0-.162 0-.162-.135-.183C.62 2.149.44 2.068.44 2.026c0-.015.052-.051.115-.081a.331.331 0 00.164-.172c.027-.065.071-.126.099-.136.039-.015.014-.064-.112-.22-.089-.11-.17-.229-.179-.264-.014-.057-.004-.063.072-.044.049.012.158.03.243.04.155.02.155.02.238-.142.104-.203.613-.871.683-.898.015-.006.037.035.049.09.025.116.035.118.282.052.1-.027.27-.064.38-.084.23-.04.38-.093.38-.135 0-.016.045-.029.1-.029.054 0 .099.014.099.032 0 .021.03.021.084 0C3.233 0 3.68-.009 3.68.026c0 .013-.04.08-.088.15-.048.07-.079.134-.07.144.01.01.173.04.361.067.189.027.373.06.409.076.058.023.048.036-.083.102-.082.041-.155.08-.162.087-.008.007.075.106.184.22.11.113.217.24.239.28.03.059.068.075.17.075.072 0 .131.008.131.018a.52.52 0 01-.07.114c-.07.095-.071.099-.013.255.032.087.123.283.203.435.08.152.136.291.124.309-.017.029-.105.026-.326-.012-.06-.01-.066.006-.063.154.001.091-.008.173-.021.182a1.791 1.791 0 00-.108.331c-.084.317-.196.637-.253.726-.026.041-.041.039-.104-.016-.054-.049-.077-.054-.088-.022a1.199 1.199 0 01-.12.182c-.119.155-.229.184-.246.064-.013-.09-.09-.097-.137-.01-.026.048-.022.076.015.113.067.067.063.108-.023.247-.047.076-.06.122-.035.13.02.007.1.057.175.112.142.102.217.236.308.547.045.154.045.173-.002.19-.065.026-.057.038-.124-.195-.067-.232-.17-.447-.217-.447-.044 0-.041.013.032.138.052.09.167.46.167.538 0 .021-.147.089-.286.131-.055.017-.077.006-.094-.045-.028-.09-.071-.086-.095.01-.028.11-.292.173-.33.08-.013-.034-.017-.034-.019 0-.001.023-.046.04-.102.04-.1 0-.1 0-.048-.122a.428.428 0 01.091-.149c.051-.032.217-.033.17 0-.018.013-.025.068-.015.123.013.07.027.086.046.056.015-.024.02-.052.01-.062-.048-.047.082-.114.179-.093.096.021.1.018.09-.07-.01-.09-.023-.096-.316-.158-.295-.062-.308-.062-.372-.004-.082.074-.084.115-.008.12.036.002.027.011-.025.025-.063.017-.094.06-.13.179-.045.15-.135.216-.135.101 0-.08-.107-.408-.133-.408-.013 0-.016-.037-.007-.083.011-.058.001-.082-.034-.082a.08.08 0 01-.069-.05c-.015-.04-.008-.042.042-.01.07.043.202-.035.345-.205.05-.059.088-.082.096-.058.015.046.263-.053.35-.139.045-.045.047-.04.027.04-.012.05-.009.091.008.091s.13-.107.25-.237c.195-.21.214-.243.17-.287-.043-.043-.062-.039-.164.04-.132.1-.186.11-.186.034 0-.05-.007-.05-.083 0-.079.052-.082.052-.082-.012 0-.09-.048-.084-.113.016-.03.045-.076.082-.103.082a.048.048 0 00-.05.048c0 .026-.012.056-.027.065-.016.01-.022-.018-.013-.062.01-.05.041-.084.086-.09.039-.006.07-.033.07-.06 0-.03.073-.076.184-.117.168-.062.543-.269.66-.363a.516.516 0 01.182-.064c.298-.054.426-.224.428-.568.002-.155-.013-.22-.061-.273-.09-.1-.206-.088-.316.033-.094.103-.094.103-.117-.033-.032-.19-.149-.17-.149.026 0 .031-.02.083-.042.115-.037.05-.041.04-.03-.077.013-.134.013-.134-.14-.134-.143 0-.152.005-.154.091-.002.087-.003.088-.032.016-.036-.09-.145-.104-.117-.014.01.032-.001.087-.026.121-.044.06-.047.06-.086-.012-.022-.041-.031-.096-.022-.122.031-.08-.107-.054-.198.037-.079.078-.083.079-.062.012.014-.044.007-.081-.02-.097-.027-.018.003-.038.088-.06.168-.045.834-.112.873-.089.06.037.061-.04.004-.248-.06-.221-.208-.54-.267-.577-.021-.013-.034.042-.034.15 0 .15-.013.184-.112.283-.155.154-.188.143-.132-.042.025-.085.046-.21.046-.277 0-.335-.092-.43-.334-.345-.168.06-.162.06-.162 0 0-.038-.036-.03-.173.032-.172.08-.172.08-.314.001-.108-.06-.142-.068-.142-.032 0 .06.006.06-.148-.019-.14-.07-.232-.086-.2-.034.011.018-.017.042-.064.053-.08.02-.084.031-.084.274 0 .14.014.302.031.36.017.06.02.108.005.108-.072 0-.234-.3-.234-.434 0-.104-.059-.07-.1.059-.037.11-.03.632.01.821.008.037.008.048 0 .025-.02-.055-.058-.052-.11.01-.026.031-.044.145-.046.28-.002.25.073.404.208.424.052.008.071.033.071.1 0 .146.142.317.33.398.092.04.181.064.197.054.017-.01.047.035.069.1.034.102.029.152-.035.35-.04.126-.068.234-.061.24.007.006.057.036.112.067.067.037.076.049.026.035-.06-.016-.085.004-.141.115a.477.477 0 01-.085.134c-.01 0 .014-.06.052-.133.07-.138.064-.198-.02-.198-.054 0-.18.188-.178.265.002.06.205.195.335.221.052.01.103.032.113.048.03.05.101.031.133-.035.025-.054.036-.056.072-.016.035.038.034.047-.008.047-.04 0-.051.038-.051.165 0 .09-.011.164-.025.163a5.093 5.093 0 01-.271-.066zm.031-1.253c0-.06-.055-.123-.083-.094-.023.022.024.159.054.159.016 0 .03-.03.03-.065zM2.305.693c.06-.12.065-.16.022-.16-.045 0-.168.272-.168.37 0 .048.01.114.024.148.017.043.03.016.046-.096.013-.086.047-.204.076-.261zm.768.267c.103-.064.146-.13.085-.13-.037 0-.261.195-.226.197.016 0 .08-.03.14-.067zM2.456.836c0-.024-.015-.034-.033-.023-.018.012-.033.053-.032.093 0 .06.006.064.032.023a.214.214 0 00.033-.093zM1.754.69C1.746.667 1.704.644 1.66.64 1.582.629 1.582.63 1.644.68c.078.061.128.066.11.01zm1.003 4.785c.001-.039.009-.046.02-.02.01.024.008.052-.003.063-.011.011-.019-.009-.017-.043zm.046-.146c.009-.046.016-.094.017-.108 0-.013.034-.023.075-.02.052.002.058.007.018.018-.03.008-.072.055-.091.104-.034.085-.035.085-.02.006zm-.124-.89c-.014-.055-.01-.068.014-.044.02.02.029.055.02.078-.007.025-.022.01-.034-.034zm.36-.122c-.012-.03-.015-.063-.005-.072.009-.01.026.009.037.039.012.03.014.063.005.072-.009.01-.026-.009-.038-.04zm-.868-.199c-.005-.069.003-.073.066-.04.039.02.074.04.079.043.005.004-.025.022-.066.04-.066.03-.075.025-.08-.043zm.393-.102a.282.282 0 01.116 0c.031.008.005.015-.058.015-.064 0-.09-.007-.058-.015zm-.182-.199a.351.351 0 01.133 0c.031.009-.002.016-.075.015-.073 0-.099-.007-.058-.015zM3.87 3.26c-.082-.11-.072-.142.012-.035.039.049.065.094.058.1-.006.006-.038-.023-.07-.065zM1.594 3.02c-.037-.05-.037-.052.002-.016.066.058.157.05.196-.017.019-.032.034-.042.035-.023.003.109-.163.149-.233.056zm1.49.015a.328.328 0 00.124-.123c.025-.05.041-.062.042-.03 0 .064-.135.196-.2.195-.027 0-.011-.019.034-.042zm-1.75-.043c.002-.038.01-.046.02-.02.01.024.009.053-.002.064-.011.01-.019-.01-.018-.044zM2.92 2.98c-.02-.037-.028-.066-.018-.066.009 0 .032.03.051.066.02.036.028.066.02.066-.01 0-.033-.03-.053-.066zm1.05-.035c.04-.043.08-.07.087-.063.008.008-.025.043-.073.078-.088.062-.088.062-.014-.015zm-.336-.041c.012-.033.03-.051.04-.041.01.01 0 .037-.022.06-.033.032-.036.028-.018-.02zm-2.35-.021c-.01-.017-.003-.04.015-.052.019-.011.034.002.034.03 0 .059-.02.068-.048.022zm.543-.066c-.008-.062-.034-.12-.058-.128-.024-.008-.041.006-.038.03.025.177-.07.218-.1.044-.024-.135-.172-.149-.223-.02-.035.087-.035.086-.039-.033-.001-.067-.022-.13-.044-.138-.079-.032.26-.022.457.013.293.052.303.057.303.154 0 .078-.004.081-.04.032a.153.153 0 00-.11-.056c-.053 0-.072.025-.08.108-.013.107-.013.107-.028-.006zm1.032-.003c0-.046.008-.064.017-.041.01.022.01.06 0 .082-.01.023-.017.004-.017-.041zM1.5 2.794c.001-.038.01-.046.02-.02.01.024.008.053-.003.064-.01.01-.019-.01-.017-.043zm.526-.245c-.03-.019-.033-.032-.01-.032.022 0 .049.014.06.032.025.041.014.041-.05 0zm.821-.055c.024-.01.052-.008.063.003.011.01-.008.018-.043.017-.039-.002-.046-.009-.02-.02zm-.788-.2c-.078-.027-.367-.215-.353-.229a.756.756 0 01.203.054c.105.036.204.057.22.048.017-.01.03-.004.03.014 0 .018.009.056.02.084.02.054-.023.064-.12.03zm.541-.027c-.01-.028-.01-.06.002-.072.026-.027.49-.146.506-.13.012.013-.432.253-.467.253-.012 0-.03-.023-.04-.051z" fill="#5a5858"/><path d="M2.457 5.452c0-.098-.105-.389-.14-.389-.016 0-.012-.03.008-.068.031-.058.027-.072-.03-.086-.036-.01-.074-.038-.083-.063-.014-.037-.006-.039.045-.007s.085.023.2-.058a.596.596 0 00.155-.138c.01-.024.053-.043.097-.043.097 0 .33-.113.354-.172.013-.034.017-.034.02 0a.258.258 0 01-.033.108c-.07.132.035.057.265-.19.21-.225.23-.258.187-.302-.044-.044-.063-.04-.165.038-.135.103-.153.107-.153.035 0-.03-.018-.046-.041-.036l-.097.039c-.037.015-.058.003-.066-.037-.009-.045.05-.089.247-.184.142-.069.308-.163.368-.209.06-.046.195-.106.3-.133.233-.061.238-.064.317-.193.067-.11.088-.096.027.019-.043.08-.06.255-.028.276.054.033.338-.913.29-.962a.793.793 0 00-.154-.043c-.111-.025-.133-.023-.106.01.027.033.01.034-.081.005-.09-.029-.103-.041-.058-.06.032-.012.04-.023.019-.024-.021-.001-.12-.077-.22-.169-.101-.092-.188-.148-.195-.127-.007.021-.03-.034-.05-.123-.032-.141-.03-.154.009-.096.025.036.061.084.08.106.019.022.034.049.034.06 0 .033.244.248.34.3.108.058.383.114.403.082.008-.012-.053-.08-.134-.148a.974.974 0 01-.183-.197c-.02-.039.036 0 .125.086.09.087.173.157.185.157.012 0 .031-.056.043-.124.043-.256.045-.258.149-.144.058.064.126.103.178.103.106 0 .107-.038.001-.192a2.464 2.464 0 01-.185-.387c-.13-.338-.116-.322-.228-.264a1.34 1.34 0 01-.266.086c-.17.036-.17.036-.074.124.053.048.166.14.25.203a.7.7 0 01.156.139c.001.03-.213.07-.38.07-.138 0-.34-.088-.476-.206-.044-.038-.097-.07-.119-.07-.021 0-.057-.04-.08-.09-.041-.091-.041-.091.053-.002.051.049.182.142.29.207.157.094.23.117.364.117.148 0 .291-.043.249-.073l-.249-.199c-.177-.142-.272-.194-.397-.217-.15-.027-.136-.03.15-.03.34 0 .55-.063.675-.203.063-.071.063-.071-.124-.071-.102 0-.324-.024-.493-.053a2.457 2.457 0 00-.478-.039c-.094.008-.164.002-.155-.013.025-.04.01-.036-.179.055a1.023 1.023 0 01-.208.083c-.028 0-.027.012 0 .046.032.038.01.056-.117.1-.085.028-.163.045-.172.036-.009-.01.003-.017.026-.017.034 0 .035-.01.002-.049-.033-.04-.03-.053.02-.07.512-.18.595-.225.765-.406.233-.25.228-.282-.033-.26-.36.029-.854.32-.9.532-.013.057-.03.087-.039.067-.018-.046.26-.891.355-1.077.038-.073.06-.14.052-.148-.038-.038-.445.22-.615.39a.635.635 0 00-.211.489c-.007.205.065.362.18.391.034.01.062.03.062.045 0 .052-.163-.045-.219-.13a.812.812 0 01-.07-.291C2.05.766 2.05.764 1.887.661A.826.826 0 001.575.54c-.15-.017-.15-.017-.093.095.095.185.231.37.394.535.084.086.139.156.12.156a.07.07 0 01-.051-.031.664.664 0 00-.209-.086.987.987 0 00-.437-.03c-.34.034-.53.034-.639.001-.092-.028-.092-.028.006.117.054.08.14.17.192.2.089.052.105.051.273-.008.099-.035.187-.056.195-.048.017.017-.202.116-.255.116-.018 0-.096.073-.175.162-.079.09-.201.197-.273.239-.13.076-.13.076-.033.117.173.074.51.033.51-.06 0-.044.168-.3.186-.284.008.008 0 .054-.018.102a.866.866 0 00-.041.205c-.005.066-.022.128-.04.138-.018.012-.023-.031-.01-.11.02-.129.02-.129-.048-.038-.037.05-.087.091-.112.091-.031 0-.043.05-.042.174.001.095-.021.24-.05.321-.03.081-.047.154-.04.161.043.043.18-.04.217-.132.024-.058.05-.088.057-.066.007.02.036.038.063.038.036 0 .028.019-.027.064-.07.056-.078.09-.078.318 0 .254 0 .254.135.375.074.066.145.16.157.208.034.138.175.282.335.343.08.03.158.047.174.037.016-.01.046.026.066.08.035.093.033.096-.045.076-.081-.02-.081-.02-.019.091.058.104.059.121.01.271-.046.148-.046.163.004.191.049.028.046.045-.029.18-.103.184-.136.195-.043.014.037-.073.059-.148.048-.165-.043-.07-.138-.028-.192.085-.07.149-.07.21.002.237a.766.766 0 01.14.081.44.44 0 00.157.07c.04.007.084.022.097.034.044.045.106.022.128-.045.012-.038.03-.061.04-.051.01.01.006.044-.008.077a.532.532 0 00-.018.183c.004.074-.008.124-.03.124-.025 0-.03-.04-.016-.116.019-.099.014-.113-.032-.096a.109.109 0 01-.094-.011.657.657 0 00-.148-.068c-.087-.03-.117-.026-.158.015-.035.035-.041.064-.02.09.024.028.014.041-.033.045-.067.005-.067.005.001-.111.076-.127.086-.178.036-.178-.017 0-.063.06-.101.135-.07.138-.138.158-.073.022.06-.125.073-.187.043-.205-.015-.01-.051.042-.08.114-.03.073-.068.132-.087.132-.046 0-.049.01.1-.306.072-.155.132-.297.132-.314 0-.018.036-.069.08-.113.076-.076.08-.097.059-.29-.019-.165-.04-.22-.098-.258-.067-.045-.075-.044-.075.004 0 .15-.152-.015-.332-.36a2.629 2.629 0 00-.19-.324c-.033-.037-.059-.141-.067-.273-.014-.213-.014-.213-.142-.213-.07 0-.128-.012-.127-.025 0-.014.03-.107.065-.207.035-.1.064-.227.065-.283 0-.096-.007-.102-.191-.14-.2-.041-.354-.13-.281-.16.113-.047.253-.169.261-.226a.228.228 0 01.084-.12c.074-.056.074-.056-.093-.24a1.057 1.057 0 01-.186-.254c-.017-.064-.009-.07.07-.05.049.011.164.03.256.04.167.018.167.018.222-.121.058-.147.187-.336.405-.59.072-.086.164-.196.203-.246a.363.363 0 01.087-.09c.01 0 .026.053.039.118.013.072.038.113.061.104C1.983.282 2.3.2 2.49.166c.119-.022.265-.067.325-.101.121-.07.226-.081.244-.027.008.024.039.024.104 0a.515.515 0 01.165-.033c.062.002.059.01-.027.049a1.064 1.064 0 01-.217.066c-.085.015-.128.046-.155.109-.086.196-.237.61-.257.7-.021.098-.021.098.146-.015.247-.166.498-.25.748-.25.118 0 .214.011.214.025 0 .014-.09.126-.2.248-.202.223-.202.223.007.225.116.001.284.016.375.033.091.017.246.04.344.053.179.022.179.022.116-.086-.068-.116-.427-.465-.478-.465-.081 0-.016-.063.117-.114.082-.031.15-.068.15-.082 0-.014-.117-.036-.259-.047-.295-.025-.544-.089-.534-.137.011-.052.263-.328.263-.289a.38.38 0 01-.083.134c-.142.17-.134.175.364.239.164.021.31.05.327.066.025.023-.124.138-.228.176-.018.007.05.1.152.206.1.108.21.236.243.286.048.074.084.091.188.091.144 0 .16.028.062.116a.21.21 0 00-.066.132c0 .04.088.25.196.465.108.215.19.404.18.418-.028.046-.209.03-.293-.026-.077-.05-.081-.049-.102.035a.603.603 0 00-.004.202c.01.062.007.114-.007.114s-.06.13-.101.289c-.082.314-.258.802-.29.802a.267.267 0 01-.085-.058c-.05-.044-.07-.048-.08-.015-.032.089-.23.321-.282.331-.037.007-.063-.018-.077-.074-.024-.096-.085-.11-.149-.032-.034.04-.034.064-.003.107.078.11.08.144.01.238-.093.127-.09.139.05.214.168.09.271.242.36.525.072.235.072.247.014.262-.047.013-.065-.008-.081-.088-.034-.17-.154-.463-.22-.533-.08-.085-.078-.017.003.122.035.06.087.2.115.312.06.236.062.243.025.243-.015 0-.028-.018-.028-.04 0-.024-.034-.152-.075-.285-.063-.203-.083-.236-.12-.199a.286.286 0 00-.053.144c-.006.055-.026.11-.044.124-.018.013-.005.024.029.024.05 0 .054.01.023.048-.022.026-.037.067-.033.091.01.08-.002.237-.018.221a.615.615 0 01-.033-.16.563.563 0 00-.036-.163c-.027-.027-.482-.132-.577-.134a.154.154 0 00-.13.073c-.09.143-.167.32-.167.387 0 .038-.022.068-.05.068-.03 0-.05-.03-.05-.075zm1.01-.502c.012-.063.01-.132-.004-.154-.016-.026-.01-.032.014-.017.022.014.038.002.038-.029 0-.029.024-.09.053-.135.051-.077.05-.08-.005-.06-.044.018-.052.012-.032-.02.017-.028.014-.036-.007-.023-.02.012-.054-.002-.077-.03-.048-.057-.02-.076-.37.26-.191.184-.191.184-.034.234a1.88 1.88 0 00.38.082c.012.003.032-.046.044-.108zM1.86 4.582c0-.029-.015-.042-.034-.031-.018.011-.025.035-.014.052.028.045.048.037.048-.021zm1.04-3.153c.035-.014.049-.035.03-.046-.043-.027-.177.008-.177.046 0 .035.058.035.147 0zM1.68 1.01a2.275 2.275 0 01-.201-.284c-.052-.1-.054-.1-.12-.04a1.333 1.333 0 00-.248.377c-.037.084-.037.084.233.071.148-.007.306.002.352.02.14.058.138.045-.016-.144zm.493-.42a1.2 1.2 0 01.24-.256c.083-.063.134-.12.115-.126-.042-.014-.488.104-.653.173-.113.048-.113.048-.114-.075 0-.122 0-.122-.114.01a.867.867 0 00-.115.153c-.001.012.055.03.125.041.07.011.185.064.256.118a.946.946 0 00.15.1.489.489 0 00.11-.139zM2.856 5.5c-.004-.07.09-.228.148-.25.071-.028.115-.027.11.003a.96.96 0 000 .116c.004.107.054.12.08.021.01-.038.034-.06.052-.048.02.011.026.043.016.07-.01.026-.003.048.018.048.057 0 .043-.104-.022-.152-.052-.04-.053-.044-.002-.045.03-.001.078.008.106.018.047.018.047.03.001.118-.038.073-.066.092-.115.077-.036-.012-.064-.005-.064.015s-.03.035-.066.035c-.037 0-.066-.017-.066-.037 0-.027-.013-.026-.047.002-.03.024-.054.027-.067.006a.039.039 0 01.014-.053.271.271 0 00.068-.086c.026-.048.024-.062-.007-.056-.023.005-.067.061-.098.125s-.058.096-.06.073zm-.009-.294c.024-.01.052-.008.063.003.011.011-.008.019-.043.017-.039-.002-.046-.009-.02-.02zm.194-.892a.091.091 0 01-.022-.057c0-.02.015-.018.039.005.021.022.031.047.022.057-.01.009-.027.007-.04-.005zm-.85-.193c0-.029.02-.04.05-.029.028.01.05.024.05.029 0 .005-.022.018-.05.028-.03.012-.05 0-.05-.028zM4.318 2.98c0-.082.007-.116.015-.075a.47.47 0 010 .15c-.008.04-.015.006-.015-.075zm-3.033-.097c-.01-.017-.004-.04.014-.052.019-.011.034.002.034.031 0 .058-.02.067-.048.02zm.363-.044a.857.857 0 01-.024-.107c-.015-.092-.213-.115-.232-.027-.008.036-.02.016-.031-.052-.018-.112-.018-.112.2-.09.326.031.515.09.521.164.004.045-.005.052-.031.025-.05-.05-.189-.047-.19.005 0 .023-.016.015-.035-.017-.051-.088-.096-.069-.096.042 0 .098-.056.137-.082.057zm1.372-.058c0-.087-.012-.099-.098-.099-.055 0-.11.023-.127.054-.026.046-.033.044-.048-.016-.012-.046 0-.074.036-.084.296-.087.98-.121.905-.046a.176.176 0 00-.04.107c0 .037-.016.09-.035.117-.026.038-.032.022-.024-.066.008-.105.002-.115-.073-.111l-.177.008c-.075.003-.09.016-.075.062.02.055.018.055-.025 0-.071-.092-.12-.069-.12.058 0 .08-.015.115-.05.115-.033 0-.05-.033-.05-.099zm.749-.172c-.063-.261-.054-.35.01-.101.069.267.061.256.134.19.098-.089.096-.046-.002.056-.086.089-.086.089-.142-.145zm-2.56-.241c0-.073.007-.099.015-.058s.008.101 0 .133c-.009.031-.015-.002-.015-.075zm.75-.131a.848.848 0 01-.194-.13c-.038-.047-.031-.048.06-.017.057.02.095.05.085.066-.01.017.008.028.041.025.139-.012.202.009.218.071.023.086-.022.082-.21-.015zm.165.003a.41.41 0 00-.097-.035c-.082-.022-.082-.022 0 .026.07.041.14.047.097.008zm.481.044c-.01-.018.015-.033.057-.033.09-.001.269-.094.192-.1-.027-.001.009-.024.08-.05.179-.066.185-.037.014.063-.2.117-.319.158-.343.12zm.525-.135c.024-.065.042-.083.05-.05.008.043.024.047.082.019.05-.024.04-.008-.027.05-.13.11-.152.106-.105-.019zM1.5 2.101c-.075-.097-.153-.307-.123-.336.011-.011.02 0 .02.027.001.025.032.113.069.194.052.116.074.138.098.1.024-.039.03-.034.03.025.002.095-.012.094-.093-.01zm1.18.062c.025-.01.053-.008.064.003.011.011-.008.019-.043.018-.039-.002-.047-.01-.02-.02zm-1.144-.225c0-.055.008-.073.016-.041a.19.19 0 01-.001.1c-.01.022-.016-.005-.015-.06zm1.653 0c.001-.055.008-.073.017-.041a.19.19 0 01-.001.1c-.01.022-.016-.005-.016-.06zm.151-.122c-.01-.116-.036-.184-.078-.214-.1-.07-.219-.177-.197-.177.011 0 .096.052.189.116.092.064.153.116.136.116-.018 0-.025.07-.016.165.009.09.008.165 0 .165-.01 0-.025-.077-.034-.17zm-.15-.093c0-.064.007-.09.016-.058a.272.272 0 010 .116c-.009.031-.015.006-.015-.058zM1.34 1.698c-.045-.015-.021-.04.244-.26.135-.111.135-.111.277-.043.115.056.148.06.17.025.022-.036.034-.035.07.005.023.027.029.038.012.025-.016-.013-.047-.01-.069.008-.026.021-.084.014-.174-.02-.141-.057-.136-.058-.288.078-.025.023-.056.041-.067.041-.028 0-.102.074-.119.12-.007.02-.033.029-.056.02zm.867-.192c-.06-.049-.06-.05.019-.012.101.048.12.063.078.063-.018 0-.061-.023-.097-.051zm.151.039c0-.007.03-.02.066-.03.037-.01.058-.004.048.012-.018.03-.114.044-.114.018zm.199-.087a.2.2 0 01.082-.032c.018 0 .011.015-.016.032a.2.2 0 01-.083.032c-.018 0-.01-.014.017-.032z" fill="#48372b"/><path d="M2.462 5.413c.008-.063.002-.106-.013-.097-.014.009-.027-.011-.028-.044-.005-.105-.025-.183-.057-.215-.061-.061.004-.193.154-.31.153-.12.153-.12.01.015-.144.136-.15.18-.013.084.04-.028.074-.04.074-.024 0 .014.014.047.03.071.021.035.057.016.156-.082a.648.648 0 00.099-.105c-.016.012-.052 0-.079-.027-.055-.055-.055-.055.058-.11.074-.034.076-.033.025.008-.079.063-.073.091.017.076.041-.007.07-.032.063-.057-.006-.027.019-.019.064.021.04.036.062.044.046.019-.02-.036-.013-.042.032-.025.043.017.053.01.04-.027-.011-.028-.005-.05.014-.05.02 0 .088-.06.153-.132.065-.072.133-.122.151-.11.02.012.024.004.01-.018-.013-.022 0-.047.028-.058.028-.011.045-.03.037-.043-.008-.013 0-.044.015-.07.025-.04.033-.038.05.009.013.033-.006.096-.047.153a.426.426 0 00-.07.125c0 .016.066.07.146.12.08.05.17.127.197.17.092.14.24.647.17.575A1.77 1.77 0 013.91 5c-.085-.305-.151-.41-.25-.39-.047.009-.068 0-.058-.025.018-.047-.06-.118-.144-.13-.067-.011-.151.049-.39.276a.86.86 0 01-.255.18c-.059.014-.084.038-.072.068.01.027-.011.063-.049.083-.036.02-.067.061-.067.093s-.02.129-.043.215c-.05.188-.14.221-.12.044zm.09-.312c-.048-.017-.073.017-.045.063.018.029.031.027.052-.006.016-.027.013-.05-.007-.057zm.004-.085c0-.02.015-.013.033.014.026.041.032.038.032-.016 0-.088-.055-.171-.088-.135-.015.015-.006.035.02.044.034.013.027.03-.03.073-.056.043-.06.056-.02.056.029 0 .053-.016.053-.036zm-.348.348c0-.07.011-.122.025-.114.014.008.025.067.025.13 0 .062-.011.113-.025.113-.014 0-.025-.058-.025-.129zm.796.053c.013-.032.031-.05.041-.04.01.01 0 .036-.022.059-.033.032-.037.028-.019-.019zm.345-.09c0-.017.016-.032.035-.032.02 0 .026.015.015.033-.011.018-.027.033-.035.033-.008 0-.015-.015-.015-.033zm-1.855-.19a.548.548 0 01.086-.14c.025 0-.059.179-.109.232-.026.027-.015-.014.023-.091zm1.958-.057a.937.937 0 01.12-.364c.047-.079.056-.041.01.042a1.517 1.517 0 00-.08.223c-.025.09-.048.135-.05.099zm-1.844-.198c.02-.046.049-.083.062-.083.013 0 .007.037-.013.082-.021.046-.05.083-.063.083-.013 0-.007-.037.014-.082zm1.014-.067a.05.05 0 01.052-.05c.037 0 .045-.018.03-.068-.021-.066-.02-.066.047-.009a.28.28 0 01.07.074c0 .008-.01.005-.023-.007-.012-.012-.042.008-.068.044-.054.078-.108.086-.108.017zm1.04.015c-.012-.02-.015-.043-.006-.051.009-.01.025.007.035.035.023.058.004.068-.029.016zM1.681 4.7a.446.446 0 01.116-.173c.085-.08.092-.101.062-.18a.467.467 0 01-.025-.18c.01-.096-.083-.228-.16-.228-.024 0-.045.023-.045.051 0 .08-.061.024-.177-.162-.14-.226-.23-.428-.185-.412.02.007.035.023.033.037-.005.032.224.46.27.502.025.023.03.012.019-.036-.017-.069-.016-.069.11-.008.069.034.141.061.16.061.02 0 .035.016.035.035 0 .02.012.028.028.018.015-.009.027.004.027.03 0 .025-.016.043-.036.04-.05-.01-.046.116.007.17.024.026.036.068.026.095a.367.367 0 00-.019.109c0 .038-.028.065-.074.071-.046.007-.097.056-.133.127-.042.082-.053.092-.04.033zm1.503-.596c0-.018-.02-.033-.044-.033-.024 0-.044-.022-.044-.048 0-.027.012-.04.027-.031.015.009.028-.002.028-.027 0-.034.007-.033.03.002.017.027.047.036.074.02.035-.02.036-.016.006.017-.021.023-.03.062-.021.087.01.025 0 .046-.02.046s-.036-.015-.036-.033zm-.18-.056c-.018-.047-.014-.051.019-.019.022.023.032.05.022.06-.01.01-.028-.009-.04-.041zm.352-.043c.01-.027.042-.048.072-.045.046.004.049-.004.015-.045-.027-.032-.046-.037-.054-.013-.007.02-.037.036-.067.036-.044-.001-.039-.015.024-.068.044-.037.089-.055.1-.04.01.014.04.03.066.036.04.008.04.001.004-.042-.037-.044-.036-.05.007-.033.028.011.062.001.076-.02.016-.026.011-.032-.013-.017-.021.013-.038.008-.038-.012 0-.05.156-.043.176.006.01.025.018.018.02-.016.001-.032.015-.058.031-.058.04 0 .037.177-.004.203-.018.012-.023.038-.01.058.014.023.054-.001.11-.067.088-.105.088-.105.015-.153-.08-.054-.1-.14-.03-.14.065 0 .119.068.097.125-.013.035-.007.043.022.025.025-.015.033-.057.02-.107-.013-.053-.008-.074.014-.06.02.011.035.005.035-.013 0-.02.025-.025.055-.013.034.013.047.008.033-.014-.012-.02 0-.052.024-.073.037-.03.045-.026.041.021-.002.033-.02.07-.037.083-.021.015-.02.037.006.062a.101.101 0 01.021.092c-.012.04-.003.038.036-.01.029-.036.052-.08.052-.097 0-.018.008-.024.018-.014.023.023-.053.191-.087.191-.014 0-.048-.03-.074-.068-.046-.066-.05-.065-.123.058-.169.283-.283.346-.317.176-.025-.122-.053-.125-.142-.012-.038.048-.079.078-.09.067-.012-.012-.044-.003-.072.02-.04.033-.046.031-.032-.01zm.589-.345c0-.008-.015-.024-.033-.035-.019-.012-.034-.005-.034.014 0 .02.015.035.034.035.018 0 .033-.007.033-.014zm-.247-.033c.036-.026.072-.04.08-.031.018.018-.067.077-.113.078-.017 0-.002-.021.033-.047zm.612-.095c-.003-.055.11-.366.121-.332a.565.565 0 01-.053.197c-.036.089-.067.15-.068.135zm-3.233-.503c0-.09.006-.124.014-.074a.59.59 0 010 .166c-.008.04-.015 0-.014-.092zm3.382.017l.037-.257c.01-.077.03-.14.041-.14.012 0 .025-.081.03-.18.003-.1.018-.209.031-.243.023-.057.031-.054.105.036.078.095.078.097.008.06-.093-.05-.12.007-.097.211.01.088.003.15-.018.158-.02.006-.062.115-.094.241-.033.126-.052.177-.042.114zm-1.426-.208a.23.23 0 01-.005-.12c.014-.054 0-.061-.088-.05-.057.007-.121.037-.143.067-.035.048-.039.046-.034-.015.004-.054.04-.076.172-.104.181-.04.82-.08.753-.047-.022.01-.042.059-.043.107-.002.089-.002.089-.034.01-.028-.072-.042-.076-.188-.053a1.44 1.44 0 01-.23.021c-.057-.003-.075.014-.076.07 0 .04-.014.095-.031.122-.026.042-.034.04-.053-.009zm-2.015-.025C.98 2.798.97 2.785.993 2.783c.023 0 .072-.05.108-.11.071-.116.087-.061.023.08-.032.069-.054.081-.106.06zm.645-.05c0-.086-.052-.122-.187-.129a.201.201 0 01-.119-.049c-.035-.036-.014-.04.124-.023.411.053.578.094.578.142 0 .026-.015.039-.033.027a.692.692 0 00-.178-.037c-.14-.015-.143-.013-.128.069.01.05.001.084-.02.084-.02 0-.037-.037-.037-.083zm-.858.03a.785.785 0 01.066-.19c.075-.17.079-.44.006-.425-.023.005-.041-.007-.041-.025 0-.018.031-.033.07-.033.065 0 .069.014.056.206-.012.175-.148.58-.157.468zm3.253-.262c-.061-.05-.06-.05.01-.015.042.02.075.043.075.051 0 .026-.017.018-.085-.036zm.82-.17c.112-.017.113-.042.015-.2-.101-.164-.269-.566-.245-.59.01-.01.029.016.042.058.04.13.175.417.264.558.098.156.085.2-.06.192-.1-.005-.101-.006-.015-.018zm-1.207-.206c-.014-.055-.01-.067.015-.043.019.02.028.055.02.078-.008.025-.023.01-.035-.035zM.623 2.127c-.09-.031-.168-.072-.174-.09-.005-.018.057-.069.14-.113.093-.05.144-.096.134-.124-.01-.024.022-.08.07-.124.087-.08.087-.08-.08-.263-.192-.21-.247-.337-.131-.304.04.01.146.041.237.067.116.032.14.047.079.048a.633.633 0 01-.207-.047c-.066-.028-.12-.042-.12-.032 0 .058.112.218.218.312.1.087.141.103.225.088.103-.019.103-.019.004.037a.355.355 0 01-.12.05c-.012-.003-.048.023-.08.059-.064.071-.024.09.052.024.026-.023.003.008-.051.068-.054.06-.15.14-.21.179-.112.069-.112.069-.033.112a.365.365 0 00.134.044c.03.001.065.017.076.035.025.04.034.042-.163-.027zm3.415-.03c.023-.01.052-.008.063.003.011.011-.008.019-.043.018-.039-.002-.047-.01-.02-.02zm.264 0c.024-.01.053-.008.064.003.01.011-.009.019-.044.018-.038-.002-.046-.01-.02-.02zm.172-.045c0-.02.015-.026.033-.015.018.011.033.027.033.035 0 .008-.015.015-.033.015-.018 0-.033-.016-.033-.035zm-3.306-.15c0-.016.022-.06.05-.094.026-.036.047-.05.047-.034 0 .018-.023.06-.05.096-.027.035-.048.05-.047.033zm2.361-.098c-.061-.05-.061-.05.01-.016.041.02.075.043.075.052 0 .025-.017.018-.085-.036zm.612-.04c-.08-.09-.08-.09.01-.01.05.044.091.084.091.09 0 .026-.027.005-.101-.08zm-.822-.127c.001-.038.01-.046.02-.02.01.024.008.053-.003.064-.01.01-.019-.01-.017-.044zm.659-.013c-.043-.028-.042-.032.008-.033.032 0 .058.014.058.033 0 .04-.004.04-.066 0zm-.256-.056a.194.194 0 01.1 0c.022.01-.005.017-.06.016-.054 0-.072-.008-.04-.017zm.481 0c.024-.01.052-.008.063.003.011.011-.008.019-.043.017-.039-.002-.046-.009-.02-.02zm-1.052-.046c0-.019.015-.025.033-.014.018.011.033.027.033.035 0 .008-.015.014-.033.014-.018 0-.033-.015-.033-.035zm1.432-.046c-.032-.036-.024-.056.041-.098.129-.085.096-.111-.125-.102-.114.005-.159.002-.1-.006.108-.014.108-.014.022-.136-.087-.122-.087-.122.024-.001.097.104.126.118.222.103.102-.016.109-.012.077.047a.423.423 0 01-.085.106c-.027.023-.04.062-.03.088.022.059.006.059-.046 0zm-2.948-.069c.03-.03.072-.05.094-.042.022.007-.002.032-.054.056-.09.04-.092.038-.04-.014zm1.27-.032c-.036-.027-.05-.049-.033-.048.017 0 .06.023.095.05.035.026.05.048.033.047a.253.253 0 01-.095-.05zM2.21 1.34c-.035-.026-.05-.048-.033-.047.017 0 .06.023.095.05.036.026.05.048.034.047a.253.253 0 01-.096-.05zm.91-.094c.035-.03.23-.12.23-.105 0 .02-.184.118-.22.118-.013 0-.017-.006-.01-.012zm.982-.01a.13.13 0 01.082 0c.023.01.004.017-.041.017s-.064-.008-.041-.017zm-2.296-.059c0-.026.013-.04.028-.03.015.01.02.03.01.048-.028.043-.038.038-.038-.018zm2.08.026a.282.282 0 01.116 0c.032.008.006.015-.057.015-.064 0-.09-.007-.058-.015zm-2.832-.118c.091-.18.104-.163.024.03-.009.021.012.046.045.054.04.01.029.017-.032.02-.092.003-.092.003-.037-.104zm2.502.084a.59.59 0 01.166 0c.04.008 0 .014-.092.014-.09 0-.124-.007-.074-.014zm-2.314-.033a.194.194 0 01.099.001c.022.01-.004.016-.059.016-.054-.001-.073-.008-.04-.017zm.282 0c.024-.01.052-.007.063.004.011.01-.008.018-.043.017-.038-.002-.046-.009-.02-.02zM2.59 1.08c0-.029.014-.052.033-.052.018 0 .033.014.033.031s-.015.04-.033.052c-.019.01-.033-.003-.033-.031zm.793.035c0-.007.026-.033.058-.058.053-.041.054-.04.013.012-.043.055-.07.073-.07.046zm.769-.27a1.064 1.064 0 01-.177-.17c-.002-.014.045-.05.105-.082.182-.099.177-.116-.04-.14-.4-.04-.624-.091-.624-.14 0-.025.015-.046.033-.046.018 0 .078-.061.133-.137.054-.075.099-.12.099-.1 0 .02-.046.089-.102.153-.102.116-.102.116-.025.15.043.02.223.054.401.076.178.022.325.055.328.073.002.018-.058.068-.134.11-.137.077-.137.077.037.239.215.2.198.207-.034.013zM2.886.878c0-.022.203-.123.218-.107.007.007-.039.037-.102.068-.064.03-.116.048-.116.04zM1.168.857c-.002-.02.159-.226.306-.392.04-.046.118-.146.173-.222.104-.148.148-.174.148-.09 0 .029-.013.044-.03.034-.016-.01-.056.022-.088.072-.033.05-.08.11-.103.135-.063.063-.054.098.03.115.049.01.039.014-.029.012-.104-.003-.108.001-.345.285-.034.04-.062.063-.062.052zm1.505-.07c.013-.033.031-.051.042-.041.01.01 0 .037-.023.06-.033.032-.037.028-.019-.02zM2.1.732c.022-.036.045-.06.05-.054.02.02-.03.119-.06.119-.017 0-.012-.03.01-.065zM3.424.674a.692.692 0 01.182 0c.05.008.009.013-.091.013-.1 0-.141-.006-.091-.013zm-.67-.107c0-.017.015-.04.033-.051.018-.012.024.002.013.03-.022.058-.046.069-.046.02zM2.307.433a.26.26 0 01.077-.066c.009 0-.01.03-.043.066a.26.26 0 01-.077.066c-.009 0 .01-.03.043-.066zM1.764.375a.47.47 0 01.03-.091c.027-.061.03-.062.032-.005.001.042.018.055.054.041.112-.043.574-.152.631-.15.034.003-.073.038-.237.079-.163.041-.34.092-.39.113-.11.044-.123.045-.12.013zm1.09-.073c0-.017.014-.04.032-.051.019-.012.024.002.013.031-.022.057-.046.068-.046.02zM2.6.185c0-.028.023-.05.052-.05a.45.45 0 00.16-.066c.116-.07.302-.098.207-.03-.038.026-.024.03.057.016l.215-.036C3.4.003 3.4.003 3.283.05a.712.712 0 01-.188.05.215.215 0 00-.125.057c-.05.049-.052.046-.032-.035.022-.088.022-.088-.13-.014-.085.04-.153.086-.153.1a.027.027 0 01-.028.027C2.612.234 2.6.212 2.6.184z" fill="#352f2b"/></svg>