<svg id="Layer_1" data-name="Layer 1" xmlns="http://www.w3.org/2000/svg" viewBox="0 0 130 130"><defs><style>.cls-1{fill:#fff;}.cls-2{fill:#46188f;}.cls-3{fill:#fbfafc;}.cls-4{fill:#f8f7fa;}.cls-5{fill:#f6f4f9;}.cls-6{fill:#3e0e8a;}</style></defs><polygon class="cls-1" points="0 65 0 65 0 65 0 65"/><polygon class="cls-1" points="65 130 65 130 65 130 65 130"/><path class="cls-2" d="M306,331a65,65,0,0,0-65,65h0a65,65,0,0,0,65,65h0a65,65,0,0,0,0-130Zm4.37,95.82H298.74c-2.73-9.26-5.54-18.75-8.58-29.05L282,405.44v21.33H269.22V364.58l13.11-3.29V382a5.54,5.54,0,0,1,.27.78c0,.09-.18.23-.27.34v2l2.19.12,20.09-18.48L316,370.91l-16.18,17.74Zm22.31,8.32-7-4.81,3.21-7.23h7.81l2.8,8Zm1.4-16.63L319.69,357l23.42,4.47C340.2,379.82,337.35,397.87,334.08,418.51Z" transform="translate(-241 -331)"/><path class="cls-3" d="M304.61,366.67l-20.09,18.48-1.28,1.13-.91,1.05v-1.74h0a.35.35,0,0,1-.1-.42.61.61,0,0,1,.1-.14h0V361.29l-13.11,3.29v62.19H282V405.44l8.12-7.67c3,10.3,5.85,19.79,8.58,29.05h11.63l-10.6-38.17L316,370.91Z" transform="translate(-241 -331)"/><path class="cls-3" d="M282.33,385h0v0Z" transform="translate(-241 -331)"/><path class="cls-4" d="M334.08,418.51c3.27-20.64,6.12-38.69,9-57.07L319.69,357Z" transform="translate(-241 -331)"/><path class="cls-5" d="M328.86,423.1l-3.21,7.23,7,4.81,6.79-4.06-2.8-8Z" transform="translate(-241 -331)"/><path class="cls-6" d="M282.6,382.73a5.54,5.54,0,0,0-.27-.78v1.12C282.42,383,282.61,382.82,282.6,382.73Z" transform="translate(-241 -331)"/><path class="cls-6" d="M282.23,385.17a.35.35,0,0,0,.1.42l.91.69,1.28-1.13-2.19-.12A.61.61,0,0,0,282.23,385.17Z" transform="translate(-241 -331)"/><path class="cls-6" d="M284.52,385.15l-2.19-.12h0Z" transform="translate(-241 -331)"/><path class="cls-6" d="M282.23,385.17a.35.35,0,0,0,.1.42h0A.35.35,0,0,1,282.23,385.17Z" transform="translate(-241 -331)"/><path class="cls-2" d="M282.33,387.33l.91-1.05-.91-.69Z" transform="translate(-241 -331)"/><path class="cls-2" d="M282.33,385.59l.91.69-.91-.69Z" transform="translate(-241 -331)"/></svg>