<svg id="Layer_1" data-name="Layer 1" xmlns="http://www.w3.org/2000/svg" viewBox="0 0 130 130"><defs><style>.cls-1{fill:#fff}.cls-2{fill:#46188f}.cls-3{fill:#fbfafc}.cls-6{fill:#3e0e8a}</style></defs><path class="cls-1" d="M0 65zM65 130z"/><path class="cls-2" d="M306 331a65 65 0 00-65 65 65 65 0 0065 65 65 65 0 000-130zm4.37 95.82h-11.63c-2.73-9.26-5.54-18.75-8.58-29.05l-8.16 7.67v21.33h-12.78v-62.19l13.11-3.29V382a5.54 5.54 0 01.27.78c0 .09-.18.23-.27.34v2l2.19.12 20.09-18.48 11.39 4.15-16.18 17.74zm22.31 8.32l-7-4.81 3.21-7.23h7.81l2.8 8zm1.4-16.63L319.69 357l23.42 4.47c-2.91 18.35-5.76 36.4-9.03 57.04z" transform="translate(-241 -331)"/><path class="cls-3" d="M304.61 366.67l-20.09 18.48-1.28 1.13-.91 1.05v-1.74a.35.35 0 01-.1-.42.61.61 0 01.1-.14v-23.74l-13.11 3.29v62.19H282v-21.33l8.12-7.67c3 10.3 5.85 19.79 8.58 29.05h11.63l-10.6-38.17L316 370.91zM282.33 385z" transform="translate(-241 -331)"/><path d="M334.08 418.51c3.27-20.64 6.12-38.69 9-57.07L319.69 357z" transform="translate(-241 -331)" fill="#f8f7fa"/><path d="M328.86 423.1l-3.21 7.23 7 4.81 6.79-4.06-2.8-8z" transform="translate(-241 -331)" fill="#f6f4f9"/><path class="cls-6" d="M282.6 382.73a5.54 5.54 0 00-.27-.78v1.12c.09-.07.28-.25.27-.34zM282.23 385.17a.35.35 0 00.1.42l.91.69 1.28-1.13-2.19-.12a.61.61 0 00-.1.14zM284.52 385.15l-2.19-.12z" transform="translate(-241 -331)"/><path class="cls-6" d="M282.23 385.17a.35.35 0 00.1.42.35.35 0 01-.1-.42z" transform="translate(-241 -331)"/><path class="cls-2" d="M282.33 387.33l.91-1.05-.91-.69zM282.33 385.59l.91.69-.91-.69z" transform="translate(-241 -331)"/></svg>