<svg xmlns="http://www.w3.org/2000/svg" height="3725.333" width="3214.947"><path d="M1606.094 478.87L362.44 39.947v2706.787l1243.653-402.36V478.87" fill="#040606"/><path d="M1576.24 477.524L2867.51 38.6v2706.787l-1291.27-402.359V477.524" fill="#fff"/><path d="M39.947 3220.573l1536.296-512.068V477.222L39.947 989.287v2231.286" fill="#fff"/><path d="M2276.273 3254.28l217.732 358.213 114.82-332.76-332.552-25.453M562.319 1246.345c-8.16-8.01 10.627 65.472 36.772 91.912 46.361 46.778 82.573 52.802 101.854 53.579 42.666 1.707 95.32-10.635 126.587-23.739 30.253-12.902 83.265-39.963 103.332-79.444 4.254-8.446 15.867-22.621 8.573-57.631-5.533-26.937-22.68-36.361-43.587-34.871-20.906 1.413-84.2 18.29-114.813 27.713-30.626 9.285-93.706 28.49-121.199 34.452-27.426 5.946-87.894-2.764-97.52-11.97M1337.468 2124.887c-12.108-4.396-262.587-108.151-298.094-125.153-29.054-13.974-100.294-44.09-133.813-57.773 94.413-145.574 154.012-255.428 161.947-272.168 14.68-30.611 114.612-226.156 116.946-238.194 2.266-12.198 5.106-57.263 2.907-67.977-2.2-10.917-38.84 10.073-88.587 26.944-49.826 16.797-144.52 78.384-181.094 86.098-36.706 7.657-154.013 52.096-214.04 72.009-60.026 19.927-173.573 54.585-220.28 67.19-46.773 12.62-87.6 13.61-113.76 21.543 0 0 3.48 36.652 10.427 47.627 6.867 10.99 31.614 37.919 60.387 45.444 28.772 7.57 76.4 4.542 98.092-.422 21.682-5.036 59.24-23.391 64.281-31.397 5.093-8.152-2.627-33.246 5.946-40.83 8.654-7.51 122.974-34.235 166.134-47.263 43.16-13.275 208.373-70.175 230.774-67.278-7.094 23.537-139.987 286.768-182.787 365.297C780.04 1987.1 531.348 2332.558 478.4 2393.44c-40.186 46.28-137.573 164.707-171.306 191.427 8.506 2.347 68.813-2.826 79.8-9.627 68.466-42.173 182.506-184.133 219.227-227.373 109.146-128.002 205.04-262.455 281.079-377.84h.081c14.813 6.171 134.587 103.754 165.84 125.385 31.253 21.615 154.586 90.422 181.306 101.848 26.72 11.557 129.413 58.894 133.734 42.867 4.32-16.157-18.574-110.64-30.693-115.24" fill="#040606"/><path d="M758.665 3429.334c24 14.666 46.667 26.667 72 38.667 50.667 25.333 108 52 162.666 72 74.667 27.999 149.333 50.666 224 68 41.334 9.332 86.666 17.332 130.665 24 4.002 0 122.667 14.666 146.668 14.666h119.999c46.668-4 90.674-6.667 137.327-13.334 37.338-5.333 78.668-12 118.667-21.333 29.337-6.666 60.006-13.333 89.344-22.666 27.991-8 59.99-18.666 90.66-29.334 20.006-6.666 41.33-16 62.667-24 17.33-8 38.668-17.333 58.66-25.333 24.015-10.667 52.007-25.333 78.668-38.666 21.337-10.668 45.337-24 68.006-37.333 17.33-9.334 57.33-40 78.667-40 24 0 40 21.332 40 40 0 38.667-52.007 50.666-76.007 68-25.33 17.333-55.998 30.665-82.66 45.332-53.337 28-108.005 52-159.996 72-68.006 25.333-142.666 49.333-209.34 65.333-25.331 5.334-50.661 12-75.992 16-13.338 2.667-152.011 24-190.665 24h-176.006c-46.667-4-96-9.333-142.666-16-41.333-6.666-85.333-14.666-126.666-24-32-6.666-66.666-16-97.333-25.333-53.333-14.667-105.333-33.333-156-53.333-92-34.667-188-80-278.666-140-16-10.666-17.333-21.333-17.333-33.333 0-20 14.666-38.667 38.667-38.667 21.333 0 64 30.667 72 34.667M1616 471.997V2712c-1.333 6.668-4 13.334-9.334 20-2.666 4-7.999 9.334-12 10.666C1561.334 2756.001 60 3260 40 3260c-16 0-30.667-10.667-38.667-28 0-1.334-1.333-2.667-1.333-5.333V985.342c2.667-6.674 4-16.01 9.333-21.333 10.667-14.68 29.334-17.34 41.334-21.333C73.333 934.67 1552 438.666 1573.333 438.666c13.335 0 42.667 9.336 42.667 33.331zm-81.334 2206.67L81.333 3162.666V1018.673l1453.333-484.008v2144.002" fill="#040606" fill-rule="evenodd"/><path d="M2907.999 42.67v2697.331c-1.326 30.667-22.672 44-42.67 44-17.324 0-142.66-42.667-164.006-49.334-167.983-52-337.314-104-503.99-156-37.333-12.001-76-24-112-36.001-32-9.332-66.667-19.998-98.666-30.667-142.666-44-288-88-430.667-136-5.334-1.332-18.667-20-18.667-24V468c2.667-6.674 5.334-14.673 12-19.998 10.667-11.999 468-164.006 648-224 48-17.324 649.324-224 667.996-224 23.998 0 42.67 17.324 42.67 42.67zm-81.34 2646.664l-1209.325-376V506.67L2826.659 95.991v2593.343" fill="#040606" fill-rule="evenodd"/><path d="M3214.934 3254.281L1599.33 2739.336l6.759-2241.729 1608.845 512.06v2244.614" fill="#040606"/><path d="M2305.31 1137.589l208.148 63.053 379.205 1366.693-213.808-64.867-76.807-280.572-441.832-133.92-95.014 228.56-213.862-64.881zm95.157 361.813l-158.582 383.287 291.538 88.367-132.956-471.654" fill="#fff" fill-rule="evenodd"/></svg>