<svg data-name="Layer 1" xmlns="http://www.w3.org/2000/svg" viewBox="0 0 1023.49 1017.01"><path d="M591.95 511.84v-5.39-91.63a96.5 96.5 0 013.65-27.46c7.7-26.15 25.27-41.86 51.48-48.3 10.31-2.53 20.82-3.12 31.4-3.09 18.55.07 37.1 0 55.65 0h5.44V209.92c-4.74-.75-9.54-1.73-14.39-2.26-20.64-2.21-41.25-4.94-61.94-6.41a488.09 488.09 0 00-50.31-1c-29.49 1-58 7-84.68 20.11-42.3 20.86-69.76 54.5-84.63 98.84a214.18 214.18 0 00-10.71 54.38q-.91 14.1-1 28.25c-.11 34.7-.05 69.4-.05 104.1v5.73H301.97v147.86h129c1.1 3.59 1.44 351.13.47 357.43C202.92 984.76-3.81 777.95.07 503.74 3.91 231.12 222.84 7.85 497.12.2c280.66-7.83 512.32 210.07 525.73 485.32 13.74 281.75-194.32 496.93-430.58 531.48V659.76h118.79c7.58-49.43 15.09-98.43 22.68-147.92z" fill="#1877f2"/></svg>