<svg id="Layer_1" data-name="Layer 1" xmlns="http://www.w3.org/2000/svg" viewBox="0 0 1023.49 1017.01"><defs><style>.cls-1{fill:#1877f2;}</style></defs><path class="cls-1" d="M388.51,397.39V392q0-45.81,0-91.63a96.5,96.5,0,0,1,3.65-27.46c7.7-26.15,25.27-41.86,51.48-48.3,10.31-2.53,20.82-3.12,31.4-3.09,18.55.07,37.1,0,55.65,0h5.44V95.47c-4.74-.75-9.54-1.73-14.39-2.26C501.1,91,480.49,88.27,459.8,86.8a488.09,488.09,0,0,0-50.31-1c-29.49,1-58,7-84.68,20.11-42.3,20.86-69.76,54.5-84.63,98.84a214.18,214.18,0,0,0-10.71,54.38q-.91,14.1-1,28.25c-.11,34.7-.05,69.4-.05,104.1v5.73H98.53V545.07h129c1.1,3.59,1.44,351.13.47,357.43-228.52-32.19-435.25-239-431.37-513.21C-199.53,116.67,19.4-106.6,293.68-114.25,574.34-122.08,806,95.82,819.41,371.07,833.15,652.82,625.09,868,388.83,902.55V545.31H507.62c7.58-49.43,15.09-98.43,22.68-147.92Z" transform="translate(203.44 114.45)"/></svg>