<svg version="1.1" id="Layer_1" xmlns="http://www.w3.org/2000/svg" x="0" y="0" viewBox="188 -43 440 150" xml:space="preserve"><style>.st0{fill:#fff}</style><path class="st0" d="M414.8 9.5c-18.7.3-34.8 16.1-36 35.1-1.1 19.1 14.1 36.1 33.9 38.1 19.9 2 36-13.8 36-35.1 0-21.4-15.2-38.4-33.9-38.1zM428.2 49c-.8 9.9-7 15.3-11.1 15.7-10.3 1.2-19.1-8.1-18.5-20 .6-11.9 5.4-19.3 15.1-19.5 9.7-.2 15.6 10.9 14.5 23.8zM488.3 11.4c-18.7-.3-33.9 16.7-33.9 38.1s16.1 37.1 36 35.1 35.1-19 33.9-38.1c-1.1-19-17.2-34.7-36-35.1zM486 66.7c-4.1-.5-10.2-5.9-11.1-15.7-1.1-12.9 4.8-24 14.5-23.8s14.5 7.6 15.1 19.5c.6 11.8-8.2 21.2-18.5 20zM270.5-6.4l-20.1-7.7-39.2 37.4v-46.7L188-17.5V92.2l23.2.8-.2-38.4 14.3-13.8L240.4 93h20.5L242 24.9zM334.2 6.2l-.4-49.2-19.8 5.2 3.2 121.6 19.5.7-1.1-62.8c4.3-1.9 18.4-5.8 18.9 9.7l1.9 22.1 1.3 31.1h20.4l-7.7-53.7C367.3-.5 355.8-.6 334.2 6.2zM603.2 85.2l-5.7 13.4 12.2 8.4 12-7.1-5.1-14.7zM551.4-23.4l-15.5-6.4V2.3l-17.3-.6 3.3 22.8h14l1 54.3s-2.2 19.5 27.6 15.1c0 0 9.3-2.8 9-9.3V63.2s-6.3 3.7-13.1 3.7-6.9-3.3-6.9-3.3l-1.8-42 21.7-1.2V6.5L551.1 5l.3-28.4zM628-23.2L587-31l25.2 108.5z"/><path class="st0" d="M265.6 6.9l5.4 14.2c13.5-8.1 21.1 0 21.1 0l-.1 9.1c-40.2 7.1-30 44.3-30 44.3 4.1 14.6 17.3 14.1 17.3 14.1h30.1l.6-67.7c-4.7-31.5-44.4-14-44.4-14zM292 75.6s-14.6 3.5-16.2-10.7c0 0 .3-22 16.7-19.6l-.5 30.3z"/></svg>