<svg version="1.1" id="Layer_1" xmlns="http://www.w3.org/2000/svg" x="0" y="0" viewBox="0 0 354 124" xml:space="preserve"><style>.st0{fill:#fff}</style><path class="st0" d="M69.01 32l-15.78-6.04-30.76 29.35V18.66L4.26 23.29v86.1l18.21.62-.16-30.13 11.22-10.83 11.85 40.96h16.09L46.64 56.57zM139.65 59.64c0-5.49 1.1-10.72 3.08-15.5-4.65-6.94-12.43-5.8-23.73-2.24l-.31-38.61-15.54 4.08 2.51 95.43 15.3.55-.86-49.28c3.37-1.49 14.44-4.55 14.83 7.61l1.49 17.34 1.02 24.41h16.01l-2.21-15.4c-7.16-7.34-11.59-17.36-11.59-28.39zM291.1 86.94l-1.41-32.96 17.03-.94V42.13l-17.5-1.18.24-22.29-12.16-5.02v25.19l-13.58-.47.68 4.72c2.54 1.92 5.21 6.42 5.48 9.38 1.98.76 6.01.9 6.34 3.8h1.07l.78 42.61s-1.73 15.3 21.66 11.85c0 0 7.3-2.2 7.06-7.3V86.63c-1.23 1.46-14.99 5.33-15.69.31zM349.57 18.82l-32.18-6.12 19.78 85.15zM330.11 103.89l-4.48 10.52 9.58 6.59 9.41-5.57-4-11.54z"/><path class="st0" d="M205.47 50.93l11.02-1.01c-6.51-24.45-34.89-35.14-55.82-22.24-24.75 15.24-23.05 50.8.91 64.45-6.11 19.15-4.09 11.73 17.62 13.05 28.66-.99 27.57 4.4 19.13-12.66 3.64-2 6.9-4.6 9.68-7.64l-4.83-30.89c-.29-1.51.78-2.92 2.29-3.06zm.03-2.36c1.72-.05.38 3.49-.94.94.04-.3.08-.58.94-.94zm-10.91-.63c.05 1.72-3.49.38-.94-.94.3.04.58.08.94.94zm-2.5-14.41c2.03-.03 2.86 3.52 0 3.9-2.03.02-2.86-3.52 0-3.9zm-18.49-.62c1.72-.05.38 3.49-.94.94.05-.3.09-.58.94-.94zm-4.13 24.67c1.69-1.1 8.41-10.26 8.71-12.59.93-1.34 3.26-1.34 4.19 0 .28 2.3 7.03 11.48 8.71 12.59 1.04 1.57-.9 3.39-3.07 3.03 1.44 3.14 11.5 12.4 3.02 12.14 10.86 14.34 5.92 11.22-7.08 11.63.12.04.05 5.14.07 5.36l-7.5-.05c.05-1.08-.11-4.34.07-5.3-16.51.22-15.7.55-7.08-11.63-8.73.28 1.99-9.38 3.02-12.14-1.69.35-4.17-1.11-3.06-3.04zm-5.33-20.16c4.31.11 4.5 6.56 0 6.83-4.31-.11-4.5-6.56 0-6.83zm-9.42 16.19c1.72-.05.38 3.49-.94.94.04-.3.09-.58.94-.94zm-.94 21.08c-2.03.03-2.86-3.52 0-3.9 2.03-.02 2.86 3.52 0 3.9zM160.73 61c-.03-2.03 3.52-2.86 3.9 0 .02 2.04-3.53 2.86-3.9 0zm39.42 41.29l-38.64.2 2.88-10.13 30.88.22 4.88 9.71zm-3.09-37.02c-4.31-.11-4.5-6.56 0-6.83 4.31.12 4.5 6.56 0 6.83zm7.01 8.41c.05 1.72-3.49.38-.94-.94.3.05.59.09.94.94z"/><path class="st0" d="M274.4 56.67c0-1.16-3.62-1.58-4.49-1.95-.11 1.06-.48 2.63-1.41 4.2l3.21-.41-2.3 46.5-11.48 2.48-.39-42.83c-3.79-.51-8.13-3.13-12.23-5.43l-14.97 1.93-3.64-1.24 12.43-1.56c-.53-.38-.95-.81-1.26-1.21-2.57-.38-6.51-.69-10.03-1.04l-9.62.93s-4.36-1.48-4.56-1.55c1.71-.17 6-.59 7.72-.76-1.07-.75-1.29-.64-2.75-2.4-17.25 1.96-12.36-2.15-10.22 17.75 2.64 14.12 2.33 21.43 5.65 33.62-.02-.01 13.07 7.32 18.17 10.18 2.08.96 1.28 1.18 2.9 1.24.66-.15 26.3-5.68 33.79-7.3 2.4-.32 3.24-.9 3.11-2.5.31-6.28 2.28-45.94 2.28-45.97-.16-.25.32-2.14.09-2.68zm-58.47 45.04c-1.71-11.19-5.19-33.94-6.87-44.98l5.92 2.01c.43 3.06 5.83 41.93 6.4 46.02l-5.45-3.05zm12.09 6.77l-6.72-47.59 7.65 2.6 4.34 47.95-5.27-2.96zm8.03 3.73c-.64-7.54-3.53-39.03-4.41-48.55l16.8-2.17.52 47.92-12.91 2.8z"/><path class="st0" d="M259.74 53.68c-.16-.59-.24-.73-1.23-2.13l-.87-.24c-.75.24-1.81.86-3.1 1.89l-.18.35c1.89.64 3.35.99 4.01 1 .64-.24 1.2-.64 1.37-.87z"/><path class="st0" d="M258.5 62.43c19.02-3.21 4.69-29.24-9.96-14.52.07 1.75.04 6.54-2.03 9.36 3.53 1.95 8.62 5.16 11.99 5.16zm-.32-13.53c3.7.75 5.68 6.75.75 7.88-1.01.15-1.75-.05-3.45-.48h.01c-1-.27-3.03-.92-5.53-1.97 2.44-2.55 5.8-5.37 8.22-5.43zM220.13 50.48c3.52 4.89 11.09 2.94 17.13 4.28-.75-4.38 1.6-7.47 3.21-8.66-4.13-12.52-26.46-10.88-20.34 4.38zm4.47-4.49c1.9-6.48 10.38-.9 11.54 4.08-4.54-1.52-11.63-.68-11.54-4.08zM239.51 55.52c.45.83 2.28 1.96 4.05 1.54 2.12-1.65 2.73-5.33 2.7-8.56-1.04-.44-2.71-.84-4.39-.75l.07.1c-1.77.87-3 5.16-2.43 7.67zM65.16 42.44l4.24 11.14c10.59-6.36 16.56 0 16.56 0l-.08 7.14C54.33 66.3 62.33 95.49 62.33 95.49c3.22 11.46 13.58 11.07 13.58 11.07h23.62l.47-53.13c-3.68-24.72-34.84-10.99-34.84-10.99zm20.72 53.92s-11.46 2.75-12.71-8.4c0 0 .24-17.27 13.11-15.38l-.4 23.78z"/></svg>