<svg version="1.1" id="Layer_1" xmlns="http://www.w3.org/2000/svg" x="0" y="0" viewBox="0 0 878 313" xml:space="preserve"><style>.st0{fill:#fff}</style><path class="st0" d="M186.6 86l-36.9-14.1-72 68.6V54.8L35.1 65.6V267l42.6 1.5-.3-70.5 26.2-25.3 27.7 95.8H169l-34.7-125zM797.3 254.2l-10.4 24.6 22.4 15.4 22-13.1-9.4-26.9zM742.8 213.8s-11.6 6.8-24 6.8c-12.5 0-12.7-6.1-12.7-6.1l-3.3-77.1 39.8-2.2v-25.5l-40.9-2.8.6-52.1L673.8 43v59l-31.8-1.1 6.1 41.9h25.7l.7 38.1c1.5 4 2.7 8 3.4 12.1 1.7 8.6 1.8 17.7.4 26.3-.6 3.7-1.6 7.4-2.9 11.2l.2 12.1s-4 35.8 50.7 27.7c0 0 17.1-5.1 16.5-17.1v-39.4zM842.9 55.2l-75.3-14.4L813.9 240z"/><path class="st0" d="M177.6 110.4l9.9 26.1c24.8-14.9 38.7 0 38.7 0l-.2 16.7c-73.8 13-55.1 81.3-55.1 81.3 7.5 26.8 31.8 25.9 31.8 25.9H258l1.1-124.3c-8.6-57.8-81.5-25.7-81.5-25.7zm48.5 126.1c-48.5 8.7-29.4-65.6.9-55-.1 6.2-.9 55-.9 55zM630 232.9zM630 232.9zM630 232.9zM520.2 165c-4.9-39.6-24.6-91.9-68.8-100.3-3.9-8.5-2.4-14.4 5.5-17.4-1.5-.6-6.7-2.7-9.4-3.7-2-2.8-10.4 10.5-12.5 20.2-9.5.8-18 8.3-25.6 20-21.9 33.3-37.9 109.7-30.3 150.5 2.5 24.4 38 30.9 62.6 22 .7-.9 8.4 3.7 18.5 3.8 16.5 1.5 47.5-10.1 54.2-28.9 1.3-2.6 1.8-3.8.1-6.9-6.7-18.6-5.2-38.7 4.7-55.2 1.1-1.7 1.6-1.7 1-4.1zm-47.4 4.9l8.9 17-19.3-.3 10.4-16.7zm-20.4-30.5c20.1 1.2 18.4 28.6 0 29.1-20.1-1.2-18.4-28.6 0-29.1zm45.5 64.7c-.3 6.7-1.7 14.3-6.4 20.4-1 .9-5 6.6-4.1 2.1 0-2.6.2-5.9.1-5.6h-10.6c-1.1-1 .8 12.2-1.3 11.4-22 5.5-51.1-7.9-63.3-34.3h42.5c.6-1.2 0 7.7.2 10.9-.1.9 0 .3 1.7.4h11.6v-11.3c.8 0 26-1.2 29-1.3.8-.6.5 3.8.6 7.3zm-6.3-35.6c-20.1-1.2-18.4-28.6 0-29.1 20.1 1.2 18.4 28.7 0 29.1zM366.6 201.6c.6-12.4 2.1-25.8 4.5-39.2l-1.1-7.9c-5.7-57.6-26.8-57.8-66.5-45.3l-.7-90.3-36.3 9.5 5.9 223.2 35.8 1.3-2-115.3c7.9-3.5 33.8-10.6 34.7 17.8l3.5 40.6 2.4 57.1h28.4c-3.2-4.6-5.5-10.8-6.9-18.7-1.7-9-2.2-20-1.7-32.8z"/><path class="st0" d="M668.1 200.5c-1.3-25.3-24.8-45.8-50.9-44.9 1.4-8.9-3.8-19-9.8-26.3-.8-.5-1.3-3.2-3.2-2.1-3.8 1.5-7.9 2.9-12.6 4.5.6.2 1.5.5 2.8 1.2 5.2 2.2 8 8.7 5.9 14.7-2.1 4.5-1.8 4.7-2.8 4.1 2.4-2.9 2.1-1.8 1 .6-29.7-13.7-67.3 4.3-75.3 35.3-15 61.4 65 88.1 112.7 71.3 22.6-8.3 35-36 32.2-58.4zm-75.9 1.9c2.7-4.2 2.9 5.9 4.5 9.7.6 2.2 1 3.2 1.5 6.1-.5-.1-.9-.2-2.5-.6-5.2-1.3-9.3-2.4-15-3.7 3.6-3.5 7.9-7.9 11.5-11.5zm-30.6-20.8c3-3.1 6.9-7.1 10.2-10.3 2.4 8.9 4.9 18.3 7.3 27.5-34.1-9.7-30.5-2.7-17.5-17.2zm68.4 51.3c-12.2 23-52.5 16.9-71.2 2.8-4.7-2-17-19.8-11.7-23.3 5.3 1.3 9.6 2.4 15.4 3.8 12.3 3 23.3 5.6 35.6 8.8.4 2.6-1.4 5.8-1.9 9.4 2 .8 4.7 1.2 7.7 2 1.9.3 2.1.9 5.1 1.1 1.4-2.4.7-6.4 2.7-9 5.6 1.4 12.5 3.2 18.3 4.4zm-18.1-26.2c-8.6-.5 1.1-4.9 3.7-8.9 12.8-12.4 12.7-12.8 13-11.5-8.7 7.1-4.9 3.6-.3-1.2 8.7 36.9 12.6 26.9-16.4 21.6z"/></svg>