<svg xmlns="http://www.w3.org/2000/svg" width="328" height="281.333" viewBox="0 0 86.783 74.436"><rect width="86.783" height="73.133" y="-.148" fill="#fff" ry="0"/><path fill="#b3d3f2" d="M.617 73.702C-.397 73.112-.333.91.682.365 1.137.122 11.198 0 30.845 0h29.48v21.167h26.458v51.818l-.784.55c-.956.669-84.24.833-85.382.167zM44.755 51.33l1.123-1.235h10.92V39.428l1.085-1.237 1.085-1.236-1.085-1.12-1.086-1.12V22.578H50.74c-5.058 0-6.161-.093-6.682-.565-.571-.517-.69-.517-1.429 0-.665.466-1.9.565-7.077.565h-6.271v6.526c0 4.252-.127 6.527-.365 6.527-.783 0-.995 1.561-.313 2.305.576.628.671 1.429.756 6.35l.098 5.632 5.672.097 5.671.096 1.189 1.227c1.456 1.502 1.39 1.502 2.766-.008zm-7.096-4.182c-4.515-1.27-5.914-6.491-2.368-8.838.74-.489 1.919-1.394 2.62-2.01l1.277-1.12-.697-.745c-2.913-3.11.172-10.092 4.46-10.092 3.868 0 7.006 6.832 4.504 9.806-1.172 1.393-1.037 1.808 1.075 3.307 4.902 3.479 4.958 6.945.153 9.487-1.262.668-8.875.81-11.024.205zm24.077-37.088V0h24.706l-.094 9.966-.094 9.966-12.259.093-12.259.093zm14.376 1.89c2.252-2.195 2.258-1.87-.077-4.177l-1.929-1.905-.804.683a78.085 78.085 0 0 0-2.208 2L69.69 9.87l1.92 1.944c2.336 2.365 2.22 2.361 4.503.136z"/><path fill="#92b7e0" d="M.423 73.307C.1 72.984 0 64.435 0 36.98V1.076L1.04.538C1.95.068 5.79 0 31.204 0h29.122v21.167h26.458v25.698c0 24.448-.031 25.726-.645 26.282-.838.758-84.96.915-85.715.16zM44.98 51.506l1.378-1.412h10.44V39.717l1.307-1.338 1.306-1.337-1.306-1.338-1.307-1.338V22.578h-5.942c-5.495 0-5.991-.053-6.581-.706-.808-.892-1.302-.892-1.859 0-.414.663-.822.706-6.787.706H29.28v12.485l-.948.99-.948.989.948.99c.946.987.948.997.948 6.526v5.536h11.145l1.378 1.412c.758.776 1.472 1.41 1.588 1.41.115 0 .83-.634 1.587-1.41zm-5.82-4.203c-2.989-.425-3.443-.661-4.657-2.425-1.914-2.783-1.365-4.983 1.788-7.165 3.087-2.135 3.092-2.144 2.025-3.714-2.671-3.93 1.517-10.712 5.752-9.314 3.554 1.172 5.411 6.582 3.21 9.351-.63.794-.948 1.508-.793 1.783.375.664 3.36 2.98 3.846 2.983.831.007 1.978 2.443 1.766 3.75-.636 3.918-5.705 5.78-12.938 4.751zm22.577-37.249V0h24.342v20.108H61.737zm14.644 1.937l2.098-2.12-2.194-2.195-2.194-2.194-2.31 2.286-2.31 2.286 2.095 2.029c2.557 2.476 2.269 2.481 4.815-.092z"/><path fill="#e08655" d="M.584 73.085C.049 72.495 0 69.48 0 36.945V1.452l.784-.55C1.478.417 4.928.354 30.947.354h29.378v20.814h26.106v25.916c0 25.262-.018 25.926-.683 26.282-1.408.754-84.476.48-85.164-.28zm44.905-21.727l1.216-1.264h10.092V39.842l1.235-1.133c.679-.623 1.235-1.396 1.235-1.717 0-.32-.556-1.07-1.235-1.667l-1.235-1.084V22.578H45.371l-.99-.948-.99-.948-.989.948-.99.948H29.282v12.137l-1.128 1.163-1.128 1.164 1.128 1.163 1.128 1.163v10.726H40.07l1.54 1.57c1.73 1.762 1.904 1.748 3.88-.306zm-8.8-4.636c-3.376-1.404-4.166-7.306-1.144-8.546 3.062-1.256 4.039-2.82 2.731-4.374-2.096-2.491.389-8.439 3.894-9.319 4.1-1.029 7.99 6.996 4.79 9.88-1.096.986-.94 1.423 1.043 2.917 3.868 2.918 3.973 3.043 3.973 4.767 0 1.733-1.414 3.723-3.363 4.732-1.349.698-10.21.656-11.924-.057zm3.655-17.618c-.111-.29-.04-.529.158-.529.199 0 .442.198.54.441.097.243.19.084.205-.353.016-.456-.18-.794-.463-.794-.552 0-1.028.95-.724 1.443.316.512.507.372.284-.208zm4.988-.377c0-.37-.278-.725-.617-.79-.621-.12-.894.95-.375 1.469.417.416.992.023.992-.68zm16.565-9.06c-.095-.248-.13-4.735-.079-9.97l.095-9.52L74 .083 86.089-.01l-.094 9.97-.094 9.971-11.915.093c-9.415.073-11.952-.002-12.089-.358zm14.744-7.64c2.084-1.982 2.092-1.884-.342-4.344-2.473-2.5-2.308-2.502-4.862.079l-2.095 2.117 2.26 2.28c2.533 2.556 2.206 2.564 5.039-.131z"/><path fill="#5b92c9" d="M.584 73.085C.049 72.495 0 69.48 0 36.945V1.452l.784-.55C1.478.417 4.928.354 30.947.354h29.378v20.814h26.106v25.916c0 25.262-.018 25.926-.683 26.282-1.408.754-84.476.48-85.164-.28zm44.905-21.727l1.216-1.264h10.092V39.842l1.235-1.133c.679-.623 1.235-1.396 1.235-1.717 0-.32-.556-1.07-1.235-1.667l-1.235-1.084V22.578H45.371l-.99-.948-.99-.948-.989.948-.99.948H29.282v12.137l-1.128 1.163-1.128 1.164 1.128 1.163 1.128 1.163v10.726H40.07l1.54 1.57c1.73 1.762 1.904 1.748 3.88-.306zm-8.8-4.636c-3.376-1.404-4.166-7.306-1.144-8.546 3.062-1.256 4.039-2.82 2.731-4.374-2.096-2.491.389-8.439 3.894-9.319 4.1-1.029 7.99 6.996 4.79 9.88-1.096.986-.94 1.423 1.043 2.917 3.868 2.918 3.973 3.043 3.973 4.767 0 1.733-1.414 3.723-3.363 4.732-1.349.698-10.21.656-11.924-.057zm9.31-13.558l.744-.76-1.395-1.22c-1.72-1.506-2.646-1.76-3.947-1.084-4.15 2.158-3.208 4.257 1.776 3.952 1.55-.095 2.266-.32 2.822-.888zm-5.694.223c-1.089-.54-.996-1.095.353-2.117 1.77-1.34 3.16-1.203 4.66.461 1.06 1.177.27 1.562-2.935 1.434-1.026-.041-1.46.065-1.302.32.13.21.187.362.127.338-.06-.023-.467-.22-.903-.436zm.04-4.283c-.112-.29-.041-.529.157-.529.199 0 .442.198.54.441.097.243.19.084.205-.353.016-.456-.18-.794-.463-.794-.552 0-1.028.95-.724 1.443.316.512.507.372.284-.208zm4.987-.377c0-.37-.278-.725-.617-.79-.621-.12-.894.95-.375 1.469.417.416.992.023.992-.68zm16.565-9.06c-.095-.248-.13-4.735-.079-9.97l.095-9.52L74 .083 86.089-.01l-.094 9.97-.094 9.971-11.915.093c-9.415.073-11.952-.002-12.089-.358zm14.744-7.64c2.085-1.982 2.092-1.884-.342-4.344-2.473-2.5-2.308-2.502-4.862.079l-2.095 2.117 2.26 2.28c2.533 2.556 2.206 2.564 5.039-.131z"/><path fill="#6185b1" d="M.736 73.237C-.018 72.33.19 1.353.949.794 1.415.449 7.978.353 30.935.353h29.39v20.814h26.106v25.916c0 25.263-.018 25.926-.683 26.282-1.163.623-84.494.497-85.012-.128zM45.16 51.693l1.583-1.575 5.027-.012 5.027-.011V40.007l1.411-1.378c.776-.758 1.411-1.505 1.411-1.66 0-.155-.635-.856-1.41-1.557l-1.412-1.275v-11.56H45.313l-1.003-1.142-1.002-1.142-.954 1.142-.954 1.143H29.28l-.002 6.085-.003 6.086-1.056.833c-1.33 1.051-1.328 1.768.006 2.822l1.056.834v10.857h10.67l1.398 1.587c1.724 1.959 1.855 1.96 3.811.012zm-8.471-4.97c-3.376-1.405-4.166-7.307-1.144-8.547 3.062-1.256 4.039-2.82 2.731-4.374-2.756-3.275 1.985-10.696 5.82-9.108 3.684 1.526 5.416 7.37 2.864 9.668-1.096.987-.94 1.424 1.043 2.918 3.868 2.918 3.973 3.043 3.973 4.767 0 1.733-1.414 3.723-3.363 4.732-1.349.698-10.21.656-11.924-.057zm9.31-13.559l.744-.76-1.395-1.22c-1.72-1.506-2.646-1.76-3.947-1.084-4.15 2.158-3.208 4.257 1.776 3.952 1.55-.095 2.266-.32 2.822-.888zm-5.694.223c-1.089-.54-.996-1.095.353-2.117 1.77-1.34 3.16-1.203 4.66.461 1.06 1.177.27 1.562-2.935 1.434-1.026-.041-1.46.065-1.302.32.13.21.187.362.127.338-.06-.023-.467-.22-.903-.436zm.906-4.751c.072-.489-.074-.767-.403-.767-.581 0-1.057.944-.737 1.462.34.548 1.018.134 1.14-.695zm4.235.173c.146-.75-.965-1.207-1.364-.562-.344.556.276 1.476.862 1.28.213-.07.44-.394.502-.718zm16.47-9.137c-.086-.245-.122-4.732-.08-9.97l.076-9.526L73.908.084 85.904-.01v9.97l-.002 9.971-11.915.093c-9.35.073-11.95-.003-12.071-.353zm14.637-7.501l2.272-2.293-2.272-2.293c-2.766-2.79-2.416-2.794-5.151.05L69.148 9.98l2.19 2.243c2.675 2.74 2.446 2.743 5.215-.051z"/><path fill="#e76a1e" d="M.776 72.954C.022 72.2.18 1.642.936 1.014 1.42.611 6.506.528 30.834.528h29.315l.093 10.319.094 10.319H86.43v25.682c0 19.505-.102 25.784-.424 26.105-.615.615-84.616.615-85.23 0zM45.317 51.68l1.75-1.586h9.73V40.007l1.411-1.378c.776-.758 1.411-1.529 1.411-1.713 0-.185-.635-.88-1.41-1.544l-1.412-1.208V22.578H45.613l-1.145-1.094-1.145-1.095-1.129 1.095-1.129 1.094H29.281V34.44l-1.059 1.014c-.582.558-1.058 1.272-1.058 1.588 0 .315.476 1.03 1.058 1.587l1.059 1.014v10.451h10.436l1.558 1.588c1.912 1.948 1.892 1.948 4.042-.001zm-8.177-4.8c-3.699-1.069-4.669-6.36-1.55-8.454.702-.47 1.67-1.212 2.154-1.649.483-.436.999-.794 1.146-.794.537 0 .248-1.125-.614-2.393-1.796-2.643-.082-7.17 3.29-8.691 4.245-1.915 8.63 5.996 5.297 9.555-.986 1.052-.63 1.823 1.521 3.293 4.06 2.775 4.595 4.65 2.093 7.333-1.995 2.14-8.926 3.075-13.337 1.8zm8.374-13.193c1.518-.784 1.337-1.682-.595-2.962-2.1-1.391-4.961-.772-6.278 1.359-1.133 1.833 4.078 3.049 6.873 1.603zm-5.21-.3c-1.088-.54-.995-1.095.354-2.117 1.77-1.34 3.16-1.203 4.66.461 1.06 1.177.27 1.562-2.935 1.434-1.026-.041-1.46.065-1.302.32.13.21.187.362.127.338-.06-.023-.467-.22-.903-.436zm.971-4.636c0-.896-.803-1.227-1.245-.512-.34.55.087 1.394.705 1.394.34 0 .54-.325.54-.882zm4.167.083c.136-.704-.87-1.227-1.38-.718-.494.494.024 1.571.693 1.442.313-.06.622-.386.687-.724zm16.882-8.96c-.13-.13-.235-4.655-.235-10.055V0h23.636v20.108H74.142c-6.37 0-11.689-.105-11.818-.235zm14.229-7.703l2.272-2.293-2.272-2.293c-2.765-2.79-2.403-2.793-5.178.05L69.09 9.98l2.222 2.242c2.716 2.74 2.474 2.743 5.242-.05z"/><path fill="#4d6fa4" d="M.776 72.954C.022 72.2.18 1.642.936 1.014 1.42.611 6.506.528 30.834.528h29.315l.093 10.319.094 10.319H86.43v25.682c0 19.505-.102 25.784-.424 26.105-.615.615-84.616.615-85.23 0zM45.317 51.68l1.75-1.586h9.73V40.007l1.411-1.378c.776-.758 1.411-1.529 1.411-1.713 0-.185-.635-.88-1.41-1.544l-1.412-1.208V22.578H45.613l-1.145-1.094-1.145-1.095-1.129 1.095-1.129 1.094H29.281V34.44l-1.059 1.014c-.582.558-1.058 1.272-1.058 1.588 0 .315.476 1.03 1.058 1.587l1.059 1.014v10.451h10.436l1.558 1.588c1.912 1.948 1.892 1.948 4.042-.001zm-8.177-4.8c-3.699-1.069-4.669-6.36-1.55-8.454.702-.47 1.67-1.212 2.154-1.649.483-.436.999-.794 1.146-.794.537 0 .248-1.125-.614-2.393-1.796-2.643-.082-7.17 3.29-8.691 4.245-1.915 8.63 5.996 5.297 9.555-.986 1.052-.63 1.823 1.521 3.293 4.06 2.775 4.595 4.65 2.093 7.333-1.995 2.14-8.926 3.075-13.337 1.8zm8.374-13.193c1.518-.784 1.337-1.682-.595-2.962-2.1-1.391-4.961-.772-6.278 1.359-1.133 1.833 4.078 3.049 6.873 1.603zm-4.239-4.936c0-.896-.803-1.227-1.245-.512-.34.55.087 1.394.705 1.394.34 0 .54-.325.54-.882zm4.167.083c.136-.704-.87-1.227-1.38-.718-.494.494.024 1.571.693 1.442.313-.06.622-.386.687-.724zm16.882-8.96c-.13-.13-.235-4.655-.235-10.055V0h23.636v20.108H74.142c-6.37 0-11.689-.105-11.818-.235zm14.229-7.703l2.272-2.293-2.272-2.293c-2.765-2.79-2.403-2.793-5.178.05L69.09 9.98l2.222 2.242c2.716 2.74 2.474 2.743 5.242-.05z"/><path fill="#1365d2" d="M.794 72.85c-.86-.976-.62-71.319.245-71.781C1.503.82 11.202.73 30.937.792l29.212.09.093 10.142.094 10.143h12.49c6.868 0 12.74.096 13.047.214.843.323.852 50.009.009 51.213l-.55.784-42.048-.014C7.417 73.353 1.17 73.277.794 72.85zm44.714-21.168l1.558-1.588h9.731v-9.849l1.411-1.306c1.754-1.622 1.756-2.072.015-3.838l-1.391-1.41-.017-5.557-.018-5.556h-11.02l-1.214-1.067-1.215-1.067-1.026.73c-.564.402-1.12.882-1.234 1.067-.118.192-2.71.337-6.007.337h-5.8v11.696l-1.028 1.028c-1.464 1.463-1.489 1.775-.252 3.082l1.103 1.165.12 5.273.121 5.272H39.443l1.71 1.574c2.137 1.967 2.438 1.968 4.355.014zm-7.781-4.744c-2.017-.612-3.134-2.037-2.85-3.635.027-.145-.15-.224-.393-.176-.698.14-.529-3.15.2-3.878.434-.435.594-.468.594-.123 0 .354.117.374.473.079.26-.216.586-.28.724-.143.138.138.136-.048-.004-.413-.156-.408-.12-.581.095-.449.347.215.636-.052 2.145-1.99l.785-1.008-.913-1.559c-.896-1.53-.913-1.73-.368-4.362.373-1.801 1.873-3.595 3.513-4.202 1.475-.545 4.839.787 4.839 1.917 0 .286.159.52.353.52.194 0 .322.12.285.265-.037.146.041.741.174 1.323.642 2.826.581 3.8-.302 4.85-1.333 1.584 1.3 6.058 3.15 5.349.383-.147.573-.032.573.347 0 .312.159.567.353.567.194 0 .327.119.295.264-.032.146.062.69.208 1.21.341 1.21-.037 2.406-.762 2.406-.31 0-.468.097-.35.214.488.489-1.684 2.485-2.987 2.746-1.504.3-8.736.213-9.83-.12zm6.758-12.722c2.79-.776 2.966-2.114.473-3.619-2.227-1.345-4.29-.914-6.109 1.277-1.419 1.71 2.32 3.263 5.636 2.342zm-3.111-5.275c.232-.89-.518-1.57-1.095-.993-.228.229-.415.701-.415 1.05 0 .873 1.28.824 1.51-.057zm4.134.03c0-1.013-.862-1.587-1.403-.934-.587.706-.204 1.596.687 1.596.466 0 .716-.231.716-.662zm16.58-19.093V0h23.637v19.756H62.089zm14.495 2.467c2.542-2.582 2.555-2.2-.164-4.894-2.606-2.583-2.506-2.591-5.5.461L68.99 9.88l2.272 2.292c2.77 2.795 2.74 2.794 5.321.173z"/><path fill="#1166cb" d="M.794 72.85c-.86-.976-.62-71.319.245-71.781C1.503.82 11.202.73 30.937.792l29.212.09.093 10.142.094 10.143h12.49c6.868 0 12.74.096 13.047.214.843.323.852 50.009.009 51.213l-.55.784-42.048-.014C7.417 73.353 1.17 73.277.794 72.85zm9.172-1.494a20.198 20.198 0 0 0-2.999 0c-.824.074-.15.135 1.5.135 1.649 0 2.324-.061 1.499-.135zm-1.94-1.746c2.232-.121 3.263-.056 3.263.208 0 .428 62.855.569 69.619.155 8.67-.53 1.808-.647-32.93-.56-33.088.085-36.69.04-36.69-.458 0-.465-.504-.542-3.198-.487-1.76.035-3.34-.076-3.512-.249-.176-.176-.367-14.502-.436-32.767-.067-17.85-.251-32.81-.41-33.247-.359-.993-.91-1.034-.91-.068 0 .4-.143.639-.317.53-.175-.107-.284.292-.243.888.051.738-.147 1.239-.619 1.57-.649.454-.68.768-.464 4.824.126 2.386.233 16.817.239 32.069.005 15.252.089 27.81.186 27.907.098.098.848.107 1.668.02s2.959-.237 4.754-.335zm-5.5-1.632c-.438-.528-.756-62.334-.321-62.334.327 0 .305-2.64.265 32.515-.032 28.134-.004 29.522.6 29.642.413.081.494.214.233.378-.22.139-.57.048-.777-.201zm82.493.285c0-.414-.443-.521-2.028-.49l-2.029.04 1.94.45c1.068.247 1.98.467 2.03.49.048.02.087-.2.087-.49zM31.026 5.644c14.925 0 25.459-.132 25.576-.322.11-.177.833-.429 1.608-.56 1.355-.229 1.41-.29 1.41-1.58 0-1.743 2.05-1.629-25.4-1.412l-23.108.183 22.755.124c12.514.068 22.902.095 23.084.06.762-.147 1.963.384 1.963.868 0 .507-.58.69-1.852.583-.399-.034-.618.197-.618.65 0 .754 2.62.706-48.066.868l-2.91.009-.176 2.266c-.097 1.247-.097 15.376 0 31.398l.176 29.13.09-31.132.09-31.133zm11.942 50.377c.33-.33.424-.33.424 0 0 .233.228.423.507.423.29 0 .484-.302.454-.705-.03-.388-.237-.706-.463-.706-.225 0-1.154-.416-2.064-.924l-1.655-.925.54 1.29c.296.71.388 1.198.203 1.083-.186-.115-.243.037-.126.34.249.649 1.58.725 2.18.124zm4.173-.988c1.299 0 2.223-.753 2.302-1.877.148-2.124.129-2.18-.76-2.18-.695 0-.874.18-.877.882-.002.545-.27.99-.702 1.165-.593.24-.619.337-.176.647.386.27.224.313-.626.167-.644-.11-1.146-.046-1.146.147 0 .189.198.356.44.372.353.022.353.063 0 .205-.242.098-.44.435-.44.749 0 .443.094.476.423.147.233-.233.936-.424 1.562-.424zm-1.633-3.351l1.558-1.588h9.731v-9.849l1.411-1.306c1.754-1.622 1.756-2.072.015-3.838l-1.391-1.41-.017-5.557-.018-5.556h-11.02l-1.214-1.067-1.215-1.067-1.026.73c-.564.402-1.12.882-1.234 1.067-.118.192-2.71.337-6.007.337h-5.8v11.696l-1.028 1.028c-1.464 1.463-1.489 1.775-.252 3.082l1.103 1.165.12 5.273.121 5.272H39.443l1.71 1.574c2.137 1.967 2.438 1.968 4.355.014zm-7.781-4.744c-2.017-.612-3.134-2.037-2.85-3.635.027-.145-.15-.224-.393-.176-.698.14-.529-3.15.2-3.878.434-.435.594-.468.594-.123 0 .354.117.374.473.079.26-.216.586-.28.724-.143.138.138.136-.048-.004-.413-.156-.408-.12-.581.095-.449.347.215.636-.052 2.145-1.99l.785-1.008-.913-1.559c-.896-1.53-.913-1.73-.368-4.362.373-1.801 1.873-3.595 3.513-4.202 1.475-.545 4.839.787 4.839 1.917 0 .286.159.52.353.52.194 0 .322.12.285.265-.037.146.041.741.174 1.323.642 2.826.581 3.8-.302 4.85-1.333 1.584 1.3 6.058 3.15 5.349.383-.147.573-.032.573.347 0 .312.159.567.353.567.194 0 .327.119.295.264-.032.146.062.69.208 1.21.341 1.21-.037 2.406-.762 2.406-.31 0-.468.097-.35.214.488.489-1.684 2.485-2.987 2.746-1.504.3-8.736.213-9.83-.12zm6.758-12.723c2.79-.775 2.966-2.113.473-3.618-2.227-1.345-4.29-.914-6.109 1.277-1.419 1.71 2.32 3.263 5.636 2.341zm-3.111-5.274c.232-.89-.518-1.57-1.095-.993-.228.229-.415.701-.415 1.05 0 .873 1.28.824 1.51-.057zm4.134.03c0-1.013-.862-1.587-1.403-.934-.587.706-.204 1.596.687 1.596.466 0 .716-.231.716-.662zm-6.702 22.197c0-.51-.236-.462-1.024.213-.373.32-.593.804-.488 1.077.209.544 1.512-.568 1.512-1.29zm21.018-5.558c.072-2.296-.011-4.647-.183-5.225-.251-.84-.32-.896-.344-.277-.017.425-.182.866-.368.981-.185.115-.252.481-.147.815.172.55.143.549-.327-.023-.489-.594-.529-.584-.722.187-.295 1.175.14 2.796.492 1.834.204-.556.29-.451.455.548.442 2.694.486 4.918.093 4.683-.214-.128-.167.04.103.373.739.91.808.628.948-3.896zm-31.192-2.383c-.105-2.068-.177-2.276-.593-1.712-.26.353-.325.695-.145.76.18.064.33 1.017.334 2.116.003 1.1.122 1.817.264 1.594.143-.222.206-1.464.14-2.758zm32.817-2.431c.027-.707.182-1.285.344-1.285.163 0 .283-.436.268-.97-.015-.534-.114-.754-.22-.49-.16.407-.238.407-.495 0-.188-.296-.307.452-.31 1.96-.006 2.488.326 3.117.413.785zm-34.486-.892c.106-.172-.043-.51-.332-.749-.29-.24-.525-.655-.525-.922s-.137-.486-.304-.486c-.167 0-.229-.395-.136-.878.092-.485.33-.777.531-.653.23.142.298-.12.185-.71-.098-.513-.042-.934.125-.934s.304-.159.304-.353c0-.981-1.179-.169-1.804 1.243-.759 1.716-.39 4.05.64 4.05.252 0 .459.158.459.352 0 .437.594.464.857.04zm-3.53-1.291c.237-.948.03-1.571-.523-1.571-.183 0-.332.555-.332 1.234 0 1.436.526 1.644.854.337zm38.48-2.306c0-.275-.37-.552-.822-.616-.739-.105-.78-.041-.417.638.435.812 1.238.798 1.238-.022zm-33.415-8.173l-.078-5.733-.109 4.851-.109 4.85-1.49.062-1.488.062 1.499.135c1.203.108 1.5.27 1.5.82 0 .377.079.686.176.686.097 0 .141-2.58.099-5.733zm32.938 3.528c.162-6.83-.076-8.85-1.164-9.892-1.145-1.096-2.15-.968-1.142.146.41.453.694.548.855.288.422-.682.693.649.693 3.401 0 1.44-.14 2.617-.312 2.617s-.23 1.032-.128 2.293c.157 1.964.1 2.293-.394 2.293-.77 0-.74.612.04.815 1.426.373 1.498.282 1.552-1.961zm-3.014 1.294c-.117-.307-.214-2.768-.214-5.468 0-2.779-.142-4.91-.327-4.91-.367 0-.5 7.985-.164 9.781.12.635.375 1.155.568 1.155.194 0 .255-.251.137-.558zM82.115 21.62c-.53-.08-1.482-.082-2.116-.004-.634.079-.2.145.963.146 1.165.002 1.683-.062 1.153-.142zm-41.193-.804c0-.727-.924-1.21-1.263-.661-.147.238-1.765.311-4.578.207-3.977-.147-7.004.482-3.575.743.599.046 1.168.163 1.265.26.57.57 8.151.06 8.151-.55zm15.522.404c0-.462-8.895-.853-9.174-.403-.127.205-.522.262-.878.125-.447-.171-.568-.12-.392.165.3.486 10.444.596 10.444.113zm1.607-1.142c.363-.589-.454-1.263-.94-.777-.408.408-.153 1.16.392 1.16.17 0 .418-.172.548-.383zM39.51 19.05c0-.647-.235-.706-2.822-.706s-2.822.06-2.822.706c0 .647.235.706 2.822.706s2.822-.06 2.822-.706zm13.808.353c2.543 0 3.125-.099 3.125-.53 0-.448-.864-.529-5.666-.529-5.186 0-5.661-.052-5.604-.617.122-1.202-.034-1.35-1.49-1.408-1.66-.066-2.514.268-1.549.607.577.202.586.275.088.773-.751.751-.117 1.339 1.504 1.393.689.023 1.728.17 2.31.328.583.158 1.756.219 2.607.135.852-.084 2.955-.152 4.675-.152zM31.5 18.642c.973-.521.138-.94-1.956-.978-1.587-.03-1.877.902-.353 1.133.534.081 1.1.171 1.258.2.159.03.631-.13 1.05-.355zm8.97-1.01c-.048-.65-.29-.694-3.416-.627l-3.365.072 2.873.118c2.553.105 2.894.2 3.063.846.233.89.919.56.846-.41zm17.508.547c.249-.648-.413-1.097-.9-.61-.376.376-.105 1.128.407 1.128.162 0 .383-.233.493-.518zm1.546-6.186c.065-5.023-.013-6.349-.377-6.349-.557 0-.754 10.45-.224 11.845.505 1.327.514 1.242.601-5.496zm-2.245 1.148c.13-2.086.333-4.626.451-5.644.2-1.721.161-1.853-.536-1.853-.88 0-.924.431-.336 3.36.319 1.585.319 2.1 0 2.205-.483.162-.595 5.724-.115 5.724.165 0 .407-1.706.536-3.792zm-12.127 1.94c.001-.145-.8-.264-1.782-.264-1.04 0-1.698.14-1.577.335.24.39 3.355.324 3.36-.07zM8.496 3.881c2.247 0 2.793-.104 2.793-.53 0-.426-.549-.529-2.822-.529-2.614 0-2.823-.053-2.823-.726 0-.4-.158-.628-.352-.509-.194.12-.353.593-.353 1.05 0 1.073.434 2.234.623 1.667.094-.282 1.076-.423 2.934-.423zM62.09 9.878V0h23.636v19.756H62.089zm23 8.353c.134-.217.165-.475.068-.572-.097-.097-.287.003-.422.223-.174.281-3.344.402-10.792.411-5.8.007-10.673.14-10.83.297-.156.156 4.67.228 10.723.16 7.627-.086 11.082-.245 11.252-.519zM67.942 16.66c.05-.247.01-.287-.09-.088-.098.199-1.032.361-2.075.361H63.88l-.119-2.91-.118-2.91-.072 3.103-.072 3.104 2.177-.105c1.413-.068 2.208-.263 2.266-.555zm3.23-.168c-.222-.667-1.323-.762-1.323-.114 0 .328.302.555.735.555.431 0 .674-.182.588-.44zm3.616-.635c0-.204-.466-.534-1.035-.732-.57-.199-1.274-.725-1.565-1.17-.574-.875-1.986-1.441-1.986-.796 0 .85 2.603 3.069 3.6 3.069.542 0 .986-.167.986-.371zm2.822-.455c0-.26-.416-.662-.924-.893-.805-.367-.896-.348-.706.148.12.314.219.716.219.894 0 .178.317.324.706.324.388 0 .705-.213.705-.473zm-8.177-.646c-.143-.97-.995-1.295-.995-.38 0 .732.285 1.146.789 1.146.175 0 .268-.345.206-.766zm7.15-2.411c2.54-2.582 2.554-2.2-.165-4.894-2.606-2.583-2.506-2.591-5.5.461L68.99 9.88l2.272 2.292c2.77 2.795 2.74 2.794 5.321.173zm-7.263-4.8c-.792-.589-1.167.024-.723 1.181.2.52.275.516.824-.042.57-.58.565-.642-.101-1.139zm9.701.607c0-.79-.743-1.16-1.443-.716-.401.254-.378.315.12.32.34.003.618.243.618.534 0 .291.158.53.352.53.194 0 .353-.301.353-.668zM77.787 6.35c-.31-.502.302-.438.837.088.36.354.426.336.335-.088-.093-.434.463-.547 3.102-.63l3.215-.1v-1.4c0-.768-.137-1.398-.305-1.398-.167 0-.286.12-.263.265.319 2.017.089 2.203-2.775 2.24-1.504.02-3.12.143-3.59.274-.882.247-1.457 1.102-.74 1.102.221 0 .304-.159.185-.353zm-.19-1.57c.422-.51-.837-1.577-1.307-1.108-.11.112-.384.05-.608-.135-.246-.204-.815-.215-1.443-.027-.9.269-.93.314-.223.34.448.017.716.19.597.383-.12.194.029.353.331.353.303 0 .55.124.55.276 0 .494 1.679.429 2.103-.082zm-10.702-.194c.461 0 .838-.203.838-.452 0-.585-4.082-.784-4.433-.215-.366.592.597 1.063 1.743.853a12.537 12.537 0 0 1 1.852-.186zm5.341-.279c.096-.286-.324-.426-1.277-.426-1.383 0-2.042.36-1.553.849.387.387 2.674.045 2.83-.423zm12.725-1.794c.768-.487-.396-.75-3.322-.75-1.532 0-2.617-.147-2.617-.357 0-.231-2.796-.349-7.937-.334-6.24.019-7.938.121-7.938.48 0 .531 8.119 1.038 11.536.72 1.125-.105 2.522-.038 3.104.15 1.326.425 6.541.492 7.174.091z"/><path fill="#2967ad" d="M.794 72.85c-.86-.976-.62-71.319.245-71.781C1.503.82 11.202.73 30.937.792l29.212.09.093 10.142.094 10.143h12.49c6.868 0 12.74.096 13.047.214.843.323.852 50.009.009 51.213l-.55.784-42.048-.014C7.417 73.353 1.17 73.277.794 72.85zm83.268-.91c1.644-.25 1.635-.108 1.656-25.597l.02-24.391-.938-.236c-.516-.129-6.241-.207-12.722-.173-14.019.075-12.21 1.533-12.155-9.802.026-5.498-.096-9.67-.293-9.977C58.827.504 1.2.896 1.6 2.158c.117.367.043.664-.165.664-.665 0-.515 68.054.15 68.79.501.553 78.964.865 82.477.328zM41.573 52.96c-.902-.574-1.797-1.322-1.988-1.663-.304-.542-.961-.624-5.238-.655-6.11-.044-5.705.274-5.522-4.33.166-4.154-.09-6.8-.656-6.8-1.438 0-2.104-2.741-1.005-4.138.388-.493.705-.764.705-.602 0 .162.199.096.441-.146.3-.3.503-2.316.635-6.332l.193-5.893.071 5.937.071 5.936-1.027 1.028c-1.464 1.463-1.49 1.775-.252 3.082l1.103 1.165.12 5.273.121 5.272h10.09l1.765 1.588c2.184 1.963 2.381 1.963 4.308 0l1.558-1.588h9.731l.005-4.85c.005-4.875.234-6.063 1.068-5.547.268.165.359.133.227-.08-.121-.196.172-.724.65-1.174 1.19-1.117 1.099-1.696-.524-3.342l-1.392-1.41.044-5.645.043-5.645.21 5.495.208 5.494 1.318 1.157c1.54 1.351 1.766 2.928.612 4.259-.388.447-.705.948-.705 1.112 0 .164-.227.299-.504.299-.608 0-1.03 2.815-.88 5.875.056 1.134.072 2.625.037 3.314l-.064 1.251-2.296-.146c-4.291-.273-7.575.224-7.947 1.203-.178.467-.475.85-.66.85-.185 0-.566.23-.848.512-1.01 1.01-2.107.977-3.826-.116zm-3.846-6.022c-2.017-.612-3.134-2.037-2.85-3.635.027-.145-.15-.224-.393-.176-.698.14-.529-3.15.2-3.878.434-.435.594-.468.594-.123 0 .354.117.374.473.079.26-.216.586-.28.724-.143.138.138.136-.048-.004-.413-.156-.408-.12-.581.095-.449.347.215.636-.052 2.145-1.99l.785-1.008-.913-1.559c-.896-1.53-.913-1.73-.368-4.362.373-1.801 1.873-3.595 3.513-4.202 1.475-.545 4.839.787 4.839 1.917 0 .286.159.52.353.52.194 0 .322.12.285.265-.037.146.041.741.174 1.323.642 2.826.581 3.8-.302 4.85-1.333 1.584 1.3 6.058 3.15 5.349.383-.147.573-.032.573.347 0 .312.159.567.353.567.194 0 .327.119.295.264-.032.146.062.69.208 1.21.341 1.21-.037 2.406-.762 2.406-.31 0-.468.097-.35.214.488.489-1.684 2.485-2.987 2.746-1.504.3-8.736.213-9.83-.12zm6.758-12.722c2.79-.776 2.966-2.114.473-3.619-2.227-1.345-4.29-.914-6.109 1.277-1.419 1.71 2.32 3.263 5.636 2.342zm-3.111-5.275c.232-.89-.518-1.57-1.095-.993-.228.229-.415.701-.415 1.05 0 .873 1.28.824 1.51-.057zm4.134.03c0-1.013-.862-1.587-1.403-.934-.587.706-.204 1.596.687 1.596.466 0 .716-.231.716-.662zm-16.015-6.687c-.233-.378.162-.407 5.287-.39 4.018.013 4.725-.102 7.73-1.256.426-.164.216.16-.53.82l-1.234 1.091-5.536.014c-3.044.008-5.617-.118-5.717-.28zm14.995-.815c-1.045-.95-1.09-1.054-.352-.824.464.145.956.441 1.094.657.162.253 2.211.437 5.733.514 7.087.155 7.169.765.102.751l-5.38-.01-1.197-1.087zm17.6-1.978c0-.146 5.23-.22 11.62-.167l11.62.097.14-1.332.138-1.332.06 1.5.059 1.499H73.907c-6.5 0-11.818-.12-11.818-.265zm9.89-5.983c-.782-.72-1.422-1.467-1.422-1.66 0-.195.71.344 1.578 1.196 1.806 1.772 2.434 1.687 4.449-.608.565-.645 1.023-1.047 1.017-.895-.031.775-2.902 3.276-3.76 3.276-.24 0-1.079-.59-1.861-1.309zm-2.843-2.942c-.423-.79.661-2.313 2.955-4.154.611-.49.17.083-.983 1.275-2.059 2.131-2.083 2.179-1.444 2.884.357.395.471.718.254.718-.217 0-.569-.325-.782-.723zm8.829.484c0-.18.192-.518.427-.753.516-.516-3.832-5.128-4.568-4.846-.245.094-.445.018-.445-.17 0-.922 1.474-.122 3.45 1.872 2.256 2.277 2.583 3.02 1.665 3.783-.291.242-.53.293-.53.114zM70.474.097C71.108.02 72.06.02 72.59.101c.53.08.012.145-1.153.143-1.164-.002-1.597-.068-.963-.147z"/><path fill="#1654ae" d="M.794 72.85c-.347-.394-.434-8.043-.41-35.882.02-22.427.152-34.965.36-34.246.195.674.29 14.86.233 34.958L.882 71.504l.73.345c.624.294 79.738.429 82.702.141.485-.047 1.08-.25 1.323-.45.592-.49.609.823.017 1.414-.683.683-84.258.58-84.86-.104zm85.098-26.636c0-13.68.044-19.275.097-12.436a1923.4 1923.4 0 0 1 0 24.871c-.053 6.84-.097 1.244-.097-12.435zm-48.165.724c-1.609-.488-2.45-1.088-2.45-1.747 0-.355-.336-1.074-.748-1.598-.82-1.042-.784-3.261.069-4.289.51-.614 1.098-.02.786.792-.328.856.414.488.831-.412.224-.483.266-.791.092-.684-.173.107-.221-.05-.106-.35s.341-.464.503-.364c.162.1.856-.554 1.542-1.453l1.248-1.635-.873-1.49c-.994-1.697-1.106-2.927-.356-3.919.285-.377.52-.844.524-1.038.003-.194-.148-.114-.336.177-.24.37-.344.393-.348.077-.003-.249.232-.543.522-.654.29-.112.433-.355.318-.54-.263-.426.906-1.755 1.319-1.5.168.104.305-.036.305-.312 0-.96 3.526-1.077 4.512-.15.46.432.943.706 1.073.61.13-.098.287.182.35.622.066.466.272.7.495.563.225-.14.28-.072.135.164-.136.22-.096.682.089 1.028.816 1.525.74 4.065-.155 5.128-1.186 1.41-.504 3.282 1.791 4.917.194.138.354.456.355.705.001.25.319.47.706.49 1.311.067 1.586.14 1.528.405-.032.146.062.69.208 1.21.341 1.21-.038 2.406-.762 2.406-.31 0-.468.097-.35.214.488.488-1.684 2.485-2.988 2.746-1.503.3-8.735.213-9.83-.12zm6.758-12.722c2.79-.776 2.966-2.114.473-3.619-2.227-1.345-4.29-.914-6.109 1.277-1.419 1.71 2.32 3.263 5.636 2.342zm-3.065-5.157c.12-.315.037-.793-.186-1.062-.511-.617-1.37-.006-1.37.974 0 .829 1.244.9 1.556.088zm4.088-.088c0-1.013-.862-1.587-1.403-.934-.587.706-.204 1.596.687 1.596.466 0 .716-.231.716-.662zm23.02-9.48a350.64 350.64 0 0 1 11.112 0c3.056.06.555.107-5.557.107s-8.612-.048-5.556-.106z"/><path fill="#175195" d="M.794 72.85C.55 72.575.373 71.588.397 70.66l.044-1.69.248 1.528c.137.841.474 1.671.75 1.844 1.213.76 83.162.397 83.93-.372.656-.655.709-.66.709-.073 0 1.52 1.095 1.482-42.845 1.468C7.41 73.353 1.17 73.277.793 72.85zM.522 37.218c0-17.462.043-24.555.095-15.76.053 8.794.053 23.082 0 31.75-.052 8.668-.095 1.473-.095-15.99zm37.205 9.72c-1.609-.488-2.45-1.088-2.45-1.747 0-.355-.336-1.074-.748-1.598-.82-1.042-.784-3.261.069-4.289.772-.93.985.153.394 2.002-.538 1.682-.352 2.753.3 1.723.242-.383.33-.398.333-.057.003.254.163.364.354.246.207-.128.255.03.117.39-.158.41-.1.523.18.35.227-.14.413-.645.413-1.121 0-1.96 1.127-3.065 2.87-2.811 1.373.2 2.62-.58 1.571-.983-.283-.109-.584-.008-.668.223-.116.32-.344.308-.942-.045-.654-.388-.74-.388-.507 0 .233.387.183.387-.295 0-.317-.257-.49-.694-.383-.97.106-.277.012-.504-.21-.504-.498 0-.048-.897 1.018-2.028.412-.437.613-.794.447-.794-.509 0-1.843-2.684-1.843-3.707 0-.832.076-.903.547-.512.452.375.65.352 1.134-.133.576-.575.283-.769-.99-.653-.336.03-.306-1.323.033-1.533.18-.11.231.047.115.35-.154.4-.056.492.357.333.675-.259.716-.559.153-1.122-.455-.455.602-1.987 1.141-1.653.154.094.352-.108.441-.45.149-.57.166-.567.203.029.024.374-.257.728-.66.834-.386.1-.613.327-.505.502a.381.381 0 0 0 .525.115c.18-.111.329-.044.329.15s-.16.45-.353.57c-.636.394-.4 1.588.315 1.588.856 0 1.24-.985.661-1.7-.288-.355-.3-.464-.036-.305.226.135.499.046.607-.197.108-.244.161-.144.118.222-.048.407.17.704.56.765.476.075.544-.011.267-.345-.52-.626-.023-.994.628-.465.457.37.501.335.29-.23-.202-.535-.157-.588.23-.267.265.22.57.311.678.203.109-.108.317-.003.463.234.16.258.12.34-.1.203-.509-.314-1.278.696-1.028 1.349.393 1.024 1.638.64 1.638-.504 0-.57.152-1.132.338-1.246.185-.115.238-.468.116-.784-.147-.385-.084-.492.192-.321.477.295.56 1.272.108 1.272-.858 0-.289 2.92.678 3.474 1.187.681 1.214 1.613.089 2.99-1.138 1.393-.451 3.256 1.797 4.88.176.126-.538.157-1.587.068-1.896-.161-1.903-.158-1.201.526 1 .976 2.293 1.32 2.293.609 0-.84.543-.66.994.329.478 1.05 1.135 1.183.872.176-.102-.388-.047-.703.12-.7.443.008 1.255.564 1.212.83-.02.124.06.611.179 1.081.288 1.15-.121 2.317-.814 2.317-.31 0-.468.097-.35.214.488.488-1.684 2.485-2.987 2.746-1.504.3-8.736.213-9.83-.12zm6.758-12.722c2.79-.776 2.966-2.114.473-3.619-2.227-1.345-4.29-.914-6.109 1.277-1.419 1.71 2.32 3.263 5.636 2.342z"/><path fill="#07339f" d="M37.28 46.777c-1.498-.553-2.012-.916-1.297-.916.259 0 .366-.104.239-.232-.128-.128-.056-.445.16-.706.295-.355.277-.473-.073-.473-.363 0-.373-.094-.043-.423.232-.233.423-.79.423-1.24 0-1.911 1.144-3.012 2.87-2.761.857.124 1.416.023 1.69-.307.539-.65-.151-.904-1.455-.536-.67.189-1.08.114-1.383-.25-.342-.413-.336-.498.026-.412.251.06.537-.112.635-.382.122-.336.025-.403-.309-.213-.393.224-.402.186-.046-.198.527-.567.589-1.172.089-.863-.194.12-.353.05-.353-.155 0-.206.247-.374.55-.374.302 0 .458-.148.347-.328-.112-.18-.03-.436.182-.567.255-.157.153-.493-.303-.994-1.43-1.573-1.686-3.05-.527-3.05.44 0 .46.1.107.525-1.736 2.092 4.501 3.534 7.07 1.634.9-.665.916-.665.868-.006-.027.37-.348.89-.713 1.157-.637.466-.639.522-.04 1.435.605.924.6.969-.162 1.63-.432.374-.65.68-.487.68.164 0 .007.213-.347.472-.585.428-.453.536 1.403 1.147 1.188.39 2.21.971 2.43 1.38.21.388.54.822.734.965.235.173.235.262 0 .267-.194.004-.386.735-.426 1.624-.064 1.393-.001 1.556.449 1.182.423-.35.486-.338.331.065-.604 1.574-9.385 2.423-12.639 1.222zm8.409-15.819c-.14-.338-.373-.542-.518-.452-.146.09-.565-.065-.934-.344-.944-.715-2.015-.647-3.486.22-1.747 1.032-1.913.649-.182-.418.768-.473 1.33-1.047 1.248-1.277-.092-.257.126-.364.568-.278.573.11.636.04.315-.346-.26-.314-.277-.56-.049-.701.415-.257 1.217 1.08.928 1.548-.183.297 1.112.936 1.63.805.409-.104 1.077.938.903 1.406-.119.319-.244.27-.423-.163z"/><path fill="#28306e" d="M37.28 46.777c-.742-.274-1.456-.617-1.587-.763-.132-.146.079-.15.467-.008 3.204 1.167 11.183 1.06 12.914-.172.607-.432.943-.533.835-.252-.594 1.548-9.411 2.383-12.629 1.195zm2.65-12.104c-1.554-.297-2.663-3.276-1.22-3.276.433 0 .452.1.1.525-1.151 1.386 1.497 2.831 4.582 2.5 1.34-.143 1.776-.099 1.41.143-.524.346-3.302.408-4.872.108zm.395-4.475c1.388-1.287 4.83-1.149 4.83.194 0 .222-.363.143-.869-.189-1.157-.758-1.996-.718-3.608.172l-1.343.74z"/></svg>