<svg xmlns="http://www.w3.org/2000/svg" width="574" height="487" viewBox="0 0 151.871 128.852"><path fill="#fff" d="M0 .236h150.995v127.439H0z"/><path fill="#e7d49e" d="M.9 127.953l-.9-.9V64.056C0 1.41.003 1.056.53.529 1.054.004 1.41 0 52.783 0h51.726v40.746h47.36v43.238c0 23.78-.073 43.43-.164 43.666-.485 1.265 3.493 1.202-75.784 1.202H1.8zm92.138-35.17c1.236-.627 1.837-1.186 5.28-4.91.86-.93 2.574-2.535 3.811-3.568 2.778-2.32 2.99-2.563 3.951-4.533 1.789-3.663 2.014-6.699 1.405-18.918-.357-7.174-.414-7.694-1.157-10.673-.911-3.65-1.581-4.305-7.853-7.681-1.792-.965-3.342-1.754-3.446-1.754-.103 0-.84-.435-1.637-.967-2.8-1.868-3.429-2.005-10.18-2.214-6.787-.21-8.628-.173-13.23.267-4.292.41-4.189.378-5.758 1.798-.762.69-2.61 2.074-4.107 3.076-3.105 2.08-3.468 2.46-5.375 5.644-1.614 2.694-2.252 3.543-4.117 5.481-1.859 1.933-1.959 2.543-2.006 12.221-.043 8.733-.035 8.797 1.692 12.483 2.115 4.514 3.499 6.04 8.003 8.819 1.906 1.176 4.478 2.82 5.715 3.653 1.237.833 2.666 1.665 3.175 1.848.634.228 4.046.403 10.809.553 5.435.12 9.927.265 9.982.32.303.303 3.92-.375 5.043-.945zm-18.822-8.818a67.746 67.746 0 0 1-2.382-.754c-1.018-.337-3.097-.804-4.619-1.036-1.522-.233-2.885-.541-3.03-.685-.144-.145-.446-.264-.672-.266-.797-.005-3.333-1.363-4.3-2.304-.54-.524-1.056-1.295-1.148-1.713-.092-.418-.449-.945-.792-1.17-.877-.574-1.71-2.09-1.71-3.11 0-.503-.227-1.103-.545-1.446-.866-.928-1.137-2-.781-3.078.17-.514.388-.934.486-.934.098 0 .178-.51.178-1.131 0-.95.185-1.35 1.157-2.503l1.157-1.372.033-2.345c.03-2.064.119-2.473.737-3.407.765-1.156 3.046-2.471 4.285-2.471.848 0 .876.235.137 1.174-.84 1.067-.956 2.81-.263 3.932l.561.908 4.83-.123c2.748-.07 5.313-.01 5.953.14.619.144 1.125.23 1.125.19 0-.04-.303-.732-.672-1.539-.926-2.023-1.084-3.705-.526-5.623.38-1.31.733-1.83 2.224-3.285 2.397-2.339 4.118-3.018 7.575-2.99 2.331.019 2.51-.019 2.894-.606.468-.713.537-1.594.146-1.836-.432-.267-.301-.661.219-.661.265 0 .771.307 1.124.683.538.573.642.95.642 2.343 0 1.549.057 1.707.865 2.387 1.881 1.583 2.865 4.348 2.634 7.402-.14 1.853-.114 1.977.558 2.617.947.9 3.21 1.678 5.468 1.879 2.768.245 3.316 1.213 1.963 3.469-1.275 2.126-6.406 3.29-10.25 2.326-.57-.143-.616-.094-.447.472.104.347.364.988.578 1.425.974 1.983 1.272 6.169.612 8.599-.402 1.48-1.884 3.503-3.225 4.401-2.137 1.431-4.601 2.03-8.678 2.11-1.965.04-3.81.008-4.101-.069zm34.175-46.57c-.097-.098-.176-8.359-.176-18.358V.855l.595-.16c.78-.208 41.833-.214 42.378-.005.376.144.418 2.009.418 18.36 0 16.352-.042 18.216-.418 18.36-.574.22-42.577.205-42.797-.015zm24.867-11.816c2.19-1.11 4.06-4.054 4.06-6.39 0-1.69-1.02-3.873-2.48-5.304-1.556-1.525-2.75-1.979-5.205-1.979-2.699 0-4.686 1.254-6.294 3.969-.595 1.005-.705 1.5-.705 3.175 0 1.705.11 2.184.786 3.402 2.028 3.662 6.179 4.981 9.838 3.127z"/><path fill="#ecd370" d="M2.514 128.397c-.291-.07-.754-.325-1.03-.564C.207 126.717.265 129.746.268 64.5.27 30.844.345 2.857.436 2.308.553 1.6.842 1.136 1.425.72l.824-.588 51.13-.068 51.131-.068v40.75h47.36v85.613l-.727.865a3.34 3.34 0 0 1-1.786 1.108c-1.078.247-145.833.312-146.843.065zm91.624-34.33c1.665-.797 3.228-2.223 3.229-2.943 0-.961 5.727-6.457 6.728-6.457.582 0 2.8-2.587 3.465-4.044 1.215-2.656 1.42-4.27 1.328-10.466-.117-8.036-.559-14.997-1.177-18.563-.929-5.362-1.58-6.51-4.57-8.067-1.066-.555-2.236-1.214-2.6-1.464-.92-.634-4.156-2.416-7.143-3.934-3.778-1.92-4.547-2.014-16.404-2.007-12.508.008-12.377-.014-14.817 2.52-.946.983-2.637 2.34-3.76 3.016-2.463 1.487-3.839 2.99-5.164 5.648-.658 1.32-1.721 2.786-3.125 4.311-3.062 3.328-3.12 3.549-3.246 12.59-.127 9.061.072 10.28 2.513 15.433 2.05 4.326 3.034 5.426 6.996 7.82a170.98 170.98 0 0 1 5.821 3.727c1.654 1.114 3.425 2.205 3.934 2.426 1.87.81 4.149 1.017 11.903 1.081 4.292.036 7.842.104 7.889.152.047.047 1.498.09 3.224.094 3.019.008 3.207-.025 4.976-.873zM73.636 83.6c-1.047-.27-2.262-.677-2.7-.903-.437-.226-1.435-.412-2.217-.412-1.593 0-4.925-.917-7.146-1.968-1.65-.78-3.243-2.272-3.493-3.27-.092-.364-.46-.893-.818-1.175-.861-.677-1.432-1.823-1.446-2.9-.007-.574-.279-1.187-.793-1.79-.836-.976-1.07-2.528-.471-3.126.171-.171.344-.854.383-1.517.06-1.019.274-1.437 1.382-2.7 1.124-1.282 1.277-1.586 1.072-2.125-.698-1.836.204-4.888 1.785-6.04.9-.655 2.306-1.17 3.198-1.17h.646l-.685.814c-.537.638-.685 1.1-.685 2.134 0 1.306.335 2.298.9 2.665.16.104 2.315.122 4.788.038 4.184-.14 5.073-.068 7.233.586.61.185.608.169-.196-1.256-2.663-4.72-.589-9.524 5.078-11.763 1.377-.544 2.025-.639 3.99-.586 2.81.076 3.218-.214 2.97-2.104-.162-1.226-.036-1.254 1.086-.245.748.672 1.008 1.876.613 2.83-.294.709-.245.813.883 1.852 2.007 1.85 2.392 2.834 2.472 6.324.04 1.703.197 3.162.362 3.362.772.93 2.697 1.727 4.81 1.993 3.059.385 3.493.537 3.596 1.258.108.756-.398 2.09-1.083 2.859-.282.315-1.126.849-1.876 1.186-1.209.543-1.772.613-5 .616-2.001.002-3.639.07-3.639.15 0 .08.1.259.222.397s.51 1.025.86 1.971c.532 1.433.638 2.206.638 4.63 0 2.648-.066 3.046-.736 4.409-1.355 2.76-3.367 4.083-7.58 4.981-3.044.65-5.878.648-8.403-.005zm-5.374-7.665c0-.145-.052-.264-.116-.264s-.19.119-.28.264c-.09.146-.038.265.116.265s.28-.12.28-.265zm-1.256-.175a1.021 1.021 0 0 0-.662 0c-.182.074-.033.134.331.134s.513-.06.33-.134zm41.629-38.6c-.376-.376-.42-2.296-.42-18.076 0-13.38.076-17.732.317-17.973.242-.241 5.385-.317 21.535-.317 19.104 0 21.234.041 21.379.418.271.708.176 35.395-.099 35.83-.219.346-2.926.406-21.271.467-18.916.064-21.063.029-21.441-.35zm24.573-11.37c2.613-1.278 4.115-3.732 4.105-6.706-.007-2.071-.552-3.447-2-5.05-1.6-1.771-2.764-2.257-5.403-2.258-1.968 0-2.401.09-3.469.717-2.574 1.51-3.924 3.787-3.933 6.632-.007 2.007.392 3.185 1.588 4.695 2.19 2.765 5.864 3.559 9.112 1.97z"/><path fill="#d8b55a" d="M2.907 128.351c-.874-.21-1.691-.816-2.071-1.532C.449 126.09.389 2.785.775 1.769.917 1.396 1.508.889 2.18.563L3.342 0H104.51v40.746h47.36V83.41c-.001 41.778-.012 42.681-.515 43.507-.283.464-.788 1-1.124 1.19-.499.285-13.848.353-73.634.376-40.164.016-73.324-.044-73.69-.132zm88.914-32.838c2.115-.402 4.005-1.378 5.318-2.748 1.172-1.224 2.43-3.054 1.853-2.698-.174.108-.302.024-.302-.195 0-.42 3.296-3.618 3.729-3.618.149 0 .197.12.107.265-.347.561.256.212 1.923-1.115 1-.795 2.167-2.05 2.757-2.963 1.568-2.426 3.15-8.249 2.372-8.73-.194-.12-.24-.985-.14-2.615.16-2.621-.612-15.674-1.084-18.326-.08-.445-.21-1.565-.292-2.49-.312-3.55-2.364-6.813-4.676-7.435-.587-.158-1.556-.599-2.154-.979-1.703-1.083-7.27-4.09-9.025-4.874-2.585-1.156-5.122-1.344-16.502-1.221-9.904.107-10.262.129-11.544.705-.858.385-1.577.96-2.047 1.638-.686.988-3.247 3.037-4.997 3.999-.442.242-1.048.66-1.349.926-.617.548-2.398 3.308-3.36 5.207-.353.696-1.365 2.02-2.25 2.943-3.471 3.623-3.563 3.972-3.656 13.933-.037 3.983.022 7.628.13 8.101.11.473.258 1.232.33 1.685.151.955 1.87 4.96 3.22 7.5.89 1.675 3.053 3.841 4.66 4.666.587.301 1.303.76 7.082 4.527 3.967 2.587 4.275 2.736 6.613 3.214 1.514.31 4.21.419 11.57.467 5.278.034 9.446.159 9.261.276-.476.302.739.28 2.453-.045zM73.636 83.6c-1.047-.27-2.262-.677-2.7-.903-.437-.226-1.44-.412-2.229-.412-.789 0-2.18-.238-3.09-.529-.911-.29-1.76-.529-1.886-.529-.126 0-.994-.361-1.929-.803-1.852-.875-3.46-2.334-3.722-3.377-.092-.364-.46-.893-.818-1.175-.861-.677-1.432-1.823-1.446-2.9-.007-.574-.279-1.187-.793-1.79-.836-.976-1.07-2.528-.471-3.126.171-.171.344-.854.383-1.517.06-1.019.274-1.437 1.382-2.7 1.124-1.282 1.277-1.586 1.072-2.125-.698-1.836.204-4.888 1.785-6.04.9-.655 2.306-1.17 3.198-1.17h.646l-.685.814c-.537.638-.685 1.1-.685 2.134 0 1.306.335 2.298.9 2.665.16.104 2.315.122 4.788.038 4.184-.14 5.073-.068 7.233.586.61.185.608.169-.196-1.256-2.663-4.72-.589-9.524 5.078-11.763 1.377-.544 2.025-.639 3.99-.586 2.81.076 3.218-.214 2.97-2.104-.162-1.226-.036-1.254 1.086-.245.748.672 1.008 1.876.613 2.83-.294.709-.245.813.883 1.852 2.007 1.85 2.392 2.834 2.472 6.324.04 1.703.197 3.162.362 3.362.772.93 2.697 1.727 4.81 1.993 3.059.385 3.493.537 3.596 1.258.108.756-.398 2.09-1.083 2.859-.282.315-1.126.849-1.876 1.186-1.209.543-1.772.613-5 .616-2.001.002-3.639.07-3.639.15 0 .08.1.259.222.397s.51 1.025.86 1.971c.532 1.433.638 2.206.638 4.63 0 2.648-.066 3.046-.736 4.409-1.355 2.76-3.367 4.083-7.58 4.981-3.044.65-5.878.648-8.403-.005zm-.857-3.628l1.437-.46-1.323-.09c-.728-.048-2.157.098-3.175.325-1.019.227-2.21.456-2.646.51-.437.053.345.115 1.738.137 1.773.028 2.962-.099 3.969-.422zm10.414-.946c.871-1.142 1.512-2.704 1.647-4.017.296-2.876.375-5.159.178-5.159-.12 0-.552.417-.958.926-.945 1.184-1.243 1.169-1.257-.066-.007-.546-.176-1.35-.376-1.786-.357-.78-.364-.783-.397-.132-.049.969-.704 2.35-.878 1.852-.5-1.433-.564-1.376-.73.661-.094 1.164-.306 2.444-.47 2.844-.358.872-.225.906.698.18.859-.676.98-.39.467 1.099-.218.631-.332 1.212-.255 1.29.078.077.497-.276.933-.784l.791-.925-.11 1.855c-.061 1.022-.314 2.246-.564 2.73-.445.86-.444.87.082.59.294-.158.833-.679 1.198-1.158zm-13.86-3.223c.067-.148-.376-.3-1.006-.346-1.047-.076-1.114-.126-.963-.727.142-.566.073-.647-.553-.647-.492 0-.758.165-.853.53-.166.636-.605.658-2.416.12-.757-.225-1.517-.322-1.689-.216-.171.106-.794.164-1.383.13-1.625-.095-.87.399 1.56 1.02 1.146.293 2.772.533 3.613.533.842 0 1.595.106 1.675.234.171.278 1.838-.245 2.014-.63zm-2.658-1.19a.265.265 0 0 1 .53 0 .265.265 0 0 1-.53 0zm2.532-4.811c-1.253-.727-5.43-1.558-8.625-1.715-3.274-.162-3.325-.155-4.093.505l-.778.669 2.479-.141c1.827-.105 2.43-.062 2.291.162-.136.22.56.31 2.54.327 1.5.012 3.323.116 4.05.229.728.113 1.621.218 1.985.233.613.025.624.006.15-.269zm3.01-3.013a13.415 13.415 0 0 0-1.994-1.178c-1.394-.642-4.365-1.135-4.717-.783-.143.143-.742.274-1.331.29l-1.072.032 1.19.21c.656.116 2.105.346 3.22.512 1.117.166 2.724.582 3.573.926 2.016.816 2.234.814 1.13-.008zm6.733-4.766c.256-.668.149-2.27-.23-3.418-.19-.582-.36-.84-.376-.573-.046.813-.664.33-.91-.711-.322-1.362-.039-2.562.918-3.883.74-1.02.765-1.114.259-.982-1.06.277-.598-.682 1.088-2.262 1.207-1.13 1.458-1.471.94-1.274-1.195.454-2.7 1.506-3.562 2.487-1.835 2.09-1.832 4.218.009 7.953.676 1.372 1.23 2.627 1.23 2.789 0 .44.45.352.633-.126zm10.48-7.092c.577-.638.726-.918.396-.745-.65.342-1.455 1.275-1.455 1.688 0 .168.03.255.066.193.036-.062.483-.574.992-1.136zm-.795-1.22c0-.321-.182-.537-.463-.548-.396-.016-.386-.052.066-.246.292-.125.39-.236.22-.246-.683-.042-1.146.336-1.146.935 0 .5.14.634.662.634.485 0 .661-.142.661-.53zm20.307-16.378c-.182-.058-.39-.196-.463-.306-.073-.11-.073-8.277 0-18.15l.132-17.951L129.75.858c15.396-.049 21.235.014 21.497.231.297.246.36 3.385.356 17.927-.002 10.648-.103 17.786-.255 18.026-.22.347-2.862.397-21.162.397-11.502 0-21.06-.048-21.243-.106zm24.268-11.429c2.564-1.28 4.11-3.73 4.107-6.513-.002-2.358-.315-3.378-1.518-4.94-1.74-2.26-4.7-3.4-7.278-2.806-3.858.89-6.12 3.743-6.044 7.624.054 2.832 1.274 4.928 3.76 6.464 1.857 1.146 4.873 1.22 6.973.171z"/><path fill="#fbdc05" d="M2.745 128.14c-.31-.06-.818-.382-1.13-.714l-.568-.605-.009-62.386L1.029 2.05l.553-.588c.305-.324 1.01-.726 1.567-.893.747-.224 14.2-.303 51.187-.303h50.174v40.48h46.815l.074 42.665c.082 46.934.195 43.688-1.541 44.512-.75.355-9.093.397-73.698.365-40.069-.02-73.106-.086-73.415-.147zm91.579-32.36c2.36-.975 3.69-2.147 5.69-5.011.656-.94 1.791-2.126 2.533-2.646 4.07-2.853 5.905-5.213 7.316-9.406 1.043-3.099 1.228-6.629.638-12.174-.232-2.183-.548-6.231-.703-8.996-.303-5.435-.527-7.007-1.372-9.657-1.169-3.663-2.243-4.878-6.032-6.825-1.383-.71-4.36-2.249-6.615-3.419-4.682-2.429-5.305-2.66-7.673-2.849-2.58-.206-23.653-.186-24.517.024-.99.24-2.206 1.104-2.206 1.568 0 .636-1.572 2.196-3.525 3.5-2.987 1.995-4.68 3.828-6.125 6.63-1.048 2.034-1.524 2.658-2.713 3.556-1.106.835-1.614 1.464-2.176 2.693-.948 2.072-1.254 2.951-1.48 4.25-.267 1.54-.34 14.733-.09 16.315.281 1.78 1.272 4.367 3.278 8.561 1.368 2.86 1.823 3.564 2.675 4.144 1.207.82 6.411 3.92 6.582 3.92.198 0 4.688 2.955 6.145 4.045 2.577 1.928 3.538 2.088 13.437 2.235 4.802.071 8.91.24 9.128.375.218.134 1.587.199 3.042.143 2.254-.086 2.96-.23 4.763-.976zM73.748 83.624c-.985-.269-2.193-.68-2.686-.914-.492-.233-1.562-.425-2.376-.425-.908 0-1.482-.113-1.482-.293 0-.179-.252-.23-.645-.131-.355.089-.71.056-.79-.073-.08-.13-.683-.316-1.34-.414-.656-.099-1.194-.286-1.194-.416s-.406-.312-.903-.406c-.497-.093-1.164-.366-1.484-.607-1.617-1.22-2.342-1.97-2.659-2.752-.191-.473-.538-1.04-.77-1.258-1.04-.98-1.592-1.973-1.592-2.863 0-.574-.205-1.157-.528-1.5-.662-.706-1.139-3.028-.724-3.527.16-.194.324-.891.362-1.55.04-.66.232-1.335.428-1.501.196-.167.803-.866 1.348-1.554.817-1.03.943-1.342.714-1.769-.762-1.423.037-4.273 1.612-5.754.833-.783 2.38-1.408 3.492-1.411.43-.001.406.094-.198.812-.863 1.025-.952 3.11-.188 4.363.46.754.611.815 2.115.857 1.028.028 1.621-.062 1.621-.246 0-.427 7.322-.166 8.27.294.878.427 1.231.183.666-.458-1.573-1.783-2.037-5.606-.932-7.67 1.855-3.466 5.69-5.538 9.811-5.302 1.949.112 2.097.082 2.48-.504.292-.444.359-.936.234-1.715-.174-1.09-.173-1.092.43-.693.333.22.83.781 1.104 1.248.43.734.456.99.19 1.881-.306 1.02-.298 1.042.799 2.03.61.55 1.451 1.714 1.87 2.588.7 1.455.759 1.801.703 4.163-.055 2.363-.01 2.628.545 3.22.881.937 2.847 1.695 4.94 1.903 2.943.293 3.111.405 2.96 1.973-.149 1.552-.863 2.463-2.293 2.923-.524.168-1.12.44-1.325.603-.235.187-1.718.293-4.034.289a463.65 463.65 0 0 0-3.663 0c0 .004.38.9.844 1.991.78 1.838.844 2.21.852 5.027.008 2.652-.07 3.209-.607 4.334-.798 1.673-2.536 3.397-4.164 4.13-3.07 1.383-8.787 1.904-11.813 1.077zm-.97-3.652l1.438-.46-1.323-.09c-.728-.048-2.157.098-3.175.325-1.019.227-2.21.456-2.646.51-.437.053.345.115 1.738.137 1.773.028 2.962-.099 3.969-.422zm10.415-.946c.871-1.142 1.512-2.704 1.647-4.017.296-2.876.375-5.159.178-5.159-.12 0-.552.417-.958.926-.945 1.184-1.243 1.169-1.257-.066-.007-.546-.176-1.35-.376-1.786-.357-.78-.364-.783-.397-.132-.049.969-.704 2.35-.878 1.852-.5-1.433-.564-1.376-.73.661-.094 1.164-.306 2.444-.47 2.844-.358.872-.225.906.698.18.859-.676.98-.39.467 1.099-.218.631-.332 1.212-.255 1.29.078.077.497-.276.933-.784l.791-.925-.11 1.855c-.061 1.022-.314 2.246-.564 2.73-.445.86-.444.87.082.589.294-.157.833-.678 1.198-1.157zm-13.86-3.223c.067-.148-.376-.3-1.006-.346-1.047-.076-1.114-.126-.963-.727.142-.566.073-.647-.553-.647-.492 0-.758.165-.853.53-.166.636-.605.658-2.416.12-.757-.225-1.517-.322-1.689-.216-.171.106-.794.164-1.383.13-1.625-.095-.87.399 1.56 1.02 1.146.293 2.772.533 3.613.533.842 0 1.595.105 1.675.234.171.278 1.838-.245 2.014-.63zm-2.658-1.19a.265.265 0 0 1 .53 0 .265.265 0 0 1-.53 0zM88.9 74.23c0-.064-.12-.19-.265-.28-.145-.09-.264-.037-.264.117s.119.28.264.28c.146 0 .265-.053.265-.117zm-19.693-4.429c-1.253-.727-5.43-1.558-8.625-1.715-3.274-.162-3.325-.155-4.093.505l-.778.669 2.479-.141c1.827-.105 2.43-.062 2.291.162-.136.22.56.31 2.54.327 1.5.012 3.323.115 4.05.229.728.113 1.621.218 1.985.233.613.025.624.006.15-.269zm3.01-3.013a13.415 13.415 0 0 0-1.994-1.178c-1.394-.642-4.365-1.135-4.717-.783-.143.143-.742.274-1.331.29l-1.072.032 1.19.21c.656.116 2.105.346 3.22.512 1.117.166 2.724.582 3.573.926 2.016.816 2.234.814 1.13-.008zm23.256-1.865c.46-.092.835-.284.835-.427 0-.152-.193-.172-.463-.048-.781.356-6.121.444-7.403.122-1.09-.275-1.69-.22-1.345.124.547.548 6.034.697 8.376.229zm-16.523-2.9c.256-.67.149-2.272-.23-3.419-.19-.582-.36-.84-.376-.573-.046.813-.664.33-.91-.711-.322-1.362-.039-2.562.918-3.883.74-1.02.765-1.114.259-.982-1.06.277-.598-.682 1.088-2.262 1.207-1.13 1.458-1.471.94-1.274-1.195.454-2.7 1.506-3.562 2.487-1.835 2.09-1.832 4.218.009 7.952.676 1.373 1.23 2.628 1.23 2.79 0 .44.45.352.633-.126zm10.48-7.093c.577-.638.726-.918.396-.745-.65.342-1.455 1.275-1.455 1.688 0 .168.03.255.066.193.036-.063.483-.574.992-1.136zm-.795-1.22c0-.321-.182-.537-.463-.548-.396-.016-.386-.052.066-.246.292-.125.39-.236.22-.246-.683-.042-1.146.336-1.146.935 0 .5.14.634.662.634.485 0 .661-.142.661-.53zm20.022-16.58c-.098-.097-.178-8.17-.178-17.94 0-13.462.077-17.84.318-18.08.497-.497 41.836-.455 42.25.043.217.261.28 5.24.23 18.19l-.068 17.83-21.187.068c-11.653.037-21.267-.013-21.365-.11zm24.56-11.074c1.357-.658 3.044-2.346 3.7-3.7.733-1.513.862-4.525.251-5.855-1.575-3.43-3.852-4.995-7.258-4.987-3.266.008-5.226 1.26-6.962 4.448-.669 1.229-.734 1.57-.642 3.362.08 1.574.264 2.291.868 3.402.9 1.651 2.402 3.021 3.928 3.581 1.51.554 4.732.422 6.116-.25z"/><path fill="#b59d51" d="M2.745 128.14c-.31-.06-.818-.382-1.13-.714l-.568-.605-.009-62.386L1.029 2.05l.553-.588c.305-.324 1.01-.726 1.567-.893.747-.224 14.2-.303 51.187-.303h50.174v40.48h46.815l.074 42.665c.082 46.934.195 43.688-1.541 44.512-.75.355-9.093.397-73.698.365-40.069-.02-73.106-.086-73.415-.147zm91.579-32.36c2.36-.975 3.69-2.147 5.69-5.011.656-.94 1.791-2.126 2.533-2.646 4.07-2.853 5.905-5.213 7.316-9.406 1.043-3.099 1.228-6.629.638-12.174-.232-2.183-.548-6.231-.703-8.996-.303-5.435-.527-7.007-1.372-9.657-1.169-3.663-2.243-4.878-6.032-6.825-1.383-.71-4.36-2.249-6.615-3.419-4.682-2.429-5.305-2.66-7.673-2.849-2.58-.206-23.653-.186-24.517.024-.99.24-2.206 1.104-2.206 1.568 0 .636-1.572 2.196-3.525 3.5-2.987 1.995-4.68 3.828-6.125 6.63-1.048 2.034-1.524 2.658-2.713 3.556-1.106.835-1.614 1.464-2.176 2.693-.948 2.072-1.254 2.951-1.48 4.25-.267 1.54-.34 14.733-.09 16.315.281 1.78 1.272 4.367 3.278 8.561 1.368 2.86 1.823 3.564 2.675 4.144 1.207.82 6.411 3.92 6.582 3.92.198 0 4.688 2.955 6.145 4.045 2.577 1.928 3.538 2.088 13.437 2.235 4.802.071 8.91.24 9.128.375.218.134 1.587.199 3.042.143 2.254-.086 2.96-.23 4.763-.976zM73.748 83.624c-.985-.269-2.193-.68-2.686-.914-.492-.233-1.562-.425-2.376-.425-.815 0-1.482-.11-1.482-.244s1.112-.246 2.472-.249c1.36-.003 2.818-.088 3.241-.19.975-.236 3.72-1.598 3.94-1.957a.605.605 0 0 1 .483-.26c.173.007-.195.473-.819 1.037l-1.134 1.026.598.419c.328.23.898.421 1.266.424l.669.006-.652.501-.651.5.96.18c1.549.292 7.791-.8 6.73-1.177-.402-.143-.3-.26.568-.652 1.334-.601 3.08-2.369 3.62-3.663.474-1.14.383-1.2-.679-.445-.936.667-.945.578-.107-1.076.364-.718.662-1.488.662-1.711 0-.223.126-.406.28-.406.155 0 .19-.146.079-.326-.111-.18-.236-.898-.278-1.595-.041-.698-.28-1.653-.529-2.121l-.453-.853-.15.794c-.14.751-.18.708-.736-.812-.75-2.049-1.95-3.356-3.637-3.964-1.508-.543-2.778-1.674-2.778-2.473 0-.81 1.202-1.314 2.778-1.164 1.65.157 3.011-.403 5.526-2.272 1.002-.744 1.985-1.354 2.183-1.354.27 0 .36-.464.36-1.852 0-1.018-.111-1.852-.247-1.852-.137 0-.237-.208-.223-.463.014-.254-.192-.939-.459-1.521-.437-.954-.495-.997-.594-.432-.091.525-.239.363-.907-.997-.44-.893-1.026-1.746-1.304-1.895-.42-.224-.455-.365-.207-.828.254-.474.234-.534-.132-.393-.355.136-.4.04-.253-.541l.177-.707-.756.595c-.69.542-.936.58-2.776.419-1.703-.149-2.265-.087-3.585.397-4.273 1.564-6.586 4.968-5.894 8.673.132.706.838 2.21 1.682 3.583.8 1.302 1.456 2.426 1.456 2.498 0 .072.195.543.434 1.047.326.686.359.99.132 1.217-.226.226-.302.19-.302-.141 0-.647-.974-2.165-1.115-1.74-.083.248-.37.135-.991-.387-1.083-.911-2.861-1.837-3.166-1.649-.125.078-.653-.037-1.173-.254-.555-.232-1.77-.395-2.939-.395-1.285 0-1.993-.105-1.993-.294 0-.43 7.315-.173 8.27.29.878.427 1.231.183.666-.458-1.573-1.783-2.037-5.605-.932-7.67 1.855-3.466 5.69-5.538 9.811-5.301 1.949.111 2.097.081 2.48-.505.292-.444.36-.935.234-1.715-.174-1.09-.173-1.092.43-.693.333.22.83.781 1.104 1.249.43.733.457.99.19 1.88-.306 1.021-.298 1.042.799 2.031.61.55 1.451 1.714 1.87 2.587.7 1.455.759 1.802.703 4.163-.055 2.363-.01 2.629.545 3.22.881.937 2.847 1.695 4.94 1.903 2.943.293 3.111.405 2.96 1.973-.149 1.553-.863 2.463-2.292 2.923-.525.168-1.121.44-1.326.603-.235.187-1.718.293-4.034.289a463.65 463.65 0 0 0-3.663 0c0 .004.38.9.844 1.991.78 1.838.844 2.21.852 5.027.008 2.652-.07 3.21-.607 4.335-.798 1.672-2.536 3.396-4.164 4.13-3.07 1.382-8.787 1.903-11.813 1.077zm21.725-18.7c.46-.092.835-.284.835-.427 0-.152-.193-.172-.463-.048-.781.356-6.121.444-7.403.122-1.09-.275-1.69-.22-1.345.124.547.548 6.034.697 8.376.229zM65.768 81.787c-.08-.129-.682-.315-1.339-.413-.656-.099-1.194-.291-1.194-.428 0-.136-.198-.248-.44-.248-.243 0-.37-.072-.283-.159.088-.087.882.091 1.765.397.884.306 1.874.557 2.2.56.481.003.519.053.198.26-.497.321-.723.329-.907.03zm-4.889-1.817c-1.661-1.257-2.371-1.99-2.69-2.777-.191-.473-.538-1.04-.77-1.258-1.06-1-1.592-1.97-1.592-2.905 0-.645-.181-1.145-.53-1.46-.648-.588-.712-1.169-.065-.604.36.315 1.524.445 5.233.585 2.624.1 5.243.29 5.82.424.579.134 1.885.248 2.903.254 1.303.007 1.735.087 1.456.269-.25.163-2.953.195-7.301.087-4.867-.12-6.957-.086-7.083.117-.343.555.643 2.381 1.637 3.032 2.273 1.488 6.98 2.232 12.416 1.961 1.796-.09 3.241-.058 3.241.07 0 .683-7.04.975-10.812.449-1.655-.231-3.119-.351-3.254-.267-.355.219.251.861 1.63 1.728.656.412 1.007.75.782.753-.225.003-.684-.203-1.02-.458zm-6.407-10.517c-.09-.593-.037-1.212.118-1.409.152-.193.309-.89.347-1.549.04-.66.232-1.335.428-1.501.196-.167.803-.866 1.348-1.554.817-1.03.943-1.342.714-1.768-.762-1.424.037-4.274 1.612-5.755.833-.782 2.38-1.408 3.492-1.411.43-.001.406.094-.198.812-.544.647-.685 1.096-.684 2.183 0 1.65.81 3.215 1.56 3.019.262-.069.94-.035 1.508.074.957.185.915.202-.581.23-1.502.028-1.678-.033-2.56-.89-.522-.506-1.099-1.338-1.284-1.85l-.336-.928-.647.592-.648.593.17-.926.17-.926-.563.872c-.692 1.074-.909 2.776-.529 4.153.218.79.21 1.087-.038 1.248-.178.117.34.138 1.15.047 1.771-.198 6.449.28 9.384.957 2.653.613 4.563 1.358 6.604 2.578 1.894 1.132 1.841 1.092 1.68 1.253-.07.07-.953-.272-1.962-.76-4.368-2.117-7.421-2.847-12.578-3.006-3.578-.11-4.26-.065-5.117.342-2.12 1.005-1.408 1.839 1.786 2.093 4.04.322 8.602 1.205 11.874 2.297 3.192 1.066 5.34 2.08 3.524 1.664-.437-.1-1.673-.464-2.746-.809-1.074-.344-2.102-.626-2.285-.626-.183 0-.912-.182-1.62-.405-.708-.222-3.192-.62-5.52-.885-3.662-.417-4.399-.433-5.459-.124-1.493.435-1.753.724-1.867 2.079l-.089 1.055zm31.417-11.912c-.54-.54-.553-1.546-.027-1.983.618-.513 1.5.398 1.397 1.444-.091.932-.726 1.182-1.37.54zm22.768-20.41c-.098-.097-.178-8.17-.178-17.94 0-13.462.077-17.84.318-18.08.497-.497 41.836-.455 42.25.043.217.261.28 5.24.23 18.19l-.068 17.83-21.187.068c-11.653.037-21.267-.013-21.365-.11zm24.56-11.074c1.357-.658 3.044-2.346 3.7-3.7.733-1.513.862-4.525.251-5.855-1.575-3.43-3.852-4.995-7.258-4.987-3.266.008-5.226 1.26-6.962 4.448-.669 1.229-.734 1.57-.642 3.362.08 1.574.264 2.291.868 3.402.9 1.651 2.402 3.021 3.928 3.581 1.51.554 4.732.422 6.116-.25z"/><path fill="#d8a410" d="M2.642 127.567c-.507-.27-1.068-.776-1.246-1.124-.253-.494-.326-14.161-.333-62.153-.009-56.626.025-61.569.425-62.14.239-.34.924-.842 1.524-1.114C4.063.558 5.838.54 54.306.535L104.51.529v40.217h46.562l.069 42.4c.056 34.613.005 42.536-.28 43.147-.21.451-.788.948-1.455 1.25-1.079.49-2.956.504-73.475.51-70.002.005-72.398-.01-73.29-.486zM94.324 95.78c2.36-.975 3.69-2.147 5.69-5.011.656-.94 1.791-2.126 2.533-2.646 4.07-2.853 5.905-5.213 7.316-9.406 1.043-3.099 1.228-6.629.638-12.174-.232-2.183-.548-6.231-.703-8.996-.303-5.435-.527-7.007-1.372-9.657-1.169-3.663-2.243-4.878-6.032-6.825-1.383-.71-4.36-2.249-6.615-3.419-4.682-2.429-5.305-2.66-7.673-2.849-2.58-.206-23.653-.186-24.517.024-.99.24-2.206 1.104-2.206 1.568 0 .636-1.572 2.196-3.525 3.5-2.987 1.995-4.68 3.828-6.125 6.63-1.048 2.034-1.524 2.658-2.713 3.556-1.106.835-1.614 1.464-2.176 2.693-.948 2.072-1.254 2.951-1.48 4.25-.267 1.54-.34 14.733-.09 16.315.281 1.78 1.272 4.367 3.278 8.561 1.368 2.86 1.823 3.564 2.675 4.144 1.207.82 6.411 3.92 6.582 3.92.198 0 4.688 2.955 6.145 4.045 2.577 1.928 3.538 2.088 13.437 2.235 4.802.071 8.91.24 9.128.375.218.134 1.587.199 3.042.143 2.254-.086 2.96-.23 4.763-.976zm-19.91-12.176c-.765-.111-1.925-.454-2.577-.76-.731-.344-1.723-.56-2.58-.563-.765-.002-1.562-.112-1.77-.244-.243-.153.53-.241 2.14-.245 1.387-.003 2.867-.088 3.29-.19.975-.236 3.72-1.598 3.94-1.957a.605.605 0 0 1 .483-.26c.173.007-.195.473-.819 1.037l-1.134 1.026.598.419c.328.23.898.421 1.266.424l.669.006-.652.501-.651.5.96.18c1.549.292 7.791-.8 6.73-1.177-.402-.143-.3-.26.568-.652 1.334-.601 3.08-2.369 3.62-3.663.474-1.14.383-1.2-.679-.445-.936.667-.945.578-.107-1.076.364-.718.662-1.488.662-1.711 0-.223.126-.406.28-.406.155 0 .19-.146.079-.326-.111-.18-.236-.898-.278-1.595-.041-.698-.28-1.653-.529-2.121l-.453-.853-.15.794c-.14.751-.18.708-.736-.812-.75-2.049-1.95-3.356-3.637-3.964-1.508-.543-2.778-1.674-2.778-2.473 0-.81 1.202-1.314 2.778-1.164 1.65.157 3.011-.403 5.526-2.272 1.002-.744 1.985-1.354 2.183-1.354.27 0 .36-.464.36-1.852 0-1.018-.111-1.852-.247-1.852-.137 0-.237-.208-.223-.463.014-.254-.192-.939-.459-1.521-.437-.954-.495-.997-.594-.432-.091.525-.239.363-.907-.997-.44-.893-1.026-1.746-1.304-1.895-.42-.224-.455-.365-.207-.828.254-.474.234-.534-.132-.393-.355.136-.4.04-.253-.541l.177-.707-.756.595c-.69.542-.936.58-2.776.419-1.703-.149-2.265-.087-3.585.397-4.273 1.564-6.586 4.968-5.894 8.673.132.706.838 2.21 1.682 3.583.8 1.302 1.456 2.426 1.456 2.498 0 .072.195.543.434 1.047.326.686.359.99.132 1.217-.226.226-.302.19-.302-.141 0-.647-.974-2.165-1.115-1.74-.083.248-.37.135-.991-.387-1.083-.911-2.861-1.837-3.166-1.649-.125.078-.653-.037-1.173-.254-.527-.22-1.859-.411-3.005-.43l-2.059-.036 2.232-.248c1.794-.2 2.677-.16 4.498.202 1.246.247 2.417.507 2.601.578.416.159-.031-1.156-.61-1.795-.562-.622-1.233-3.57-1.06-4.66.405-2.542 2.424-5.053 5.093-6.334 1.525-.731 1.913-.78 7.281-.897.373-.008 1.046-1.669.928-2.287-.066-.345-.047-.626.042-.624.874.022 1.49 1.822 1.064 3.112-.262.793-.226.92.398 1.412 1.532 1.205 2.421 2.424 2.121 2.91-.12.195-.084.248.096.136.183-.113.358.17.468.756.097.515.281 1.002.41 1.081.328.203.295 3.917-.037 4.25-.463.462.698 1.609 2.501 2.47 1.225.584 2.268.852 3.89.999l2.215.2-.02 1.304c-.017 1.164-.124 1.395-.997 2.15-1.655 1.43-5.278 2.185-8.218 1.712-1.005-.162-1.916-.2-2.024-.084-.108.116.104.86.471 1.656.367.795.7 1.938.737 2.54.038.603.181 1.321.318 1.597.46.926.38 2.669-.208 4.607-.499 1.643-.807 2.146-2.12 3.458-1.063 1.064-1.885 1.635-2.674 1.861-.627.18-1.263.418-1.413.53-.798.592-6.55.897-9.319.493zm21.06-18.68c.459-.092.834-.284.834-.427 0-.152-.193-.172-.463-.048-.781.356-6.121.444-7.403.122-1.09-.275-1.69-.22-1.345.124.547.548 6.034.697 8.376.229zM66.08 81.58c.182-.073.48-.073.661 0 .182.073.033.133-.33.133-.364 0-.513-.06-.331-.133zm-2.58-.632c-1.593-.652-1.012-.65.804.003.795.286 1.207.512.916.502-.291-.01-1.065-.237-1.72-.505zm-2.381-1.068c-.44-.36-.484-.45-.133-.268.863.446 1.342.812 1.059.81-.146 0-.562-.245-.926-.542zm-1.72-1.13c-.291-.311-.824-1.132-1.185-1.823-.36-.692-.746-1.257-.857-1.257-.42 0-1.53-2.144-1.53-2.954 0-.503-.242-1.124-.595-1.525-.474-.539-.488-.59-.066-.249.422.341 1.494.464 5.299.608 2.624.1 5.243.29 5.82.424.579.134 1.885.248 2.904.254 1.303.007 1.734.087 1.455.269-.25.163-2.952.195-7.301.087-4.867-.12-6.957-.086-7.083.117-.343.555.643 2.381 1.638 3.032 2.272 1.488 6.98 2.232 12.415 1.961 1.796-.09 3.241-.058 3.241.07 0 .683-7.04.975-10.812.449-1.654-.231-3.122-.35-3.261-.263-.14.086.014.442.341.79.327.349.485.621.35.606-.134-.015-.482-.283-.773-.595zm-4.85-9.305c-.026-.613.134-1.321.376-1.666.23-.33.351-.78.267-1-.084-.22.018-.81.227-1.31.412-.985.706-1.227.49-.405-.188.72.495.997 2.96 1.202 4.071.338 8.586 1.215 11.823 2.296 3.192 1.066 5.34 2.08 3.524 1.664-.437-.1-1.673-.464-2.746-.809-1.074-.344-2.102-.626-2.285-.626-.183 0-.912-.182-1.62-.405-.708-.222-3.192-.62-5.52-.885-3.662-.417-4.399-.434-5.459-.124-1.488.434-1.747.72-1.885 2.078l-.108 1.055zm20.17-2.601c-3.905-2.013-7.197-2.805-12.447-2.994-3.55-.128-4.41-.084-5.094.257-.936.467-1.018.324-.329-.572.394-.513.788-.648 2.175-.746 3.305-.235 9.752.775 12.92 2.024 1.638.646 4.773 2.43 4.78 2.72.008.303-.256.212-2.005-.69zm-17.18-5.57c-.229-1.825.043-3.431.71-4.19.57-.652.56-.576-.151.99-.472 1.04-.48 2.99-.015 4.168.102.26.062.463-.092.463-.15 0-.354-.644-.453-1.43zm4.037-1.34c-.522-.507-1.099-1.339-1.284-1.85l-.336-.93-.608.572-.608.571.076-1.129c.066-1 .196-1.202 1.123-1.763.576-.35 1.383-.635 1.793-.636h.746l-.547.768c-.763 1.07-.742 3.016.045 4.165.542.79.73.873 2.183.957l1.59.093-1.613.05c-1.514.048-1.671-.005-2.56-.868zm24.313-2.394c-.54-.54-.553-1.546-.027-1.983.618-.513 1.5.398 1.397 1.444-.091.932-.726 1.182-1.37.54zm22.767-20.411c-.097-.097-.177-8.19-.177-17.982 0-17.334.014-17.814.512-18.08.67-.36 41.254-.374 41.821-.015.346.218.407 2.55.47 17.887.052 12.937-.01 17.734-.232 18.002-.252.304-3.78.364-21.26.364-11.527 0-21.037-.08-21.134-.176zm24.653-11.048c1.528-.774 3.087-2.439 3.806-4.065.433-.979.51-1.6.415-3.386-.096-1.838-.233-2.369-.861-3.331-1.637-2.51-3.533-3.695-6.193-3.875-3.37-.227-5.99 1.326-7.605 4.507-.914 1.802-.896 4.605.044 6.49 1.446 2.901 3.737 4.294 7.07 4.298 1.658.002 2.306-.122 3.324-.638z"/><path fill="#d89b00" d="M2.642 127.567c-1.15-.612-1.61-1.457-1.52-2.795.078-1.183.588-1.55.827-.597.225.895 1.51 1.079 6.65.948 2.328-.059 6.198-.104 8.599-.1 64.597.117 131.765.107 132.095-.02.236-.09.624-.462.863-.825.397-.606.43-4.127.403-42.047-.021-28.193.056-41.385.241-41.385s.294 13.576.34 42.4c.057 34.614.006 42.536-.279 43.147-.21.451-.788.948-1.455 1.251-1.079.49-2.955.503-73.475.509-70.002.006-72.398-.01-73.29-.486zm14.027-3.19c-.219-.125-3.416-.286-7.105-.36-7.797-.154-7.78-.149-7.236-2.188.209-.779.235-1.368.075-1.667-.154-.288-.15-2.918.011-6.953.197-4.928.188-68.172-.015-104.456-.003-.643-.13-1.546-.282-2.005-.212-.643-.183-1.059.126-1.8.222-.529.403-1.255.403-1.612 0-.509.202-.716.937-.958.515-.17 1.128-.236 1.361-.147.233.09.63-.024.883-.252.355-.322.868-.388 2.277-.292 1 .067 23.1.132 49.112.144l47.294.021v19.05c0 11.64-.096 19.05-.247 19.05-.561 0-1.78-.603-2.398-1.187-.364-.343-1.198-.83-1.852-1.081-.655-.252-1.563-.732-2.017-1.067-.455-.335-1.407-.755-2.117-.933-.71-.178-1.91-.72-2.667-1.203-.757-.483-1.65-.883-1.984-.888-.335-.005-.9-.171-1.257-.369-.49-.272-1.583-.332-4.498-.25-2.135.061-5.263-.04-7.024-.226-2.232-.237-3.764-.262-5.16-.085-1.09.139-3.055.233-4.365.21-5.103-.093-7.676-.027-7.756.199-.046.13-.463.36-.926.514-.77.254-.844.375-.849 1.404-.009 1.786-.195 2.04-1.306 1.79-1.19-.269-1.995-.071-1.996.49-.002.779-.994 2.083-2.028 2.668-.621.35-1.448 1.23-2.134 2.269-1.316 1.992-2.292 2.635-3.264 2.151-.807-.402-1.21-1.26-1.387-2.95-.348-3.328-1.09-4.528-2.088-3.374-.723.836-2.063 4.018-2.062 4.895.002 1.728 1.834 3.627 2.758 2.86.216-.18.509-.255.65-.167.143.088.319.063.392-.056.073-.118.467-.21.874-.203.547.01.836.21 1.1.76.534 1.115.218 1.954-.814 2.162-1.533.309-1.786.427-1.786.838 0 .223-.163.72-.363 1.107-1.221 2.36-2.396 6.017-2.69 8.37-.104.83-.228 3.97-.277 6.975-.048 3.006-.102 5.763-.12 6.127-.06 1.19.339 3.563.667 3.969.176.218.766 1.35 1.31 2.513a117.706 117.706 0 0 0 1.232 2.576c.133.253.241.576.241.719 0 .142.357.822.794 1.51.436.689.794 1.542.794 1.897 0 .848.884 2.254 1.644 2.613 3.784 1.792 4.706 2.271 4.706 2.45 0 .115.586.46 1.302.77.717.307 1.46.711 1.654.897.466.448 3.633 2.311 3.928 2.311.128 0 .923.576 1.769 1.279 2.208 1.838 3.503 2.595 4.849 2.834.65.116 4.04.241 7.532.279 3.492.038 8.612.104 11.377.147l5.027.078 2.646-1.099c1.455-.604 2.981-1.182 3.391-1.283.465-.115.991-.574 1.399-1.22.62-.982 1.707-1.672 2.315-1.469.153.051.485-.085.738-.302.336-.287.393-.52.212-.86-.36-.673-.307-1.712.106-2.054.196-.163.738-.372 1.206-.466.482-.096 1.043-.459 1.297-.84.247-.368 1.113-1.334 1.925-2.146 2.245-2.245 4.053-5.671 5.2-9.857.56-2.04.652-9.63.143-11.728-.177-.728-.451-3.169-.61-5.424-.39-5.569-.913-8.971-1.878-12.217-1.013-3.41-1.81-4.893-3.173-5.907l-1.067-.794 21.626-.068c11.895-.037 21.656-.037 21.692 0 .035.038.102 18.046.149 40.02.07 33.974.14 40.127.466 41.117.37 1.128.362 1.182-.245 1.674-.526.426-.874.48-2.148.332-1.177-.137-1.656-.082-2.122.244-.546.383-6.453.42-64.24.414-35.003-.004-63.819-.11-64.037-.234zm51.527-22.97a11.515 11.515 0 0 0-1.984 0c-.546.057-.1.104.992.104s1.538-.047.992-.104zm2.65.011c-.254-.066-.73-.068-1.06-.005-.328.064-.121.118.46.12.583.004.852-.048.6-.114zm43.97-1.207l-.015-1.39-.647 1.307c-.356.718-.648 1.343-.648 1.39 0 .045.298.082.662.082.623 0 .66-.08.647-1.389zm-9.531-6c.673-.673.445-1.607-.393-1.607-.338 0-.689.12-.778.265-.09.145-.395.264-.678.264-.629 0-.66.458-.075 1.104.565.625 1.283.615 1.923-.026zm-64.73-5.046c-.022-1.674-.085-5.662-.14-8.864-.054-3.201-.139-8.975-.188-12.83-.05-3.855-.181-7.308-.292-7.673-.111-.365-.203 7.195-.203 16.799-.001 16.367.026 17.404.431 16.536.332-.709.424-1.64.392-3.968zM55.947 35.75c-.066-.067.068-.33.3-.586.766-.847.379-1.421-1.018-1.511-.982-.063-1.261.009-1.287.33-.018.227-.048.617-.066.867-.036.498.966 1.114 1.72 1.057.26-.02.418-.09.351-.157zm11.186-4.16c-.065-.065-.33-.036-.59.063-.447.172-.445.2.029.549.435.32.512.311.59-.064.049-.236.036-.483-.029-.548zm30.564-5.065a103.9 103.9 0 0 0-5.424 0c-1.491.047-.27.085 2.712.085 2.984 0 4.204-.038 2.712-.085zM74.413 83.604c-.764-.111-1.924-.454-2.576-.76-.653-.307-1.338-.57-1.521-.584-.184-.014.678-.24 1.915-.503 1.237-.262 2.459-.562 2.715-.665.35-.142.427-.087.31.22-.106.275.102.543.635.818.583.302.755.547.655.931-.124.476.024.53 1.677.615l1.813.093-2.116.02c-1.164.01-2.742-.073-3.507-.185zm.725-.85c-.295-.275-.479-.595-.407-.71.072-.116-.164-.155-.523-.086-.842.16-.83.483.036.936 1.04.545 1.545.467.894-.14zm5.89.672c.255-.067.672-.067.927 0 .254.067.046.121-.463.121-.51 0-.718-.054-.463-.121zm1.72-.257c.182-.074.48-.074.662 0 .182.073.033.133-.33.133-.365 0-.513-.06-.332-.133zm1.654-.524c.218-.095.492-.334.609-.53.116-.198.33-.359.474-.359.145 0 .584-.297.976-.661.393-.364.894-.671 1.113-.683.261-.013.288-.066.077-.151-.218-.089-.123-.32.29-.707.338-.317.563-.725.5-.907-.063-.181.005-.33.151-.33.302 0 .706-1.543.467-1.781-.086-.086-.395.06-.687.324-.996.901-.548-.133.528-1.22.892-.901 1.059-1.243 1.062-2.173.005-1.438.407-.825.488.746.086 1.66-.859 4.513-1.925 5.814-1.086 1.325-2.655 2.437-3.726 2.64-.437.083-.615.073-.397-.022zm-16.333-.543c.258-.067.615-.063.794.01.179.073-.032.127-.468.122-.437-.005-.583-.065-.326-.132zm-9.67-4.83l-.68-1.308.66.25c.362.138.91.386 1.217.55.868.464 5.033 1.081 8.534 1.264l3.175.166-2.04.224c-1.613.177-2.848.104-5.894-.347-3.859-.572-4.528-.55-4.263.14.305.794-.063.308-.71-.938zm14.047.6c.191-.077.42-.068.507.02.088.088-.068.15-.347.14-.308-.013-.37-.076-.16-.16zM55.848 73.4c.013-.308.075-.371.16-.16.076.191.067.42-.021.507-.088.088-.15-.068-.14-.347zm-.02-1.131c0-.745.851-.934 3.244-.72 1.053.095 2.986.238 4.296.318 1.31.08 2.5.264 2.646.406.173.17-.971.2-3.308.086-5.272-.258-6.024-.243-6.472.129-.344.285-.407.251-.407-.22zm11.442.034a11.515 11.515 0 0 1 1.985 0c.545.057.099.104-.993.104-1.09 0-1.537-.047-.992-.104zm21.694-.345c-.254-.296-.466-.623-.472-.727-.006-.105-.16-.624-.342-1.155-.24-.7-.454-.932-.783-.848-.31.08-.564-.14-.81-.702-.658-1.502-2.017-2.781-3.213-3.024-.854-.174-2.734-1.405-2.93-1.92-.311-.819-.318-.765.164-1.247.3-.301.949-.405 2.463-.395 2.28.015 3.096-.316 5.36-2.173 1.683-1.38 2.473-1.546 3.163-.67.918 1.168 3.592 2.255 6.1 2.483l2.216.2-.02 1.304c-.017 1.164-.124 1.395-.997 2.15-1.655 1.43-5.278 2.185-8.218 1.712-1.005-.162-1.916-.2-2.024-.084-.108.115.085.82.43 1.564.696 1.507 1.178 3.966.641 3.276-.256-.33-.287-.296-.178.199.16.735.04.748-.55.057zm5.614-6.903c1.097-.163 1.995-.414 1.995-.559 0-.153-.358-.194-.86-.1-2.431.462-5.423.477-7.563.04-1.213-.248-2.274-.381-2.359-.296-.085.084.08.154.366.154s.637.116.779.258c.677.677 4.696.942 7.642.503zm2.982-.921c-.088-.088-.317-.097-.508-.02-.21.084-.148.146.16.159.28.011.435-.051.348-.14zm-24.932 5.451c-.09-.145-.037-.264.117-.264s.28.119.28.264c0 .146-.053.265-.117.265s-.19-.119-.28-.265zm-2.249-.562c-.51-.137-1.164-.362-1.455-.498-.69-.324-5.114-1.027-8.467-1.346-2.91-.277-4.09-.16-5.132.503-.645.411-.666.41-.336-.007.199-.251.278-.682.18-.988-.097-.308-.053-.542.103-.542.15 0 .195-.204.1-.454-.134-.349-.03-.318.455.133.358.333.978.59 1.439.595 1.779.02 6.335.52 8.15.895 2.814.58 5.322 1.24 5.625 1.477.145.114.502.266.793.338l.53.13-.53.007c-.29.004-.946-.106-1.455-.243zm2.514-3.175c-3.653-1.486-6.975-2.091-11.774-2.147-2.058-.024-3.59.08-4.053.277l-.746.317.565-.795c.506-.71 1.048-1.153.677-.553-.087.14 1.21.246 3.08.252 3.873.014 5.493.185 8.24.867 2.321.577 3.89 1.154 5.069 1.864 1.037.625.596.59-1.058-.082zm4.386-1.18c.013-.308.076-.37.16-.16.076.192.067.42-.02.508-.089.088-.151-.068-.14-.347zm-1.537-2.359c-.737-.832-1.67-1.32-1.262-.661.09.145.042.265-.107.265-.15 0-.414-.268-.59-.595-.19-.358-.36-.465-.426-.27-.084.252-.31.241-.998-.047-.665-.277-.923-.293-1.018-.06-.091.224-.132.218-.147-.02-.015-.227-.542-.333-1.675-.335-1.165-.003-1.536-.08-1.257-.26.219-.142.814-.26 1.323-.261.827-.003 4.15.585 5.357.95.355.107.421.028.289-.342-.19-.53.552.352 1.311 1.561.85 1.35.37 1.396-.8.076zM57.7 62.023c.013-.308.075-.371.16-.16.076.19.067.42-.021.507-.088.088-.15-.068-.139-.347zm-.206-1.963c0-.8.05-1.127.11-.727s.06 1.055 0 1.455c-.06.4-.11.073-.11-.728zm5.675.607a3.768 3.768 0 0 1 1.19 0c.328.064.06.115-.594.115-.655 0-.923-.051-.596-.115zm-1.67-1.046c-.358-.387-.746-1.071-.862-1.521-.145-.561-.396-.845-.802-.904-.474-.069-.556-.2-.412-.661l.179-.576-.6.53c-.331.29-.76.886-.952 1.323-.192.436-.355.608-.36.382-.03-1.193 2.6-3.421 4.042-3.424h.746l-.548.768c-.75 1.054-.75 3.135.001 4.09.713.906.41.902-.432-.007zm12.706-.636c-.096-.156-.118-.34-.049-.409.07-.07.197.058.283.282.18.467.027.549-.234.127zm11.667-1.63c-.533-.761-.524-1.428.024-1.638.517-.199 1.417.535 1.417 1.157 0 .448-.484 1.07-.832 1.07-.108 0-.382-.265-.609-.588zm5.452-.999c-.033-.946-.269-2.323-.524-3.06-.437-1.267-1.382-2.76-1.744-2.76-.333 0-1.895-1.794-1.803-2.07.093-.281 1.133.517 2.35 1.805.345.364.816 1.197 1.048 1.852.232.655.534 1.432.672 1.727.137.296.207 1.367.156 2.382l-.094 1.844zM73.827 53.05c0-.146.115-.443.256-.661.141-.219.257-.278.257-.133 0 .146-.116.443-.257.662-.14.218-.256.278-.256.132zm.52-1.29c0-.055.21-.264.464-.464.42-.329.429-.32.1.1-.346.441-.563.581-.563.364zm2.25-2.406c.436-.358.906-.655 1.043-.66.138-.005-.153.288-.646.652-1.153.85-1.432.856-.397.008zm3.258-1.644c.19-.077.419-.067.507.02.088.089-.069.151-.348.14-.308-.013-.37-.076-.16-.16zm2.695-.084l-1.984-.17 2.315-.047c1.398-.029 2.315.057 2.315.217 0 .146-.149.243-.33.217a90.247 90.247 0 0 0-2.316-.217zm4.607-.397c-.163-.647-.484-.858-.705-.463-.061.11-.048.02.028-.198.077-.219.147-.784.155-1.257.01-.473.076-.858.148-.856.719.022 1.426 1.745 1.156 2.818-.203.808-.574.787-.782-.044zm21.404-10.354c-.09-.237-.027-.653.142-.923.225-.36.304-4.938.296-17.097-.006-9.133-.006-16.813-.001-17.068.01-.437 1.18-.463 20.78-.463 16.43 0 20.773.07 20.787.33.009.183.038 8.042.066 17.466l.05 17.135-20.97-.07c-11.532-.037-20.967.022-20.967.132 0 .11 9.495.17 21.1.132l21.1-.068.136-17.33.135-17.33.063 17.476c.049 13.31-.012 17.551-.254 17.793-.241.241-5.335.317-21.307.317-19.17 0-21.004-.037-21.156-.432zm23.186-9.774c.646-.225 1.48-.347 1.852-.271.372.076.528.073.346-.006-.446-.194-.424-.649.023-.477.194.075.714-.286 1.154-.802.44-.516.936-.938 1.102-.938.166 0 .301-.238.301-.529 0-.29.106-.529.236-.529s.314-.312.41-.693c.096-.382.343-.863.549-1.069.283-.283.353-.967.284-2.812-.118-3.19-.715-4.64-1.83-4.447-.12.021-.144-.081-.053-.227.242-.392-.94-1.864-1.498-1.864-.27 0-.48-.192-.48-.441 0-.243-.068-.373-.152-.289-.084.084-.65-.067-1.258-.336-1.079-.478-1.951-.516-2.889-.128-.277.115-.463.075-.463-.101 0-.375-1.235-.384-1.466-.01-.096.155-.337.22-.536.143-.2-.076-.43-.03-.511.103-.082.133-.344.167-.581.076-.289-.11-.369-.063-.24.144.104.17.064.31-.09.31s-.28.178-.28.396c0 .218-.09.372-.198.342-.11-.03-.656.166-1.214.437-.84.409-.994.604-.894 1.13.09.47.024.598-.255.49-.207-.079-.313-.04-.234.087.078.126-.108.548-.414.937-.658.837-.972 3.968-.55 5.494.184.667.176 1.043-.026 1.245-.21.21-.137.29.263.29.516 0 1.405 1.316 1.405 2.081 0 .156.164.22.363.144.2-.077.433.043.519.266.085.223.696.66 1.357.97.66.311 1.201.664 1.201.785 0 .197.862.334 2.91.466.364.023 1.19-.142 1.837-.367zM3.175 1.122c0-.551 2.986-.848 3.307-.328.097.157-.206.264-.745.264-.5 0-1.28.075-1.735.166-.489.097-.827.056-.827-.102zM109.488.878c.19-.077.42-.067.507.02.088.088-.068.15-.347.14-.308-.013-.371-.076-.16-.16zm7.4-.015c.77-.054 1.96-.053 2.646.001.687.054.058.098-1.398.097-1.455 0-2.016-.045-1.247-.098zm23.804-.002c1.637-.046 4.316-.046 5.953 0 1.637.046.298.084-2.976.084s-4.614-.038-2.977-.084zM46.39.595c10.744-.038 28.246-.038 38.894 0 10.648.039 1.858.07-19.534.07S35.645.634 46.389.595z"/><path fill="#b18a12" d="M2.642 127.567c-1.15-.612-1.61-1.457-1.52-2.795.078-1.187.588-1.55.829-.59.088.353.369.723.623.82 1.608.617 10.61.69 75.875.62 74.986-.083 70.76.002 71.705-1.442.4-.61.433-4.068.405-42.049-.021-28.193.056-41.385.241-41.385s.294 13.576.34 42.4c.057 34.614.006 42.536-.279 43.147-.21.451-.788.948-1.455 1.251-1.079.49-2.955.503-73.475.509-70.002.006-72.398-.01-73.29-.486zM74.41 83.604c-.766-.112-1.791-.392-2.278-.623a33.09 33.09 0 0 0-1.518-.674c-.587-.234-.566-.254.293-.271.51-.01 1.7-.256 2.646-.544a61.042 61.042 0 0 1 1.778-.527c.032-.001-.012.178-.096.398-.085.22-.678.533-1.32.694-1.596.402-1.642.661-.16.903.689.113 1.432.252 1.65.308.218.057 1.35.199 2.514.316l2.116.213-2.116.005c-1.164.003-2.744-.087-3.51-.198zm6.618-.178c.254-.067.671-.067.926 0 .254.067.046.12-.463.12-.51 0-.718-.054-.463-.12zm1.72-.257c.181-.074.479-.074.66 0 .183.073.034.133-.33.133s-.512-.06-.33-.133zm1.852-.545c.181-.062.33-.209.33-.326 0-.117.352-.358.78-.536 1.149-.476 2.572-1.968 3.358-3.518.52-1.026.724-1.908.828-3.575.143-2.286.445-2.535.553-.456.086 1.66-.859 4.513-1.925 5.814-1.048 1.279-2.658 2.444-3.594 2.6-.364.06-.512.06-.33-.003zm-16.532-.522c.258-.067.615-.063.794.01.179.073-.032.127-.468.122-.437-.005-.583-.065-.326-.132zm-9.67-4.83l-.68-1.308.66.25c.362.138.91.386 1.217.55.87.465 5.038 1.082 8.534 1.262l3.175.163-2.12.218c-1.677.173-2.92.098-5.951-.355-2.107-.315-3.915-.709-4.017-.874-.332-.537-.502-.013-.229.705.416 1.094.153.822-.59-.61zm14.047.6c.191-.077.42-.068.507.02.088.088-.068.15-.347.14-.308-.014-.37-.076-.16-.16zM55.848 73.4c.013-.308.075-.371.16-.16.076.191.067.42-.021.507-.088.088-.15-.068-.14-.347zm-.02-1.123c0-.754.841-.942 3.244-.728 1.053.095 2.986.238 4.296.318 1.31.08 2.5.266 2.646.411.176.176-.311.215-1.456.116a194.24 194.24 0 0 0-4.715-.311c-2.623-.143-3.06-.106-3.506.298-.488.442-.51.438-.51-.104zm11.442.026a11.515 11.515 0 0 1 1.985 0c.545.057.099.104-.993.104-1.09 0-1.537-.047-.992-.104zm21.897-2.366c-.744-2.272-1.512-3.262-2.53-3.262-.664 0-2.481-.703-2.764-1.07-.073-.094-.475-.255-.894-.358-.746-.183-2.887-1.482-2.442-1.482.124 0 .076-.181-.108-.402-.273-.329-.248-.496.135-.919.392-.434.799-.513 2.53-.49 2.276.03 2.95-.248 5.308-2.185 1.68-1.381 2.472-1.549 3.162-.671.918 1.166 3.592 2.254 6.1 2.482l2.216.2-.02 1.304c-.017 1.164-.124 1.395-.997 2.15-1.655 1.43-5.278 2.185-8.218 1.712-1.005-.162-1.916-.2-2.025-.084-.108.115.082.805.422 1.533.582 1.242 1.086 3.226.873 3.438-.052.053-.389-.8-.748-1.896zm5.41-4.882c1.098-.163 1.996-.415 1.996-.559 0-.153-.358-.194-.86-.1-2.431.462-5.423.477-7.563.04-1.213-.248-2.274-.381-2.359-.296-.085.084.08.154.366.154s.637.116.779.258c.677.677 4.696.942 7.642.503zm2.983-.921c-.088-.088-.317-.097-.508-.021-.21.085-.148.147.16.16.28.011.435-.051.348-.14zm-24.932 5.451c-.09-.145-.037-.264.117-.264s.28.119.28.264c0 .146-.053.265-.117.265s-.19-.119-.28-.265zm-2.249-.562c-.51-.137-1.164-.36-1.455-.493-.74-.34-5.312-1.075-8.467-1.362-2.916-.265-4.095-.147-5.132.514-.645.411-.666.41-.336-.007.206-.26.281-.699.181-1.054-.094-.334-.074-.489.044-.343.12.145 1.5.284 3.068.308 4.095.063 9.648 1.05 13.023 2.314 1.164.437.541.519-.926.123zm2.25-3.251c-2.569-1.009-4.207-1.461-6.403-1.768-2.87-.4-8.239-.415-9.16-.025l-.746.316.565-.795c.518-.726 1.044-1.148.662-.53-.106.172 1.088.265 3.39.265 5.147 0 10.34 1.06 12.927 2.636 1.156.706.724.67-1.236-.1zm4.65-1.103c.013-.309.076-.371.16-.16.076.19.067.419-.02.507-.089.088-.151-.068-.14-.347zm-1.537-2.36c-.45-.509-1.061-.926-1.356-.926-.295 0-.603-.109-.686-.242-.082-.133-1.071-.327-2.198-.432-2.447-.227-3.677-.606-2.049-.632.927-.014 4.17.54 5.489.937.355.107.421.03.289-.341-.19-.53.552.352 1.311 1.56.85 1.352.37 1.397-.8.076zM57.7 62.023c.013-.308.075-.371.16-.16.076.19.067.42-.021.507-.088.088-.15-.068-.139-.347zm-.206-1.963c0-.8.05-1.127.11-.727s.06 1.055 0 1.455c-.06.4-.11.073-.11-.728zm5.808.612c.254-.067.67-.067.926 0 .254.066.046.12-.463.12-.51 0-.718-.054-.463-.12zm-1.48-.681c-.673-.491-1.227-2.29-.94-3.047.319-.839.286-1.362-.05-.786-.328.565-.888.62-.676.066.427-1.112-1.589.39-2.1 1.565-.196.449-.36.63-.367.405-.03-1.193 2.602-3.421 4.043-3.424h.746l-.548.768c-.75 1.054-.75 3.135.001 4.09.607.77.578.866-.11.363zm12.383-1.007c-.096-.155-.118-.338-.049-.408.07-.07.197.058.283.282.18.467.027.549-.234.126zm11.667-1.628c-.517-.739-.52-1.11-.01-1.533.33-.273.497-.247.926.14.594.538.676 1.195.207 1.663-.449.45-.653.4-1.123-.27zm5.452-1c-.09-2.575-.814-4.364-2.433-6.01-.756-.77-1.476-1.398-1.6-1.398-.125 0-.16-.17-.08-.38.113-.296.322-.224.956.331 1.523 1.334 2.062 2.033 2.484 3.224.232.655.534 1.432.672 1.727.137.296.207 1.367.156 2.382l-.094 1.844zM73.827 53.05c0-.146.115-.443.256-.661.141-.219.257-.278.257-.133 0 .146-.116.443-.257.662-.14.218-.256.277-.256.132zm.52-1.29c0-.055.21-.264.464-.464.42-.329.429-.32.1.1-.346.441-.563.581-.563.363zm2.25-2.406c.436-.358.906-.655 1.043-.66.138-.005-.153.288-.646.652-1.153.85-1.432.856-.397.008zm3.258-1.644c.19-.077.419-.067.507.02.088.089-.069.151-.348.14-.308-.013-.37-.076-.16-.16zm2.695-.084l-1.984-.17 2.315-.047c1.398-.029 2.315.057 2.315.217 0 .146-.149.243-.33.217a90.247 90.247 0 0 0-2.316-.217zm5.169-.372c.206-1.032-.349-1.357-1.028-.601-.477.53-.501.533-.295.047.123-.291.23-.917.24-1.392.01-.606.12-.822.367-.728.194.075.398.136.453.136.325 0 .627 2.122.382 2.682-.253.578-.262.567-.12-.144zm20.937-10.123c-.097-.097-.175-.425-.173-.728.003-.45.05-.478.255-.154.219.346 2.807.406 20.179.47 10.96.042 20.4-.023 20.978-.143l1.05-.218.135-17.319.135-17.318.063 17.476c.049 13.31-.012 17.551-.254 17.793-.241.241-5.323.317-21.255.317-11.515 0-21.016-.08-21.113-.176zM3.175 1.122c0-.551 2.986-.848 3.307-.328.097.157-.206.264-.745.264-.5 0-1.28.075-1.735.166-.489.097-.827.056-.827-.102zM109.488.878c.19-.077.42-.067.507.02.088.088-.068.15-.347.14-.308-.013-.371-.076-.16-.16zm7.4-.015c.77-.054 1.96-.053 2.646.001.687.054.058.098-1.398.097-1.455 0-2.016-.045-1.247-.098zm23.804-.002c1.637-.046 4.316-.046 5.953 0 1.637.046.298.084-2.976.084s-4.614-.038-2.977-.084zM46.39.595c10.744-.038 28.246-.038 38.894 0 10.648.039 1.858.07-19.534.07S35.645.634 46.389.595z"/><path fill="#d96809" d="M89.032 66.75c-3.518-.486-7.753-2.028-8.312-3.026-.639-1.141-.08-1.547 2.136-1.547 2.04 0 3.695-.66 5.673-2.265 1.603-1.3 2.237-1.378 3.341-.409 1.32 1.159 3.253 1.918 5.232 2.056 2.671.186 2.91.271 2.91 1.037 0 1.637-1.432 3.134-3.655 3.821-1.621.5-5.001.655-7.325.334zm5.546-1.695c1.097-.163 1.995-.415 1.995-.559 0-.153-.358-.194-.86-.1-2.431.462-5.423.477-7.563.04-1.212-.248-2.274-.381-2.359-.296-.085.084.08.154.366.154s.637.116.779.258c.677.677 4.696.942 7.642.503zm2.982-.921c-.088-.088-.317-.097-.508-.021-.21.085-.148.147.16.16.28.011.436-.051.348-.14z"/></svg>