<?xml version="1.0" encoding="utf-8"?>
<svg id="Layer_1" data-name="Layer 1" xmlns="http://www.w3.org/2000/svg" viewBox="0 0 280.73 296.01"><defs><style>.cls-1{fill:#fff;}.cls-2{fill:#312725;}.cls-3{fill:#377b74;}.cls-4{fill:#d9be75;}.cls-5{fill:#e4e4e3;}.cls-6{fill:#504736;}.cls-7{fill:#3e4536;}.cls-8{fill:#989697;}.cls-9{fill:#8d8888;}.cls-10{fill:#948f8f;}.cls-11{fill:#5d5958;}.cls-12{fill:#847f7f;}.cls-13{fill:#736e6c;}.cls-14{fill:#c8c3c2;}.cls-15{fill:#6e4e47;}.cls-16{fill:#f4dab4;}.cls-17{fill:#3b2b26;}.cls-18{fill:#4d4d64;}.cls-19{fill:#dbbf74;}.cls-20{fill:#312b28;}.cls-21{fill:#387774;}.cls-22{fill:#6d4d46;}.cls-23{fill:#f1d4b0;}.cls-24{fill:#4a2b30;}.cls-25{fill:#2d3530;}.cls-26{fill:#ebceab;}.cls-27{fill:#4c3d28;}.cls-28{fill:#40342f;}.cls-29{fill:#224545;}.cls-30{fill:#46454e;}.cls-31{fill:#443a38;}.cls-32{fill:#4a876b;}.cls-33{fill:#b29279;}.cls-34{fill:#4d4955;}.cls-35{fill:#404437;}.cls-36{fill:#305748;}.cls-37{fill:#c19f81;}.cls-38{fill:#38706d;}.cls-39{fill:#4b2f33;}.cls-40{fill:#c8926b;}.cls-41{fill:#c5b09a;}.cls-42{fill:#96624b;}.cls-43{fill:#e2c7ab;}.cls-44{fill:#a29c9b;}.cls-45{fill:#414047;}.cls-46{fill:#444045;}.cls-47{fill:#ae9d8e;}.cls-48{fill:#a49183;}.cls-49{fill:#7b7167;}.cls-50{fill:#9f8f84;}.cls-51{fill:#a4a2a3;}.cls-52{fill:#ae856c;}.cls-53{fill:#ab836b;}.cls-54{fill:#a8826e;}.cls-55{fill:#ac856e;}.cls-56{fill:#aa836c;}.cls-57{fill:#aa826d;}.cls-58{fill:#a8816a;}.cls-59{fill:#a7816d;}.cls-60{fill:#a6806d;}.cls-61{fill:#a27c67;}.cls-62{fill:#222d2e;}.cls-63{fill:#eed1ae;}.cls-64{fill:#fefefe;}.cls-65{fill:#263032;}.cls-66{fill:#352f2c;}.cls-67{fill:#2e373a;}.cls-68{fill:#e5e1de;}.cls-69{fill:#cdcfd5;}.cls-70{fill:#e5c9aa;}.cls-71{fill:#5b5040;}.cls-72{fill:#6e5b46;}.cls-73{fill:#535547;}.cls-74{fill:#6d5b47;}.cls-75{fill:#575c4c;}.cls-76{fill:#594e46;}.cls-77{fill:#6c5948;}.cls-78{fill:#b6a594;}.cls-79{fill:#817772;}.cls-80{fill:#f1d5b0;}.cls-81{fill:#eacead;}.cls-82{fill:#c19f83;}.cls-83{fill:#bb997f;}.cls-84{fill:#5b4b39;}.cls-85{fill:#674d47;}.cls-86{fill:#634e4a;}.cls-87{fill:#b3a08c;}.cls-88{fill:#614e4a;}.cls-89{fill:#a39489;}.cls-90{fill:#cbb78a;}.cls-91{fill:#ba997f;}.cls-92{fill:#58a493;}.cls-93{fill:#ededee;}.cls-94{fill:#60a794;}.cls-95{fill:#767577;}.cls-96{fill:#5b4c3c;}.cls-97{fill:#eae9ea;}.cls-98{fill:#5ba292;}.cls-99{fill:#619b8b;}.cls-100{fill:#42645d;}</style></defs><path class="cls-1" d="M216.76,109c1.78.08,3.56.23,5.35.23h168.2V390.52H293.94c-2.06-7.11-3.31-14.24,1.26-20.86,2.31-3.34,1.53-5.56-1.09-8.37-4.62-4.94-4.28-7.71.64-12.23,3.83-3.52,7.72-7,11.56-10.48,1.91-1.74,1.81-3.31-.52-4.6l-4.7-2.62c3.12-1.85,5.87-3.43,8.58-5.08,7.79-4.75,14.21-10.69,17.45-19.54a9.94,9.94,0,0,1,2.41-3.44c5.66-5.61,10.83-11.53,13.31-19.33,1.35-4.25,2.8-8.47,4.31-13,4,2,5-1.5,6.79-3.4,7.66,3.77,13.16,11.2,22.67,11.93-.58-2.24-.93-3.8-1.38-5.33-4.44-15.05-8.94-30.08-13.3-45.16-1.21-4.21-2-8.55-3.07-13.26,8.49-.05,16.11,3,24.21,0a49.78,49.78,0,0,0-4.47-5.52c-6.7-6.12-11.47-13.54-15.55-21.57a85.51,85.51,0,0,0-15.21-21.26c-5.81-5.92-11.61-11.85-17.58-18,9.33-5.7,16.77-13,17.64-26.28-3.32,1.32-5.83,2.12-8.17,3.27-11.16,5.47-22.69,7.68-35.11,5.23-16.07-3.17-32.21-6-48.36-8.77-14.85-2.55-29.16-.9-42.62,6.31a8.24,8.24,0,0,1-2.64.35c.69-3.24,1.13-6.1,1.93-8.85C214.07,116.75,215.47,112.9,216.76,109Z" transform="translate(-109.59 -95.59)"/><path class="cls-1" d="M178.65,390.76l-63.46-.14h-5.6v-281a11.54,11.54,0,0,1,2-.32q41.49,0,83,0c1.13,0,2.26.22,3.38.33-6,6.84-9.24,15-11.54,23.62-1.22,4.62-2.23,9.29-3.43,14.36-10.64-2.47-20.27-1.58-29.05,4.66-10.21,7.25-18.28,17.47-17.93,23.51,7.34.25,13.5-5.4,21.52-4.81a42.67,42.67,0,0,0-2.79,4.7c-3.49,8.1-7.71,16-10.1,24.42-3.32,11.71-5.14,23.84-7.81,35.75-1.8,8.07-4,16.07-6,24.37,5.23,1.28,8-2.11,11-4.51,3.2-2.61,6-5.71,9-8.6.36,3-.41,5.66-.44,8.31-.13,10.58-.3,21.17.16,31.72.12,3,0,6.89,4,9.17l6.8-10.38a23.64,23.64,0,0,1,2,3.31c4,11.7,13.33,19.76,20.27,29.44,2,2.84,3.65,2.38,5.46-.86.78-1.41,1.4-2.92,2.18-4.34,1.18-2.15,2.78-2.84,4.59-.78,2.5,2.84,4.84,5.81,7.64,9.2l-17.22,3.89c1.64,2.51,2.54,4.11,3.65,5.57,3.24,4.25,6.65,8.38,9.8,12.7,2,2.76,2,5.42-.53,8.29C193,359.42,187.46,367.05,184,375.9,182.07,380.8,180.42,385.8,178.65,390.76Z" transform="translate(-109.59 -95.59)"/><path class="cls-2" d="M178.65,390.76c1.77-5,3.42-10,5.34-14.86,3.47-8.85,9-16.48,15.14-23.59,2.49-2.87,2.53-5.53.53-8.29-3.15-4.32-6.56-8.45-9.8-12.7-1.11-1.46-2-3.06-3.65-5.57l17.22-3.89c-2.8-3.39-5.14-6.36-7.64-9.2-1.81-2.06-3.41-1.37-4.59.78-.78,1.42-1.4,2.93-2.18,4.34-1.81,3.24-3.42,3.7-5.46.86-6.94-9.68-16.26-17.74-20.27-29.44a23.64,23.64,0,0,0-2-3.31l-6.8,10.38c-4-2.28-3.85-6.2-4-9.17-.46-10.55-.29-21.14-.16-31.72,0-2.65.8-5.29.44-8.31-3,2.89-5.78,6-9,8.6-3,2.4-5.74,5.79-11,4.51,2.07-8.3,4.23-16.3,6-24.37,2.67-11.91,4.49-24,7.81-35.75,2.39-8.42,6.61-16.32,10.1-24.42a42.67,42.67,0,0,1,2.79-4.7c-8-.59-14.18,5.06-21.52,4.81-.35-6,7.72-16.26,17.93-23.51,8.78-6.24,18.41-7.13,29.05-4.66,1.2-5.07,2.21-9.74,3.43-14.36,2.3-8.62,5.58-16.78,11.54-23.62,1.74-3.63,4.75-6,8-8.16l1-.94,8.83-4.91,2,1-.07-.07,0,2.88-.06,4.07-.92.82V109c-1.29,3.88-2.69,7.73-3.83,11.66-.8,2.75-1.24,5.61-1.93,8.85a8.24,8.24,0,0,0,2.64-.35c13.46-7.21,27.77-8.86,42.62-6.31,16.15,2.76,32.29,5.6,48.36,8.77,12.42,2.45,23.95.24,35.11-5.23,2.34-1.15,4.85-2,8.17-3.27-.87,13.23-8.31,20.58-17.64,26.28,6,6.11,11.77,12,17.58,18a85.51,85.51,0,0,1,15.21,21.26c4.08,8,8.85,15.45,15.55,21.57a49.78,49.78,0,0,1,4.47,5.52c-8.1,3-15.72,0-24.21,0,1.08,4.71,1.86,9,3.07,13.26,4.36,15.08,8.86,30.11,13.3,45.16.45,1.53.8,3.09,1.38,5.33-9.51-.73-15-8.16-22.67-11.93-1.75,1.9-2.79,5.43-6.79,3.4-1.51,4.54-3,8.76-4.31,13-2.48,7.8-7.65,13.72-13.31,19.33a9.94,9.94,0,0,0-2.41,3.44c-3.24,8.85-9.66,14.79-17.45,19.54-2.71,1.65-5.46,3.23-8.58,5.08l4.7,2.62c2.33,1.29,2.43,2.86.52,4.6-3.84,3.51-7.73,7-11.56,10.48-4.92,4.52-5.26,7.29-.64,12.23,2.62,2.81,3.4,5,1.09,8.37-4.57,6.62-3.32,13.75-1.26,20.86l-5.09,1-1.72.06-1.29-.1c-.34-1.11-.69-2.22-1-3.33l-.73.17c.06,1.08.13,2.15.19,3.23l-2.13.05c-.09-.26-.18-.53-.26-.79l-.64.79-3.28-.13c-2-3.09.44-5.05,2.07-7.33a14.86,14.86,0,0,0-8.54-5.2L269.38,377l-5.93-3.44c-1.07,3-2,5.58-2.95,8.21l-.82-1.91q1-3.42,2.05-6.82c.85-.8,3-1.23.78-2.87v0l2.06-2.07,1-2.87,1.22-1.13c.18-1,.78-2.2.48-3.06-1.11-3.13-2.52-6.15-3.82-9.22l1.13-1.25c1.81,3.27,2.29,7.36,5.8,9.79l5-4,4.53,3.68,23.41-23.52c-5.21-2.19-10.36-4.88-16.21-1.52l-1-1c1.63-.7,3.24-1.45,4.89-2.09,8.47-3.29,16.6-7.16,23.83-12.8,6.74-5.25,9.86-12.06,10.09-20.54.18-6.78.88-13.54,1.36-20.31.22-1.38.45-2.75.67-4.13,1.52-12.48,3-25,4.58-37.65l-5.38-1.21v-1l5.67-.55c-.15-5.41-2.78-9.39-5.45-13.35-.35,2.7-.71,5.41-1.06,8.11-.43,1.28-.87,2.56-1.31,3.84l-.81-2a21.55,21.55,0,0,1,.22-2.91,72.45,72.45,0,0,0-.27-29.8c-.82-3.85-1.92-7.63-2.89-11.44,1.34.45,2.1,1.15,2.29,2,1.28,5.49,2.89,11,3.5,16.54.63,5.83,1.1,11.49,3.89,16.86,2.39,4.58,4,9.58,6,14.33,4.15,9.48,8.4,18.91,12.61,28.36l1.11-.22c.29-1.7.7-3.39.85-5.1.42-4.68.34-9.43,1.14-14,2-11.52-.18-22.6-3.4-33.48-4-13.48-11-25.61-18.4-37.47a35.28,35.28,0,0,1-1.69-3.5l.95-.52a31,31,0,0,1,2.8,3.73c4.1,7.38,8.24,14.74,12.11,22.24,9.78,19,11.75,39.09,8.63,59.93-.53,3.55-.26,6.67,3.25,8.81,2.06,1.26,3.76,3.11,5.79,4.44,3.37,2.2,6.87,4.2,11.23,6.85-8.19-21.3-18.76-61.28-17.29-65.8a37.54,37.54,0,0,0,21.62,3.33c-7.45-6.2-11.88-13.65-15.76-21.52A81.59,81.59,0,0,0,355,180.59a137.59,137.59,0,0,0-29-29.33c-7.83-6-16.53-10.19-26.6-10.86-.44,0-.85-.62-1.27-1l.23-.92c2.37.15,4.93-.22,7.07.56,5.77,2.09,11.34,4.74,17.05,7,1.55.61,3.62,1.4,4.95.87a27,27,0,0,0,16.94-19,10.32,10.32,0,0,0-1.71.5c-10.06,5.5-20.76,8.83-32.21,7-16.57-2.65-33-6-49.53-9.09-15.86-3-31.26-2.84-45.77,5.55-4.24,2.45-8.66,4.46-9.66,10a5.9,5.9,0,0,1-1.43.21l10.88-41.81-1-.58c-3,2.13-6.36,3.93-9,6.43-10.42,9.78-15,22.5-17.33,36.18-.74,4.42-.9,9.16,3.51,12.35.07.05-.17.53-.27.81-20.48-14.75-41.07-1.33-50.61,16.05,10-2.41,19.4-7.11,29.92-6.09a8.33,8.33,0,0,1-2.75,1.43c-1.28.57-3,1-3.66,2-3.94,5.91-8.13,11.74-11.28,18.07-4.27,8.6-5.67,18.09-7.52,27.5-2.65,13.46-6.58,26.66-9.91,40a8,8,0,0,0,.27,2.42c10.78-5.84,15.21-16.64,22-25.31-1,8-2.5,15.7-3.51,23.47a185.76,185.76,0,0,0-1.35,18.87c-.1,3.7.57,7.41.9,11.12l1.35,4.92c3.2-3.4,2.35-9.55,7.33-9.74,1.33-6.43,2.61-12.5,3.81-18.58a7,7,0,0,0,0-3.36c-2.68-8.18-1.58-16.62-1.89-25,.11-14.7,2.45-29,5.73-33.09-.11,1.27-.13,2-.24,2.74-1.15,7.5-3,15-3.31,22.49-.52,11.63-.88,23.33,1.74,34.89,3.07,13.58,8.94,25.19,21.45,33.38a50.1,50.1,0,0,1-1.54-20.82l1.12-.12,1.51,4.49c-1.21,1.45-3.29,2.7-1.14,4.93l1.91,3.12q.08,5.73.14,11.46l-5.11-2.12c.44,2.55.77,4.48,1.1,6.42l-.75.29-2.06-3.53a8.46,8.46,0,0,0-3.63-8.73,40.22,40.22,0,0,1-4.15-4c-3.46-6.33-6.92-12.66-10.51-19.26a41.85,41.85,0,0,0,1.2,25.6c3,8.49,8.76,14,17.73,15.64,3.67.69,7.4,1,11.11,1.45q5.38,4.38,10.78,8.75l-3.3.86,10.1,8h0l-1,1h0l-1.93,0,0,0-.94-1h-12l-.11,1.43,7.23.61-4.18,1h-8.4l4.8,5.7,1.31.85,6.42.32a45,45,0,0,0-4.44.95c-.22.07-.14,1.15-.21,1.76L205,349.55l1,1v0c0,.66,0,1.32,0,2l-2.94.94q-3,3.4-6,6.82c-8.29,8.81-12.07,19.7-14.36,31.27Zm149.29-93.88-1-3.4-.7.13v2.33l.3,3.85,1.16-.05C327.78,298.79,327.86,297.84,327.94,296.88Zm7-3.94c2.57-4,3.66-8.28,1.72-13.12q-1.42,6-2.86,11.94l-.85,2.68.74.32C334.1,294.15,334.51,293.54,334.93,292.94Zm-47.69,74.13c-.18,2-.77,4.26,2.87,5l2.9-5.75-4.86-6.63C285.27,364.47,285.27,364.47,287.24,367.07Zm-15.8,2.06c-.22.37-.45.74-.68,1.11,2.9,1.55,5.76,3.2,8.75,4.56.49.23,1.74-.59,2.28-1.23a27.56,27.56,0,0,0,2.27-3.59c1-1.36,1.15-2.58-.41-3.67-1.91-1.34-3.8-2.73-5.84-4.21Zm62.77-132.42-.92.48c-.42,3.35-.84,6.71-1.28,10.07-1.17,8.79-2.16,17.61-3.59,26.36-1.25,7.66-1.6,15.14,2.17,22.68q3-12.33,5.93-24.68l1.08.13c.76,3.24,1.52,6.47,2.27,9.71l1.23-.07q1.8-10,3.59-19.92Q339.46,249.09,334.21,236.71ZM276.5,360.49l-1.56-1.41-11.08,12.41c5.84,2.53,9.43,7.71,15.43,7.9l.7-1.3-12.2-7.21ZM189.42,310l-9.26-2.41-.54,1,6.41,8C187.29,314.19,188.21,312.4,189.42,310Zm99.3,70.33c-2.88,2.71-2,4.09,1.07,5.65C289.41,384,289.13,382.54,288.72,380.36Zm-2.79-7.89-1.11,1.1,3.48,2.93,1-1.13Zm-2.91-10,1.29.45c.6-1.81,1.2-3.61,1.79-5.42l-1-.32Zm.3,14.4c-.77,1-1.11,1.28-1.06,1.42a5.87,5.87,0,0,0,.69,1.14C283,378.85,283.1,378.31,283.32,376.83Z" transform="translate(-109.59 -95.59)"/><path class="cls-3" d="M261.73,373q-1,3.41-2.05,6.82-2,5.81-4,11.6l-73,.08C185,380,188.75,369.07,197,360.26c1.22-.38,2.41-.85,3.65-1.13,2.65-.59,5.3-1.45,8-1.53a90.12,90.12,0,0,1,10.07.75c7.92-.34,15.17,2.35,22.48,4.89,5.14,1.79,10.37,3.29,15.57,4.92l5.73,2v0Z" transform="translate(-109.59 -95.59)"/><path class="cls-4" d="M260.5,381.76c.94-2.63,1.88-5.25,2.95-8.21l5.93,3.44q-1.38,6.84-2.75,13.68l-8.76.87Q259.19,386.65,260.5,381.76Z" transform="translate(-109.59 -95.59)"/><path class="cls-5" d="M271.49,378.92a14.86,14.86,0,0,1,8.54,5.2c-1.63,2.28-4.06,4.24-2.07,7.33l-9.49.14Z" transform="translate(-109.59 -95.59)"/><path class="cls-6" d="M271.49,378.92l-3,12.67-1.84-.92q1.38-6.84,2.75-13.68Z" transform="translate(-109.59 -95.59)"/><path class="cls-7" d="M260.5,381.76q-1.32,4.89-2.63,9.78l-2.2-.09q2-5.79,4-11.6C260,380.48,260.22,381.12,260.5,381.76Z" transform="translate(-109.59 -95.59)"/><path class="cls-8" d="M284.27,391.53c-.06-1.08-.13-2.15-.19-3.23l.73-.17c.34,1.11.69,2.22,1,3.33Z" transform="translate(-109.59 -95.59)"/><path class="cls-9" d="M217.74,99.39c0-1,0-1.92,0-2.88Z" transform="translate(-109.59 -95.59)"/><path class="cls-10" d="M217.77,96.58l-2-1Z" transform="translate(-109.59 -95.59)"/><path class="cls-11" d="M287.13,391.56l1.72-.06Z" transform="translate(-109.59 -95.59)"/><path class="cls-12" d="M216.76,104.28l.92-.82Z" transform="translate(-109.59 -95.59)"/><path class="cls-13" d="M207,100.5l-1,.94Z" transform="translate(-109.59 -95.59)"/><path class="cls-14" d="M281.24,391.58l.64-.79c.08.26.17.53.26.79l-.45,0Z" transform="translate(-109.59 -95.59)"/><path class="cls-15" d="M153.31,285c-.33-3.71-1-7.42-.9-11.12A185.76,185.76,0,0,1,153.76,255c1-7.77,2.55-15.46,3.51-23.47-6.83,8.67-11.26,19.47-22,25.31a8,8,0,0,1-.27-2.42c3.33-13.33,7.26-26.53,9.91-40,1.85-9.41,3.25-18.9,7.52-27.5,3.15-6.33,7.34-12.16,11.28-18.07.68-1,2.38-1.42,3.66-2a8.33,8.33,0,0,0,2.75-1.43c-10.52-1-19.9,3.68-29.92,6.09,9.54-17.38,30.13-30.8,50.61-16.05.1-.28.34-.76.27-.81-4.41-3.19-4.25-7.93-3.51-12.35,2.29-13.68,6.91-26.4,17.33-36.18,2.67-2.5,6-4.3,9-6.43l1,.58L204,142.12a5.9,5.9,0,0,0,1.43-.21c1-5.5,5.42-7.51,9.66-10,14.51-8.39,29.91-8.55,45.77-5.55,16.49,3.12,33,6.44,49.53,9.09,11.45,1.83,22.15-1.5,32.21-7a10.32,10.32,0,0,1,1.71-.5,27,27,0,0,1-16.94,19c-1.33.53-3.4-.26-4.95-.87-5.71-2.28-11.28-4.93-17.05-7-2.14-.78-4.7-.41-7.07-.56l-.23.92c.42.33.83.92,1.27,1,10.07.67,18.77,4.88,26.6,10.86a137.59,137.59,0,0,1,29,29.33A81.59,81.59,0,0,1,361.51,192c3.88,7.87,8.31,15.32,15.76,21.52a37.54,37.54,0,0,1-21.62-3.33c-1.47,4.52,9.1,44.5,17.29,65.8-4.36-2.65-7.86-4.65-11.23-6.85-2-1.33-3.73-3.18-5.79-4.44-3.51-2.14-3.78-5.26-3.25-8.81,3.12-20.84,1.15-41-8.63-59.93-3.87-7.5-8-14.86-12.11-22.24a31,31,0,0,0-2.8-3.73l-.95.52a35.28,35.28,0,0,0,1.69,3.5c7.42,11.86,14.4,24,18.4,37.47,3.22,10.88,5.4,22,3.4,33.48-.8,4.6-.72,9.35-1.14,14-.15,1.71-.56,3.4-.85,5.1l-1.11.22c-4.21-9.45-8.46-18.88-12.61-28.36-2.08-4.75-3.66-9.75-6-14.33-2.79-5.37-3.26-11-3.89-16.86-.61-5.58-2.22-11.05-3.5-16.54-.19-.84-.95-1.54-2.29-2,1,3.81,2.07,7.59,2.89,11.44a72.45,72.45,0,0,1,.27,29.8,21.55,21.55,0,0,0-.22,2.91l-3.22,3c-1-1.27-2.47-2.38-3-3.83-2.34-6.2-3.79-12.82-6.73-18.7-4.67-9.33-6.08-18.94-5.69-29.19.15-4.13-1.25-8.32-1.95-12.48l-1.7.08c3.56,22.24,3.05,44-6.57,64.81L289,235.07c.16-2.06.31-3.77.43-5.48.1-1.55.17-3.1.26-4.65l-1.09-.15c-4.66,12.27-11.1,23.28-22,31.93-1.3-14.92-2.53-29.27-6.22-43.32a30.6,30.6,0,0,0-1.65,6.91c-.46,3.36-.64,6.77-1.27,10.09-.19,1-1.45,2.69-2.2,2.68-1.16,0-2.45-1.07-3.39-2-.62-.62-.74-1.76-1.07-2.68-4.52-12.61-6.13-25.73-6.69-39-.22-5.19,0-10.41,0-15.61a10.45,10.45,0,0,0-.74-2.64l-1.49.1c1.76,19.63-1.06,38.8-5.09,58-10.59-16.85-11.27-36.13-13.32-55.15-.65,4.51-1.29,9.07-.45,13.34a10.3,10.3,0,0,1-1.82,8.55c-6.84,10-13.57,20.16-20.43,30.18-.69,1-2,1.57-3.52,2.68-.6,5.63-1.27,11.89-1.93,18.14-1.81,12.36-1.27,24.76-.73,37.2-1.39-2.33-2.77-4.66-4.16-7l-1.51-4.49-1.12.12a50.1,50.1,0,0,0,1.54,20.82c-12.51-8.19-18.38-19.8-21.45-33.38-2.62-11.56-2.26-23.26-1.74-34.89.34-7.53,2.16-15,3.31-22.49.11-.73.13-1.47.24-2.74-3.28,4-5.62,18.39-5.73,33.09-.3,2.16-.62,4.32-.89,6.49a56.26,56.26,0,0,1-.81,6.64c-1.93,7.59-4.2,15.11-6,22.73C155,274.37,154.26,279.72,153.31,285ZM289.36,171.53q1.06,14.1,2.14,28.21l1.34-.12C293.13,190.18,293.22,180.76,289.36,171.53Zm59,25.86c0-7.64-6.8-22-11.77-24ZM285.55,182h-1v18.25l1,0ZM198.4,167.15l-.77-.62c-6.79,5.35-10.91,11.28-10.79,15.57Zm131.21,13.46-1.38.54q2.85,7.32,5.69,14.66l1.29-.51C334.22,190.06,332,185.31,329.61,180.61Zm-118.72-8.09c-4.51,5-5.47,9-3.62,12.64Zm-24-4.08a18.42,18.42,0,0,0-7.86,7.6A15.34,15.34,0,0,0,186.91,168.44ZM229,175.13l-1,.05V184h1Zm41.28,14.4,1.47.19V182l-1-.09Zm-5.79-7.39c-2.95,2.69-2.95,2.69-1.22,5.36C263.66,185.76,264,184.35,264.49,182.14Z" transform="translate(-109.59 -95.59)"/><path class="cls-16" d="M191.31,296.76q-.06-5.73-.14-11.46l1-1.1,4.25,5.53,1.11-.43a147.51,147.51,0,0,1-1.18-33.08L204,269.6a1.85,1.85,0,0,0-.2.83c-.57,3.23,1.7,9.13,4.17,10.79l.25-.41a12.86,12.86,0,0,0,9.5,7.53l6.89.75,2.84.1c4.12.16,8.36,1,12.29.24,2.4-.46,5-3,6.31-5.29a31.12,31.12,0,0,0,3.9-17.61l.09-5.83,2.78-.79,5.44-8.67,4.53,2.07,2.21,7.27L276,250.8l1.11-1.29a.5.5,0,0,1,.4-.56l.76-.89,0,0,5,2.2a.63.63,0,0,1-.41.73l.32,1.9,13.49-7.68h-3.65l-1.34-1.32c2.28-4.08,3.33-9.57,9.95-8.66l14.67.14,3.19,7.84a38.81,38.81,0,0,0,2.69-5.23c.65-2.07,2-2.6,3.92-2.64l5.38,1.21c-1.54,12.68-3.06,25.17-4.58,37.65-.22,1.38-.45,2.75-.67,4.13-.48,6.77-1.18,13.53-1.36,20.31-.23,8.48-3.35,15.29-10.09,20.54-7.23,5.64-15.36,9.51-23.83,12.8-1.65.64-3.26,1.39-4.89,2.09-1.66.51-3.36.92-5,1.57-6,2.41-12.07,4.14-18.61,2.81a28.52,28.52,0,0,1-2.81-.57c-3.91-1.24-9.34.93-11.24-5-.13-.41-1.44-.55-2.22-.62-4.95-.45-9.9-.84-14.86-1.24L207,317.26q-5.4-4.36-10.78-8.75C193.16,305.2,191,301.49,191.31,296.76ZM324,266.47c1.45-3.88,2.91-7.75,4.62-12.32a168.15,168.15,0,0,0-44.39,2c4.16,1.6,2.29,4,2.14,5.79l2.61.66c-2,5.86-1.45,11.71.09,17.56.55,4.06,1.31,8,5.84,9.67l3.7.95a8.19,8.19,0,0,0,2.55,1c11.93.5,17.55-6.58,19.57-18.28.34-2,.81-4,1.22-6,.13.59.27,1.18.57,2.44Zm-70.88,53.92c5.06.79,14.19-.44,16.31-2.11C263.6,318.12,258.24,317.8,253.15,320.39Zm28.51,1.72.25-1.09a14.76,14.76,0,0,0-9.35-2.45c-.1.42-.19.84-.29,1.26Zm-7.16-27.35-1.36.36.83,3.47,1.43-.38Z" transform="translate(-109.59 -95.59)"/><path class="cls-17" d="M301.67,235.19c-6.62-.91-7.67,4.58-9.95,8.66-.54.74-1.08,1.48-1.61,2.23l.56.43,2.39-1.34h3.65l-13.49,7.68-.32-1.9a.63.63,0,0,0,.41-.73l1.95-9.91.84-3.23-.79-.23c-.37.8-.74,1.59-1.12,2.38L278.33,248l0,0-.76.89a.5.5,0,0,0-.4.56L276,250.8,265,260.58q-1.75-16-3.49-32.1l-.81-4.33-.78.15v2.3c.05,3.07-1.4,5.86,0,9.35.89,2.23-1.52,5.78-2.63,9.32-2.31-3.88-4.35-7.29-6.38-10.71a.58.58,0,0,0-.8-.31l-8.92-1.83-.93.9-.38,1.79c-.82-.38-2-.54-2.39-1.18-1.67-2.64-4.23-3.26-7-3.63a21,21,0,0,0,2.38-.85c.27-.14.35-.65.52-1-4.13-7.64-6.35-15.91-8-24.36-.47-2.53-.94-5.05-1.57-8.41-3,4.14-5.35,7.38-7.62,10.72-3.18,4.66-6.26,9.38-9.38,14.08a48.63,48.63,0,0,0-3.46,5.18c-2.3,4.52-5.76,8.63-5.26,14.19-.27,2.71-.53,5.42-.8,8.14l1,1,33.21.9,1.71.14q.27.36.51.72c-11.53-.27-23.06-.68-34.6-.73-2.51,0-2.55-2-3.73-3,.66-6.25,1.33-12.51,1.93-18.14,1.49-1.11,2.83-1.68,3.52-2.68,6.86-10,13.59-20.14,20.43-30.18a10.3,10.3,0,0,0,1.82-8.55c-.84-4.27-.2-8.83.45-13.34,2.05,19,2.73,38.3,13.32,55.15,4-19.24,6.85-38.41,5.09-58l1.49-.1a10.45,10.45,0,0,1,.74,2.64c.06,5.2-.17,10.42,0,15.61.56,13.29,2.17,26.41,6.69,39,.33.92.45,2.06,1.07,2.68.94.91,2.23,2,3.39,2,.75,0,2-1.63,2.2-2.68.63-3.32.81-6.73,1.27-10.09a30.6,30.6,0,0,1,1.65-6.91c3.69,14,4.92,28.4,6.22,43.32,10.89-8.65,17.33-19.66,22-31.93l1.09.15c-.09,1.55-.16,3.1-.26,4.65-.12,1.71-.27,3.42-.43,5.48l5.28-1.08c9.62-20.81,10.13-42.57,6.57-64.81l1.7-.08c.7,4.16,2.1,8.35,1.95,12.48-.39,10.25,1,19.86,5.69,29.19,2.94,5.88,4.39,12.5,6.73,18.7.55,1.45,2,2.56,3,3.83l3.22-3,.81,2c.13.3.25.61.38.91l1.77,1v1c-1.87,0-3.27.57-3.92,2.64a38.81,38.81,0,0,1-2.69,5.23l-3.19-7.84c-.27-1.33-.54-2.66-.8-4l-3.27-8.7-6.66-18.42-1.14.26-1.65,9.34q-3,9.75-5.95,19.5a1.17,1.17,0,0,0-.3.38c0,.12.05.39.12.41C298.35,234.49,300,234.84,301.67,235.19Zm-58.29-26.55a56.76,56.76,0,0,0-3.19,21.42l9.59,1.89C247.56,223.85,245.47,216.25,243.38,208.64Zm50.24,27.87c-6.28,1.26-6.44,1.55-6.8,11C289.24,243.57,291.15,240.48,293.62,236.51Zm-37.84,3.12c.81-3.64.81-3.64-1.92-3.67Zm63.7-2,.68.2.77-1.81-1.16-.24C319.67,236.37,319.58,237,319.48,237.6Z" transform="translate(-109.59 -95.59)"/><path class="cls-18" d="M287.11,335c5.85-3.36,11-.67,16.21,1.52L279.91,360l-4.53-3.68-5,4c-3.51-2.43-4-6.52-5.8-9.79-.62-3.07-1.25-6.15-2-9.93C271.88,341.77,279.54,338.54,287.11,335Z" transform="translate(-109.59 -95.59)"/><path class="cls-19" d="M265.57,365.24l-1,2.87c-5.87-1.5-11.14-3.81-15.42-8.5a66.76,66.76,0,0,1-11.65-17.25c-1.26-2.75-2.84-4.21-5.92-3.61L205,336.08l-6.42-.32-1.31-.85-4.8-5.7h8.4l28.42,2.92,10.29,1.67a5,5,0,0,0-.44.72c0,.06.12.29.21.3,2.61.27,5.22.52,7.84.78C248.5,348.45,257,356.85,265.57,365.24Z" transform="translate(-109.59 -95.59)"/><path class="cls-20" d="M195.29,247c1.18,1,1.22,3,3.73,3,11.54.05,23.07.46,34.6.73a65.6,65.6,0,0,1,19.88,3.32L252,255.82l-.3,2,1.11,2.05-2.78.79-12.75-2.23c-3.68-.56-7.37-1.63-11-1.57-5.18.09-10.56-1.43-15.61,1.17-.35.18-1.27-.76-1.92-1.18l-6.08.54c.56,3.8,1.08,7.37,1.61,10.95L204,269.6l-7.59-13.38a147.51,147.51,0,0,0,1.18,33.08l-1.11.43-4.25-5.53q-1.06-2.26-2.15-4.53l-.78.29v2.22c-2.15-2.23-.07-3.48,1.14-4.93,1.39,2.32,2.77,4.65,4.16,7C194,271.79,193.48,259.39,195.29,247Z" transform="translate(-109.59 -95.59)"/><path class="cls-21" d="M205,349.55l-4.73-10.76c1.19-.3,2.39-.93,3.55-.85,7.26.49,14.5,1.15,21.76,1.74a41,41,0,0,1,6.2,1.11,8.21,8.21,0,0,1,4.15,2.7c3.76,5.76,7.22,11.72,10.56,17.23-4-1.34-8.68-3.24-13.49-4.41-8.95-2.16-18-3.88-27-5.79v0Z" transform="translate(-109.59 -95.59)"/><path class="cls-22" d="M334.21,236.71q5.24,12.39,10.48,24.76-1.8,10-3.59,19.92l-1.23.07c-.75-3.24-1.51-6.47-2.27-9.71l-1.08-.13q-3,12.35-5.93,24.68c-3.77-7.54-3.42-15-2.17-22.68,1.43-8.75,2.42-17.57,3.59-26.36.44-3.36.86-6.72,1.28-10.07Z" transform="translate(-109.59 -95.59)"/><path class="cls-23" d="M191.31,296.76c-.28,4.73,1.85,8.44,4.93,11.75-3.71-.47-7.44-.76-11.11-1.45-9-1.67-14.77-7.15-17.73-15.64a41.85,41.85,0,0,1-1.2-25.6c3.59,6.6,7.05,12.93,10.51,19.26-.8,6.32,2.29,10.26,7.78,12.74l2.06,3.53.75-.29c-.33-1.94-.66-3.87-1.1-6.42Z" transform="translate(-109.59 -95.59)"/><path class="cls-24" d="M153.31,285c.95-5.29,1.67-10.64,2.91-15.86,1.82-7.62,4.09-15.14,6-22.73a56.26,56.26,0,0,0,.81-6.64c.27-2.17.59-4.33.89-6.49.31,8.34-.79,16.78,1.89,25a7,7,0,0,1,0,3.36c-1.2,6.08-2.48,12.15-3.81,18.58-5,.19-4.13,6.34-7.33,9.74Z" transform="translate(-109.59 -95.59)"/><path class="cls-25" d="M206,350.52c9,1.91,18.05,3.63,27,5.79,4.81,1.17,9.45,3.07,13.49,4.41-3.34-5.51-6.8-11.47-10.56-17.23a8.21,8.21,0,0,0-4.15-2.7,41,41,0,0,0-6.2-1.11l6-.93c3.08-.6,4.66.86,5.92,3.61a66.76,66.76,0,0,0,11.65,17.25c4.28,4.69,9.55,7,15.42,8.5l-2.06,2.07-5.73-2c-2.42-1.31-4.72-3-7.29-3.87-9.9-3.26-19.85-6.4-29.87-9.25-4.43-1.26-9.09-1.72-13.64-2.54Z" transform="translate(-109.59 -95.59)"/><path class="cls-26" d="M263.45,351.83c1.3,3.07,2.71,6.09,3.82,9.22.3.86-.3,2-.48,3.06-3.49-3.85-7.28-7.47-10.36-11.62-2.35-3.19-3.8-7-5.65-10.6l9.91,1.84.84,1.31Z" transform="translate(-109.59 -95.59)"/><path class="cls-27" d="M261.53,345l-.84-1.31-.12-3.45-.84-.58-10.07-1.31c.49,1.51.8,2.51,1.12,3.5,1.85,3.56,3.3,7.41,5.65,10.6,3.08,4.15,6.87,7.77,10.36,11.62l-1.22,1.13c-8.54-8.39-17.07-16.79-18.43-29.64-2-3-5.08-1.17-7.61-1.8l-10.29-1.67,2.15-1.15c5,.4,9.91.79,14.86,1.24.78.07,2.09.21,2.22.62,1.9,5.93,7.33,3.76,11.24,5a28.52,28.52,0,0,0,2.81.57Z" transform="translate(-109.59 -95.59)"/><path class="cls-28" d="M231.39,331l-2.15,1.15-28.42-2.92,4.18-1,14.86,1.11c-1.44-3-3-4.87-6-3.16l-10.1-8,3.3-.86Z" transform="translate(-109.59 -95.59)"/><path class="cls-29" d="M206,352.5c4.55.82,9.21,1.28,13.64,2.54,10,2.85,20,6,29.87,9.25,2.57.85,4.87,2.56,7.29,3.87-5.2-1.63-10.43-3.13-15.57-4.92-7.31-2.54-14.56-5.23-22.48-4.89a6.27,6.27,0,0,0-2.11-.86c-4.95,0-9.37-1.66-13.58-4.05Z" transform="translate(-109.59 -95.59)"/><path class="cls-30" d="M276.5,360.49l-8.71,10.39,12.2,7.21-.7,1.3c-6-.19-9.59-5.37-15.43-7.9l11.08-12.41Z" transform="translate(-109.59 -95.59)"/><path class="cls-31" d="M261.53,345l1-6.63c6.54,1.33,12.62-.4,18.61-2.81,1.61-.65,3.31-1.06,5-1.57l1,1c-7.57,3.56-15.23,6.79-24.54,5.67.76,3.78,1.39,6.86,2,9.93l-1.13,1.25Z" transform="translate(-109.59 -95.59)"/><path class="cls-32" d="M271.44,369.13l6.37-7c2,1.48,3.93,2.87,5.84,4.21,1.56,1.09,1.45,2.31.41,3.67a4.24,4.24,0,0,0-4.05-1.46C277.22,368.91,274.43,371.37,271.44,369.13Z" transform="translate(-109.59 -95.59)"/><path class="cls-33" d="M326.13,234.3l-1.77-1L328,233l-2.74-4.45c.35-2.7.71-5.41,1.06-8.11,2.67,4,5.3,7.94,5.45,13.35Z" transform="translate(-109.59 -95.59)"/><path class="cls-34" d="M213.82,326.15c3-1.71,4.6.15,6,3.16L205,328.2l-7.23-.61.11-1.43h12l.94,1,0,0,1.93,0h0l1-1Z" transform="translate(-109.59 -95.59)"/><path class="cls-35" d="M231.59,338.75l-6,.93c-7.26-.59-14.5-1.25-21.76-1.74-1.16-.08-2.36.55-3.55.85.07-.61,0-1.69.21-1.76a45,45,0,0,1,4.44-.95Z" transform="translate(-109.59 -95.59)"/><path class="cls-36" d="M271.44,369.13c3,2.24,5.78-.22,8.57-.61a4.24,4.24,0,0,1,4.05,1.46,27.56,27.56,0,0,1-2.27,3.59c-.54.64-1.79,1.46-2.28,1.23-3-1.36-5.85-3-8.75-4.56C271,369.87,271.22,369.5,271.44,369.13Z" transform="translate(-109.59 -95.59)"/><path class="cls-37" d="M184.49,297.82c-5.49-2.48-8.58-6.42-7.78-12.74a40.22,40.22,0,0,0,4.15,4A8.46,8.46,0,0,1,184.49,297.82Z" transform="translate(-109.59 -95.59)"/><path class="cls-38" d="M203.05,353.44c4.21,2.39,8.63,4.06,13.58,4.05a6.27,6.27,0,0,1,2.11.86,90.12,90.12,0,0,0-10.07-.75c-2.68.08-5.33.94-8,1.53-1.24.28-2.43.75-3.65,1.13Q200,356.84,203.05,353.44Z" transform="translate(-109.59 -95.59)"/><path class="cls-39" d="M189.42,310c-1.21,2.37-2.13,4.16-3.39,6.64l-6.41-8,.54-1Z" transform="translate(-109.59 -95.59)"/><path class="cls-40" d="M287.24,367.07c-2-2.6-2-2.6.91-7.41l4.86,6.63Z" transform="translate(-109.59 -95.59)"/><path class="cls-41" d="M333.79,291.76q1.44-6,2.86-11.94c1.94,4.84.85,9.11-1.72,13.12Z" transform="translate(-109.59 -95.59)"/><path class="cls-42" d="M287.24,367.07l5.77-.78-2.9,5.75C286.47,371.33,287.06,369.1,287.24,367.07Z" transform="translate(-109.59 -95.59)"/><path class="cls-43" d="M325.29,228.51,328,233l-3.67.3c-.13-.3-.25-.61-.38-.91C324.42,231.07,324.86,229.79,325.29,228.51Z" transform="translate(-109.59 -95.59)"/><path class="cls-44" d="M288.72,380.36c.41,2.18.69,3.66,1.07,5.65C286.75,384.45,285.84,383.07,288.72,380.36Z" transform="translate(-109.59 -95.59)"/><path class="cls-45" d="M285.93,372.47l3.36,2.9-1,1.13-3.48-2.93Z" transform="translate(-109.59 -95.59)"/><path class="cls-46" d="M283,362.43l2.1-5.29,1,.32c-.59,1.81-1.19,3.61-1.79,5.42Z" transform="translate(-109.59 -95.59)"/><path class="cls-47" d="M189.26,282.18V280l.78-.29q1.08,2.26,2.15,4.53l-1,1.1Z" transform="translate(-109.59 -95.59)"/><path class="cls-48" d="M327.94,296.88l-.23,2.86-1.16.05-.3-3.85Z" transform="translate(-109.59 -95.59)"/><path class="cls-49" d="M327.94,296.88l-1.69-.94v-2.33l.7-.13Z" transform="translate(-109.59 -95.59)"/><path class="cls-50" d="M333.79,291.76l1.14,1.18c-.42.6-.83,1.21-1.25,1.82l-.74-.32Z" transform="translate(-109.59 -95.59)"/><path class="cls-22" d="M326.27,278.29c.22-1.38.45-2.75.67-4.13C326.72,275.54,326.49,276.91,326.27,278.29Z" transform="translate(-109.59 -95.59)"/><path class="cls-25" d="M261.73,373l.78-2.87C264.76,371.8,262.58,372.23,261.73,373Z" transform="translate(-109.59 -95.59)"/><path class="cls-51" d="M283.32,376.83c-.22,1.48-.29,2-.37,2.56a5.87,5.87,0,0,1-.69-1.14C282.21,378.11,282.55,377.83,283.32,376.83Z" transform="translate(-109.59 -95.59)"/><path class="cls-28" d="M212.81,327.11l-1.93,0Z" transform="translate(-109.59 -95.59)"/><path class="cls-25" d="M205,349.55l1,1Z" transform="translate(-109.59 -95.59)"/><path class="cls-28" d="M213.82,326.15l-1,1Z" transform="translate(-109.59 -95.59)"/><path class="cls-28" d="M210.86,327.12l-.94-1Z" transform="translate(-109.59 -95.59)"/><path class="cls-35" d="M197.22,334.91l1.31.85Z" transform="translate(-109.59 -95.59)"/><path class="cls-52" d="M289.36,171.53c3.86,9.23,3.77,18.65,3.48,28.09l-1.34.12Q290.44,185.63,289.36,171.53Z" transform="translate(-109.59 -95.59)"/><path class="cls-53" d="M348.35,197.39l-11.77-24C341.55,175.38,348.38,189.75,348.35,197.39Z" transform="translate(-109.59 -95.59)"/><path class="cls-54" d="M285.55,182v18.29l-1,0V182Z" transform="translate(-109.59 -95.59)"/><path class="cls-55" d="M198.4,167.15,186.84,182.1c-.12-4.29,4-10.22,10.79-15.57Z" transform="translate(-109.59 -95.59)"/><path class="cls-56" d="M329.61,180.61c2.37,4.7,4.61,9.45,5.6,14.69l-1.29.51q-2.85-7.34-5.69-14.66Z" transform="translate(-109.59 -95.59)"/><path class="cls-57" d="M210.89,172.52l-3.62,12.64C205.42,181.57,206.38,177.5,210.89,172.52Z" transform="translate(-109.59 -95.59)"/><path class="cls-58" d="M186.91,168.44a15.34,15.34,0,0,1-7.86,7.6A18.42,18.42,0,0,1,186.91,168.44Z" transform="translate(-109.59 -95.59)"/><path class="cls-59" d="M229,175.13V184h-1v-8.78Z" transform="translate(-109.59 -95.59)"/><path class="cls-60" d="M270.28,189.53l.49-7.58,1,.09v7.68Z" transform="translate(-109.59 -95.59)"/><path class="cls-61" d="M264.49,182.14c-.5,2.21-.83,3.62-1.22,5.36C261.54,184.83,261.54,184.83,264.49,182.14Z" transform="translate(-109.59 -95.59)"/><path class="cls-62" d="M208.68,256.89c.65.42,1.57,1.36,1.92,1.18,5.05-2.6,10.43-1.08,15.61-1.17,3.67-.06,7.36,1,11,1.57l-2.88,1.2-1.18,1.2c-2.93-.7-5.44-.37-6.83,2.75l.12,2v0l1.34,1.79a.46.46,0,0,1,.62.27c.94,2,1.89,3.93,2.93,6.07-3,0-3,1.75-2.89,3.62-.55,3-2.8,4.35-5.47,4.53-4.16.28-6.31-2.71-8-6.25-3.08,5.87-2.7,7.39,2.6,11.51l0,1.19a12.86,12.86,0,0,1-9.5-7.53,33.39,33.39,0,0,1,.52-20.73C209,259.14,208.7,258,208.68,256.89Zm16,15.48,0-5.79a.92.92,0,0,1-.21-.74l-1.09-1.16c-3.48,2.8-3.68,5.4-.11,10.25C223.78,274,224.24,273.18,224.69,272.37Z" transform="translate(-109.59 -95.59)"/><path class="cls-63" d="M252.78,259.91l-1.11-2.05,1.63-1.31-1.33-.73,1.53-1.73a65.6,65.6,0,0,0-19.88-3.32q-.24-.36-.51-.72l2.3-.5-.22-.82-3.79,1.18-33.21-.9-1-1c.27-2.72.53-5.43.8-8.14l.42,4.94,1.74-2.9c1.76,6.41,6.3,6.35,11.21,6.18,4.15-.15,8.5-1.7,12.51.84a1.55,1.55,0,0,0,1,0q8.64-1.35,17.27-2.73l5,1.73-.55.61,1.38-.37,7.18,3.52-.62.61c.21.08.58.27.61.23a10.67,10.67,0,0,0,.59-1.11c-1-1.13-1.7-2.64-2.91-3.3-2.81-1.55-5.85-2.7-8.8-4,3.13.19,5.19-1.62,5.32-4.37s-2.47-3.26-4.85-3.53a37.54,37.54,0,0,1-4.63-1.11l.38-1.79.93-.9,8.92,1.83-1.33.4c.16.18.36.55.46.53.57-.16,1.11-.41,1.67-.62,2,3.42,4.07,6.83,6.38,10.71,1.11-3.54,3.52-7.09,2.63-9.32-1.4-3.49.05-6.28,0-9.35l1.59,1.88q1.74,16.05,3.49,32.1l-2.21-7.27-4.53-2.07Z" transform="translate(-109.59 -95.59)"/><path class="cls-64" d="M322,267.6c-.41,2-.88,4-1.22,6-2,11.7-7.64,18.78-19.57,18.28a8.19,8.19,0,0,1-2.55-1v0l2-.85c5.48-4.21,6-10.5,7-16.6l.63-7.87-1.58.38.1-.14-1.12.95,0,0-3.4,0-1-1,5.36-3.15,0,0,.59.57.16-.87,15-.53Z" transform="translate(-109.59 -95.59)"/><path class="cls-64" d="M249.91,266.53a31.12,31.12,0,0,1-3.9,17.61c-1.3,2.29-3.91,4.83-6.31,5.29-3.93.76-8.17-.08-12.29-.24a11.43,11.43,0,0,0,7.91-10c.53-4.44.59-8.94.86-13.42,0-2.38.84-3.71,3.44-2.82C243.06,264.1,246.48,265.33,249.91,266.53Z" transform="translate(-109.59 -95.59)"/><path class="cls-65" d="M301.35,265.7l1,1,3.4,0,0,0,1.12-.95-.1.14c.31,2.5.63,5,.95,7.49-1,6.1-1.55,12.39-7,16.6l-2,.85v0l-3.7-.95,1-.88c6.88-.88,9.79-6.81,6.76-11.92-1.57,1.62-3,4.18-5.14,5-2.29.9-4.07-1.24-4.79-3.67l-.57-2.62-1.2,1.55a3.32,3.32,0,0,1-.21.88l-1.69,2c-1.54-5.85-2.09-11.7-.09-17.56,1.11-.09,2.46.21,3.27-.32,4-2.6,8.17-1.75,12.38-1C302.25,261.78,299.71,262.18,301.35,265.7Zm-4.52,8.82c2.71-3.83,2.65-5.77-.3-8.84C295.44,268.74,295.07,271.53,296.83,274.52Z" transform="translate(-109.59 -95.59)"/><path class="cls-66" d="M304.66,261.27c-4.21-.71-8.38-1.56-12.38,1-.81.53-2.16.23-3.27.32L286.4,262c.15-1.82,2-4.19-2.14-5.79a168.15,168.15,0,0,1,44.39-2c-1.71,4.57-3.17,8.44-4.62,12.32l-1.64-4.79-15,.53a.73.73,0,0,0-.75.3l0,0Z" transform="translate(-109.59 -95.59)"/><path class="cls-67" d="M236.18,265.74c-.27,4.48-.33,9-.86,13.42a11.43,11.43,0,0,1-7.91,10l-2.84-.1a5.14,5.14,0,0,0,0-.88c6.84-3.56,8.25-6.72,5.44-12.62l-1.56,1.77c-.12-1.87-.09-3.63,2.89-3.62-1-2.14-2-4.1-2.93-6.07,2.61.34,5.22.68,6.82-2.16A3.12,3.12,0,0,1,236.18,265.74Z" transform="translate(-109.59 -95.59)"/><path class="cls-68" d="M208.68,256.89c0,1.07.36,2.25,0,3.19a33.39,33.39,0,0,0-.52,20.73l-.25.41c-2.47-1.66-4.74-7.56-4.17-10.79l1.06.35-.61-2.4c-.53-3.58-1.05-7.15-1.61-10.95Z" transform="translate(-109.59 -95.59)"/><path class="cls-69" d="M236.18,265.74a3.12,3.12,0,0,0-.91-.23c-.26-1.06-.53-2.12-.79-3.17l-.11-2.67,2.88-1.2L250,260.7l-.09,5.83c-3.43-1.2-6.85-2.43-10.29-3.61C237,262,236.15,263.36,236.18,265.74Z" transform="translate(-109.59 -95.59)"/><path class="cls-70" d="M285.26,240.31l-1.95,9.91-5-2.2,5.86-8.79Z" transform="translate(-109.59 -95.59)"/><path class="cls-71" d="M301.67,235.19c-1.66-.35-3.32-.7-5-1.08-.07,0-.15-.29-.12-.41a1.17,1.17,0,0,1,.3-.38c5.41,0,10.82-.06,16.24,0,1.46,0,2.51-.2,2.43-2,.26,1.33.53,2.66.8,4Z" transform="translate(-109.59 -95.59)"/><path class="cls-72" d="M253.15,320.39c5.09-2.59,10.45-2.27,16.31-2.11C267.34,320,258.21,321.18,253.15,320.39Z" transform="translate(-109.59 -95.59)"/><path class="cls-73" d="M295.94,289l-1,.88c-4.53-1.66-5.29-5.61-5.84-9.67l1.69-2C290.35,282.83,291.67,286.61,295.94,289Z" transform="translate(-109.59 -95.59)"/><path class="cls-74" d="M281.66,322.11l-9.39-2.28c.1-.42.19-.84.29-1.26a14.76,14.76,0,0,1,9.35,2.45Z" transform="translate(-109.59 -95.59)"/><path class="cls-75" d="M224.61,288.21a5.14,5.14,0,0,1,0,.88l-6.89-.75,0-1.19Z" transform="translate(-109.59 -95.59)"/><path class="cls-76" d="M322.39,261.68c.55,1.59,1.09,3.19,1.64,4.79L322.55,270c-.3-1.26-.44-1.85-.57-2.44Z" transform="translate(-109.59 -95.59)"/><path class="cls-77" d="M274.5,294.76l.9,3.45-1.43.38-.83-3.47Z" transform="translate(-109.59 -95.59)"/><path class="cls-78" d="M293.06,245.17l-2.39,1.34-.56-.43c.53-.75,1.07-1.49,1.61-2.23Z" transform="translate(-109.59 -95.59)"/><path class="cls-79" d="M204.21,268.38l.61,2.4-1.06-.35a1.85,1.85,0,0,1,.2-.83Z" transform="translate(-109.59 -95.59)"/><path class="cls-70" d="M282.9,251l.32,1.9Z" transform="translate(-109.59 -95.59)"/><path class="cls-70" d="M276,250.8l1.11-1.29Z" transform="translate(-109.59 -95.59)"/><path class="cls-70" d="M277.54,249l.76-.89Z" transform="translate(-109.59 -95.59)"/><path class="cls-16" d="M242.13,246.2q-8.64,1.37-17.27,2.73a1.55,1.55,0,0,1-1,0c-4-2.54-8.36-1-12.51-.84-4.91.17-9.45.23-11.21-6.18l-1.74,2.9-.42-4.94c-.5-5.56,3-9.67,5.26-14.19a48.63,48.63,0,0,1,3.46-5.18c3.68-3.57,7.27-7.24,11.07-10.67,2.33-2.1,5-3.83,7.5-5.72,1.69,8.45,3.91,16.72,8,24.36l-24.87-2.23c.18,1.31.5,1.81.86,1.85,7,.77,14.08,1.49,21.11,2.23,2.77.37,5.33,1,7,3.63.4.64,1.57.8,2.39,1.18a37.54,37.54,0,0,0,4.63,1.11c2.38.27,5,.84,4.85,3.53s-2.19,4.56-5.32,4.37l-5.11-.39-.12,1Z" transform="translate(-109.59 -95.59)"/><path class="cls-80" d="M315.54,231.34c.08,1.77-1,2-2.43,2-5.42-.05-10.83,0-16.24,0q3-9.75,5.95-19.5c.73.2,1.71.17,2.15.64,2.51,2.66,4.88,5.44,7.3,8.18Z" transform="translate(-109.59 -95.59)"/><path class="cls-81" d="M243.38,208.64c2.09,7.61,4.18,15.21,6.4,23.31l-9.59-1.89A56.76,56.76,0,0,1,243.38,208.64Z" transform="translate(-109.59 -95.59)"/><path class="cls-82" d="M225.31,204.09c-2.51,1.89-5.17,3.62-7.5,5.72-3.8,3.43-7.39,7.1-11.07,10.67,3.12-4.7,6.2-9.42,9.38-14.08,2.27-3.34,4.67-6.58,7.62-10.72C224.37,199,224.84,201.56,225.31,204.09Z" transform="translate(-109.59 -95.59)"/><path class="cls-83" d="M312.27,222.64c-2.42-2.74-4.79-5.52-7.3-8.18-.44-.47-1.42-.44-2.15-.64l1.65-9.34,1.14-.26Z" transform="translate(-109.59 -95.59)"/><path class="cls-84" d="M230.45,230.3c-7-.74-14.07-1.46-21.11-2.23-.36,0-.68-.54-.86-1.85l24.87,2.23c-.17.35-.25.86-.52,1A21,21,0,0,1,230.45,230.3Z" transform="translate(-109.59 -95.59)"/><path class="cls-85" d="M293.62,236.51c-2.47,4-4.38,7.06-6.8,11C287.18,238.06,287.34,237.77,293.62,236.51Z" transform="translate(-109.59 -95.59)"/><path class="cls-86" d="M255.78,239.63,253.86,236C256.59,236,256.59,236,255.78,239.63Z" transform="translate(-109.59 -95.59)"/><path class="cls-87" d="M261.47,228.48l-1.59-1.88v-2.3l.78-.15Z" transform="translate(-109.59 -95.59)"/><path class="cls-88" d="M319.48,237.6c.1-.61.19-1.23.29-1.85l1.16.24c-.25.6-.51,1.2-.77,1.81Z" transform="translate(-109.59 -95.59)"/><path class="cls-16" d="M231.4,249.91l3.79-1.18.22.82-2.3.5Z" transform="translate(-109.59 -95.59)"/><path class="cls-89" d="M285.26,240.31l-1.07-1.08,1.12-2.38.79.23Z" transform="translate(-109.59 -95.59)"/><path class="cls-16" d="M250.87,234.56c-.56.21-1.1.46-1.67.62-.1,0-.3-.35-.46-.53l1.33-.4A.58.58,0,0,1,250.87,234.56Z" transform="translate(-109.59 -95.59)"/><path class="cls-16" d="M197.22,248l1,1Z" transform="translate(-109.59 -95.59)"/><path class="cls-16" d="M241.15,232.42l-.93.9Z" transform="translate(-109.59 -95.59)"/><path class="cls-90" d="M239.53,333.8c2.53.63,5.64-1.21,7.61,1.8-2.62-.26-5.23-.51-7.84-.78-.09,0-.24-.24-.21-.3A5,5,0,0,1,239.53,333.8Z" transform="translate(-109.59 -95.59)"/><path class="cls-16" d="M252,255.82l1.33.73-1.63,1.31Z" transform="translate(-109.59 -95.59)"/><path class="cls-91" d="M250.78,341.89c-.32-1-.63-2-1.12-3.5l10.07,1.31.84.58.12,3.45Z" transform="translate(-109.59 -95.59)"/><path class="cls-31" d="M260.57,340.28l-.84-.58Z" transform="translate(-109.59 -95.59)"/><path class="cls-92" d="M224.61,288.21l-7-1.06c-5.3-4.12-5.68-5.64-2.6-11.51,1.65,3.54,3.8,6.53,8,6.25,2.67-.18,4.92-1.49,5.47-4.53l1.56-1.77C232.86,281.49,231.45,284.65,224.61,288.21Z" transform="translate(-109.59 -95.59)"/><path class="cls-93" d="M234.48,262.34c.26,1.05.53,2.11.79,3.17-1.6,2.84-4.21,2.5-6.82,2.16a.46.46,0,0,0-.62-.27l-1.34-1.79v0l-.12-2c1.39-3.12,3.9-3.45,6.83-2.75Z" transform="translate(-109.59 -95.59)"/><path class="cls-94" d="M224.45,265.84a.92.92,0,0,0,.21.74l0,5.79c-.45.81-.91,1.61-1.44,2.56-3.57-4.85-3.37-7.45.11-10.25Z" transform="translate(-109.59 -95.59)"/><path class="cls-67" d="M224.69,272.37l0-5.79Z" transform="translate(-109.59 -95.59)"/><path class="cls-95" d="M234.48,262.34l-1.29-1.47,1.18-1.2Z" transform="translate(-109.59 -95.59)"/><path class="cls-67" d="M226.49,265.61l1.34,1.79Z" transform="translate(-109.59 -95.59)"/><path class="cls-67" d="M226.36,263.62l.12,2Z" transform="translate(-109.59 -95.59)"/><path class="cls-67" d="M224.45,265.84l-1.09-1.16Z" transform="translate(-109.59 -95.59)"/><path class="cls-96" d="M242.13,246.2l-3.36-1.45.12-1,5.11.39c2.95,1.3,6,2.45,8.8,4,1.21.66,1.95,2.17,2.91,3.3a.9.9,0,0,0-.58.27L248,248.17a.85.85,0,0,0-.83-.24Z" transform="translate(-109.59 -95.59)"/><path class="cls-16" d="M255.13,251.69a.9.9,0,0,1,.58-.27,10.67,10.67,0,0,1-.59,1.11s-.4-.15-.61-.23Z" transform="translate(-109.59 -95.59)"/><path class="cls-16" d="M247.12,247.93a.85.85,0,0,1,.83.24l-1.38.37Z" transform="translate(-109.59 -95.59)"/><path class="cls-97" d="M304.66,261.27l2,1.28-5.36,3.15C299.71,262.18,302.25,261.78,304.66,261.27Z" transform="translate(-109.59 -95.59)"/><path class="cls-97" d="M307.69,273.38c-.32-2.5-.64-5-.95-7.49l1.58-.38Z" transform="translate(-109.59 -95.59)"/><path class="cls-97" d="M305.76,266.66l-3.4,0Z" transform="translate(-109.59 -95.59)"/><path class="cls-16" d="M298.64,290.83l2-.85Z" transform="translate(-109.59 -95.59)"/><path class="cls-97" d="M306.84,265.75l-1.12.95Z" transform="translate(-109.59 -95.59)"/><path class="cls-97" d="M306.66,262.51a.73.73,0,0,1,.75-.3l-.16.87Z" transform="translate(-109.59 -95.59)"/><path class="cls-98" d="M295.94,289c-4.27-2.37-5.59-6.15-5.15-10.77a3.32,3.32,0,0,0,.21-.88l1.77,1.07c.72,2.43,2.5,4.57,4.79,3.67,2.12-.83,3.57-3.39,5.14-5C305.73,282.17,302.82,288.1,295.94,289Z" transform="translate(-109.59 -95.59)"/><path class="cls-99" d="M296.83,274.52c-1.76-3-1.39-5.78-.3-8.84C299.48,268.75,299.54,270.69,296.83,274.52Z" transform="translate(-109.59 -95.59)"/><path class="cls-100" d="M292.77,278.4,291,277.33l1.2-1.55Z" transform="translate(-109.59 -95.59)"/></svg>
