<svg xmlns="http://www.w3.org/2000/svg" width="390" height="95"><path d="M344 2l.611 2.056.25 1 .278.944.222 1 .278 1 .222 1 .278 1 .5 2 .222 1 .278 1 .5 2 .222 1 .278 1 .472 2 .195 1 .388 2 .195 1 .472 2 .278 1 .222 1 .25 1 .195 1 .388 2 .195 1 .472 2 .278 1 .222 1 .25 1 .195 1 .194 1 .417 2 .277 1 .612 2 .277 1 .223 1 .388 2 .195 1 .25 1 .222 1 .278 1 .472 2 .195 1 .388 2 .5 2 .612 2 .277 1 .334 1.944L359 66.5V68l.75-.778.083-.528.334-.805.444-1.889.306-2 .166-2 .306-2 .222-1 .306-2 .055-1 .111-2 .306-2 .417-2 .388-2 .195-1 .222-1 .195-1 .388-2 .195-1 .389-2 .139-1 .111-2 .055-1 .306-2 .222-1 .195-1 .388-2 .195-1 .389-2 .139-1 .055-1 .111-2 .139-1 .389-2 .195-1 .388-2 .195-1 .222-1 .306-2 .055-.944.028-1V7l-2.056-.583L365 6l-2-.389-1-.222-2-.333-1-.112-2-.333-2-.417-2-.388-1-.195-1-.222-1-.195-2-.388-.944-.195-1.556-.361L344 2m-57 2l-1.5.806-.556.166-1 .361-1.944.473-2 .388-1.944.417-.556.139L276 7v9l.028 1 .055 1 .306 2 .222 1 .306 2 .055 1 .028 2v31l.083 2 .139 1 .389 2 .306 2 .055 1 .028 2v9h7l1.972-.028.917-.083.778-.167.972-.583L290 74l1.5.25 1.556.361 1.944.222 1-.083 2-.389 2-.528 1-.305 2-1.028 1-.75.972-.833.945-.945L307.528 68l1.194-2 .417-1 .694-2 .306-1 .222-1 .25-1 .306-2 .055-1 .028-1v-6l-.028-2-.055-1-.306-2-.222-1-.389-2-.417-2-.277-1-.723-2-1.083-1.972-.75-.945-1.778-1.583-1.972-1-2-.417-2-.083h-1l-2 .083-2 .334-1 .277-1.944.612-1 .277-.556.167-1.5.25V9l-.028-1.972-.028-.917-.194-.805-.028-.528L287 4M26 12l-1 1v68h14V62l.111-2 .611-2 .611-1 .778-1L43 54l1.944-1.944L48 49l.083 1.5.334 1.556.277.944.612 2 .305 1 .528 2 .25 1 .305 1 .612 2 .305 1 .528 2 .25 1 .305 1 .612 2 .305 1 .528 2 .25 1 .305 1 .612 2 .305 1 .25 1 .528 1.944L57 82h12l-.028-1.5-.194-1.556L68.61 78l-.472-2-.278-1-.25-1-.305-1-.612-2-.305-1-.528-2-.25-1-.305-1-.612-2-.305-1-.528-2-.222-1-.25-1L63 57l-.222-1-.25-1-.695-2-.389-1-.583-2-.222-1-.278-1-.222-1-.528-2-.305-1-.528-2-.111-1 .055-1 .806-2 .722-1 .833-1L63 34l2-2 1.917-2 .86-1 .834-1 1.611-2L72 24l.889-.944.805-1 .528-.556L75 20l-1.5-.972-.556-.195-1-.472-.944-.333-1-.361-1-.334-2-.722-1.944-.805-.556-.306L63 15l-2.056 2.056-1 1L58 19.972l-1 .945-2 1.694-1 .778-2 1.694-1 .945L49 28l-2 2-8 8V10h-1.5l-.556.028-1.944.194-1 .195-1 .277L32 11l-2 .583-.944.195-1.556.194L26 12m291 14l.278 1.5.194.556.722 1.944.806 1.944.194.556L320 34l1.5-.083.556-.14 1-.166.944-.222 2-.306 1-.027 1 .027 1.944.306 1.556.361 1.5.25v7l-1.5.028-1.556.222-.944.222-2 .722-1 .445-2 .917-1 .527-2 1.334-1.917 1.666L317.472 49l-.611 1-.583 1-.417 1-.694 2-.306 1-.472 2-.306 2-.055 1-.028 2v2l.028 1 .055 1 .389 2 .806 2 1.194 1.972.778.945 1.778 1.583L321 75.583l2 .723 1 .277 2 .334 2 .083h16V37l-.028-2-.055-1-.334-2-.305-1-.389-1-1.195-1.972-.805-.945L339 25.5l-2-1.083-2-.723-1-.277-2-.334-2-.083-2 .083-1 .14-2 .388-2 .389-2 .472-1.944.722-.556.306-1.5.5M212 61h-12l.083 2.056.389 1.944.806 2 1.194 2 .778.972.833.917L206 72.36l1 .528 1 .417 1 .36 1 .334 2 .583 1 .195 1 .139 2 .083 2-.028 1-.055 2-.306 1-.222 2-.389 1-.222 1-.278 2-.917 1.917-1.277 1.583-1.528 1-1.806.417-1.972.055-1 .028-2v-1l-.083-2-.167-1-.25-1-1-1.917-1.583-1.666-.945-.723-.972-.666-2-1.14-1-.471-1-.39-2-.61-2-.361-1-.112-1-.194-1-.222-1-.39-1-.416-2-1.194-1.889-1.611L209.722 44l-.389-.944-.305-1.556L209 40l2.056-.722 1-.195.944-.11 1.972.61 1.695 1.445.972 1.472L218 44h12l-.25-1.5-.167-.556-.277-1-.723-1.944-1.083-2-1.583-1.972-.945-.945-1.972-1.61-1-.612-2-1-1-.389-1-.222-1-.167-2-.083h-5l-2 .083-2 .39-1 .388-2 .917-1.917 1.083-.861.611-1.5 1.611-.611.945-.472.972-.528 2-.111 2 .028 2 .055 1 .389 2 .389 1 .417 1 1.194 1.917.778.833.833.778L203 52.722l2 .89 1 .36 2 .64 2 .527 1 .25 1 .305 2 .64 2 .777 1 .528.972.667 1.695 1.722.889 1.972v1l-.306.972-.583.917-.778.75-.917.528h-1.944l-.945-.528-1.583-1.611-.583-.972-.389-.556L212 61m-88-30l-1.5.722-.556.028-1 .194-1.944.14-1.944.305-1.556.361-1.5.25v16l.028 2 .055 1 .306 2 .222 1 .306 2 .055 1 .028 2v16h12V59l-.028-2-.055-1-.306-2-.222-1-.306-2-.055-.944-.028-1V47l1.5-.25 1.556-.361 1.944-.222 2 .333 1 .444.972.556.917.75 1.389 1.778.694 1.972.417 2 .222 1 .333 2 .112 1 .333 2 .222 1 .306 2 .055 1 .028 2v10h13l-.611-2.056-.25-1-.278-.944-.472-2-.195-1-.388-2-.417-2-.306-2-.166-2-.306-2-.25-1-.222-1-.278-1-.222-1-.417-2-.222-2-.25-2-.222-1-.361-1-.806-2-1-1.972-.667-.945-1.722-1.583-.972-.556-1-.444-2-.417-2-.083h-3l-2 .028-1 .055-2 .306-.944.222-1 .167-.556.139L125 40v-4l-.028-1.972-.028-.917-.194-.805-.028-.528L124 31m44 1.472l-1 .39-1 .416-1 .555-2 1.195-1.972 1.389-.945.805-.861.861-.805.945-.723.972-1.305 2-.556 1-.972 2-.417 1-.277 1-.528 2-.25 1-.306 2-.083 2v2l.083 2 .306 2 .25 1 .5 2 .25 1 .694 2 1 2 1.334 2 .805.972.861.945 1.917 1.61 2 1.223 1 .472 2 .917 1 .389 2 .389 2 .083h4l2-.083 1-.14 2-.471 2-.695 1-.444 1-.445 2-1.194 2-1.611L189.972 70l.945-1 1.583-2 1.083-2 .389-1 .639-2 .25-1 .5-2 .25-1 .306-2 .055-1-.055-2-.306-2-.25-1-.222-1-.583-2-.834-2-.555-1-1.195-2-1.389-1.972-.805-.945-.861-.86L187 36.693l-1-.666-1-.64-1-.555-2-1.055-1-.528-1-.389-1-.389-1-.222-1-.167-2-.083h-3l-2 .083-1 .167-1 .222M235 34v3.056l.028 1.944.055 1 .306 2 .222 1 .306 2 .083 2v3l.028 2 .055 1 .306 2 .222 1 .306 2 .055 1 .028 2 .028 1 .055 1 .306 2 .25 1 .25 1 .805 1.972.639.945 1.695 1.583.972.556 1 .444 2 .417 2 .055 1-.055 2-.306 1-.222 2-.333 1-.112 1.944-.36L258 71l.361 1.139.972.583.778.167L262 73h7l.083-1.5.139-.556.167-1 .222-.944.306-2 .055-1 .028-2 .028-2 .055-1 .306-2 .222-1 .306-2 .055-1 .028-2v-3l.083-2 .306-2 .222-1 .306-2 .055-1 .028-1v-7h-12v5l-.028 2-.055 1-.306 2-.222 1-.306 2-.083 2v3l-.028 2-.055 1-.306 2-.222 1-.306 2-.055.944-.028 1V64l-1.5.25-.556.139-1 .222-1.944.278-2-.222-1.972-1-.917-.778-.778-.917-.611-.972-.389-1-.305-2-.028-1v-9l.028-1 .055-1 .306-2 .222-1 .306-2 .055-1 .028-2v-4h-12M84 35.417l-2 .61-2 .806-1 .445-2 1.194-1 .778-1.972 1.778-.945.972-1.666 2-1.334 2-.527 1-.917 2-.445 1-.722 2-.222 1-.167 1L67 56l.028 2 .055 1 .306 2 .25 1 .5 2 .25 1 .694 2 1 2 .64 1 1.5 2 1.805 1.917.972.833 1 .778 1 .61 1 .612 1 .472 2 .945 1 .444 2 .695 1 .277 2 .334 1 .055L89 80l2-.083 2-.306 1-.222L96 79l1-.222 1-.278 2-.972 1.972-1.39 1.806-1.527 1.528-1.694.666-.945L107.167 70l.555-1 .889-2 .361-1 .611-2 .334-2 .083-2v-2l-.028-2-.055-1-.306-2-.472-2-.306-1-.277-1-.417-1-.917-2-1.083-2-.611-1-1.611-1.972-.945-.945-1.972-1.61-1-.612-2-1.083-2-.917-1-.389-2-.389L91 35h-3l-2 .083-2 .334M289 62V48l.028-2 .305-1.972.389-.917.611-.778.778-.61L293 41.11h2l1 .222.972.39 1.722 1.388L299.889 45l.389 1 .305 1 .334 2 .083 2v3l-.028 2-.055 1-.389 2-.389.972-.417.945-1.194 1.583-1.611 1-1.917.389h-1l-1.944-.333-1-.417-.556-.167L289 62M172 42.25l2-.222h1l1 .055 2 .417 1.917 1 .833.75.778.833L182.722 47l.806 2 .222 1 .167 1 .083 2v1l-.083 2-.167 1-.222 1-.389 1-.417 1-1.194 1.972-.778.945-1.778 1.583-.972.556-2 .694-2 .222h-1l-2-.305-.972-.39-1.778-1.388L166.917 62l-.5-1-.723-2-.277-1-.334-2-.083-2 .083-2 .389-2 .389-1 .917-2 .472-.972 1.222-1.778 1.611-1.306L172 42.25m-85 2l2-.139 2 .389 1.917 1 1.61 1.583.612.945L96.222 50l.917 2 .389 1 .389 2 .055 1-.055 2-.306 2-.5 2-.722 2-.5.972-1.306 1.778-1.666 1.306L91 68.75l-2 .194-1-.027-2-.417-1.972-1-1.778-1.583-.778-.945-.61-.972-.584-1-.806-2-.389-2L79 57v-1l.083-2 .167-1 .222-1 .39-1 1-2 .61-.972 1.611-1.778.945-.75 1.972-1 1-.25M334 50v2.056l-.028 1-.055.944-.306 2-.222 1-.306 2-.055 1-.028 1v8h-1.5l-1.556-.028-.944-.083-1.972-.611-1.778-1.39-.75-.916-1-1.972-.417-2v-2l.334-2 .611-2 .389-1 1.083-1.972 1.583-1.695 1.917-1 1-.222.944-.083 1-.028H334m20 24l-.5 1.5-.333.556-.417 1-.5.944-.778 1.944-.389 1.556L351 83l1.5.694.556.39 1 .61L356 85.89l1 .444 1 .25h1l2-.666.944-.528 1-.5.556-.361L365 84l-.028-1.5-.194-1.556-.195-.944-.277-1-.667-1.944-.472-1-.195-.556L362 74h-8z" fill="#fff"/></svg>