<svg id="Layer_1" data-name="Layer 1" xmlns="http://www.w3.org/2000/svg" viewBox="0 0 347.98 288.42"><defs><style>.cls-1{fill:#fff}.cls-10{fill:#474042}.cls-11{fill:#c14449}.cls-17{fill:#5c424a}.cls-23{fill:#615341}.cls-24{fill:#84383a}.cls-32{fill:#423638}.cls-33{fill:#583e44}.cls-36{fill:#733736}.cls-37{fill:#573d43}.cls-38{fill:#b04044}.cls-40{fill:#b64245}.cls-43{fill:#903b3c}.cls-46{fill:#963c3e}.cls-51{fill:#665155}.cls-53{fill:#4b393a}.cls-68{fill:#d6ab58}.cls-70{fill:#665356}.cls-75{fill:#6e3f36}.cls-76{fill:#91744a}.cls-85{fill:#675155}.cls-91{fill:#e9a052}.cls-92{fill:#e39c50}.cls-99{fill:#b77f45}.cls-106{fill:#d7934c}.cls-125{fill:#c2b1a2}.cls-127{fill:#bf4448}.cls-130{fill:#d3a957}.cls-137{fill:#513f42}.cls-140{fill:#514144}.cls-144{fill:#873738}.cls-145{fill:#7f6b5e}.cls-155{fill:#423735}.cls-160{fill:#b89d8d}.cls-164{fill:#ebc3a6}.cls-178{fill:#a9373a}.cls-179{fill:#803b39}.cls-183{fill:#443739}</style></defs><path class="cls-1" d="M193.18 383.61c-5.68.06-11.37.17-17.05.17H78c3.27-5.44 6.26-10.56 9.39-15.6q16.85-27.07 33.79-54.11c7.56-12 15.31-23.93 22.94-35.9a5.45 5.45 0 00.38-1.81l1-1c11.8 1.07 23.6 2.16 35.41 3.18 2.64.23 3.47 1.81 3.9 4.14a63.09 63.09 0 009.19 23.45 14.25 14.25 0 011.88 5.95c1.82 14.34 3.38 28.7 5.29 43 .65 4.81.42 9.23-1.78 13.66-2 3.91-3.4 8.08-5.06 12.13-.33.93-.75 1.84-1.15 2.74zM359.18 275.58l-3.95 1.22 66.93 106.91h-98.85l-2.1-2.71c-4.84-7.67-9.79-15.28-14.43-23.07a14.35 14.35 0 01-1.91-6.8c-.25-15.33 2.32-30.34 5.81-45.19.82-3.48 2.7-6.71 4.53-11.13l4.8 8.7c1.8-2.59 3.07-4.43 4.35-6.26q3.43-7.17 6.89-14.32c.89-1.85 1.84-3.68 2.76-5.53l24.36-2.14a.78.78 0 00.76.4z" transform="translate(-78 -95.37)"/><path d="M188.49 153.31c1.77-3.12.21-7.51 3.81-9.93.36.71.71 1.42 1.06 2.13q-1 4.41-1.93 8.82c-.34 5.25.45 10.09 4.84 13.67 2.13 1 4.18 2.6 6.39 2.87 12.33 1.53 24.56-6.46 28.87-18.52 3.37-4.84 3.7-10.43 2.47-15.75-1-4.27-3-8.73-8.36-9.69l-10.8-.94c-1.69-2.57 0-3.77 2-4.87.23 2.56 2.21 1.87 3.71 1.94 6.52.29 14.13 5.73 15.21 10.36 2.16 9.31 1 18-4.74 25.64-2.94 3.92-6.55 7.35-10 11.14 2.33.63 5.16.59 6.72 2 3 2.71 6.36 2.77 9.95 2.66 2.93-.08 5.87-.16 8.79 0 3.72.22 7.1-.08 9.52-3.47a3.61 3.61 0 012.45-1.35c5.12-.24 10.24-.24 15.36-.46a23.68 23.68 0 004.35-1.17c-1.61-1.32-2.31-1.93-3-2.5-8.88-7-14.57-15.35-12.43-27.37 1.82-10.24 13.68-18.91 24.14-17.3 9.27 1.42 17.37 5.21 23.34 12.7 3.85 4.83 6.52 10.83 5.95 16.57-1.22 12.22-8.44 19.95-21.67 21.39-1 .11-2.05.34-3.07.51l-.29 1.09c1.61.77 3.15 1.87 4.84 2.25 5 1.13 10.1 2.06 15.19 2.86a6.74 6.74 0 003.65-.78c2.57-1.21 5-2.64 7.52-4l1 4.76c-2.11 0-4.87-.76-6.21.28-2.85 2.21-5.5 1.83-8.58 1.34-4.89-.79-9.83-1.21-14.75-1.79l-.23 1.27 2.36 1c-.81.3-2.05 1.1-2.35.83-1.62-1.45-3-3.16-4.49-4.78.36-3.58-2.16-4.33-4.82-4.83a25.13 25.13 0 00-5.74-.76c-8.51.4-18-3.21-24.57 5.58l-5.84 2-6.82 1-3.55 1.76 2.54-4.76h-10.74l-3-2.88c-.54-.32-1.11-1-1.6-.9-8.26 1.07-16.52 2.13-24.74 3.47a5.09 5.09 0 00-3.05 2.76 5.83 5.83 0 01-5.11 3.74 48.69 48.69 0 00-6.52 1.66c-1.23-1.45-3.33-2.71-1-4.88a20.41 20.41 0 001.2 2.68c3.12-1 6.45-1.65 9.16-3.34 1.76-1.11 2.59-3.7 3.66-5.35-2.38-2.69-4.71-5.49-7.25-8.07-.56-.57-1.87-.39-2.84-.55l1.34-3c1.39-2.93.77-6.99-1.3-8.74zm115.24-22.46c-7.6-6.7-16.4-8.44-26-6-1.89.49-3.52 2-5.27 3a21.31 21.31 0 003.91 35.37c6.59 6.48 20.25 7.68 28.32 2.75 4.63-1.15 5.75-5.39 7.78-8.83 2.11-6.43.92-12.51-2-18.41-2.77-1.86-4.42-5.71-8.69-4.95-.28-1.57 4.05-.12 1.95-2.93z" transform="translate(-78 -95.37)" fill="#4d3436"/><path d="M194.37 380.9c1.66-4 3.1-8.22 5.06-12.13 2.2-4.43 2.43-8.85 1.78-13.66-1.91-14.33-3.47-28.69-5.29-43a14.25 14.25 0 00-1.88-5.95 63.09 63.09 0 01-9.22-23.43c-.43-2.33-1.26-3.91-3.9-4.14-11.81-1-23.61-2.11-35.41-3.18l-11-1c-14-1.25-28-2.64-42-3.65-3.47-.26-5-1.52-5.15-5l8.38-5 2.79.93c-2.71 2.45-2.93 3.85-.94 5.89 9.65 1 19.3 2 29 2.9 12.08 1.09 24.18 2 36.27 3.09 5 .45 9.94 1.21 14.9 1.83l8.4 1.3c.41 1.08.9 2.35 1.38 3.62 1 12 6.63 21.53 14.87 29.85-2.14-12.9-5.52-25.51-5.12-38.64l4.77 2.91-2.4 2c.2 2.77.23 5.34.61 7.85.49 3.26 1.26 6.47 1.91 9.7q2.85 12 5.71 24l-1.07.86-7.82-6.5c2.22 17.48 4.31 34 6.41 50.57l1.47.18 4.08-12.51c.33-2 .73-4 1-6 .2-1.78.21-3.57.3-5.36l1.68.06v4.42l-1 10.74c-.61 1.27-1.24 2.54-1.83 3.82-1.92 4.19-1.35 10.25-8.16 10.76-.3 0-.62.72-.79 1.16-1.63 4.15-3.24 8.32-4.85 12.48-1.61.39-2.81.16-2.94-1.77z" transform="translate(-78 -95.37)" fill="#42393a"/><path d="M193.36 145.51l-1.06-2.13c1.8-6.37 6.4-10.77 10.92-15.15a135.91 135.91 0 0112.92-11.45c8.35-6.23 16.56-12.75 26.47-16.52 1.94-.74 3.74-1.84 5.66-2.6 7.74-3.08 15.39-3.28 22.92.78 10.49 5.66 21.21 10.93 31.46 17 5.34 3.16 9.89 7.67 14.8 11.56l7.75 6.82 1 1 8.76 7.84 4.94 4.87q5.9 6.23 11.83 12.41a11.73 11.73 0 001-.78l3.74.1c-1.76 3.24-5.48 2.52-8.11 4L338.7 160c-.09-.47-.13-1.32-.26-1.34-4.76-.49-9.51-1-14.28-1.18-.93 0-1.91 1.7-2.87 2.62.67 2.59 1 5.34 2.09 7.73 2 4.32 4.46 8.42 6.73 12.61-.4 2.07-.79 4.13-1.19 6.2l-1.74-3.19-1-2.83-2.91-2.08-1-4.76a102.49 102.49 0 01-4.9-9.48c-.63-1.57-.84-4 0-5.31 1.85-2.88 4.56-5.1 8.46-4.75 3.53.32 7.06.58 10.58.93 2 .2 4 .53 5.93.8l.62-1c-2.58-2.27-5.18-4.51-7.74-6.81-6.84-6.17-13.63-12.41-20.51-18.54-13.75-12.26-29.85-20.81-46.24-28.81-3.06-1.49-7.22-2.69-10.26-1.84a104.89 104.89 0 00-22 8.49c-6.89 3.74-12.93 9-19.34 13.64-2 1.1-3.65 2.3-2 4.87l-5.93 2.88-7.83 4.81c.93 1.84 1.47 2.92 2 4-1.47-.17-3.13-1.18-4.07.93-1.18 1.5-1.1 4-3.84 4.31-.72.1-1.2 1.7-1.84 2.61z" transform="translate(-78 -95.37)" fill="#3c3232"/><path d="M348.37 163.24c2.63-1.48 6.35-.76 8.11-4 6-1.23 10.78 2.52 15.84 4.54 12.66 5.06 19.86 14.8 22.25 28.13.71 3.94 1.38 7.89 1.76 11.87a3.85 3.85 0 01-1.71 3c-.56.34-2.16-.36-2.86-1.05-1.72-1.68-3.18-3.61-4.75-5.44l-1 .67v4.54c.11 3-1.54 4.23-4.09 2.61q-8.51-5.43-16.73-11.29a29.43 29.43 0 01-9.72-11l-3.79-8.88q-1.68-6.86-3.31-13.7zm32.38 27.23l10.58 9.21c.28-7.19-1.57-13.3-4.24-19.17a23 23 0 00-12.23-11.82c-5.7-4.14-12.26-5.64-19.13-6.21-2.6-.21-3.8 1-3.2 3.48 1.1 4.52 2.45 9 3.7 13.48 4.11 12.27 15.16 17 24.52 23.57l.83-.6-.74-4.1c-.35-2-.8-4-1-6-.06-.57.58-1.22.91-1.84z" transform="translate(-78 -95.37)" fill="#514b3f"/><path d="M188.49 153.31c2.07 1.75 2.69 5.81 1.34 8.77l-1.34 3-3.93 14.63c-2.35 2.17-.25 3.43 1 4.88-3.55.89-5.8 2.71-4.85 6.81v.07c-.64 1.29-1.27 2.59-1.91 3.89l.84 2c-2.79 2.45-1.44 5.78-1.86 8.73v5.86c.3 2.92-1.6 4.46-3.76 5.7-4.75 2.72-9.59 5.28-14.33 8q-19.29 11.16-38.53 22.43c-3.29 1.81-7.08 3.1-7.84 7.54l-4.91 2.14-5.72 1.24-.13-3.12c10.88-6.6 21.73-13.24 32.65-19.79 12.13-7.28 24.32-14.46 36.47-21.72.52-.31.82-1 1.22-1.49.6-.35 1.68-.63 1.75-1.07.49-3.23.79-6.49 1.15-9.75-.91-6.65 1.32-12.69 3.48-18.81 3.22-9.1 6.14-18.3 9.13-27.48a8.37 8.37 0 00.08-2.46z" transform="translate(-78 -95.37)" fill="#3e3433"/><path d="M334.93 195.29c3.08 4.69 3.83 10 4.19 15.44a6.13 6.13 0 002.83 4c5.43 3.16 11.14 5.85 16.58 9s10.93 6.72 16.37 10.12q8.84 5.52 17.64 11.07c6.09 3.84 12.16 7.71 18.26 11.53 2.71 1.7 5.47 3.31 8.21 5l4.84 4.63c-3.74.56-6.88 1.07-10 1.5s-6.28.77-9.42 1.16v-.66l3.88-1.39c1.44 0 3.12.39 4.26-.22 1.31-.69 2.15-2.28 3.2-3.48l-1.77-1.15-3.87-2.1-11.71-3.1c.44-.92.88-1.85 1.54-3.22l-4.5-2.42-3.72-2.25-55.83-32.94-1-2 1.18-4.56-4.09-3.17c3.64-3 3.64-3.2 0-5 1.31-1.77-.29-4.99 2.93-5.79z" transform="translate(-78 -95.37)" fill="#3f3534"/><path d="M304.61 383.69l-6.62-.06-15.6-23.5-4-5.78-3-4.78a44.58 44.58 0 00-1.91-4.22c-1.63-2.82-3.39-5.57-5.1-8.35-3.16-5.46-3.14-11.41-2.66-17.43.65-2.48 1.3-5 2.12-8.14 2.56 4 1.42 7.36 1.26 10.71a60.34 60.34 0 00.43 7c10.38 18.83 22.94 36.21 35.41 53.65z" transform="translate(-78 -95.37)" fill="#eabb5f"/><path d="M207.9 383.63l-4.68.07-.32-.95c.87-1.56 1.8-3.08 2.59-4.68q11.92-24.09 23.82-48.21l1.2-.75 1 2.05-3.24 8.55c-4.58 9.45-9.26 18.86-13.73 28.37-2.41 5.1-4.44 10.36-6.64 15.55z" transform="translate(-78 -95.37)" fill="#dcb05b"/><path class="cls-10" d="M408.23 266.65l-3.88 1.35v.66c3.14-.39 6.28-.74 9.42-1.16s6.29-.94 10-1.5l-4.77-4.59c3.4.51 6 1.95 7 6.53-22.31 3.41-44.62 5.07-66.8 7.64l-.05.08c.85-4.53 4.64-3 7.37-3.5 5.09-1 10.22-1.83 15.33-2.73l22.48-2.85z" transform="translate(-78 -95.37)"/><path class="cls-11" d="M219.68 383.71l-9.6-.14 11.61-25.13a20 20 0 01.93 4c.1 5.15 0 10.31 0 15.47z" transform="translate(-78 -95.37)"/><path d="M221.69 358.44l-11.61 25.13-2.18.06c2.2-5.19 4.23-10.45 6.63-15.55 4.47-9.51 9.15-18.92 13.73-28.37l2.86-3c1 3.49 4 1.79 6.09 2.25l1.07.94v1c-5.35-1-9.41.25-10.95 6.1-.07.26-.43.44-.66.66-1.73 3.23-2 7.18-4.92 9.84-.19.16-.06.62-.06.94z" transform="translate(-78 -95.37)" fill="#7d4a3b"/><path d="M294.88 383.64H286l-.81-.88-4-15.53c.28-1-.66-3.27 2-2 3.39 4.85 6.83 9.66 10.14 14.56a19.58 19.58 0 011.55 3.85z" transform="translate(-78 -95.37)" fill="#be4448"/><path d="M294.88 383.64a19.58 19.58 0 00-1.56-3.83c-3.31-4.9-6.75-9.71-10.14-14.56-.62-1.31-1.24-2.62-1.87-3.93l1.08-1.19 15.6 23.5z" transform="translate(-78 -95.37)" fill="#7c4d3d"/><path d="M267.68 383.61h-19.49c.58-3.42 3.69-1.7 5.51-2.51 3.44-1.52 7.27-2.19 10.93-3.21l1.76 3.07-10.73.85.06 1c2.85 0 5.71.12 8.55-.08.77-.06 1.47-1.1 2.2-1.69.4.88.81 1.72 1.21 2.57z" transform="translate(-78 -95.37)" fill="#7d7579"/><path d="M334.93 195.29c-3.22.8-1.62 4-2.89 5.79l-2-3.81 1-1.9-2.13-8.69c.4-2.07.79-4.13 1.19-6.2z" transform="translate(-78 -95.37)" fill="#624c40"/><path class="cls-17" d="M264.63 377.92c-3.66 1-7.49 1.69-10.93 3.21-1.82.81-4.93-.91-5.51 2.51l-2.14-.83H245c.36-.33.66-.83 1.08-1 7.58-2.26 15.18-4.5 22.8-6.65.43-.12 1.07.5 1.61.77-.06.43-.12.86-.17 1.28z" transform="translate(-78 -95.37)"/><path d="M264.63 377.92l5.69-.65.81.81q1.13 2.39 2.27 4.76a2.48 2.48 0 00-.06.77h-5.66c-.4-.85-.81-1.69-1.21-2.54l-.08-.08z" transform="translate(-78 -95.37)" fill="#b6b2b9"/><path d="M321.29 160.14c1-.92 1.94-2.65 2.87-2.62 4.77.13 9.52.69 14.28 1.18.13 0 .17.87.26 1.34-5.81-1.2-11.63-3.39-17.41.1z" transform="translate(-78 -95.37)" fill="#ada9a8"/><path d="M304.61 383.69l.36-.94H318.37c1.38.14 2.87.44 2.84-1.74l2.1 2.71z" transform="translate(-78 -95.37)" fill="#7c7272"/><path d="M245 382.83h1.05c-4.4.32-8.8.83-13.2.91a48.35 48.35 0 01-7.32-.92l.2.13a5.77 5.77 0 01.82-.2z" transform="translate(-78 -95.37)" fill="#c97073"/><path d="M225.53 382.8l-.79.09-2.1-5 2-3.58 1.1.23v8.36z" transform="translate(-78 -95.37)" fill="#502e2e"/><path class="cls-23" d="M102.56 255.83l.13 3.12-3.87 2.92-.29-.23-2.79-.93z" transform="translate(-78 -95.37)"/><path class="cls-24" d="M222.64 377.92l2.1 5-5.06.82z" transform="translate(-78 -95.37)"/><path d="M325.2 133.81l-7.75-6.81z" transform="translate(-78 -95.37)" fill="#989392"/><path d="M134.48 274.39l11 1-1 1z" transform="translate(-78 -95.37)" fill="#b6b2b2"/><path d="M175.8 202c-.36 3.26-.66 6.52-1.15 9.75-.07.44-1.15.72-1.75 1.07.63-3.13 1.23-6.27 1.92-9.39.12-.51.64-.94.98-1.43z" transform="translate(-78 -95.37)" fill="#8d8888"/><path d="M273.34 383.61a2.48 2.48 0 01.06-.77l9.84-.12h2l.81.88z" transform="translate(-78 -95.37)" fill="#817176"/><path d="M202.9 382.75l.32.95-10-.09 1.19-2.71c.13 1.93 1.33 2.16 2.89 1.81z" transform="translate(-78 -95.37)" fill="#79706f"/><path d="M321.21 381c0 2.18-1.46 1.88-2.84 1.74q-4.41-6.8-8.8-13.6l-2.48-4.7-3.36.79a57.69 57.69 0 01-1.94-19.56c.61-7.5 1.29-15 2.12-22.48a73.32 73.32 0 011.69-7.8c2.75-2.89-.26-5.83.07-8.74 1.67-3.28 3.67-6.44 4.94-9.87 1.87-5.07 3.23-10.34 4.81-15.53a13.59 13.59 0 001-2.55c.71-4 1.32-8.05 2-12.08.65 1.58 1.89 3.2 1.82 4.75a27.87 27.87 0 01-1.68 9.39c-2.4 5.72 0 10.21 2.64 15.37l2.1-2.24.91-1 .22 4.32c-1.28 1.83-2.55 3.67-4.35 6.26l-4.8-8.7c-1.83 4.42-3.71 7.65-4.53 11.13-3.49 14.85-6.06 29.86-5.81 45.19a14.35 14.35 0 001.91 6.8c4.57 7.83 9.52 15.44 14.36 23.11z" transform="translate(-78 -95.37)" fill="#3d3434"/><path d="M381.83 269.43c-5.11.9-10.24 1.75-15.33 2.73-2.73.53-6.52-1-7.37 3.5a.78.78 0 01-.76-.4h-8.92c-4.07-2.62-6.52-2.6-9.61.09h-9.23l-1.56 3.88c.29-2.24.4-4.51.89-6.7 1-4.53 1.06-4.39 5.21-2.6a38.24 38.24 0 006.06 1.58l.51-1C337.3 265 333.24 259.17 332 252c.2-.95.45-1.9.57-2.86.19-1.61.29-3.24.44-4.86L335 246c-.44.79-1.45 1.79-1.24 2.32 2.19 5.56 4.21 11.23 7 16.49 3.58 6.79 9.06 8.91 17 7.1s16.02-1.74 24.07-2.48z" transform="translate(-78 -95.37)" fill="#4b3d41"/><path class="cls-32" d="M329.05 279.27l1.56-3.88h6.3l-2.9 2c-.92 1.85-1.87 3.68-2.76 5.53q-3.47 7.15-6.89 14.32l-.22-4.32q2.46-6.81 4.91-13.65z" transform="translate(-78 -95.37)"/><path class="cls-10" d="M334 277.4l2.9-2h2.93l9.61-.09h8.92z" transform="translate(-78 -95.37)"/><path class="cls-33" d="M216.8 121.1c6.41-4.61 12.45-9.9 19.34-13.64a104.89 104.89 0 0122-8.49c3-.85 7.2.35 10.26 1.84 16.39 8 32.49 16.55 46.24 28.81 6.88 6.13 13.67 12.37 20.51 18.54 2.56 2.3 5.16 4.54 7.74 6.81l-.62 1c-2-.27-3.95-.6-5.93-.8-3.52-.35-7.05-.61-10.58-.93-3.9-.35-6.61 1.87-8.46 4.75-.82 1.27-.61 3.74 0 5.31a102.49 102.49 0 004.9 9.48c-2.5 1.35-4.95 2.78-7.52 4a6.74 6.74 0 01-3.65.78c-5.09-.8-10.16-1.73-15.19-2.86-1.69-.38-3.23-1.48-4.84-2.25l.29-1.09c1-.17 2-.4 3.07-.51 13.23-1.44 20.45-9.17 21.67-21.39.57-5.74-2.1-11.74-5.95-16.57-6-7.49-14.07-11.28-23.34-12.7-10.46-1.61-22.32 7.06-24.14 17.3-2.14 12 3.55 20.4 12.43 27.37.73.57 1.43 1.18 3 2.5a23.68 23.68 0 01-4.35 1.17c-5.12.22-10.24.22-15.36.46a3.61 3.61 0 00-2.45 1.35c-2.42 3.39-5.8 3.69-9.52 3.47-2.92-.18-5.86-.1-8.79 0-3.59.11-6.9.05-9.95-2.66-1.56-1.39-4.39-1.35-6.72-2 3.44-3.79 7-7.22 10-11.14 5.75-7.68 6.9-16.33 4.74-25.64-1.08-4.63-8.69-10.07-15.21-10.36-1.42-.01-3.42.65-3.62-1.91z" transform="translate(-78 -95.37)"/><path d="M180.69 191.37c-.95-4.1 1.3-5.92 4.85-6.81a48.69 48.69 0 016.52-1.66 5.83 5.83 0 005.11-3.74 5.09 5.09 0 013.05-2.76c8.22-1.34 16.48-2.4 24.74-3.47.49-.06 1.06.58 1.6.9l-1.29.48c1.26 1.58 2.51 3.17 3.77 4.76l.94-.65-.44-1.71h10.68l-2.54 4.76 3.55-1.76c.38.28.8.87 1.12.82 4.46-.76 7.29 1.73 9.89 4.78a19.13 19.13 0 002 1.71l.6-.57-6.77-7.74 5.84-2c-.15.56-.29 1.12-.71 2.78 2.31-1.35 4.33-1.85 5.1-3.12a6.93 6.93 0 017-3.41c8 .91 16.39-.9 23.75 3.76 1.48 1.62 2.87 3.33 4.49 4.78.3.27 1.54-.53 2.35-.83a6.16 6.16 0 012.35 0c3 1.38 7.05-.53 9.37 3l-12.18-1.31 8.84 14.19 9.16-11-5.83-1.94 5.91-.06 1 3.91c-1.56 1.84-3.23 3.6-4.68 5.53-3.85 5.17-4.5 5.34-9.73 1.86.29 1.25.54 2.28.78 3.32-.34 1.2-.68 2.4-1.13 4-1.94-.13-4.31.13-6.38-.54a7.19 7.19 0 00-7.2 1.41c.11-.88.23-1.75.34-2.63-1.43 1.44-4.95 1.42-3.22 4.66-.55.28-1.1.82-1.63.79-4.68-.22-9.36-.4-14-.88-3.95-.41-7.86-1.2-11.78-1.82l2.34-.2.51-.95c-2.24-1.59-4.39-4.37-6.74-4.55a215.62 215.62 0 00-22.6-.12c-1.46 0-2.9 1.26-4.32 2-1.11.58-2.19 1.23-3.28 1.85v-3l3.23-1.49c-2.74-1.88-5.22-3.21-7.24-5-3.72-3.39-7.15-7.11-10.75-10.64-3.31-3.24-4.48-3-6.94 1-3.2 5.24-6.48 10.43-9.79 15.61-2 3-4 3.2-6.8.87-1.45-1.2-3.09-2.17-4.65-3.24.64-1.3 1.27-2.6 1.91-3.89a37.21 37.21 0 003.78 5.89c.5.55 3 .3 3.56-.4 2-2.74 3.65-5.81 5.61-9.08-5.78-.26-9.96.97-13.02 3.55zm75.12 5c2.64 4.54 2.64 4.54 5.81 3.26l-4.88-5.18c-2.53-3.13-4.89-6.42-7.63-9.35-3.84-4.09-4.86-3.94-9 .29-4.1 2.06-6.72 5.59-10.16 9.42l25.84 1.55zm11.76 3.81L279 188.35l-1-1c-2.12 2.1-4.24 4.19-6.35 6.3-5.14 5.11-7.47 4.88-11.83-1.07-1-1.32-2.09-2.52-3.15-3.77l-.79.67q3.41 4.83 6.79 9.68c1 3.5 1.05 3.53 6.45 2.24zm-14-18.65l9.54 11.69c1.93 2.38 3.78 2.6 6 .22 3.91-4.14 8-8.07 12-12.11 1.31-1.31 2.57-2.68 4.26-4.45a15.5 15.5 0 00-3-1c-4.85-.35-9.71-.8-14.57-.85a15.23 15.23 0 00-6.54 1.33c-2.52 1.22-4.77 3.16-7.7 5.17zM297.5 198l.85-.9c-2.8-4.43-5.52-8.93-8.51-13.23-.41-.58-2.72-.74-3.25-.2-5.41 5.45-10.64 11.09-15.91 16.68l.67 1.34c3.73-.52 8.17 0 11-1.82 3.84-2.5 7.44-2.78 11.5-2.44 1.24.14 2.44.42 3.65.57zm-88.91-19.9l-.64 1.7c4.32 4.11 8.58 8.29 13 12.27.78.7 2.81 1.24 3.32.78 4-3.53 8.63-6.48 11.79-11.28-.93-.31-1.43-.66-1.82-.57-3.75.84-7.05.53-9.34-3.11a2.68 2.68 0 00-2-1.06c-4.8.33-9.56.82-14.31 1.27z" transform="translate(-78 -95.37)" fill="#763e37"/><path d="M301.77 133.8c4.27-.76 5.92 3.09 8.69 4.95-.47.59-1.47 1.37-1.34 1.73a21.37 21.37 0 01.71 13.61c-.54 2 .61 3 2.6 3.07-2 3.44-3.15 7.68-7.78 8.83l2-3.2c-2.22.43-3.82.43-5.15 1-8.44 3.86-16 2-23.28-3.08-1.33-.94-3.1-1.25-4.66-1.86-1-1.83-2-3.66-3.05-5.48v-4.27l3 .31c-1.22 1.47-3.41 2.75-.93 4.92.82.91 1.4 2.52 3 1l2.7 1.88c5.86 6 12.89 7.09 20.67 4.82 1.78-.52 3.3-1.41 2.8-3.73l1.84-1 .9 1.07 3.14 1.15c0-1 .47-2.25 0-3a16.31 16.31 0 00-2.94-3.06l-1.88-2a40.16 40.16 0 00-3.48-4.84c-1.6-1.67-1.92-3.13-.28-4.85l7.53-4c-.08-.53-.15-1.06-.23-1.59l-4.48-1.3zm5.75 18.7c1.73-4.46 1.33-7.81-1.36-11.39l-5.8 3z" transform="translate(-78 -95.37)" fill="#733936"/><path class="cls-36" d="M193.36 145.51c.6-.91 1.12-2.52 1.82-2.61 2.74-.33 2.66-2.81 3.84-4.31l.37.25c0 1.16 0 2.32-.07 3.48l.87 2.33c-.88.23-2.34.21-2.55.72-1.61 3.84-3.2 7.77-1.79 12.31l2.34-1.59v2c-.72 1.28-1.43 2.55-2.5 4.48l4.21.31 2.35-.8c-.2 1.58-.1 3 2 2.93s4.41.51 6.2-.23c3.77-1.56 8.6-2.2 9.25-7.66l6.8-.91-6.13 5.63c-6.86 6.31-14.56 7.76-23.17 4-1.29-3-2.52-6-3.9-9a15.83 15.83 0 00-2-2.63q1.11-4.29 2.06-8.7z" transform="translate(-78 -95.37)"/><path class="cls-37" d="M184.56 179.68l3.93-14.63c1 .16 2.28 0 2.84.55 2.54 2.58 4.87 5.38 7.25 8.07-1.07 1.65-1.9 4.24-3.66 5.35-2.71 1.69-6 2.39-9.16 3.34a20.41 20.41 0 01-1.2-2.68z" transform="translate(-78 -95.37)"/><path class="cls-38" d="M197.3 166c8.61 3.72 16.31 2.27 23.17-4l6.13-5.63 2.83-6c.15 1.25-.47 3.26 2.1 2.07-4.31 12.06-16.54 20.05-28.87 18.52-2.21-.27-4.26-1.88-6.39-2.87zM270.46 153.41c1 1.82 2 3.65 3.05 5.48l2.82 4.35a21.31 21.31 0 01-3.91-35.37c.33.67.67 1.34 1 2-5.58 7.27-6.36 15.13-2.96 23.54z" transform="translate(-78 -95.37)"/><path d="M231.53 152.35c-2.57 1.19-1.95-.82-2.1-2.07.19-1.27.28-2.56.57-3.81 1.88-8.14-1.14-14.84-8.38-18.48l4-1.08c5.39 1 7.36 5.42 8.36 9.69 1.25 5.32.92 10.91-2.45 15.75z" transform="translate(-78 -95.37)" fill="#b14144"/><path class="cls-40" d="M276.33 163.24l-2.82-4.35c1.56.61 3.33.92 4.66 1.86 7.26 5.09 14.84 6.94 23.28 3.08 1.33-.61 2.93-.61 5.15-1l-2 3.2c-8.02 4.89-21.68 3.69-28.27-2.79z" transform="translate(-78 -95.37)"/><path d="M289 176.74c-7.36-4.66-15.79-2.85-23.75-3.76a6.93 6.93 0 00-7 3.41c-.77 1.27-2.79 1.77-5.1 3.12.42-1.66.56-2.22.71-2.78 6.6-8.79 16.06-5.18 24.57-5.58a25.13 25.13 0 015.74.76c2.69.5 5.21 1.25 4.83 4.83z" transform="translate(-78 -95.37)" fill="#8a3a3c"/><path d="M313.48 183.58l-5.91.06c-2.32-3.49-6.36-1.58-9.37-3a6.16 6.16 0 00-2.35 0l-2.36-1 .23-1.27c4.92.58 9.86 1 14.75 1.79 3.08.49 5.73.87 8.58-1.34 1.34-1 4.1-.25 6.21-.28l2.91 2.08c-5.72-.09-5.74-.07-10.88 2.48a8.35 8.35 0 01-1.81.48z" transform="translate(-78 -95.37)" fill="#873c3b"/><path class="cls-43" d="M273.43 129.88c-.34-.67-.68-1.34-1-2 1.75-1 3.38-2.51 5.27-3 9.64-2.46 18.44-.72 26 6-2 1.82-3.11-.34-4.49-1.06-5.23-2.7-10.48-5-16.6-3.16a19.91 19.91 0 01-4.33.32l-4 2.86c-.28.01-.54.03-.85.04z" transform="translate(-78 -95.37)"/><path d="M278.31 127a19.91 19.91 0 004.33-.32c6.12-1.82 11.37.46 16.6 3.16 1.38.72 2.49 2.88 4.49 1.06 2.1 2.81-2.23 1.36-2 3l.08 1-2-1.07c-3.91-5.09-9.35-5.63-15.74-5.73l1.26 2.77-3.16.08-1-.84z" transform="translate(-78 -95.37)" fill="#6d3634"/><path d="M312.43 157.16c-2-.07-3.14-1.09-2.6-3.07a21.37 21.37 0 00-.71-13.61c-.13-.36.87-1.14 1.34-1.73 2.89 5.9 4.08 11.98 1.97 18.41z" transform="translate(-78 -95.37)" fill="#993c3e"/><path class="cls-46" d="M225.64 126.91l-4 1.08a10.82 10.82 0 01-1.85.37c-3.62.17-7.17 1.88-10.86.49l5.93-2.88z" transform="translate(-78 -95.37)"/><path d="M197.3 166l-1 2.05c-4.39-3.58-5.18-8.42-4.84-13.67a15.83 15.83 0 012 2.63c1.32 2.91 2.54 5.99 3.84 8.99z" transform="translate(-78 -95.37)" fill="#983c3e"/><path d="M248.05 178.71l6.77 7.74-.6.57a19.13 19.13 0 01-2-1.71c-2.6-3.05-5.43-5.54-9.89-4.78-.32.05-.74-.54-1.12-.82z" transform="translate(-78 -95.37)" fill="#913c3d"/><path d="M229.54 176.71l.44 1.71-.94.65c-1.26-1.59-2.51-3.18-3.77-4.76l1.29-.48z" transform="translate(-78 -95.37)" fill="#983d3e"/><path d="M177.72 275.35c-5-.62-9.92-1.38-14.9-1.83-12.09-1.1-24.19-2-36.27-3.09-9.66-.88-19.31-1.92-29-2.9l3-2.86c2.94-.83 5.9-1.62 8.83-2.48q34.76-10.27 69.53-20.53a16.62 16.62 0 013.38-.24l.3 3.67c-.34 3.24-.69 6.47-1 9.7-2.23 6.3-6.67 10.62-13 13.39 4.26 5.07 10.78 2.74 15.08 5.62l-.34 1.55z" transform="translate(-78 -95.37)" fill="#786079"/><path class="cls-51" d="M197.25 271.48c-.4 13.13 3 25.74 5.12 38.64-8.24-8.32-13.89-17.9-14.87-29.85L185.55 252c-.23-4.46 3.23-4.44 6.17-5.1 3.82-.84 4.38-.53 4.56 3 .36 7.18.65 14.38.97 21.58z" transform="translate(-78 -95.37)"/><path class="cls-51" d="M210.93 350.59l-4.08 12.51-1.47-.18c-2.1-16.55-4.19-33.09-6.41-50.57l7.81 6.44 1.07-.86q-2.86-12-5.71-24c.12-1.1.25-2.2.42-3.73l6.43 7.63c.65 3.26 1.29 6.51 1.94 9.77z" transform="translate(-78 -95.37)"/><path d="M197.25 271.48c-.32-7.2-.61-14.4-1-21.6-.18-3.56-.74-3.87-4.56-3-2.94.66-6.4.64-6.17 5.1l-2.63 5.53-1.12-.39-.21-2.3c.34-3.23.69-6.46 1-9.7q.48-3.26 1-6.51l23.51-6.16c3 .87 3.61 2.55 2.4 5.26a39.18 39.18 0 00-1.59 5.41c-2 .58-4.37.65-5.87 1.84-4.38 3.46-4.23 11.22-.06 16.92v12.54z" transform="translate(-78 -95.37)" fill="#403535"/><path class="cls-53" d="M202.9 382.75h-5.64c1.61-4.16 3.22-8.33 4.85-12.48.17-.44.49-1.13.79-1.16 6.81-.51 6.24-6.57 8.16-10.76.59-1.28 1.22-2.55 1.83-3.82 1.86 1.77 2.08-.35 2.52-1.22q4.32-8.4 8.42-16.91a15 15 0 00.8-3.3 25.28 25.28 0 01-4-2.65c-1.61-1.64-3.12-1.34-4.79-.33.29-1.27.58-2.54.86-3.81l.2-.2c1.67 1.07 3.07 3.07 5.37 1.65l1.34-3.61c.35-1 .78-1.95 1.06-2.95 1-3.6 2-7.22 3-10.83.25.12.49.23.75.33l.93 19.2q-11.95 24.1-23.86 48.17c-.79 1.6-1.72 3.12-2.59 4.68z" transform="translate(-78 -95.37)"/><path class="cls-37" d="M215.83 330.08c1.67-1 3.18-1.31 4.79.33a25.28 25.28 0 004 2.65 15 15 0 01-.8 3.3q-4.1 8.5-8.42 16.91c-.44.87-.66 3-2.52 1.22q.48-5.37 1-10.74t1-10.75z" transform="translate(-78 -95.37)"/><path d="M181.59 254.79l.21 2.3 1.12.39 2.63-5.53 1.95 28.32c-.48-1.27-1-2.54-1.38-3.62l-8.4-1.3h5.61l.34-1.55c-4.3-2.88-10.82-.55-15.08-5.62 6.33-2.77 10.77-7.09 13-13.39zm2.41 14.82c-.57-3.46-1-5.91-1.32-8.1l-7.61 6.56.19 1.09z" transform="translate(-78 -95.37)" fill="#4b3d40"/><path d="M202 274.39v-12.54l.23-.18a3.44 3.44 0 01.65.28c.07 5.35-.21 10.73.3 16 .48 5 0 10.53 4.72 14.2q2.56 2.76 5.12 5.54a14.85 14.85 0 00-2.84-1c-.32-.05-.78.7-1.17 1.09l-6.43-7.63c-.17 1.53-.3 2.63-.42 3.73-.65-3.23-1.42-6.44-1.91-9.7-.38-2.51-.41-5.08-.61-7.85z" transform="translate(-78 -95.37)" fill="#584849"/><path class="cls-53" d="M214.84 333l-1 10.75v-4.42l-1.68-.06c-.09 1.79-.1 3.58-.3 5.36-.23 2-.63 4-1 6v-43c.33 3 .68 6.08 1 9.12.15 1.5-.45 3.35 2 3.59v.85c-.06.66-.43 1.57-.14 1.92a31.67 31.67 0 003.15 3l-.2.2-3.8-1.52c0 2.65-.08 5 .08 7.41.05.28 1.24.52 1.89.8z" transform="translate(-78 -95.37)"/><path class="cls-23" d="M100.58 264.67l-3 2.86c-2-2-1.77-3.44.94-5.89l.29.23 1.91 1.37z" transform="translate(-78 -95.37)"/><path class="cls-36" d="M208.91 128.85c3.69 1.39 7.24-.32 10.86-.49a10.82 10.82 0 001.85-.37c7.24 3.64 10.26 10.34 8.38 18.48-.29 1.25-.38 2.54-.57 3.81l-2.83 6c-.35-1.29-.71-2.57-1.06-3.85.34-1 .69-2 1-3 1.91-5.06 2.55-10.05-1-14.76a23.8 23.8 0 01-2-3.08c-1-2.35-2.27-2.22-3.8-.52l-3 2.72-1-.94c0-1.81-1.12-2.32-2.54-1.62-2.83 1.39-5.54 3-8.3 4.52l-1.89 1.91-2-4z" transform="translate(-78 -95.37)"/><path d="M215.82 132.85l1 .94-1.25 2.82-5.9 5.54-10.29-3.31-.37-.25c.94-2.11 2.6-1.1 4.07-.93l1.89-1.91 3.51 4z" transform="translate(-78 -95.37)" fill="#7e4b39"/><path d="M313.48 183.58a8.35 8.35 0 001.82-.44c5.14-2.55 5.16-2.57 10.88-2.48l1 2.83-2.9-.83-2 1.89c-1.26-2.24-2.84-2.56-4.67-.7-1.13 1.15-2.14 2.43-3.2 3.64z" transform="translate(-78 -95.37)" fill="#6a3e34"/><path d="M324.28 182.66l2.9.83 1.74 3.19 2.13 8.69q-3.37-6.37-6.77-12.71z" transform="translate(-78 -95.37)" fill="#b88045"/><path d="M380.84 198.31l.74 4.1-.83.6c-9.36-6.57-20.41-11.3-24.52-23.57.62-2 1.5-.82 2.38-.22 6.18 4.14 13 3.83 20.76 3-1.53-3.86-2.91-7.21-4.16-10.6a12.53 12.53 0 01-.35-2.91 23 23 0 0112.23 11.82c2.67 5.87 4.52 12 4.24 19.17l-10.58-9.21-2.1-2-1.22.71z" transform="translate(-78 -95.37)" fill="#eae676"/><path d="M374.86 168.69a12.53 12.53 0 00.35 2.91c1.25 3.39 2.63 6.74 4.16 10.6-7.79.85-14.58 1.16-20.76-3-.88-.6-1.76-1.81-2.38.22-1.25-4.49-2.6-9-3.7-13.48-.6-2.45.6-3.69 3.2-3.48 6.87.59 13.43 2.09 19.13 6.23z" transform="translate(-78 -95.37)" fill="#f3ac66"/><path d="M380.84 198.31l-3.41-9.09 1.22-.71 2.1 2c-.33.62-1 1.27-.91 1.85.16 1.97.65 3.95 1 5.95z" transform="translate(-78 -95.37)" fill="#5c593a"/><path class="cls-33" d="M335.94 215.81l55.83 32.94 3.72 2.25c-.74.57-1.6 1.75-2.19 1.63-4.09-.86-8.11-2-12.17-3q-16.81-4.23-33.65-8.42c-6.09-1.51-12.22-2.86-18.32-4.38-9.65-2.4-19.27-5-29-7.29-10.95-2.62-21.95-5.06-32.95-7.47-5.49-1.21-11-2.34-16.57-3.23-3.48-.56-7.17-1.34-10.54-.74-7.75 1.36-15.39 3.4-23 5.37-10.59 2.74-21.12 5.7-31.69 8.51-8.86 2.36-17.8 4.44-26.59 7-11.43 3.35-22.75 7.08-34.13 10.63-1.6.5-3.3 1-3.62-1.55q19.26-11.22 38.53-22.43c4.74-2.74 9.58-5.3 14.33-8 2.16-1.24 4.06-2.78 3.76-5.7l.45-.2c5.92-2.62 11.67-7.55 18.26-1.32a2.43 2.43 0 001.82.37c6.35-1 12.72-1.89 19-3.12 3-.59 6.81-1 8.54-3 3.4-3.92 7.36-3.44 11.51-3.47a65.74 65.74 0 018.77.08 11.41 11.41 0 015.54 2.19 12.26 12.26 0 007.56 2.68c6.43.37 12.84 1.1 19.25 1.77 3.37.35 6.36 0 9-2.55a6.84 6.84 0 014.61-1.96c4.48.27 8.93 1.06 13.39 1.7 2.29.33 4.79.74 5.06 3.6.35 3.69 3.2 4.49 5.79 4.89 6.53 1 13.13 1.52 19.7 2.22z" transform="translate(-78 -95.37)"/><path d="M121.11 248.06c.32 2.57 2 2.05 3.62 1.55 11.38-3.55 22.7-7.28 34.13-10.63 8.79-2.58 17.73-4.66 26.59-7 10.57-2.81 21.1-5.77 31.69-8.51 7.62-2 15.26-4 23-5.37 3.37-.6 7.06.18 10.54.74 5.56.89 11.08 2 16.57 3.23 11 2.41 22 4.85 32.95 7.47 9.68 2.3 19.3 4.89 29 7.29 6.1 1.52 12.23 2.87 18.32 4.38q16.84 4.17 33.65 8.42c4.06 1 8.08 2.16 12.17 3 .59.12 1.45-1.06 2.19-1.63l4.5 2.42c-.66 1.37-1.1 2.3-1.54 3.22-3.21-.95-6.39-2-9.63-2.82q-35.43-8.79-70.9-17.46c-5-1.22-10.14-2.05-15.21-3.07l-11.83-2.81-12.53-3c-8.5-1.94-17.05-3.68-25.48-5.88-7.51-2-14.7-1.12-22 1.11s-14.55 4.12-21.85 6.12c-2.28.62-4.6 1.09-6.9 1.63l-19.69 4.88-2.77 1a4.75 4.75 0 00-1.45 0Q157 242.58 135.72 249a31.42 31.42 0 00-4.25.72c-6.08 1.92-12.14 3.93-18.2 5.91.73-4.47 4.55-5.76 7.84-7.57z" transform="translate(-78 -95.37)" fill="#4d3a39"/><path d="M335.94 215.81c-6.57-.7-13.17-1.22-19.69-2.22-2.59-.4-5.44-1.2-5.79-4.89-.27-2.86-2.77-3.27-5.06-3.6-4.46-.64-8.91-1.43-13.39-1.7a6.84 6.84 0 00-4.55 1.95c-2.65 2.51-5.64 2.9-9 2.55-6.41-.67-12.82-1.4-19.25-1.77a12.26 12.26 0 01-7.56-2.68 11.41 11.41 0 00-5.54-2.19 65.74 65.74 0 00-8.77-.08c-4.15 0-8.11-.45-11.51 3.47-1.73 2-5.56 2.4-8.54 3-6.3 1.23-12.67 2.13-19 3.12a2.43 2.43 0 01-1.82-.37c-6.59-6.23-12.34-1.3-18.26 1.32l-.45.2v-5.86c.85 3.34 3.09 1.81 5 1.4 3.56-.77 7.11-1.6 10.66-2.4 2.89 2.95 6.18 3.56 10.19 2.41 3.07-.88 6.41-.8 9.56-1.46 3.74-.79 8.35-.89 10.86-3.18 3.47-3.16 6.87-3.76 11-3.64 2.77.09 5.54 0 8.3 0 4.26 0 8.87-1 11.6 3.8.11.19.61.15.93.22 3.92.62 7.83 1.41 11.78 1.82 4.66.48 9.34.66 14 .88.53 0 1.08-.51 1.63-.79l2.88-2a7.19 7.19 0 017.2-1.41c2.07.67 4.44.41 6.38.54.45-1.61.79-2.81 1.13-4 1.65 2.06 3.56 2.54 5.82 1l1.63 1.23-3.73 2 6 1.73 3 5.81c6.88 2.7 14 4.32 21.41 3.88z" transform="translate(-78 -95.37)" fill="#4e3437"/><path d="M178.74 195.33c1.56 1.07 3.2 2 4.65 3.24 2.81 2.33 4.84 2.17 6.8-.87 3.31-5.18 6.59-10.37 9.79-15.61 2.46-4 3.63-4.28 6.94-1 3.6 3.53 7 7.25 10.75 10.64 2 1.83 4.5 3.16 7.24 5l-3.23 1.49c-4-4.13-8.3-8.07-12.05-12.44-3.92-4.57-7.46-4.51-10.42.71-1 1.41-2.09 2.79-3 4.24-1.73 2.67-3.28 5.46-5.1 8.06-2.9 4.14-4.59 4.24-8.51.87-1-.82-2-1.56-3-2.34z" transform="translate(-78 -95.37)" fill="#8b3b3b"/><path d="M179.58 197.32c1 .78 2 1.52 3 2.34 3.92 3.37 5.61 3.27 8.51-.87 1.82-2.6 3.37-5.39 5.1-8.06.94-1.45 2-2.83 3-4.24l.08 2.13c-1.91 3.51-3.82 7-5.6 10.29l3.67 4-.12 1.24c-2.26-1.61-4.52-3.3-7.33-.69l3.44 1.61c-3.55.8-7.1 1.63-10.66 2.4-1.88.41-4.12 1.94-5-1.4.47-2.97-.88-6.3 1.91-8.75zm.7 2.17c-.79 1.28-1.58 2-1.53 2.64s1 1.81 1.46 1.78c.74-.06 2-1 2-1.45-.13-.86-1-1.63-1.93-2.97z" transform="translate(-78 -95.37)" fill="#754137"/><path d="M113.27 255.6c6.06-2 12.12-4 18.2-5.91a31.42 31.42 0 014.25-.72l4.09 1.11-28.32 8.81-3.13-1.15z" transform="translate(-78 -95.37)" fill="#c69f53"/><path d="M108.36 257.74l3.13 1.15-10.76 4.35-1.91-1.37 3.87-2.92z" transform="translate(-78 -95.37)" fill="#b4914e"/><path class="cls-68" d="M302.71 233.29c5.07 1 10.19 1.85 15.21 3.07q35.47 8.64 70.9 17.46c3.24.8 6.42 1.87 9.63 2.82l11.71 3.1-4 1-11.58-2c-.23-.22-.44-.56-.71-.63-14-3.44-28-6.92-42-10.26-7.24-1.72-14.53-3.21-21.8-4.8-.89-.3-1.77-.67-2.68-.89q-13.48-3.36-27-6.68l5.66-.35z" transform="translate(-78 -95.37)"/><path d="M334.93 213.81c-7.45.44-14.53-1.18-21.41-3.88l2.47-.13c-.62-1.76-1-3.23-1.64-4.62-.8-1.86-2-2.87-3.84-1.06l-6-1.73 3.73-2-1.63-1.23c2.92-3.4 5.82-6.82 8.76-10.19 2-2.31 4-4.76 7.94-1.92-.54-1.35-.78-1.94-1-2.53l2-1.89q3.39 6.36 6.77 12.71l-1 1.9-5.16-7.2-.91.55q4 7.73 8.05 15.46l4.07 3.17zm-2.87-3.44l-12.36-23.61-10.8 13.08c4.24 1.19 7.82 2.38 8.51 6.77.06.36.67.81 1.09.91 4.32.94 8.65 1.82 13.56 2.85z" transform="translate(-78 -95.37)" fill="#784137"/><path class="cls-70" d="M394.62 258.77l11.58 2c2.51 1.09 4.95 2.67 7.83 1.07l1.66 1.11c-1.05 1.2-1.89 2.79-3.2 3.48-1.14.61-2.82.19-4.26.22l-3.92-.07 7.31-1.79c-7.57-1.85-14.06-3.38-20.51-5-6.05-1.54-12.06-3.22-18.09-4.84 1.74.19 3.49.28 5.21.6 5.47 1.01 10.93 2.13 16.39 3.22z" transform="translate(-78 -95.37)"/><path class="cls-43" d="M332 206.08q-4-7.74-8.05-15.46l.91-.55 5.16 7.2 2 3.81c3.66 1.8 3.66 1.98-.02 5z" transform="translate(-78 -95.37)"/><path d="M414 261.84c-2.88 1.6-5.32 0-7.83-1.07l4-1z" transform="translate(-78 -95.37)" fill="#c49d53"/><path d="M303.73 365.23l3.36-.79 2.48 4.7c-.77 1.61-1.55 3.22-2.54 5.27l-7.17-4.86-.83.82 8.55 12.36h-2.61c-12.47-17.44-25-34.82-35.41-53.65q.62-5.06 1.25-10.11h.77c.61 1.41 1.23 2.83 1.85 4.24.14 1.87.28 3.74.41 5.54 6.67.18 13.62-3.38 14.86-8l-10.3 2.64-3-11.93-1.05-3.9 4-1c0 2.13-.44 4.35 0 6.36 1.93 8.41.06 8.2 9.74 5.36l2.92 1c0 2.27.38 4.64-.1 6.81-2.14 9.68.14 18.92 2.5 28.15 1.47 5.73 5.22 9.85 10.11 13.76.1-1.21.15-2 .21-2.77zm-14.55-9l1.37-.51c-.31-1.66-.63-3.31-.93-5-.84-4.56-2.13-9.1-2.41-13.7-.52-8.75-1.55-9.52-9.56-6-2.37 1.05-2.93 2.75-1.76 4.62 4.31 6.96 8.84 13.74 13.29 20.57z" transform="translate(-78 -95.37)" fill="#493838"/><path d="M285.22 382.77h-2a11.08 11.08 0 00-.19-1.93c-1.47-5.13-2.61-5.66-7.55-3.8a35.33 35.33 0 01-4.37 1.09l-.81-.81c.05-.42.11-.85.17-1.28l7.64-2.05c.34-.3 1-.67 1-.88-.85-3.92-1.8-7.82-2.72-11.72l-1.05-5.79.09-6 3 4.78c-1 2.8-1.4 5.52.85 8l2 4.92z" transform="translate(-78 -95.37)" fill="#513233"/><path d="M273.43 323.27c-.62-1.41-1.24-2.83-1.85-4.24h-.77q-.63 5.06-1.25 10.11a60.34 60.34 0 01-.43-7c.16-3.35 1.3-6.72-1.26-10.71-.82 3.18-1.47 5.66-2.12 8.14l-1-1.2q1.4-4.89 2.8-9.79c2.21-.76 4.29-2.57 6.83-.93l1.05 3.9c-1.45-1.41-2.18-4.31-4.63-2.87.88 5.03 1.75 9.81 2.63 14.59z" transform="translate(-78 -95.37)" fill="#8e7343"/><path class="cls-75" d="M275.42 349.57l-.09 6-6.8-14.7-4.76-1.87c1-.57 1.89-1.2 2.89-1.68a6.62 6.62 0 011.75-.34c1.71 2.78 3.47 5.53 5.1 8.35a44.58 44.58 0 011.91 4.24z" transform="translate(-78 -95.37)"/><path class="cls-76" d="M268.41 337a6.62 6.62 0 00-1.75.34c-1 .48-1.93 1.11-2.89 1.68l-2.1-.18L266 337l-2.43-4.84.2-.32.85-11.64.13-1.87 1 1.2c-.48 6.06-.5 12.01 2.66 17.47z" transform="translate(-78 -95.37)"/><path class="cls-75" d="M279.25 362.32c-2.25-2.45-1.87-5.17-.85-8l4 5.78-1.08 1.19-1.85-2c-.11 1.48-.16 2.25-.22 3.03z" transform="translate(-78 -95.37)"/><path class="cls-76" d="M237.21 338.93c-2.13-.46-5.05 1.24-6.09-2.25l-2.86 3 3.24-8.55c.33-1.53 1-3.07.92-4.58-.24-5.3-.73-10.6-1.13-15.9a13 13 0 011.09 2.34c.74 3.13 1.38 6.27 2.06 9.41a35 35 0 000 5.7c.1.7 1.36 1.24 2.09 1.85 1.86.72 3.94 1.15 5.55 2.24 2.59 1.77 4.88 4 7.34 6 2.09-2 3.69-3.85 5.55-5.33a34.89 34.89 0 014.76-2.75l4 1.69-.2.32a6.52 6.52 0 00-6.91 2.41c-1.47 1.73-3.2 3.22-4.76 4.88s-2.93 1.75-4.6.21a48 48 0 00-6.65-5.65c-1.61-1-4-1.81-5.68-1.39-1.2.3-1.86 2.8-2.8 4.39z" transform="translate(-78 -95.37)"/><path d="M231.29 310.68c.4 5.3.89 10.6 1.13 15.9.06 1.51-.59 3.05-.92 4.58l-1-2.05a49.46 49.46 0 00-.08-6.33c-.54-4.06-1.35-8.08-2.05-12.12-.26-.1-.5-.21-.75-.33l.9-1.46 1.75-.15z" transform="translate(-78 -95.37)" fill="#d2a857"/><path class="cls-76" d="M228.38 310.66c.7 4 1.51 8.06 2.05 12.12a49.46 49.46 0 01.08 6.33l-1.2.75z" transform="translate(-78 -95.37)"/><path d="M373 254.92c6 1.62 12 3.3 18.09 4.84 6.45 1.65 12.94 3.18 20.51 5l-7.31 1.79-22.48 2.85c-8.05.74-16.29.67-24.12 2.44s-13.43-.31-17-7.1c-2.78-5.26-4.8-10.93-7-16.49-.21-.53.8-1.53 1.24-2.32l1.89.18c5.19 1.44 10.35 3 15.6 4.27 6.83 1.64 13.72 3 20.58 4.49z" transform="translate(-78 -95.37)" fill="#776079"/><path class="cls-24" d="M225.73 382.93v-8.36l-1.1-.23-2 3.58c0-5.16.08-10.32 0-15.47a20 20 0 00-.93-4c0-.32-.13-.78 0-.93 2.89-2.66 3.19-6.61 4.92-9.84-.32 3.67-.93 7.34-.89 11 .09 8 .52 16 .8 24.05a5.77 5.77 0 00-.8.2z" transform="translate(-78 -95.37)"/><path d="M226.55 382.73c-.28-8-.71-16-.8-24.05 0-3.67.57-7.34.89-11 .23-.22.59-.4.66-.66 1.54-5.85 5.6-7.12 10.95-6.1l5.88 6.72a14.49 14.49 0 00-.87 3 13.73 13.73 0 00.17 4.44 8.7 8.7 0 002 3.83 40.9 40.9 0 005.13 3.92c.76-.93 1.53-2.75 2.85-3.34 3.19-1.44 4.46-3 2-6.14-.23-.29.29-1.17.46-1.77.05-2 .11-3.94.17-6.47 2.74-4.07 7.43-4.64 12.48-4.24l6.8 14.7 1.05 5.79 1.75 12.6-7.63 2.04c-.54-.27-1.18-.89-1.61-.77-7.62 2.15-15.22 4.39-22.8 6.65-.42.13-.72.63-1.08 1z" transform="translate(-78 -95.37)" fill="#c34549"/><path d="M237.21 338.93l-5.08-1.88c.94-1.59 1.6-4.09 2.8-4.39 1.7-.42 4.07.37 5.68 1.39a48 48 0 016.65 5.65c1.67 1.54 3.1 1.38 4.6-.21s3.29-3.15 4.76-4.88a6.52 6.52 0 016.91-2.41L266 337l-4.29 1.8-12.41 7.8a54.91 54.91 0 00-5.44-4.44 34.44 34.44 0 00-5.54-2.33z" transform="translate(-78 -95.37)" fill="#eab05b"/><path d="M238.28 339.87a34.44 34.44 0 015.54 2.33 54.91 54.91 0 015.44 4.44l12.41-7.8 2.1.18 4.76 1.83c-5-.4-9.74.17-12.48 4.24-.06 2.53-.12 4.5-.17 6.47-.69-1.83-1.38-3.67-1.76-4.65-2.58.15-4.24.22-5.89.34-1.37.1-2.73.25-4.1.38l-5.88-6.72z" transform="translate(-78 -95.37)" fill="#784839"/><path d="M279.25 362.32c.06-.78.11-1.55.21-3l1.85 2c.63 1.31 1.25 2.62 1.87 3.93-2.63-1.28-1.69 1-2 2q-.94-2.47-1.93-4.93z" transform="translate(-78 -95.37)" fill="#a83f42"/><path d="M266.47 381.07c-.73.59-1.43 1.63-2.2 1.69-2.84.2-5.7.08-8.55.08l-.06-1 10.73-.85z" transform="translate(-78 -95.37)" fill="#54484c"/><path class="cls-17" d="M271.13 378.08a35.33 35.33 0 004.37-1.08c4.94-1.86 6.08-1.33 7.55 3.8a11.08 11.08 0 01.19 1.93l-9.84.12q-1.14-2.38-2.27-4.77z" transform="translate(-78 -95.37)"/><path d="M307.58 382.73L299 370.37l.83-.82 7.17 4.86c1-2.05 1.77-3.66 2.54-5.27l8.8 13.6z" transform="translate(-78 -95.37)" fill="#563d42"/><path class="cls-85" d="M315.42 281.25c-1.58 5.19-2.94 10.46-4.81 15.53-1.27 3.43-3.27 6.59-4.94 9.87l-7 7.55-.91-.58a35.44 35.44 0 01.73-5.19c1.34-4.61 3.16-9.1 4.26-13.76 1.52-6.4 2.77-12.9 3.7-19.41.38-2.66 1.33-5.75-1.82-9-.38 2.21-.71 3.65-.87 5.11-.4 3.53-.42 7.12-1.15 10.57-1.32 6.3-3 12.53-4.65 18.74-.35 1.29-1.41 2.38-2.14 3.57a188.21 188.21 0 01-.72-27.45c.37-6.7-2.12-13.12-1.18-19.79.11-.74-.43-1.56-.48-2.35-.19-3-.31-6-.48-9.53h9.81c3.26.66 6.5 1.43 9.78 2a3 3 0 012.9 3.2c.3 5.49.89 11 .91 16.47-.02 4.78-.62 9.62-.94 14.45z" transform="translate(-78 -95.37)"/><path class="cls-32" d="M315.42 281.25c.32-4.83.92-9.67.9-14.5 0-5.49-.61-11-.91-16.47a3 3 0 00-2.9-3.2c-3.28-.52-6.52-1.29-9.78-2-1.15-.33-2.3-.69-3.46-1-4-1-8.34.15-12.16-1.95H282l-.43.83 6.56 6v1h-1.93l-1.87-1.07-2-2.79-1.91-1-1.83-.13c.28-2.46-.91-4.19-2.64-5.81a61.58 61.58 0 01-4.25-4.86l-1.94-3 2.77-2 20.46 4.46 7.61 1.66q13.49 3.33 27 6.68c.91.22 1.79.59 2.68.89l2.86 1.18c-.15 1.62-.25 3.25-.44 4.86-.12 1-.37 1.91-.57 2.86l-14.07-4.35c.6 3.92 1 6.56 1.42 9.21-.33 3.25-.65 6.51-1 9.76-.65 4-1.26 8.06-2 12.08a13.59 13.59 0 01-1.06 2.66z" transform="translate(-78 -95.37)"/><path d="M303.73 365.23c-.06.78-.11 1.56-.21 2.83-4.89-3.91-8.64-8-10.11-13.76-2.36-9.23-4.64-18.47-2.5-28.15.48-2.17.09-4.54.1-6.81a7 7 0 013.91-6.61c-.33 2.75-.6 5-.87 7.2l1.2.66 3.6-3.19 6.75-5.84v3.83a73.32 73.32 0 00-1.69 7.8c-.83 7.48-1.51 15-2.12 22.48a57.69 57.69 0 001.94 19.56z" transform="translate(-78 -95.37)" fill="#665054"/><path d="M319.34 256.84c-.41-2.65-.82-5.29-1.42-9.21L332 252c1.25 7.19 5.31 13 9.73 18.57l-.51 1a38.24 38.24 0 01-6.06-1.58c-4.15-1.79-4.18-1.93-5.21 2.6-.49 2.19-.6 4.46-.89 6.7q-2.44 6.83-4.91 13.66l-.91 1a6.51 6.51 0 01-.91-2.1c-.39-9-.7-18.09-1-27.14z" transform="translate(-78 -95.37)" fill="#665055"/><path d="M305.6 315.39v-3.83l-6.75 5.84c-4-3.61-1.25-8-1.2-12.73l-3.71 4.24c0-3.1.13-5.13 0-7.13-.19-2.31-.64-4.59-1-6.88.31-5.77.66-11.54.85-17.31 0-.38-1.19-.8-1.82-1.21.26-.7.52-1.4.79-2.09l.75-1.29-2.53-.54c2.08-5.86 1.06-11.76.18-17.65.36-1.6.72-3.19 1.16-5.11l-4.27.32v-1c2.72-.5 2.19-2.23 1.32-3.86a20.9 20.9 0 00-2.3-3c3.82 2.1 8.16.93 12.16 1.95 1.16.3 2.31.66 3.46 1h-9.81c.17 3.52.29 6.53.48 9.53.05.79.59 1.61.48 2.35-.94 6.67 1.55 13.09 1.18 19.79a188.21 188.21 0 00.72 27.45c.73-1.19 1.79-2.28 2.14-3.57 1.68-6.21 3.33-12.44 4.65-18.74.73-3.45.75-7 1.15-10.57.16-1.46.49-2.9.87-5.11 3.15 3.25 2.2 6.34 1.82 9-.93 6.51-2.18 13-3.7 19.41-1.1 4.66-2.92 9.15-4.26 13.76a35.44 35.44 0 00-.73 5.19l.91.58 7-7.55c-.25 2.93 2.76 5.87.01 8.76z" transform="translate(-78 -95.37)" fill="#4b3c3e"/><path class="cls-32" d="M321.28 264.65c.34 9.05.65 18.1 1 27.14a6.51 6.51 0 00.91 2.1l-2.1 2.24c-2.64-5.16-5-9.65-2.64-15.37a27.87 27.87 0 001.68-9.39c.07-1.55-1.17-3.17-1.82-4.75z" transform="translate(-78 -95.37)"/><path d="M333 244.26l-2.86-1.18c7.27 1.59 14.56 3.08 21.8 4.8 14 3.34 28 6.82 42 10.26.27.07.48.41.71.63-5.46-1.09-10.92-2.21-16.39-3.25-1.72-.32-3.47-.41-5.21-.6a21 21 0 00-3.82-1.79q-11.44-2.78-22.94-5.3c-3.12-.69-6.28-1.12-9.42-1.67L335 246z" transform="translate(-78 -95.37)" fill="#6d5948"/><path d="M349.45 275.3l-9.61.09c3.09-2.69 5.54-2.71 9.61-.09z" transform="translate(-78 -95.37)" fill="#332c2b"/><path class="cls-91" d="M253.56 181.53c2.93-2 5.18-3.95 7.77-5.19a15.23 15.23 0 016.54-1.33c4.86.05 9.72.5 14.57.85a15.5 15.5 0 013 1c-1.69 1.77-2.95 3.14-4.26 4.45-4 4-8.13 8-12 12.11-2.26 2.38-4.11 2.16-6-.22zM297.5 198c-1.21-.19-2.41-.47-3.63-.57-4.06-.34-7.66-.06-11.5 2.44-2.85 1.86-7.29 1.3-11 1.82l-.67-1.34c5.27-5.59 10.5-11.23 15.91-16.68.53-.54 2.84-.38 3.25.2 3 4.3 5.71 8.8 8.51 13.23z" transform="translate(-78 -95.37)"/><path class="cls-92" d="M208.59 178.1c4.75-.45 9.51-.94 14.27-1.27a2.68 2.68 0 012 1.06c2.29 3.64 5.59 4 9.34 3.11.39-.09.89.26 1.82.57-3.16 4.8-7.79 7.75-11.79 11.28-.51.46-2.54-.08-3.32-.78-4.43-4-8.69-8.16-13-12.27zM240.14 185.39c4.11-4.23 5.13-4.38 9-.29 2.74 2.93 5.1 6.22 7.63 9.35l-.93 1.92c-2.74-.68-5.46-1.75-8.23-1.94-4.79-.32-9.61-.09-15.16-.09z" transform="translate(-78 -95.37)"/><path d="M193.35 205.05l-3.44-1.61c2.81-2.61 5.07-.92 7.33.69.86.61 1.86 1.87 2.58 1.73 7.31-1.42 14.59-3.07 21.88-4.65 1.09-.62 2.17-1.27 3.28-1.85 1.42-.72 2.86-1.94 4.32-2a215.62 215.62 0 0122.6.12c2.35.18 4.5 3 6.74 4.55l-.51.95-2.34.2c-.32-.07-.82 0-.93-.22-2.73-4.76-7.34-3.76-11.6-3.8-2.76 0-5.53.09-8.3 0-4.13-.12-7.53.48-11 3.64-2.51 2.29-7.12 2.39-10.86 3.18-3.15.66-6.49.58-9.56 1.46-4.01 1.17-7.3.56-10.19-2.39z" transform="translate(-78 -95.37)" fill="#883b3b"/><path d="M307.57 183.64l5.83 1.94-9.16 11-8.84-14.19 12.18 1.31z" transform="translate(-78 -95.37)" fill="#dc974e"/><path d="M221.7 201.21c-7.29 1.58-14.57 3.23-21.88 4.65-.72.14-1.72-1.12-2.58-1.73l.12-1.24c2.81 0 5.66.41 8.42.07 4.63-.57 9.21-1.59 14.46-2.53-4.19-4.58-7.69-8.55-11.36-12.36-4.53-4.71-5.67-4.59-9.59.55l-.08-2.13c3-5.22 6.5-5.28 10.42-.71 3.75 4.37 8 8.31 12.05 12.44.01.99.01 1.99.02 2.99z" transform="translate(-78 -95.37)" fill="#794a38"/><path d="M180.69 191.37c3.06-2.58 7.24-3.81 12.91-3.52-2 3.27-3.57 6.34-5.61 9.08-.52.7-3.06.95-3.56.4a37.21 37.21 0 01-3.78-5.89z" transform="translate(-78 -95.37)" fill="#db964e"/><path d="M322.31 184.55c.24.59.48 1.18 1 2.53-3.92-2.84-5.92-.39-7.94 1.92-2.94 3.37-5.84 6.79-8.76 10.19-2.26 1.55-4.17 1.07-5.82-1-.24-1-.49-2.07-.78-3.32 5.23 3.48 5.88 3.31 9.73-1.86 1.45-1.93 3.12-3.69 4.68-5.53 1.06-1.21 2.07-2.49 3.2-3.64 1.85-1.84 3.43-1.53 4.69.71z" transform="translate(-78 -95.37)" fill="#8d3b3c"/><path d="M262.7 199.18q-3.39-4.85-6.79-9.68l.79-.67c1.06 1.25 2.18 2.45 3.15 3.77 4.36 6 6.69 6.18 11.83 1.07 2.11-2.11 4.23-4.2 6.35-6.3l1 1-11.43 11.83z" transform="translate(-78 -95.37)" fill="#913b3c"/><path class="cls-99" d="M240.14 185.39l-7.71 8.94c5.55 0 10.37-.23 15.16.09 2.77.19 5.49 1.26 8.23 1.94L230 194.81c3.42-3.81 6-7.36 10.14-9.42z" transform="translate(-78 -95.37)"/><path class="cls-99" d="M255.81 196.37l.93-1.92 4.88 5.18c-3.17 1.28-3.17 1.28-5.81-3.26z" transform="translate(-78 -95.37)"/><path d="M262.7 199.18l4.87 1 1.58 1.24c-5.4 1.29-5.47 1.26-6.45-2.24z" transform="translate(-78 -95.37)" fill="#55362f"/><path d="M286.1 203.08l-2.88 2c-1.73-3.24 1.79-3.22 3.22-4.66-.11.91-.23 1.78-.34 2.66z" transform="translate(-78 -95.37)" fill="#973c3e"/><path d="M281.17 130.07l1 .84 3 2.9 6.78 5.85c.54.21 1.29.76 1.59.57 2.81-1.72 5.54-3.56 8.3-5.37l4.48 1.3c.08.53.15 1.06.23 1.59l-7.53 4c-3.21.08-3.62 1.87-2 4a58.11 58.11 0 005.74 5.68l1.88 2a17.68 17.68 0 001.17 2.53c1.26 1.88 0 2.13-1.41 2.38l-.9-1.07L293.21 145l-17.69 10.34c-1.62 1.54-2.2-.07-3-1-.43-2.2 1-3.21 2.62-4.1 3.37-1.9 6.8-3.71 10.15-5.65 1.39-.8 2.66-1.84 4.31-3l-12.13-11 .44-.72z" transform="translate(-78 -95.37)" fill="#e09a4e"/><path class="cls-11" d="M301.69 158.28c.5 2.32-1 3.21-2.8 3.73-7.78 2.27-14.81 1.2-20.67-4.82l13.92-9z" transform="translate(-78 -95.37)"/><path d="M281.17 130.07l-3.28-.2-.44.72 12.13 11c-1.65 1.16-2.92 2.2-4.31 3-3.35 1.94-6.78 3.75-10.15 5.65-1.58.89-3.05 1.9-2.62 4.1-2.48-2.17-.29-3.45.93-4.92l.95-1.1 11.76-7.32c-2.11-1.63-3.65-2.79-5.14-4s-3.14-2.64-4.71-4l-1.94-3.22 4-2.86z" transform="translate(-78 -95.37)" fill="#774937"/><path d="M301.69 158.28l-9.55-10.07-13.92 9-2.7-1.88L293.21 145l10.32 12.29z" transform="translate(-78 -95.37)" fill="#7f4839"/><path d="M274.38 148.31l-.95 1.1-3-.31v4.31c-3.4-8.4-2.62-16.27 3-23.53.31 0 .61 0 .92-.07l1.94 3.22c-4.71 2.15-7 11.12-3.71 14.8.34.39 1.19.33 1.8.48z" transform="translate(-78 -95.37)" fill="#783837"/><path class="cls-40" d="M307.52 152.5l-7.16-8.38 5.8-3c2.69 3.57 3.09 6.88 1.36 11.38z" transform="translate(-78 -95.37)"/><path class="cls-106" d="M302.79 151.38a58.11 58.11 0 01-5.74-5.68c-1.64-2.14-1.23-3.93 2-4-1.64 1.72-1.32 3.18.28 4.85a40.16 40.16 0 013.46 4.83zM304.43 158.33c1.38-.25 2.67-.5 1.41-2.38a17.68 17.68 0 01-1.17-2.53 16.31 16.31 0 012.94 3.06c.43.75 0 2 0 3z" transform="translate(-78 -95.37)"/><path d="M199.39 138.84l10.29 3.31 5.9-5.54 2.14.93-6.22 6.92 14 8c-.72 4.24-1.34 4.63-4.61 2.66-2.89-1.75-5.65-3.72-8.57-5.4-1.81-1-3.88-2.11-5.24.76L206 148.3c-.29-4.13-4.08-4.38-6.65-6-.01-1.14.02-2.3.04-3.46z" transform="translate(-78 -95.37)" fill="#df994e"/><path d="M219.76 157.16c-.65 5.46-5.48 6.1-9.25 7.66-1.79.74-4.12.2-6.2.23s-2.23-1.35-2-2.93l7.95-10.6z" transform="translate(-78 -95.37)" fill="#c04448"/><path d="M219.76 157.16l-9.53-5.64-7.95 10.6-2.35.8 7.15-12.5c1.36-2.87 3.43-1.8 5.24-.76 2.92 1.68 5.68 3.65 8.57 5.4 3.27 2 3.89 1.58 4.61-2.66.35 1.28.71 2.56 1.06 3.85z" transform="translate(-78 -95.37)" fill="#7b4838"/><path d="M198.19 156.09l-2.34 1.59c-1.41-4.54.18-8.47 1.79-12.31.21-.51 1.67-.49 2.55-.72l3.06 1.85z" transform="translate(-78 -95.37)" fill="#bc4347"/><path d="M207.08 150.42l-7.15 12.5-4.21-.31c1.07-1.93 1.78-3.2 2.5-4.48l7.78-9.83z" transform="translate(-78 -95.37)" fill="#cd8d4a"/><path d="M206 148.3l-7.75 9.83v-2l5.06-9.59-3.06-1.85-.87-2.33c2.51 1.56 6.3 1.81 6.62 5.94z" transform="translate(-78 -95.37)" fill="#7b4738"/><path d="M285.3 130.83l-1.3-2.77c6.39.1 11.83.64 15.74 5.73a15.11 15.11 0 00-2.12 1.09c-3.11 2.29-5.71 2.12-8.21-1.08-.96-1.29-2.7-2-4.11-2.97z" transform="translate(-78 -95.37)" fill="#b54245"/><path d="M285.3 130.83c1.41 1 3.15 1.68 4.15 3 2.5 3.2 5.1 3.37 8.21 1.08a15.11 15.11 0 012.12-1.09l2 1.07c-2.76 1.81-5.49 3.65-8.3 5.37-.3.19-1-.36-1.59-.57l-6.78-5.85-3-2.9z" transform="translate(-78 -95.37)" fill="#7f4b39"/><path d="M100.73 263.24l10.76-4.35 28.32-8.81q7.22-2 14.43-4l27.55-7.72 1.8.23-1 6.51-.3-3.67a16.62 16.62 0 00-3.38.24q-34.78 10.22-69.53 20.53c-2.93.86-5.89 1.65-8.83 2.48z" transform="translate(-78 -95.37)" fill="#625052"/><path d="M230.28 308.72l-1.75.15c-1.91-.16-4.25-1.68-5.07 1.6-.8-3.4-3.67-4.12-6.44-4.48-.92-.12-2.92 1.32-2.93 2.08-.07 4.18-1.83 8.86 3.71 12.26h-3.94c-2.4-.24-1.8-2.09-2-3.59-.3-3-.65-6.08-1-9.12-.65-3.26-1.29-6.51-1.94-9.77.39-.39.85-1.14 1.17-1.09a14.85 14.85 0 012.84 1c3.49 4.17 8.59 5.23 13.35 7 2.55.94 5.69.86 7.1 3.9z" transform="translate(-78 -95.37)" fill="#3e3333"/><path d="M183.59 238.58l-1.8-.23-4.5-.21 2.41-1.83 2.77-1 19.69-4.88c2.3-.54 4.62-1 6.9-1.63 7.3-2 14.62-3.91 21.85-6.12s14.45-3.07 22-1.11c8.43 2.2 17 3.94 25.48 5.88l12.53 3 11.83 2.81 3.43 1.87-5.66.35-7.61-1.66c-.25-.39-.44-1.07-.77-1.14-6.59-1.41-13.21-2.75-19.81-4.1l-7.59-.9-6.86-1.23-5.88-.85c-7.32-2.31-14.47-1.2-21.57 1.06l-11.65 2.71-3 1.25-8.69 1.8z" transform="translate(-78 -95.37)" fill="#dfb25b"/><path d="M202 261.85c-4.17-5.7-4.32-13.46.06-16.92 1.5-1.19 3.88-1.26 5.87-1.84l.17 1.16c1.72 2.13 7.16 2.73 8.51.83.25-.35-.4-1.34-.64-2-.32-1-.65-1.9-1-2.84l3.78 2 1 3.88c-3.68.34-7.35.79-11 1-2.57.14-3.05 1.23-2.22 3.31l8.78-.41 4.37 5.12-4-.53-.24-3.25c-7.34-.69-7.93-.28-9.41 6.31l-2.77-1.77-2.26-7.23-1.54.45 2.67 10.77.13 1.78z" transform="translate(-78 -95.37)" fill="#564948"/><path d="M208.08 244.25l-.17-1.16a39.18 39.18 0 011.59-5.41c1.21-2.71.55-4.39-2.4-5.26l8.69-1.8c-3.43 2.06-3.74 3.52-1.59 7a7.67 7.67 0 01.59 1.73c-4.53-1.92-5.15-1.43-6 4.67a2.7 2.7 0 01-.71.23z" transform="translate(-78 -95.37)" fill="#6f5d50"/><path d="M216.89 326.07a31.67 31.67 0 01-3.15-3c-.29-.35.08-1.26.14-1.92l6.92 1.6c.58-1.69 1.08-3.12 1.57-4.56l1.23 5.89-1.34 3.61c-2.26 1.45-3.7-.55-5.37-1.62z" transform="translate(-78 -95.37)" fill="#cea455"/><path d="M223.6 324.11l-1.23-5.89 1.09-7.75c.82-3.28 3.16-1.76 5.07-1.6l-.9 1.46c-1 3.61-1.95 7.23-3 10.83-.25 1-.63 1.97-1.03 2.95z" transform="translate(-78 -95.37)" fill="#b8944f"/><path d="M214.84 333c-.65-.28-1.84-.52-1.87-.84-.16-2.37-.08-4.76-.08-7.41l3.8 1.52c-.28 1.27-.57 2.54-.86 3.81z" transform="translate(-78 -95.37)" fill="#3b312d"/><path d="M184 269.61l-8.74-.45-.19-1.09 7.61-6.56c.38 2.19.77 4.64 1.32 8.1z" transform="translate(-78 -95.37)" fill="#624d51"/><path d="M213 297.72q-2.55-2.78-5.12-5.54l-.87-3.11c.47-.42 1-1.24 1.39-1.18 1.26.18 2.45.88 3.7 1.05a10.79 10.79 0 0010.6-4.4c2.38-3.15-1-4.87-2-7.2l1-.89c3.89.05 7.14-1 8.81-4.93a64.57 64.57 0 001.88-6.72c.36-2.05-.59-5.09.5-6.09 2.26-2.06 2.7-4.57 3.26-7.22l18.66 5.38c.64 3.55 1.69 7.08 1.82 10.65.15 4.16 1.44 7.44 4.68 10 1.5 1.19 2.92 2.48 4.38 3.72 7.45 6.27 16.08 7.23 25.94 5.8.11 1.74.24 3.75.37 5.76-.34.38-.67.77-1 1.15q-12.83 5-25.64 9.93l-7.46 2.87c-4.7 2.36-9.7 2.08-14.71 1.74L213 297.72zm46.27-5.72l-.55-1.41-8.32 3 .42 1.2a8.4 8.4 0 008.45-2.79zm-11.86 2.19c-2.43-1.41-4.38-2.89-7.74-1.37 2.66 1.7 4.44 4 7.74 1.32z" transform="translate(-78 -95.37)" fill="#f7ddc5"/><path class="cls-125" d="M207 289.07l.87 3.11c-4.74-3.67-4.24-9.2-4.72-14.2-.51-5.3-.23-10.68-.3-16 .15-.12.3-.25.46-.36l.89 14.8q1.42 6.32 2.8 12.65z" transform="translate(-78 -95.37)"/><path class="cls-125" d="M203.16 255.84l2.77 1.77.12 2.17h-2.83c0 .54.06 1.18.1 1.81-.16.11-.31.24-.46.36a3.44 3.44 0 00-.65-.28c0-.6-.08-1.19-.13-1.78z" transform="translate(-78 -95.37)"/><path d="M223.46 310.47l-1.09 7.75c-.49 1.44-1 2.87-1.57 4.56l-6.92-1.6v-.85h3.94c-5.54-3.4-3.78-8.08-3.71-12.26 0-.76 2-2.2 2.93-2.08 2.75.36 5.62 1.08 6.42 4.48z" transform="translate(-78 -95.37)" fill="#563e41"/><path class="cls-127" d="M225.58 134.67c3.52 4.71 2.88 9.7 1 14.76-4-.47-6.85-3-10-5.55 2.31-4.07 4.77-7.47 9-9.21z" transform="translate(-78 -95.37)"/><path d="M225.58 134.67c-4.23 1.74-6.69 5.14-9 9.21 3.13 2.58 6 5.08 10 5.55-.35 1-.7 2-1 3l-14-8 6.22-6.92c1.4-1.25 3.08-2.3 4.14-3.79 1.71-2.41.29-3-2-2.68 1.53-1.7 2.76-1.83 3.8.52a23.8 23.8 0 001.84 3.11z" transform="translate(-78 -95.37)" fill="#7e4839"/><path class="cls-40" d="M215.82 132.85l-7.33 6.86-3.51-4c2.76-1.52 5.47-3.13 8.3-4.52 1.42-.66 2.5-.19 2.54 1.66z" transform="translate(-78 -95.37)"/><path d="M219.83 131.07c2.32-.34 3.74.27 2 2.68-1.06 1.49-2.74 2.54-4.14 3.79l-2.14-.93 1.25-2.82z" transform="translate(-78 -95.37)" fill="#cb8c49"/><path class="cls-130" d="M179.7 236.31l-2.41 1.83 4.5.21-27.55 7.72q-7.22 2-14.43 4l-4.09-1.07q21.25-6.36 42.53-12.7a4.75 4.75 0 011.45.01zM202.16 230.41l-19.69 4.88z" transform="translate(-78 -95.37)"/><path class="cls-68" d="M290.88 230.48l-12.53-3z" transform="translate(-78 -95.37)"/><path class="cls-46" d="M310.51 204.12c1.87-1.81 3-.8 3.84 1.06.61 1.39 1 2.86 1.64 4.62l-2.47.13z" transform="translate(-78 -95.37)"/><path d="M199.29 188.62c3.92-5.14 5.06-5.26 9.59-.55 3.67 3.81 7.17 7.78 11.36 12.36-5.25.94-9.83 2-14.46 2.53-2.76.34-5.61 0-8.42-.07l-3.67-4c1.78-3.24 3.69-6.76 5.6-10.27z" transform="translate(-78 -95.37)" fill="#eba252"/><path d="M180.28 199.49c.93 1.34 1.8 2.11 1.92 3 .06.43-1.25 1.39-2 1.45-.47 0-1.4-1.11-1.46-1.78s.75-1.39 1.54-2.67z" transform="translate(-78 -95.37)" fill="#b67e45"/><path d="M332.06 210.37c-4.91-1-9.24-1.91-13.56-2.85-.42-.1-1-.55-1.09-.91-.69-4.39-4.27-5.58-8.51-6.77l10.8-13.08z" transform="translate(-78 -95.37)" fill="#e89f51"/><path d="M292.94 294.9c.33 2.29.78 4.57 1 6.88.16 2 0 4 0 7.13l3.71-4.24c0 4.74-2.78 9.12 1.2 12.73l-3.6 3.19-1.2-.66c.27-2.23.54-4.45.87-7.2a7 7 0 00-3.91 6.61l-2.92-1c1.75-4.06 1-8.17.59-13l-10.36 1.32-4 1c-2.54-1.64-4.62.17-6.83.93l-3.8-1.82a3 3 0 01.89-.16l12.74-4.9 12.57-5.91z" transform="translate(-78 -95.37)" fill="#3f3434"/><path d="M289.18 356.21c-4.45-6.83-9-13.61-13.29-20.53-1.17-1.87-.61-3.57 1.76-4.62 8-3.55 9-2.78 9.56 6 .28 4.6 1.57 9.14 2.41 13.7.3 1.66.62 3.31.93 5z" transform="translate(-78 -95.37)" fill="#573e43"/><path class="cls-37" d="M278.32 306.64l10.36-1.32c.37 4.87 1.16 9-.59 13-9.68 2.84-7.81 3.05-9.74-5.36-.47-1.96-.04-4.19-.03-6.32z" transform="translate(-78 -95.37)"/><path d="M273.43 323.27c-.88-4.78-1.75-9.56-2.67-14.59 2.45-1.44 3.18 1.46 4.63 2.87l3 11.93 10.3-2.64c-1.24 4.59-8.19 8.15-14.86 8-.12-1.84-.26-3.7-.4-5.57z" transform="translate(-78 -95.37)" fill="#e0b35b"/><path class="cls-75" d="M278.13 373.94q-.87-6.3-1.75-12.6c.92 3.9 1.87 7.8 2.72 11.72.05.21-.63.58-.97.88z" transform="translate(-78 -95.37)"/><path class="cls-137" d="M263.71 306.76l3.8 1.82q-1.41 4.91-2.8 9.79c0 .62-.08 1.24-.13 1.87l-2.92-1.05-2.4-1.45c1.66-3.2 1.66-3.2-1.36-5.22.39-1.48.79-3 1.17-4.37z" transform="translate(-78 -95.37)"/><path d="M261.66 319.19l2.92 1.05-.85 11.64-4-1.69a1.49 1.49 0 01.92-.21c3.95-.75 4.21-2.11 1.1-5.75.2-1.14.41-2.27.61-3.4-1.19-.13-2.46-.59-3.54-.31-4.34 1.11-8.62 1.8-12.93 0l1.23-1.11 1.95.2 6.78.06 2-.26z" transform="translate(-78 -95.37)" fill="#6e5d49"/><path d="M260.64 330a1.49 1.49 0 00-.92.21 34.89 34.89 0 00-4.76 2.75c-1.86 1.48-3.46 3.29-5.55 5.33-2.46-2.07-4.75-4.28-7.34-6-1.61-1.09-3.69-1.52-5.55-2.24-1.9-2-1.54-4.17-.42-7.12 2.6 4.75 6.52 3.87 10.32 3.46a14.86 14.86 0 00-5.23-2.34c-1.24-.39-3.21-.38-1.89-2.64l6.58-.87c4.31 1.85 8.59 1.16 12.93 0 1.08-.28 2.35.18 3.54.31-.2 1.13-.41 2.26-.61 3.4-2.35.23-5.28-1.37-7.15 2.47h8.07l.42.91z" transform="translate(-78 -95.37)" fill="#e8cfba"/><path class="cls-140" d="M245.88 320.47l-6.58.87-4.86 1.09c-.68-3.14-1.32-6.28-2.06-9.41a13 13 0 00-1.09-2.34l-1-2 3.12-.12c.53 3 .9 6 1.66 8.89a3.06 3.06 0 002.44 1.61c.6 0 1.53-1.37 1.67-2.23.36-2.17.36-4.4.52-7l-6.28-1.3c-1.41-3-4.55-3-7.1-3.9-4.76-1.75-9.86-2.81-13.35-7l30.21 10.78c1.54.68 3.16 2.07 4.6 1.9 4.16-.5 6.14 1.36 7 5.07l1.05 4.15-6.78-.06c-.25-2.27 1-4.84-1.95-6.69v6.49z" transform="translate(-78 -95.37)"/><path d="M234.44 322.43l4.86-1.09c-1.32 2.26.65 2.25 1.89 2.64a14.86 14.86 0 015.23 2.34c-3.8.41-7.72 1.29-10.32-3.46-1.12 2.95-1.48 5.1.42 7.12-.73-.61-2-1.15-2.09-1.85a35 35 0 01.01-5.7z" transform="translate(-78 -95.37)" fill="#958578"/><path class="cls-70" d="M336.84 246.14c3.14.55 6.3 1 9.42 1.67q11.49 2.53 22.94 5.3a21 21 0 013.8 1.79c-6.86-1.48-13.75-2.85-20.58-4.49-5.23-1.25-10.42-2.83-15.58-4.27z" transform="translate(-78 -95.37)"/><path d="M244.13 347.63c1.37-.13 2.73-.28 4.1-.38 1.65-.12 3.31-.19 5.89-.34.38 1 1.07 2.82 1.76 4.65-.17.6-.69 1.48-.46 1.77 2.44 3.14 1.17 4.7-2 6.14-1.32.59-2.09 2.41-2.85 3.34a40.9 40.9 0 01-5.13-3.92 8.7 8.7 0 01-2-3.83 13.73 13.73 0 01-.17-4.44 14.49 14.49 0 01.86-2.99z" transform="translate(-78 -95.37)" fill="#523638"/><path d="M291 272.46l2.53.54-.75 1.29c-2.34-1.44-3.37.78-4.8 1.75-5.64 3.81-11.23 7.3-18.22 2.8-5.59-3.59-10.13-7.57-9.08-15.16a30.62 30.62 0 000-7.77c-.57-4.76 1.06-7.83 5.91-8.88l.09 2-2.95 1-1 1c-.42 3-.85 6.07-1.43 10.27l11.16-1.54 1-9.61-1.9-1.07v-.94a50.13 50.13 0 006.72-.14c1.41-.2 2.7-1.17 4-1.8l2 2.79-4.93.43v8.11c0 2.18 1.09 3.25 3.27 3.25h7.54c-.24 2.1-.39 3.42-.5 4.35l-9.36 1.55-1 9.75h-5.84l-1.63-9.49h-8.45c-.8 4.34 2 7.82 8.1 10.49 2.69 2.52 5.63 2.74 8.8 1l7.81-4.88zm-16.36-6.84a69.67 69.67 0 00.08 7.06c.09.87 1.1 1.66 1.69 2.49.62-.81 1.69-1.57 1.77-2.42.24-2.5.08-5 .08-7.14 3.78-1.93 7.79.79 11.29-3.39l-11.26-1.1a55.43 55.43 0 00-.07-6.63 13.85 13.85 0 00-1.55-3.56c-.68 1.26-1.72 2.44-2 3.78a45.54 45.54 0 00-.37 6.5l-10.6 1c3.37 4.17 7.22 1.48 10.92 3.41z" transform="translate(-78 -95.37)" fill="#714137"/><path class="cls-144" d="M280.27 266.61l9.36-1.55c.11-.93.26-2.25.5-4.35h-7.54c-2.18 0-3.28-1.07-3.27-3.25v-8.11l4.93-.43 1.87 1.07h-5.54v8.55c2 .13 3.75.36 5.48.31 1.23 0 3.4-.19 3.52-.69a7.37 7.37 0 00-.43-4.49c-.63-1.39-2-2.46-3-3.67h1.93c1 1.6 2.08 3.19 3.11 4.79.88 5.89 1.9 11.79-.18 17.65l-2.89 1c.8-2.13 4.38-3.33 2-6.84z" transform="translate(-78 -95.37)"/><path class="cls-145" d="M271.58 234.3a61.58 61.58 0 004.25 4.86c1.73 1.62 2.92 3.35 2.64 5.81l-3.18.06 1.95-3.36-5.24-2.11c-.22 1.23-.43 2.46-.64 3.69-3.21-.62-2.48-3.91-3.88-5.75 2.04-.19 4.44.06 4.1-3.2z" transform="translate(-78 -95.37)"/><path d="M287.11 242.19a20.9 20.9 0 012.3 3c.87 1.63 1.4 3.36-1.32 3.86l-6.56-6 .43-.83z" transform="translate(-78 -95.37)" fill="#5e4b4d"/><path d="M271.58 234.3c.34 3.26-2.06 3-4.12 3.2-.29-.71-.59-1.42-.89-2.13.12-1.53.24-3.06.38-4.82l2.69.8z" transform="translate(-78 -95.37)" fill="#b09385"/><path class="cls-68" d="M272.29 228.61c6.6 1.35 13.22 2.69 19.81 4.1.33.07.52.75.77 1.14l-20.46-4.46a1.31 1.31 0 00-.12-.78z" transform="translate(-78 -95.37)"/><path d="M275.29 245l3.18-.06 1.83.13c-.88.65-1.7 1.76-2.65 1.87a63 63 0 01-7.15.12c-1.91-1.87.1-2.26 1.15-3z" transform="translate(-78 -95.37)" fill="#a47d47"/><path class="cls-145" d="M272.29 228.61a1.31 1.31 0 01.12.78l-2.77 2-2.69-.8c-.14 1.76-.26 3.29-.38 4.82-.62-2.55-1.24-5.11-1.87-7.66z" transform="translate(-78 -95.37)"/><path d="M321.28 264.65l-2.92 2c.33-3.25.65-6.51 1-9.76z" transform="translate(-78 -95.37)" fill="#554846"/><path d="M270.5 247.09a63 63 0 007.15-.12c1-.11 1.77-1.22 2.65-1.87l1.91 1c-1.34.63-2.63 1.6-4 1.8a50.13 50.13 0 01-6.72.14z" transform="translate(-78 -95.37)" fill="#7d6246"/><path d="M266.53 247c-4.85 1.05-6.48 4.12-5.91 8.88a30.62 30.62 0 010 7.77c-1.05 7.59 3.49 11.57 9.08 15.16 7 4.5 12.58 1 18.22-2.8 1.43-1 2.46-3.19 4.8-1.75-.27.69-.53 1.39-.79 2.09a6.36 6.36 0 00-.87.06c-6.26 4-12.27 9-20.56 5.72a38.16 38.16 0 01-5.57-3.79c-2.25-2.15-5.2-4.41-5.93-7.14-1.23-4.59-1-9.59-1.3-14.42 0-2.88.86-6.06-2.59-7.8.85-.91 2.58-2 2.42-2.69-.72-3 1.42-3.73 3.12-4.93l2.81 3.14-2.47.93z" transform="translate(-78 -95.37)" fill="#a47e4b"/><path class="cls-85" d="M291.1 276.44a6.36 6.36 0 01.87-.06c.63.41 1.83.83 1.82 1.21-.19 5.77-.54 11.54-.85 17.31l-3 .89L291 294l1-1.15a15.32 15.32 0 00.88-3.43c.1-3.61 0-7.24 0-10.86z" transform="translate(-78 -95.37)"/><path class="cls-32" d="M291.16 254.81c-1-1.6-2.07-3.19-3.11-4.79l4.27-.32c-.44 1.92-.8 3.51-1.16 5.11z" transform="translate(-78 -95.37)"/><path d="M285.15 133.81l6.78 5.85z" transform="translate(-78 -95.37)" fill="#d4924b"/><path class="cls-127" d="M274.38 148.31c-.61-.15-1.46-.09-1.8-.48-3.28-3.68-1-12.65 3.71-14.8 1.57 1.33 3.11 2.68 4.71 4s3 2.37 5.14 4z" transform="translate(-78 -95.37)"/><path d="M266.53 247l-5.5-1.57 2.47-.93-2.81-3.14-6-12.59c.1-2 1.55-2.26 3.12-2.32l6.86 1.23c.63 2.55 1.25 5.11 1.87 7.66l.89 2.13c1.4 1.84.67 5.13 3.88 5.75a2 2 0 01.31.83c-1 .75-3.06 1.14-1.15 3l.95 1v.94h-4.86z" transform="translate(-78 -95.37)" fill="#413635"/><path d="M257.84 226.48c-1.57.06-3 .28-3.12 2.32-2.17-.25-1.88 1.37-1.75 2.55.67 5.89 1.44 11.78 2.18 17.66 3.45 1.74 2.57 4.92 2.59 7.8l-2.84-.94c-3.64-1.22-7.23-3.18-11-3.45-4.1-.3-6-2.32-7.52-5.5l-.2-1.71-.91-4.94H251v1h-13.51c2 7.7 3.07 8.4 15.4 10.33-.66-3.56-1.28-6.94-1.91-10.33.59-.72 1.69-1.47 1.65-2.15-.14-2.19-.93-4.35-1-6.54a57.42 57.42 0 01.4-6.91z" transform="translate(-78 -95.37)" fill="#594a49"/><path class="cls-155" d="M214.79 239.32a7.67 7.67 0 00-.59-1.73c-2.15-3.45-1.84-4.91 1.59-7l3-1.25h5.88v10.9c-1 .34-2 .69-3.05 1l-2.85.9-3.78-2a2.25 2.25 0 01-.2-.82zM251 241.2v-1c-.32-2.21-1-4.44-.89-6.64.14-3.37-1.09-5.71-4.14-6.9-2.48-1-9.77.93-10.84 2.86a6.14 6.14 0 00-.28 3.63c.36 2.37 1 4.7 1.51 7h-1l-1-1.88-3.75-9.83-.16-1.9c7.1-2.26 14.25-3.37 21.57-1.06a57.42 57.42 0 00-.4 6.91c.11 2.19.9 4.35 1 6.54 0 .68-1.06 1.43-1.65 2.15z" transform="translate(-78 -95.37)"/><path d="M230.42 226.66l.16 1.9-.17 1c-1.22.17-3.06-.11-3.56.58-2.69 3.72-1.27 8.07 3 9.82 1 .39 2 .66 3.27 1.1l.23-2.72h1l1 1.88.91 4.94c-1.8-1-3.58-2-5.41-2.87-3.84-1.93-4-1.87-6.14 1.85v-14.82h-5.88z" transform="translate(-78 -95.37)" fill="#706058"/><path d="M219.62 255.08l-4.37-5.08-8.78.41c-.83-2.08-.35-3.17 2.22-3.31 3.69-.2 7.36-.65 11-1 1.36 3.85 4.34 2.07 6.84 2 1.49.48 3 .87 4.48 1.45 1.68.65 3.68 1.49 3 3.69-.36 1.14-2 1.87-2.33 2.18l-1.32 13.44-2.12-1.86c-4.23 4.77-4.71 4.73-9.61.68-.79-.66-2.26-.48-3.41-.69-.13-2.83-.26-5.66-.4-8.58 4.93.59 4.93.59 4.8-3.33zm3.54 9.95c2.09-2.55 2.3-4.64-.3-7.08-1.75 2.6-2.04 4.7.3 7.05z" transform="translate(-78 -95.37)" fill="#392c2e"/><path d="M219.62 255.08c.13 3.94.13 3.94-4.8 3.28.14 2.92.27 5.75.4 8.58l-.26 1.78a38.65 38.65 0 01-1.12-4.91c-.27-2.54-.09-5.13-.43-7.66s-1.83-4-5-2.6l-1.41 6.23h-1l-.12-2.17c1.48-6.59 2.07-7 9.41-6.31l.24 3.25z" transform="translate(-78 -95.37)" fill="#b2b4b8"/><path d="M226.57 248c-2.5.1-5.48 1.88-6.84-2l-1-3.88 2.85-.9c1-.33 2-.68 3.05-1v3.92c.34.94.67 1.88 1 2.81z" transform="translate(-78 -95.37)" fill="#574848"/><path class="cls-160" d="M214.79 239.32a2.25 2.25 0 00.18.89c.33.94.66 1.89 1 2.84l-.38.35c-2.14.23-4.65-2.4-6.4.83l-.37-.24c.82-6.1 1.44-6.59 5.97-4.67z" transform="translate(-78 -95.37)"/><path d="M203.16 255.84l-1.08 4-2.67-10.77 1.54-.45z" transform="translate(-78 -95.37)" fill="#b5a291"/><path class="cls-160" d="M208.08 244.25a2.7 2.7 0 00.72-.26l.37.24c2.33 1.17 4.62 2.16 6.4-.83l.38-.35c.24.69.89 1.68.64 2-1.35 1.95-6.79 1.33-8.51-.8z" transform="translate(-78 -95.37)"/><path d="M207 289.07q-1.39-6.33-2.8-12.68l1.7 2.66c4.52-4 9.75-1.8 14.79-1.71 1 2.33 4.38 4.05 2 7.2a10.79 10.79 0 01-10.6 4.4c-1.25-.17-2.44-.87-3.7-1.05-.39-.06-.91.76-1.39 1.18zm2.05-6.73c3.66 4 5.54 4.58 7.59 2.46 1.62-1.67 1.23-3.12-.35-4.48-2.23-1.95-4.43-1.38-7.23 2.02z" transform="translate(-78 -95.37)" fill="#f5cdb1"/><path d="M220.7 277.34c-5-.09-10.27-2.29-14.79 1.71l-1.7-2.66-.89-14.8c0-.63-.07-1.27-.1-1.81H207c.14 7.09 4.05 13.34 9.48 15l-.59-3.25 5.78 4.93z" transform="translate(-78 -95.37)" fill="#f3d9c3"/><path class="cls-164" d="M292.86 278.52c0 3.62.1 7.25 0 10.86a15.32 15.32 0 01-.88 3.43c-.13-2-.26-4-.37-5.76-9.86 1.43-18.49.47-25.94-5.8l4.85 1.95c5.34 3.44 10.33 1.95 15.29-1 2.29-1.31 4.69-2.45 7.05-3.68z" transform="translate(-78 -95.37)"/><path d="M221.68 276.46l-5.78-4.94-.94-2.8.26-1.78c1.15.21 2.62 0 3.41.69 4.9 4.05 5.38 4.09 9.61-.68l2.13 1.85.12 2.72c-1.67 3.9-4.92 4.98-8.81 4.94z" transform="translate(-78 -95.37)" fill="#b65054"/><path d="M230.49 271.52l-.12-2.72 1.32-13.44c.35-.31 2-1 2.33-2.18.71-2.2-1.29-3-3-3.69-1.46-.58-3-1-4.48-1.45l-.88-1c.06-2.46 1.36-1.71 2.9-1.34 2.57.62 5.23.86 7.84 1.26 1.52 3.18 3.42 5.2 7.52 5.5 3.72.27 7.31 2.23 11 3.45l-.11 1-18.66-5.38c-.56 2.65-1 5.16-3.26 7.22-1.09 1-.14 4-.5 6.09a64.57 64.57 0 01-1.9 6.68z" transform="translate(-78 -95.37)" fill="#ddc5b0"/><path d="M254.79 256.87l.11-1 2.84.94c.35 4.83.07 9.83 1.3 14.42.73 2.73 3.68 5 5.93 7.14a38.16 38.16 0 005.57 3.79v1l-4.85-1.95c-1.46-1.24-2.88-2.53-4.38-3.72-3.24-2.57-4.53-5.85-4.68-10-.15-3.49-1.2-7.07-1.84-10.62z" transform="translate(-78 -95.37)" fill="#907960"/><path d="M254.79 315.47c-.88-3.71-2.86-5.57-7-5.07-1.44.17-3.06-1.22-4.6-1.9 5 .34 10 .62 14.71-1.74l6.79-1.09c0 .31 0 .62-.07.93a3 3 0 00-.89.16l-4.64 1.39c-.38 1.41-.78 2.89-1.17 4.37 0 .32-.07.64-.11 1-2.68-1.86-3.01-.21-3.02 1.95z" transform="translate(-78 -95.37)" fill="#73655e"/><path class="cls-164" d="M264.67 305.67l-6.79 1.09 7.46-2.87q12.82-5 25.64-9.93l-1.07 1.83-12.57 5.91z" transform="translate(-78 -95.37)"/><path d="M259.27 292a8.4 8.4 0 01-8.45 2.78l-.42-1.2 8.32-3z" transform="translate(-78 -95.37)" fill="#918174"/><path d="M247.41 294.14c-3.3 2.68-5.08.38-7.74-1.37 3.33-1.52 5.33-.04 7.74 1.37z" transform="translate(-78 -95.37)" fill="#938476"/><path class="cls-137" d="M264.67 305.67l12.67-4-12.74 4.9c.04-.28.06-.57.07-.9z" transform="translate(-78 -95.37)"/><path class="cls-140" d="M257.79 313.48c0-.32.08-.64.11-1 3 2 3 2 1.36 5.22l2.4 1.45-3.82.17c-.02-1.92-.04-3.88-.05-5.84z" transform="translate(-78 -95.37)"/><path d="M260.64 330l2.44-2.37-.42-.91h-8.07c1.87-3.84 4.8-2.24 7.15-2.47 3.11 3.62 2.85 4.98-1.1 5.75z" transform="translate(-78 -95.37)" fill="#908173"/><path d="M257.79 313.48v5.88l-2 .26-1.05-4.15c.06-2.16.39-3.81 3.05-1.99z" transform="translate(-78 -95.37)" fill="#898489"/><path d="M247.11 319.36v-6.49c3 1.85 1.7 4.42 1.95 6.69z" transform="translate(-78 -95.37)" fill="#908c92"/><path d="M233.41 308.6l6.28 1.3c-.16 2.57-.16 4.8-.52 7-.14.86-1.07 2.21-1.67 2.23a3.06 3.06 0 01-2.44-1.61c-.76-2.91-1.13-5.92-1.66-8.89z" transform="translate(-78 -95.37)" fill="#694956"/><path d="M274.62 265.62c-3.7-1.93-7.55.76-10.92-3.43l10.6-1a45.54 45.54 0 01.37-6.5c.26-1.34 1.3-2.52 2-3.78a13.85 13.85 0 011.55 3.56 55.43 55.43 0 01.07 6.63l11.26 1.1c-3.5 4.18-7.51 1.46-11.29 3.39 0 2.1.16 4.64-.08 7.14-.08.85-1.15 1.61-1.77 2.42-.59-.83-1.6-1.62-1.69-2.49a69.67 69.67 0 01-.1-7.04z" transform="translate(-78 -95.37)" fill="#ada2a0"/><path d="M273.38 250.09l-1 9.61h-9.73V251l1-1z" transform="translate(-78 -95.37)" fill="#a8373a"/><path d="M280.27 266.61h9.8c2.4 3.51-1.18 4.71-2 6.84l-7.81 4.88c-1.81.09-1.48-.9-1-2z" transform="translate(-78 -95.37)" fill="#a7373a"/><path class="cls-178" d="M271.48 277.35c-6.13-2.67-8.9-6.15-8.1-10.49h8.45l1.63 9.49z" transform="translate(-78 -95.37)"/><path class="cls-179" d="M262.69 251v8.73h9.73l-11.16 1.54c.58-4.27 1.01-7.27 1.43-10.27z" transform="translate(-78 -95.37)"/><path class="cls-144" d="M271.48 277.35l2-1h5.84c-.5 1.07-.83 2.06 1 2-3.21 1.74-6.15 1.52-8.84-1z" transform="translate(-78 -95.37)"/><path class="cls-179" d="M273.38 250.09l-9.71-.1 2.95-1h4.86z" transform="translate(-78 -95.37)"/><path class="cls-178" d="M286.13 250c1 1.21 2.39 2.28 3 3.67a7.37 7.37 0 01.43 4.49c-.12.5-2.29.66-3.52.69-1.73.05-3.46-.18-5.48-.31V250h5.55z" transform="translate(-78 -95.37)"/><path d="M271.65 244.08a2 2 0 00-.31-.83c.21-1.23.42-2.46.64-3.69l5.26 2.11-1.95 3.33z" transform="translate(-78 -95.37)" fill="#ccb09e"/><path d="M255.15 249c-.74-5.88-1.51-11.77-2.18-17.66-.13-1.18-.42-2.8 1.75-2.55l6 12.59c-1.7 1.2-3.84 2-3.12 4.93.13.69-1.6 1.79-2.45 2.69z" transform="translate(-78 -95.37)" fill="#bfa393"/><path d="M270.52 283.2v-1c8.29 3.26 14.3-1.69 20.56-5.72l1.76 2.08c-2.36 1.23-4.76 2.37-7.05 3.72-4.94 2.87-9.93 4.36-15.27.92z" transform="translate(-78 -95.37)" fill="#8e7257"/><path class="cls-183" d="M236.33 240.23c-.52-2.34-1.15-4.67-1.51-7a6.14 6.14 0 01.28-3.63c1.07-1.93 8.36-3.83 10.84-2.86 3.05 1.19 4.28 3.53 4.14 6.9-.09 2.2.57 4.43.89 6.64z" transform="translate(-78 -95.37)"/><path class="cls-51" d="M251 241.2c.63 3.39 1.25 6.77 1.91 10.33-12.33-1.93-13.42-2.63-15.4-10.33z" transform="translate(-78 -95.37)"/><path d="M236.43 246.92c-2.61-.4-5.27-.64-7.84-1.26-1.54-.37-2.84-1.12-2.9 1.34-.34-.93-.67-1.87-1-2.81 2.16-3.72 2.3-3.78 6.14-1.85 1.83.91 3.61 1.91 5.41 2.87z" transform="translate(-78 -95.37)" fill="#8e7e71"/><path class="cls-183" d="M230.41 229.56l.17-1 3.75 9.83h-1c-.99-2.97-1.96-5.9-2.92-8.83z" transform="translate(-78 -95.37)"/><path d="M230.41 229.56c1 2.93 1.93 5.86 2.89 8.78l-.23 2.72c-1.3-.44-2.31-.71-3.27-1.1-4.22-1.75-5.64-6.1-3-9.82.55-.69 2.39-.41 3.61-.58z" transform="translate(-78 -95.37)" fill="#b99a8c"/><path d="M223.16 265c-2.34-2.38-2-4.48-.3-7.08 2.6 2.47 2.39 4.56.3 7.08z" transform="translate(-78 -95.37)" fill="#b6525e"/><path d="M215 268.72l.94 2.8.59 3.25c-5.43-1.65-9.34-7.9-9.48-15l1.42-6.23c3.15-1.4 4.63-.07 5 2.6s.16 5.12.43 7.66a38.65 38.65 0 001.1 4.92z" transform="translate(-78 -95.37)" fill="#f9f7f6"/><path d="M215.57 243.4c-1.78 3-4.07 2-6.4.83 1.75-3.23 4.26-.6 6.4-.83z" transform="translate(-78 -95.37)" fill="#dbc2ad"/><path d="M209.06 282.34c2.8-3.4 5-4 7.24-2 1.58 1.36 2 2.81.35 4.48-2.05 2.1-3.93 1.55-7.59-2.48z" transform="translate(-78 -95.37)" fill="#f8be9a"/></svg>