<?xml version="1.0" encoding="utf-8"?>
<svg id="Layer_1" data-name="Layer 1" xmlns="http://www.w3.org/2000/svg" viewBox="0 0 343.79 385.4"><defs><style>.cls-1{fill:#fff;}.cls-2{fill:#fdeeac;}.cls-3{fill:#f39a50;}.cls-4{fill:#282224;}.cls-5{fill:#f39a51;}.cls-6{fill:#fcfcfc;}.cls-7{fill:#fbf3f5;}.cls-8{fill:#292220;}.cls-9{fill:#302827;}.cls-10{fill:#f7f0f2;}.cls-11{fill:#e2d0da;}.cls-12{fill:#534e51;}.cls-13{fill:#eeb750;}.cls-14{fill:#d4d1cc;}.cls-15{fill:#413127;}.cls-16{fill:#3d2e25;}.cls-17{fill:#42342c;}.cls-18{fill:#24150f;}.cls-19{fill:#dbd7d2;}.cls-20{fill:#dfced4;}.cls-21{fill:#cbc1ad;}.cls-22{fill:#dbd8d5;}.cls-23{fill:#e7cc9b;}.cls-24{fill:#534745;}.cls-25{fill:#83745f;}.cls-26{fill:#71665f;}.cls-27{fill:#2b2425;}.cls-28{fill:#2a2324;}.cls-29{fill:#241d1c;}.cls-30{fill:#fceeac;}.cls-31{fill:#ebeabf;}.cls-32{fill:#342f23;}.cls-33{fill:#e8be92;}.cls-34{fill:#0e0906;}.cls-35{fill:#130507;}.cls-36{fill:#332624;}.cls-37{fill:#382e2d;}.cls-38{fill:#fdefad;}.cls-39{fill:#ebbc8b;}.cls-40{fill:#e5bb90;}.cls-41{fill:#3a362c;}.cls-42{fill:#412e23;}.cls-43{fill:#fdf5f5;}.cls-44{fill:#433b35;}.cls-45{fill:#473a31;}.cls-46{fill:#5b5149;}.cls-47{fill:#4f3e31;}.cls-48{fill:#e7e1b2;}.cls-49{fill:#e89857;}.cls-50{fill:#f9ecad;}.cls-51{fill:#393228;}.cls-52{fill:#69604c;}.cls-53{fill:#fbecab;}.cls-54{fill:#362f2e;}.cls-55{fill:#dcd8b3;}.cls-56{fill:#f6f1c6;}.cls-57{fill:#b4af98;}.cls-58{fill:#af4152;}.cls-59{fill:#dddada;}.cls-60{fill:#b14454;}.cls-61{fill:#1c1212;}.cls-62{fill:#c0bca4;}.cls-63{fill:#f2efd1;}.cls-64{fill:#fdeead;}.cls-65{fill:#f3e7ab;}.cls-66{fill:#4a3f33;}.cls-67{fill:#3b3229;}.cls-68{fill:#403a2e;}.cls-69{fill:#373524;}.cls-70{fill:#463e31;}.cls-71{fill:#342e27;}.cls-72{fill:#443d32;}.cls-73{fill:#5f5442;}.cls-74{fill:#554e3f;}.cls-75{fill:#423d30;}.cls-76{fill:#3f392f;}.cls-77{fill:#393329;}.cls-78{fill:#413a2c;}.cls-79{fill:#352e23;}.cls-80{fill:#3e3930;}.cls-81{fill:#231c17;}.cls-82{fill:#2c251e;}.cls-83{fill:#615a4a;}.cls-84{fill:#675f4d;}.cls-85{fill:#140e09;}.cls-86{fill:#504939;}.cls-87{fill:#130808;}.cls-88{fill:#fde9da;}.cls-89{fill:#2c2525;}.cls-90{fill:#e19a5a;}.cls-91{fill:#412b29;}.cls-92{fill:#bf4153;}.cls-93{fill:#eae5e5;}.cls-94{fill:#b94151;}.cls-95{fill:#e3b14e;}.cls-96{fill:#e1b34f;}.cls-97{fill:#ddd9da;}.cls-98{fill:#bc4355;}.cls-99{fill:#dedbdb;}.cls-100{fill:#b24257;}.cls-101{fill:#d7d4d4;}.cls-102{fill:#d3d0d1;}.cls-103{fill:#dcc981;}.cls-104{fill:#46352a;}.cls-105{fill:#db9458;}.cls-106{fill:#b6b2b3;}.cls-107{fill:#534e53;}.cls-108{fill:#514a4f;}.cls-109{fill:#8b603b;}.cls-110{fill:#a16b40;}.cls-111{fill:#2f2727;}.cls-112{fill:#302a2a;}.cls-113{fill:#362924;}.cls-114{fill:#432f2a;}.cls-115{fill:#2f291f;}.cls-116{fill:#38302b;}.cls-117{fill:#1d120e;}.cls-118{fill:#3e3d38;}.cls-119{fill:#3d342f;}.cls-120{fill:#38302d;}.cls-121{fill:#ebe9e7;}.cls-122{fill:#e1bfaa;}.cls-123{fill:#ddbea8;}.cls-124{fill:#f2e7a8;}.cls-125{fill:#382a24;}.cls-126{fill:#3f3932;}.cls-127{fill:#302923;}.cls-128{fill:#4a413a;}.cls-129{fill:#3d342d;}.cls-130{fill:#382f2a;}.cls-131{fill:#332e25;}.cls-132{fill:#3f2d28;}.cls-133{fill:#3a342b;}.cls-134{fill:#37312b;}.cls-135{fill:#080504;}.cls-136{fill:#383028;}.cls-137{fill:#393027;}.cls-138{fill:#3e3731;}.cls-139{fill:#40372f;}.cls-140{fill:#3f3832;}.cls-141{fill:#41392d;}.cls-142{fill:#352f22;}.cls-143{fill:#443e32;}.cls-144{fill:#4d4939;}.cls-145{fill:#3a322c;}.cls-146{fill:#393429;}.cls-147{fill:#2e271e;}.cls-148{fill:#464032;}.cls-149{fill:#656152;}.cls-150{fill:#3c342a;}.cls-151{fill:#423e2e;}.cls-152{fill:#f8f4c1;}.cls-153{fill:#40382f;}.cls-154{fill:#413c30;}.cls-155{fill:#443f33;}.cls-156{fill:#514a3a;}.cls-157{fill:#352d24;}.cls-158{fill:#4e4b3e;}.cls-159{fill:#413a30;}.cls-160{fill:#1e1217;}.cls-161{fill:#3f372f;}.cls-162{fill:#342c26;}.cls-163{fill:#3b302c;}.cls-164{fill:#625744;}.cls-165{fill:#8e8870;}.cls-166{fill:#352e25;}.cls-167{fill:#fcf8cc;}.cls-168{fill:#050304;}.cls-169{fill:#26211b;}.cls-170{fill:#1d1313;}.cls-171{fill:#c8b6aa;}.cls-172{fill:#4b4745;}.cls-173{fill:#1f1110;}.cls-174{fill:#1a1613;}.cls-175{fill:#1c1611;}.cls-176{fill:#312621;}.cls-177{fill:#575444;}.cls-178{fill:#322928;}.cls-179{fill:#e0b78f;}.cls-180{fill:#19170f;}.cls-181{fill:#f1e6ac;}.cls-182{fill:#6a6453;}.cls-183{fill:#3a3327;}.cls-184{fill:#4b4536;}.cls-185{fill:#655d4c;}.cls-186{fill:#38372f;}.cls-187{fill:#686353;}.cls-188{fill:#201b0b;}.cls-189{fill:#040204;}.cls-190{fill:#19110f;}.cls-191{fill:#1f150e;}.cls-192{fill:#f5aaa3;}.cls-193{fill:#e1bfa9;}.cls-194{fill:#f0e8df;}.cls-195{fill:#f9cdb4;}.cls-196{fill:#f8d2bc;}.cls-197{fill:#fcddca;}.cls-198{fill:#261f1d;}.cls-199{fill:#40312f;}.cls-200{fill:#2d2322;}.cls-201{fill:#47433f;}.cls-202{fill:#e6ddd1;}.cls-203{fill:#d8bdad;}.cls-204{fill:#eb8556;}.cls-205{fill:#e47c46;}.cls-206{fill:#534b45;}.cls-207{fill:#49413a;}.cls-208{fill:#0c0406;}.cls-209{fill:#f1bea1;}.cls-210{fill:#352f34;}.cls-211{fill:#b84356;}.cls-212{fill:#f39b51;}.cls-213{fill:#e6e8e6;}.cls-214{fill:#c04356;}.cls-215{fill:#4d302d;}.cls-216{fill:#e8d9cb;}.cls-217{fill:#f4e5d8;}.cls-218{fill:#d4cea4;}.cls-219{fill:#d6d1ac;}.cls-220{fill:#d7d0ca;}.cls-221{fill:#4d3338;}.cls-222{fill:#3c332d;}.cls-223{fill:#e5723b;}.cls-224{fill:#ef8051;}</style></defs><path class="cls-1" d="M132.8,376c-11.3-9.94-20.21-21.82-28.36-34.37a167.6,167.6,0,0,1-23.17-56.93C78.7,272.65,78,260.32,78,247.89c.1-29.21,7.67-56.36,21.67-81.75a173.84,173.84,0,0,1,21.23-29.9c16.52-19.05,36.5-33.19,59.3-43.53,12.21-5.54,25-9.13,38.19-11.86,15.19-3.14,30.47-3.4,45.68-2.5,17.25,1,34,5.31,50.15,11.83a176.22,176.22,0,0,1,45.51,27,170.12,170.12,0,0,1,38.72,45.72,173.77,173.77,0,0,1,19.16,47.43,131.26,131.26,0,0,1,3.18,20.69c.73,9.34,1.08,18.73,1,28.1-.11,12.61-2.66,25-5.9,37.08a158.28,158.28,0,0,1-14.67,36.13c-6.19,11.14-13.22,21.78-22,31.13a49.37,49.37,0,0,0-5.57,6.64c-.77,1.2-.53,3.06-.75,4.61-.29-1.57-.59-3.15-.88-4.73q.54-10.2,1.1-20.4c.42-1.89.95-3.75,1.22-5.66,1.41-9.71,2.83-19.43,4.09-29.17,1-7.49,1.73-15,2.58-22.51.49-2.86,1.19-5.7,1.44-8.58.68-7.92,1.28-15.85,1.71-23.79.86-16,1.69-32.12-.54-48.09-1.95-13.92-5-27.67-10.4-40.7-7.66-18.36-16.94-35.75-32.1-49.23C334.56,116.06,328,110.26,321,105c-13-9.85-27.64-14.4-44.09-12.2-3.52.47-7.09.6-10.63,1-4.82.5-9.86.34-14.41,1.72-14.73,4.49-26.42,13.43-35.51,25.86-1.8,2.46-3.78,5.05-6.26,6.67a28.46,28.46,0,0,0-9.85,11.12c-1.14,2.2-2.58,3.08-5,2.89-4.9-.39-8.7,1.95-12.07,5.2A20.37,20.37,0,0,0,176.69,160a6.83,6.83,0,0,1-3.6,5.82c-10.07,6-19.27,13-26.38,22.43-3.29,4.36-6.11,9.09-9.14,13.65-7.13,10.89-10.47,23.11-11.92,35.84a136.5,136.5,0,0,0,.87,35,572.34,572.34,0,0,0,15.64,74.8c.94,3.34,1.75,6.72,2.59,10l-7.12,1.06c-.14.48-.27.95-.4,1.43l11,12.21-1.65,1c-3.92.29-7.84.47-11.74.94C134.11,374.14,133.49,375.33,132.8,376Z" transform="translate(-78.01 -77.9)"/><path class="cls-2" d="M360.37,461.93l-6.68.88c-.68-1.64-1.26-3.32-2.06-4.89-2.28-4.47-5-8.76-6.93-13.37a209.13,209.13,0,0,1-14.95-52.12c2-2.44,1.68-4.93.45-7.63a14.79,14.79,0,0,1-1-4.5c-.16-1.54.08-3.11,0-4.65-.27-3.2-1-6.39-1-9.58-.09-18.31-.05-36.62,0-54.93a9.88,9.88,0,0,1,.3-3.83c2-4.51,4.31-8.92,6.49-13.37a4.78,4.78,0,0,0,.89-1.1c2.12-5.26,1.39-11.49,5.58-16.08.37-.4-.14-1.52-.05-2.28.63-5.54.64-11.26,2.15-16.56,1.74-6.14,2.34-11.61-2.18-16.68a7.94,7.94,0,0,1-2.05-8c.36-1.32-.46-4-1.51-4.48-3.57-1.8-3.9-4.82-4.21-8.1a17.64,17.64,0,0,0-.84-3l3.9-3.68c-.78-4.3-3.59-4.35-6.72-3.43-2.46-5.42-9.27-9.92-1.66-16.1-1.15-1.9-2.08-3.59-3.17-5.18-2-2.95-2.22-5.44.9-7.95,2.37-1.92,3.38-4.8,3.94-8L321,172.15c2.37-3.9,7.21-5.65,5.55-10.5-3.75-.64-3.7-.7-7.88-4.39-1.81-1.6-4.16-1.79-5.59.2a8.51,8.51,0,0,1-5.89,3.77,21.07,21.07,0,0,0-4.38,1.8c-.13-2.38-.26-4.76-.37-7.14,0-.15.18-.29.2-.45.26-2.78,1-5.68.49-8.31-.19-.92-3.56-1.18-5.45-1.8s-3.21-1.59-2.62-3.9c.88-3.4,1.72-6.8,2.57-10.21,7.08-.76,8.85.39,12.13,6.5,1.24,2.29,3.52,4,5.8,6.53a19.55,19.55,0,0,0,1.75-3.57c.94-4.21-1.7-6.43-4.24-9.41-3-3.48-6.22-4.59-10.27-5.37-4.8-.93-10.43.32-13.91-4.65-.1-.14-.61,0-1.22.07v3.44c-3.68.86-7.43,1.72-11.17,2.62-2.64.63-3.25-.75-2.77-2.91.53-2.35,1.4-4.61,1.92-7,1-4.37,1.75-8.78,2.67-13.16.38-1.85.91-3.67,1.43-5.71,4.89.19,9.44-.47,14.33.47-4.6,6.53-4.38,8.15,1.14,13.08a5.22,5.22,0,0,1,1,1c3.58,5.88,9.38,7.3,15.61,7.83,3.46.29,4.13-.52,4.6-4,.34-2.47,1.15-4.88,1.94-8.12,3.85,4.4,8.81,6.08,12,10.72l-8,.94c3.69,3.29,5.55,6.93,9.51,8.36l3-4.61c.82.23,1.45.21,1.69.51,2.43,2.91,4.77,5.89,7.19,8.8.79,1,1.73,1.8,2.6,2.69,1.41,1.41,3.2,2.62,4.1,4.31.65,1.23.12,3.09.12,4.79,4.68,1.78,7.86,4.9,8.69,9.76-5.74,4.09-8.35-3.82-13.19-2.66,1.95,7.12,2.57,8,10.27,7.41,5.33-.36,7.09,2.94,9.08,6.49,1.78,3.19,2.47,6.34-1.28,9.07a16.71,16.71,0,0,1,2.28,2.1,3.18,3.18,0,0,1-1,5c-1.17.7-3.26,1.17-4.24.58a3.16,3.16,0,0,1-1-5A22,22,0,0,0,362,175c-7.3-2.82-7.3-2.82-7.54-6.81-3.27,0-6.61-.1-9.94.08-.83,0-2.28.92-2.32,1.48-.21,3.87-3.23,4.88-5.89,6.44s-5.32,3.58-8.36,5.65c1.28,2.71,2.71,5.41,3.86,8.23,2.37,5.79,3.17,6.39,9.31,6.23,4.11-.11,4.47-.45,4.61-4.44.05-1.46-.32-3.12.26-4.32s2.11-1.94,3.22-2.88c.79,1.06,2.14,2,2.26,3.18.32,3.06,0,6.18.18,9.26.09,1.36.83,2.67,1.45,4.57,2.54-3,4.87-4.92,6.2-7.42,1.68-3.18,2.86-3.84,5.1-1.07,1.69,2.09,3.44,3.28,6.14,3.13,4.51-.25,5.84,1.22,6.37,6.07.88,8.18,1.37,16.4,2,24.61.19,2.38.52,4.75.56,7.13.11,6.11.08,12.23.12,18.35,0,1.77.22,3.56.11,5.33-.15,2.4-.9,4.82-.74,7.18.63,9.32-2.47,18.33-2.15,27.62a9,9,0,0,1-1.05,4.2,3.39,3.39,0,0,1-2.41,1.77,3.09,3.09,0,0,1-2.09-2.13,19.05,19.05,0,0,1,.32-6.26,86.26,86.26,0,0,0,2.54-20.63A51.52,51.52,0,0,1,376,256.68c1.25-4.72,1.87-9.13-2.45-12.4-3.41-2.59-4.93-8.77-11.31-6.31-.68.26-1.87-.8-1.78-.76L355,240.65c4.43,1.45,4.58,4.29,4.44,7.36-.4,9.2-2.85,18.2-2.12,27.53.27,3.39-1.51,4.49-5.83,4.68-2.68.12-4,1.18-3.76,3.84.2,2.37-1.14,5.7,3,5.92,2.66.14,3.94,1.39,4.94,3.82.75,1.82,2.52,3.23,3.66,4.62l4.5-1.25c.76,6.53.45,6.8-5.61,5.69-1.56-.29-3.16-.32-5.06-.5-5.67,12.78-4.14,26.75-6.16,39.81-2.19.9-5-3.06-5.58,1.33,2.19,2.53,4.3,5,6.42,7.42-.21,8.39-.67,16.78-.55,25.16.15,10.13.81,20.25,1.24,30.37l.6,7.26,1.33-.13q-.48-6.57-1-13.15.25-23.94.49-47.89l11.66,11.25a22.88,22.88,0,0,1,.26-3.37c.26-.94.5-2.34,1.14-2.61.86-.38,2.71-.22,3.05.35a7,7,0,0,1,.65,4c-.25,2.81-1.87,5.75,1.31,8-.13,3.41-.19,6.82-.4,10.22A223.43,223.43,0,0,0,371.06,438c1.32,6.67,2.68,13.33,4,20l-6-6.74A55,55,0,0,0,367,446c-5.07-9.66-10.22-19.28-15.35-28.92l-1.33-2.15-1,.33,1.37,7.63C352.55,436.21,356.17,449.14,360.37,461.93Z" transform="translate(-78.01 -77.9)"/><path class="cls-3" d="M172.86,406.24a53.94,53.94,0,0,1-6.23-3.1c-2.6-1.72-5-3.79-7.43-5.7l.12-17.51L161.1,377l0,0c6.45,7.63,12.85,9.6,22,6.48,3.83-1.31,7.56-3,11.27-4.61,1.38-.62,2.07-.57,2.29,1-1,6-2.06,12-2.91,18-.18,1.28.42,2.68.65,4l-.13.37-.39,0-3,4.89Z" transform="translate(-78.01 -77.9)"/><path class="cls-4" d="M329.75,392.43a209.13,209.13,0,0,0,14.95,52.12c1.95,4.61,4.65,8.9,6.93,13.37.8,1.57,1.38,3.25,2.06,4.89-2.91-.17-5.05-1.2-6.31-4.2-2.23-5.32-5-10.42-7.28-15.71a145.57,145.57,0,0,1-6-15.1c-2.31-7.48-4.09-15.12-6.09-22.69-1-9.32-2.07-18.64-3-28-.65-6.62-1-13.26-1.7-19.88-.17-1.74.1-4.06-2.74-4.29-2.06,8.1-3.9,16.27-6.27,24.28-1.23,4.13-2,8-.81,12.25.75,2.78.77,5.75,1.17,8.63.51,3.61,1.07,7.22,1.6,10.84l-1.39,1.21c-2.69,0-2.33-1.91-2.49-3.7-.54-6.07-1.21-12.13-1.83-18.2l-1,0-5.91,10.2-.09-2.11c6.45-13.56,11.22-27.68,13.21-42.59,1.43-10.78,2.32-21.63,3.46-32.44h1.12a90.61,90.61,0,0,0,0,10.16c.55,5.16,1.57,10.27,2.39,15.4l1.54-.16V321.27l.65-10.19v0l-2-1.56,5.25-9c-.65,3.44-1.78,6.86-1.86,10.31-.31,13.63-.7,27.29-.29,40.91S328.82,378.86,329.75,392.43Z" transform="translate(-78.01 -77.9)"/><path class="cls-5" d="M309.41,413.41c-6.53,2.37-13,5-19.63,7-3.93,1.23-8.12,1.63-12.18,2.43a5.78,5.78,0,0,1-6.2-2.62l-1.61-2.86.73-.82q0-3.24.05-6.46c4.86-1.6,9.74-3.15,14.57-4.86.49-.18.66-1.27,1-1.93a19,19,0,0,0,4.32-.72c3.2-1.29,6.29-2.86,9.43-4.31,1.61,2.6,3.19,5.21,4.82,7.79,1.53,2.41,3.11,4.78,4.67,7.17Z" transform="translate(-78.01 -77.9)"/><path class="cls-6" d="M316.32,409c-.53-3.62-1.09-7.23-1.6-10.84-.4-2.88-.42-5.85-1.17-8.63-1.15-4.25-.42-8.12.81-12.25,2.37-8,4.21-16.18,6.27-24.28,2.84.23,2.57,2.55,2.74,4.29.66,6.62,1.05,13.26,1.7,19.88.92,9.33,2,18.65,3,28-1.43.07-3-.2-4.28.28C321.21,406.37,318.8,407.75,316.32,409Z" transform="translate(-78.01 -77.9)"/><path class="cls-7" d="M193.8,402.32l.39,0,.13-.37c1-3.83,1.91-7.66,3.11-12.52,2.17,1.76,4.52,2.78,5.25,4.49a4,4,0,0,0,3.88,2.81c.41,0,.79.48,1.16.72-1.13,1.34-2,2.39-3.36,4l7.43,2.94q1.44,2.57,2.89,5.13l1,7.44c-2.06-.8-3.84-.42-5.9.5-2.7,1.21-5.73,1.69-8.61,2.48l-9.1-2.95,1.38-4.73c.16-1.63.39-3.26.45-4.89S193.84,404,193.8,402.32Z" transform="translate(-78.01 -77.9)"/><path class="cls-8" d="M375.08,458c-1.34-6.66-2.7-13.32-4-20a223.43,223.43,0,0,1-3.43-57.72c.21-3.4.27-6.81.4-10.22q1-6.94,2-13.89l.41,3.26a16.72,16.72,0,0,0,1.66-5c.34-1.62.69-3.23,1-4.84q-.56,10.2-1.1,20.4l-.93,10.07c.31,1.27.63,2.54.94,3.81-.33.46-.94.93-.95,1.4q-.09,9.72,0,19.44c0,.47.61.94.94,1.41q.54,9.32,1.07,18.63c-.34,2.13-1.21,4.33-.91,6.37,1.1,7.49,2.59,14.92,3.93,22.35l2.82-.35,0,2.84c-.23,1.14-.45,2.28-.69,3.52Z" transform="translate(-78.01 -77.9)"/><path class="cls-9" d="M375.08,458l3.17,1.47c.24-1.24.46-2.38.69-3.52l1.93,3c-1.09,4.24-4.58,2.64-7.27,3-2.81-2.94-5.69-5.82-8.41-8.84-1.47-1.62-2.68-3.48-4.85-4.95,1,3.66,2,7.32,3,11a14.51,14.51,0,0,1,.12,3l-3.05-.21c-4.2-12.79-7.82-25.72-9.68-39.09l1,0c.69,2.1,1,4.48,2.15,6.27,4.94,7.5,10.14,14.82,15.25,22.21Z" transform="translate(-78.01 -77.9)"/><path class="cls-10" d="M145.47,389l-9.72-11.06-.05.12c4.56-.8,9.16-1.39,13.64-2.46a6.46,6.46,0,0,1,6,1.49l.84,1.43a25.62,25.62,0,0,0,.13,2.78c.33,2.22.75,4.42,1.18,6.92l-9,.54Z" transform="translate(-78.01 -77.9)"/><path class="cls-11" d="M269.79,417.39l1.61,2.86v5.09l-32,.36L228,418.24l.78-4.95.74-.74c-.19,2.37.17,4.41,2.64,5.61,8.7,4.2,17.67,7,27.45,4.83,3.25-.72,6.39-1.91,9.6-2.9C269.38,419.21,269.59,418.3,269.79,417.39Z" transform="translate(-78.01 -77.9)"/><path class="cls-12" d="M303.72,398.44l5.91-10.2,1,0c.62,6.07,1.29,12.13,1.83,18.2.16,1.79-.2,3.71,2.49,3.7l-5.52,3.23-.05-.16c-.61-1.89-1.13-3.83-1.86-5.68C306.31,404.5,305,401.48,303.72,398.44Z" transform="translate(-78.01 -77.9)"/><path class="cls-13" d="M224.26,424.77l-13.53-1.85c1.83-1.7,3.47-3.53,6.55-2.33.87.35,2.41-1,3.64-1.54,1.6.67,3.19,1.38,4.81,2,3.21,1.26,6.42,2.49,9.64,3.74Z" transform="translate(-78.01 -77.9)"/><path class="cls-9" d="M378.92,453.14l-2.82.35c-1.34-7.43-2.83-14.86-3.93-22.35-.3-2,.57-4.24.91-6.37,1,5,1.92,9.94,2.94,14.9C376.94,444.17,378,448.65,378.92,453.14Z" transform="translate(-78.01 -77.9)"/><path class="cls-14" d="M192.45,411.15c-6.12,1.85-12,1.77-17.47-2,.15-.26.3-.75.45-.75,5.18.06,10.37.09,15.54.36C191.51,408.76,192,410.31,192.45,411.15Z" transform="translate(-78.01 -77.9)"/><path class="cls-15" d="M148.46,388.71l9-.54c-.43-2.5-.85-4.7-1.18-6.92a25.62,25.62,0,0,1-.13-2.78l2,.3,1.18,1.16-.12,17.51-3-.72c1.75-4.44,1.46-5.77-1.53-6.9Z" transform="translate(-78.01 -77.9)"/><path class="cls-16" d="M235.37,424.81c-3.22-1.25-6.43-2.48-9.64-3.74-1.62-.64-3.21-1.35-4.81-2l-1.18-.88,1.75-2.11L225,418.8l3.79-5.51-.78,4.95,11.4,7.46h-3.23Z" transform="translate(-78.01 -77.9)"/><path class="cls-17" d="M219.74,418.17l1.18.88c-1.23.56-2.77,1.89-3.64,1.54-3.08-1.2-4.72.63-6.55,2.33l-2-.23c1-1,2-2.17,3.16-3.1s2.5-1.76,3.76-2.63l-1-7.44.95-1.3c.76,2.58,1.42,5.19,2.31,7.71A8.7,8.7,0,0,0,219.74,418.17Z" transform="translate(-78.01 -77.9)"/><path class="cls-18" d="M192.45,411.15c-.49-.84-.94-2.39-1.48-2.42-5.17-.27-10.36-.3-15.54-.36-.15,0-.3.49-.45.75l-2.12-2.88,17.91,1,3-4.89c0,1.68.15,3.37.09,5.05s-.29,3.26-.45,4.89Z" transform="translate(-78.01 -77.9)"/><path class="cls-19" d="M154.7,389.82c3,1.13,3.28,2.46,1.53,6.9l-7.71-6.08Z" transform="translate(-78.01 -77.9)"/><path class="cls-20" d="M215.67,417c-1.26.87-2.58,1.66-3.76,2.63s-2.12,2.06-3.16,3.1l-7.59-2.75c2.88-.79,5.91-1.27,8.61-2.48C211.83,416.54,213.61,416.16,215.67,417Z" transform="translate(-78.01 -77.9)"/><path class="cls-21" d="M372,406.14c-.33-.47-.94-.94-.94-1.41q-.09-9.72,0-19.44c0-.47.62-.94.95-1.4Q372,395,372,406.14Z" transform="translate(-78.01 -77.9)"/><path class="cls-22" d="M132.8,376c.69-.69,1.31-1.88,2.07-2,3.9-.47,7.82-.65,11.74-.94l-11.81,2.13.9,2.77.05-.12Z" transform="translate(-78.01 -77.9)"/><path class="cls-23" d="M235.37,424.81l.78.88-11.89-.92Z" transform="translate(-78.01 -77.9)"/><path class="cls-24" d="M154.7,389.82l-6.18.82L145.47,389l3-.24Z" transform="translate(-78.01 -77.9)"/><path class="cls-25" d="M371.08,380.08,372,370c.29,1.58.59,3.16.88,4.73Z" transform="translate(-78.01 -77.9)"/><path class="cls-26" d="M373.6,461.9c2.69-.32,6.18,1.28,7.27-3,.13,1.23.27,2.47.47,4.36Z" transform="translate(-78.01 -77.9)"/><path class="cls-27" d="M137.57,201.85c3-4.56,5.85-9.29,9.14-13.65,7.11-9.41,16.31-16.47,26.38-22.43a6.83,6.83,0,0,0,3.6-5.82,20.37,20.37,0,0,1,6.44-12.75c3.37-3.25,7.17-5.59,12.07-5.2,2.44.19,3.88-.69,5-2.89A28.46,28.46,0,0,1,210.07,128c2.48-1.62,4.46-4.21,6.26-6.67,9.09-12.43,20.78-21.37,35.51-25.86,4.55-1.38,9.59-1.22,14.41-1.72,3.54-.36,7.11-.49,10.63-1C293.33,90.58,308,95.13,321,105c7,5.28,13.59,11.08,20.14,16.9,15.16,13.48,24.44,30.87,32.1,49.23,5.44,13,8.45,26.78,10.4,40.7,2.23,16,1.4,32.05.54,48.09-.43,7.94-1,15.87-1.71,23.79-.25,2.88-.95,5.72-1.44,8.58A46.87,46.87,0,0,1,381,285c2.05-14.44,2.59-29,2.78-43.5.06-4.83-.54-9.67-.92-14.5-.65-8.2-1.27-16.4-2.12-24.58-.25-2.45-1.22-4.83-1.86-7.25l-.54.2q.22,3.56.46,7.11c-.24-.77-.55-1.52-.71-2.3a163.39,163.39,0,0,0-12.76-38.73c-11.07-23-28.08-40.86-48.76-55.41Q294.3,90.39,268.33,98.7a17.24,17.24,0,0,1-3.69.36l.05.12.46-2.75c-21.33,2.26-37.29,12.21-48.19,30.31l.82,2.17C206.51,132,201.32,140,199.34,151c-.22-1.51-.45-3-.74-5a28.39,28.39,0,0,0-5.08-.72c-7.22.26-15.08,10.07-13.78,17.19.12.63,1.31,1.07,2,1.59-.5.56-.9,1.34-1.53,1.63a100.22,100.22,0,0,0-26.88,19c-4.56,1.36-6.5,4.92-7.68,9.13l-3.06,4.52c-1,.77-2.06,1.56-3.11,2.32C138.86,201,138.21,201.43,137.57,201.85Z" transform="translate(-78.01 -77.9)"/><path class="cls-28" d="M137.57,201.85c.64-.42,1.29-.82,1.91-1.27,1.05-.76,2.07-1.55,3.11-2.32l-6.89,13.51c-1.86,5.42-3.76,10.83-5.5,16.28-.1.3,1,1,1.57,1.49-.14,2.25-.18,4.51-.45,6.74-.7,5.68-1.5,11.36-2.36,17.72,4.2-2.43,6.59-4.82,7.44-8.89.78-3.78,2.41-7.39,3.74-11a8.6,8.6,0,0,1,1.33-1.86l.38.3-5,18.48c-2.78,11-2.06,22.08-1,33.18l-.17,2.95h-1c-.37-2.52-.87-5-1.07-7.56-.29-3.65-.33-3.89-4.38-6.72,2.19,11.8,4.27,23,6.35,34.18,1.93,8.74,3.71,17.52,5.83,26.21,1.87,7.64,4.11,15.19,6.18,22.78l1.89,5.3-.17,2-5.61-1.74-.58,1.09,6.41,5.78.79-.72-1-4.45,1.95,1.16L155.31,377a6.46,6.46,0,0,0-6-1.49c-4.48,1.07-9.08,1.66-13.64,2.46l-.9-2.77,11.81-2.13,1.65-1-11-12.21c.13-.48.26-.95.4-1.43l7.12-1.06c-.84-3.26-1.65-6.64-2.59-10a572.34,572.34,0,0,1-15.64-74.8,136.5,136.5,0,0,1-.87-35C127.1,225,130.44,212.74,137.57,201.85Zm-7.76,57.88c2.1-1.67,4.72-3,4.51-6.11l-1.13-.94-4.34,5c-2.17,5.68-.89,10.44,3.92,14.79,1.57-3-.08-4.83-1.24-6.89C130.54,263.81,127.84,262.4,129.81,259.73Zm2.11,4.1,1.5-.21c-.06-1.23-.13-2.46-.2-3.68l-1.3,0Z" transform="translate(-78.01 -77.9)"/><path class="cls-29" d="M378.75,202.45q-.24-3.55-.46-7.11l.54-.2c.64,2.42,1.61,4.8,1.86,7.25.85,8.18,1.47,16.38,2.12,24.58.38,4.83,1,9.67.92,14.5C383.54,256,383,270.53,381,285a46.87,46.87,0,0,0,.05,7.3c-.85,7.5-1.6,15-2.58,22.51-1.26,9.74-2.68,19.46-4.09,29.17-.27,1.91-.8,3.77-1.22,5.66-.35,1.61-.7,3.22-1,4.84a16.72,16.72,0,0,1-1.66,5l-.41-3.26c2.52-19.6,5.23-39.18,7.51-58.81,1.71-14.65,3.26-29.34,4.15-44A223.24,223.24,0,0,0,378.75,202.45Z" transform="translate(-78.01 -77.9)"/><path class="cls-30" d="M378.75,202.45a223.24,223.24,0,0,1,2.91,50.9c-.89,14.71-2.44,29.4-4.15,44-2.28,19.63-5,39.21-7.51,58.81q-1,6.94-2,13.89c-3.18-2.22-1.56-5.16-1.31-8a7,7,0,0,0-.65-4c-.34-.57-2.19-.73-3.05-.35-.64.27-.88,1.67-1.14,2.61a22.88,22.88,0,0,0-.26,3.37L350,352.54l-.21-4.55c1.39-5.71,1.82-17.33.13-20.47-.43,7.08-.8,13.13-1.16,19.18-.3,1.4-.6,2.81-.89,4.22-2.12-2.44-4.23-4.89-6.42-7.42.58-4.39,3.39-.43,5.58-1.33,2-13.06.49-27,6.16-39.81,1.9.18,3.5.21,5.06.5,6.06,1.11,6.37.84,5.61-5.69l-4.5,1.25c-1.14-1.39-2.91-2.8-3.66-4.62-1-2.43-2.28-3.68-4.94-3.82-4.18-.22-2.84-3.55-3-5.92-.23-2.66,1.08-3.72,3.76-3.84,4.32-.19,6.1-1.29,5.83-4.68-.73-9.33,1.72-18.33,2.12-27.53.14-3.07,0-5.91-4.44-7.36l5.52-3.44c-.09,0,1.1,1,1.78.76,6.38-2.46,7.9,3.72,11.31,6.31,4.32,3.27,3.7,7.68,2.45,12.4a51.52,51.52,0,0,0-1.88,12.86,86.26,86.26,0,0,1-2.54,20.63,19.05,19.05,0,0,0-.32,6.26,3.09,3.09,0,0,0,2.09,2.13,3.39,3.39,0,0,0,2.41-1.77,9,9,0,0,0,1.05-4.2c-.32-9.29,2.78-18.3,2.15-27.62-.16-2.36.59-4.78.74-7.18.11-1.77-.09-3.56-.11-5.33,0-6.12,0-12.24-.12-18.35,0-2.38-.37-4.75-.56-7.13-.67-8.21-1.16-16.43-2-24.61-.53-4.85-1.86-6.32-6.37-6.07-2.7.15-4.45-1-6.14-3.13-2.24-2.77-3.42-2.11-5.1,1.07-1.33,2.5-3.66,4.46-6.2,7.42-.62-1.9-1.36-3.21-1.45-4.57-.19-3.08.14-6.2-.18-9.26-.12-1.13-1.47-2.12-2.26-3.18-1.11.94-2.65,1.68-3.22,2.88s-.21,2.86-.26,4.32c-.14,4-.5,4.33-4.61,4.44-6.14.16-6.94-.44-9.31-6.23-1.15-2.82-2.58-5.52-3.86-8.23,3-2.07,5.6-4,8.36-5.65s5.68-2.57,5.89-6.44c0-.56,1.49-1.44,2.32-1.48,3.33-.18,6.67-.08,9.94-.08.24,4,.24,4,7.54,6.81a22,22,0,0,1-1.7,3.28,3.16,3.16,0,0,0,1,5c1,.59,3.07.12,4.24-.58a3.18,3.18,0,0,0,1-5,16.71,16.71,0,0,0-2.28-2.1c3.75-2.73,3.06-5.88,1.28-9.07-2-3.55-3.75-6.85-9.08-6.49-7.7.54-8.32-.29-10.27-7.41,4.84-1.16,7.45,6.75,13.19,2.66-.83-4.86-4-8-8.69-9.76,0-1.7.53-3.56-.12-4.79-.9-1.69-2.69-2.9-4.1-4.31-.87-.89-1.81-1.73-2.6-2.69-2.42-2.91-4.76-5.89-7.19-8.8-.24-.3-.87-.28-1.69-.51l-3,4.61c-4-1.43-5.82-5.07-9.51-8.36l8-.94c-3.17-4.64-8.13-6.32-12-10.72-.79,3.24-1.6,5.65-1.94,8.12-.47,3.44-1.14,4.25-4.6,4-6.23-.53-12-1.95-15.61-7.83a5.22,5.22,0,0,0-1-1c-5.52-4.93-5.74-6.55-1.14-13.08-4.89-.94-9.44-.28-14.33-.47-.52,2-1,3.86-1.43,5.71-.92,4.38-1.71,8.79-2.67,13.16-.52,2.35-1.39,4.61-1.92,7-.48,2.16.13,3.54,2.77,2.91,3.74-.9,7.49-1.76,11.17-2.62v-3.44c.61,0,1.12-.21,1.22-.07,3.48,5,9.11,3.72,13.91,4.65,4.05.78,7.29,1.89,10.27,5.37,2.54,3,5.18,5.2,4.24,9.41a19.55,19.55,0,0,1-1.75,3.57c-2.28-2.51-4.56-4.24-5.8-6.53-3.28-6.11-5-7.26-12.13-6.5-.85,3.41-1.69,6.81-2.57,10.21-.59,2.31.76,3.29,2.62,3.9s5.26.88,5.45,1.8c.53,2.63-.23,5.53-.49,8.31,0,.16-.2.3-.2.45.11,2.38.24,4.76.37,7.14a21.07,21.07,0,0,1,4.38-1.8,8.51,8.51,0,0,0,5.89-3.77c1.43-2,3.78-1.8,5.59-.2,4.18,3.69,4.13,3.75,7.88,4.39,1.66,4.85-3.18,6.6-5.55,10.5l8.89,1.13c-.56,3.17-1.57,6.05-3.94,8-3.12,2.51-2.94,5-.9,7.95,1.09,1.59,2,3.28,3.17,5.18-7.61,6.18-.8,10.68,1.66,16.1,3.13-.92,5.94-.87,6.72,3.43l-3.9,3.68a17.64,17.64,0,0,1,.84,3c.31,3.28.64,6.3,4.21,8.1,1.05.52,1.87,3.16,1.51,4.48a7.94,7.94,0,0,0,2.05,8c4.52,5.07,3.92,10.54,2.18,16.68-1.51,5.3-1.52,11-2.15,16.56-.09.76.42,1.88.05,2.28-4.19,4.59-3.46,10.82-5.58,16.08a4.78,4.78,0,0,1-.89,1.1c0-1.41-.06-2.82-.1-4.22q1-6.21,2.06-12.42a6.68,6.68,0,0,0,.77-.07c.4-.79,1.16-1.6,1.14-2.38-.25-10.66-.38-21.32-1.07-32-.25-3.85-1.89-7.62-2.9-11.42l-2-5.85-1.65-5.16-3-7.71-5-9.19-.94-2.25-6.09-9.87c-2.77-3.14-3.82-6.63-3.91-10.95,0-2.9-2.37-5.76-3.68-8.64L301.77,165c-1.23-1.76-2.93-3.36-3.6-5.31a22.29,22.29,0,0,0-10.09-12.23l-8.51-3.09c-2.78-.28-5.59-.4-8.33-.91-1.33-.25-2.53-1.23-3.78-1.87l-1.67-3.24,4.07-3.44,11.52-5.35-.44-1a26.65,26.65,0,0,0-12.95,6l-4,2.11-4.27-2.83c-5.78-5.08-17.81-5.43-22.46-.15-.73.28-1.87,1-2.13.77-2.28-2.06-4.4-4.3-6.57-6.48a8.45,8.45,0,0,0,2.14-1.67c7.71-11.92,18.41-20.06,31.46-25.33a11,11,0,0,0,2.47-2,17.24,17.24,0,0,0,3.69-.36q25.92-8.26,48.19,7.31c20.68,14.55,37.69,32.38,48.76,55.41A163.39,163.39,0,0,1,378,200.15C378.2,200.93,378.51,201.68,378.75,202.45ZM353.42,312.5q.4-2.72.8-5.45l-1.71,0v5.49l-1.11,5.68c-1.27,4.57-1.27,4.57.84,6.58l.29-4.46ZM304.61,129.92l6.24,1.9c.15-.48.31-1,.46-1.46l-4.7-1.39-6.59-1.2a25.79,25.79,0,0,0-13.83-.21v1.26h11.7Zm-48.25-11.34c-2.44-2.4-9.93-3.4-12.37-1.59-.62.47-1.41,1.16-1.48,1.82a6.38,6.38,0,0,1-3.2,5c-.71.46-.83,2.31-.65,3.44.1.61,1.36,1.43,2.15,1.48C247.68,129.23,253.14,125.6,256.36,118.58Zm108.31,167c3.31-5.23,4.52-10.47,3.4-16.08a4.9,4.9,0,0,0-2.24-2.64c-.34-.22-1.76.66-2.21,1.35C361.26,271.78,362,282.14,364.67,285.55Zm-11.92,54.28c5.17-3.41.39-7.84,1.1-11.87Q353.31,333.9,352.75,339.83Z" transform="translate(-78.01 -77.9)"/><path class="cls-31" d="M334.84,289.72c0,1.4.07,2.81.1,4.22-2.18,4.45-4.45,8.86-6.49,13.37a9.88,9.88,0,0,0-.3,3.83c0,18.31-.06,36.62,0,54.93,0,3.19.71,6.38,1,9.58.13,1.54-.11,3.11,0,4.65a14.79,14.79,0,0,0,1,4.5c1.23,2.7,1.51,5.19-.45,7.63-.93-13.57-2.27-27.13-2.68-40.71s0-27.28.29-40.91c.08-3.45,1.21-6.87,1.86-10.31l.86-1.18Q332.47,294.52,334.84,289.72Z" transform="translate(-78.01 -77.9)"/><path class="cls-32" d="M347.83,350.92c.29-1.41.59-2.82.89-4.22l1,1.29.21,4.55q-.24,23.94-.49,47.89l-1,6c-.43-10.12-1.09-20.24-1.24-30.37C347.16,367.7,347.62,359.31,347.83,350.92Z" transform="translate(-78.01 -77.9)"/><path class="cls-33" d="M369.11,451.29c-5.11-7.39-10.31-14.71-15.25-22.21-1.18-1.79-1.46-4.17-2.15-6.27l-.09-5.78c5.13,9.64,10.28,19.26,15.35,28.92A55,55,0,0,1,369.11,451.29Z" transform="translate(-78.01 -77.9)"/><path class="cls-34" d="M348.52,406.45l1-6q.5,6.57,1,13.15l-1.33.13Z" transform="translate(-78.01 -77.9)"/><path class="cls-35" d="M351.62,417l.09,5.78-1,0-1.37-7.63,1-.33Z" transform="translate(-78.01 -77.9)"/><path class="cls-36" d="M211.79,404.39l-7.43-2.94c1.35-1.63,2.23-2.68,3.36-4-.37-.24-.75-.69-1.16-.72a4,4,0,0,1-3.88-2.81c-.73-1.71-3.08-2.73-5.25-4.49-1.2,4.86-2.15,8.69-3.11,12.52-.23-1.35-.83-2.75-.65-4,.85-6,1.92-12,2.91-18,.22,0,.43,0,.65-.06l.12.13.4,5.28,4.86-2.83c-1.44-2.37-.36-5.87-4.27-6.21l3-3.07c1,2.89,1.93,5.78,2.94,8.8l10.58-4.1-2.6-1.95,7.46,1.21c-.61-3.78-2.12-4.83-5-5.17-4.56-.52-9-1.78-13.56-2.73l3-.79c10.52,2,21,3.54,31.54-.17,1.14-.41,2.55-.06,3.84-.06a71.71,71.71,0,0,1-7.48,2.78c-2.5.63-3.83,1.88-4.07,4.18,2.93,3,5-.45,7.5-.45-1.07,1.73-1,2.69,1.35,3.3a40.33,40.33,0,0,1,6.26,2.77c-2.51-.48-5.16-.58-7.49-1.5-9.26-3.61-17.73-.33-26.26,2.65-.41.14-.64.82-.95,1.26l.5,1c4-1.08,7.9-2.33,11.93-3.17,2.07-.43,4.3-.11,6.47-.13l-.57,4.71,3.78,2c-1.88.28-3.91.36-3.9,3.05l-1.85-3.92c-5.94-.13-6.91,1.22-5,6.94.1.3.18.6.27.9-2.77,2.43.12,3.94.94,5.78l-1.16.65a7.05,7.05,0,0,0-.36,2.26,34,34,0,0,0,1.15,3.93,4,4,0,0,0-.69.06l-3.12-6.68-2-2.2,2.35-3.7c-4.82.21-7,2.95-8.9,6.94l3.84-.22C212,402.37,211.87,403.38,211.79,404.39Zm5.14-17.34-11.61-2.59c-.17,3.63-.31,6.57-.5,10.32l11.83-2.16C216.75,390.63,216.82,389.21,216.93,387.05Zm-13.66-3-5.87,3.78,5.52,2.56C203,388.25,203.13,386.61,203.27,384.06Zm11.88.09c4.27,1.92,7.33,1,8.42-2.45Z" transform="translate(-78.01 -77.9)"/><path class="cls-37" d="M197.23,379.82c-.22,0-.43.05-.65.06-.22-1.59-.91-1.64-2.29-1-3.71,1.66-7.44,3.3-11.27,4.61-9.1,3.12-15.5,1.15-22-6.48l4.26.84.38-.79-5.29-4c.32,1.93.5,3,.68,4-.6,1-1.19,1.94-1.78,2.91l-1.18-1.16,0-8.39.23-1.43c1.31.94,2.89,1.67,3.89,2.87,3.52,4.27,8.49,5.77,13.39,7.47,6.2,2.15,12.06,2.39,16.71-3.32h1l1.87.93C197.23,376.94,197.34,378.3,197.23,379.82Zm-30.71-1.6c3.28,4.59,5.45,5.25,11.08,3.67Z" transform="translate(-78.01 -77.9)"/><path class="cls-38" d="M320.3,321.3c-1.14,10.81-2,21.66-3.46,32.44-2,14.91-6.76,29-13.21,42.59L301,397.38q-1.06-2.46-2.11-4.91c-.66-3-1.44-5.88-1.94-8.85s-.69-5.74-1-8.61l-.87-10.18a28.81,28.81,0,0,1-.94-4c-.79-9.25-1.51-18.5-2.25-27.76l-2.7-21.84q-.45-3.88-.92-7.79c-.37-2-.75-4-1.12-6.07l-1-8.71c-1.8-6.06.15-11.36,3.18-16.51,1.38-2.35,2.48-4.87,3.7-7.31l6-8.44,17.32,12.18q1.5,11.73,3,23.44Q319.86,306.65,320.3,321.3Z" transform="translate(-78.01 -77.9)"/><path class="cls-39" d="M330.08,299.32l-.86,1.18-5.25,9-3.05,1.22c1.12-6.14,2.1-11.5,3.07-16.87l.46,1,9.48-11.7c-1.35,4.6-2.74,9.2-4,13.83A7.08,7.08,0,0,0,330.08,299.32Z" transform="translate(-78.01 -77.9)"/><path class="cls-40" d="M325.36,321.27v25.44l-1.54.16c-.82-5.13-1.84-10.24-2.39-15.4a90.61,90.61,0,0,1,0-10.16c.22-2,.47-4,.66-6,.23-2.44,1.08-4.25,3.94-4.22v0Z" transform="translate(-78.01 -77.9)"/><path class="cls-41" d="M326,311.06c-2.86,0-3.71,1.78-3.94,4.22-.19,2-.44,4-.66,6H320.3q-.45-14.66-.89-29.32l1.18-.09,3.61,1-.21,1c-1,5.37-1.95,10.73-3.07,16.87L324,309.5Z" transform="translate(-78.01 -77.9)"/><path class="cls-42" d="M301,397.38l2.63-1.05.09,2.11c1.27,3,2.59,6.06,3.78,9.13.73,1.85,1.25,3.79,1.86,5.68-1.56-2.39-3.14-4.76-4.67-7.17-1.63-2.58-3.21-5.19-4.82-7.79Z" transform="translate(-78.01 -77.9)"/><path class="cls-41" d="M325.36,321.27l.65-10.19C325.8,314.48,325.58,317.87,325.36,321.27Z" transform="translate(-78.01 -77.9)"/><path class="cls-43" d="M269.79,417.39c-.2.91-.41,1.82-.6,2.7-3.21,1-6.35,2.18-9.6,2.9-9.78,2.17-18.75-.63-27.45-4.83-2.47-1.2-2.83-3.24-2.64-5.61a.72.72,0,0,0,0-.87c2.1-4.12,3.58-8.81,9.34-9.31-1.19-2.66-1.82-4.72,2-4.54a7.58,7.58,0,0,0,2.47-.8c1.6-.86,3.11-2.15,4.81-2.48a89.28,89.28,0,0,1,9.43-.86c1.57,2.57,3.31,5.05,4.67,7.72a60.08,60.08,0,0,1,2.52,6.76l5.76,8.4Z" transform="translate(-78.01 -77.9)"/><path class="cls-44" d="M301,397.38l-1.13.91c-3.14,1.45-6.23,3-9.43,4.31a19,19,0,0,1-4.32.72l0,0c3.23-1.94,6.48-3.84,9.67-5.85,1.38-.87,3.39-1.57,2-3.92l1.1-1.11Q299.94,394.92,301,397.38Z" transform="translate(-78.01 -77.9)"/><path class="cls-45" d="M286.12,403.32c-.32.66-.49,1.75-1,1.93-4.83,1.71-9.71,3.26-14.57,4.86l-.06,0c.43-.59.73-1.51,1.3-1.72,4.75-1.76,9.55-3.4,14.34-5.08Z" transform="translate(-78.01 -77.9)"/><path class="cls-46" d="M270.52,416.57l-5.76-8.4,1.9-.91,3.85,2.89.06,0Q270.54,413.34,270.52,416.57Z" transform="translate(-78.01 -77.9)"/><path class="cls-47" d="M211.79,404.39c.08-1,.17-2,.25-3l2.71-3c.65.74,1.31,1.47,2,2.2-2.68-.07-3.42,1.24-2.57,3.65.49,1.35,1,2.69,1.49,4l-.95,1.3Q213.23,407,211.79,404.39Z" transform="translate(-78.01 -77.9)"/><path class="cls-48" d="M158.1,370.38c0,2.8,0,5.59,0,8.39l-2-.3-.84-1.43-4.05-12.59,1.07-1.14Z" transform="translate(-78.01 -77.9)"/><path class="cls-49" d="M215.63,408.22c-.49-1.34-1-2.68-1.49-4-.85-2.41-.11-3.72,2.57-3.65l3.12,6.68c.43,1.68.87,3.35,1.3,5l1.06-.06,5.55-10.33c3,.65,3.12,2.46,2.27,5a22.33,22.33,0,0,0-.49,4.82.72.72,0,0,1,0,.87l-.74.74L225,418.8l-3.48-2.74-1.75,2.11a8.7,8.7,0,0,1-1.8-2.24C217.05,413.41,216.39,410.8,215.63,408.22Z" transform="translate(-78.01 -77.9)"/><path class="cls-30" d="M136.84,251l5-18.48-.38-.3a8.6,8.6,0,0,0-1.33,1.86c-1.33,3.65-3,7.26-3.74,11-.85,4.07-3.24,6.46-7.44,8.89.86-6.36,1.66-12,2.36-17.72.27-2.23.31-4.49.45-6.74l3.1-6.6q3-7.27,6-14.54l-1.27-.53-3,5.91-.92-2,6.89-13.51,3.06-4.52,7.68-9.13a100.22,100.22,0,0,1,26.88-19c.63-.29,1-1.07,1.53-1.63l2.76-1.69c4.77,1,8.7-1.42,12.78-3.19.08,0-.06-.59-.1-.9l2.13-.07,12.53-2,9-.75,25.29-.1,7.8,1,8,.93,1.05.14c.08.45.06,1.24.26,1.31,5.8,1.86,11.63,3.64,17.45,5.44l1.48-.05a12.9,12.9,0,0,0,2.41,2.62c3,1.87,6.11,3.54,9.18,5.28l14.86,12.55,3.69,4.94c-2,2,.06,2.66,1.21,3.61a14.36,14.36,0,0,0-1.29,3.63c-.58,7.67-1,15.36-1.51,23L309,230.91l-.87.14q-2.25-5.64-4.52-11.3-2.34-5.49-4.7-11c-2.18-6.43-2.92-7.73-6.2-10,2,4.27,3.6,7.7,5.2,11.13l4.69,10.93a18.1,18.1,0,0,0,1.11,3.64c1.83,3.3,1.48,6.21-.62,9.35-1.48,2.2-2.25,4.88-3.33,7.35l-4.17,5.53-16.8-9.59c-5-2.65-7.78-6.93-9.52-12.17-.58-1.75-1.85-3.26-2.81-4.88l-.89.54q3.83,9.57,7.64,19.12l2.22,5.36c1,2.92.49,6.54,3.87,8.36l1.9,13-1.9.94-13.75-19.38q-4.33-5.94-8.66-11.9l-5.58-8.1-1.2.64c.94,6.68,1.35,13.46,4.75,19.6,1,2,1.94,4,2.9,6.05-.18.84-.73,1.81-.47,2.49,1.64,4.39,3.47,8.71,5.23,13.06-2,2.21-4.15,2.18-6.29.19q-7.08-6.56-14.12-13.14l-3.87-5-3.18-5-.63.24,1,8.64c.2,4.5.4,9,.61,13.62-4-.44-6.42-1.67-7.35-4.88q-3.62-13.12-7.21-26.25L215,217l-1.56.49a169.67,169.67,0,0,0,7,22.23q2.12,11,4.22,22.05l-.29,2a23.06,23.06,0,0,0-.77,4.13q-.12,10,0,19.95a26.22,26.22,0,0,0,.69,4.18q-.78,7.79-1.55,15.55c-1.07-1.38-2.15-2.76-3.22-4.16L207.08,287l-6-7.68-8.79-10.18-1.64-1.52a10.22,10.22,0,0,0-.53-2.83q-5.62-10.71-11.42-21.33c-.19-.34-1-.34-1.56-.51l8.48,22.66c.22,2.28,2.1,4.62-.28,6.79-1.13.27-2.15,1.33-3.16-.57a58.71,58.71,0,0,0-4.46-6.28l-5.9-9.76.07.11-.42-1-1.76-5.84q-1.81-8.81-3.64-17.62c.29-4.54.65-9.08.81-13.62,0-1-.67-1.94-1-2.91l-1.76,1q0,8.24.08,16.48,2.34,9.38,4.67,18.74l-.12,2.49-6.69,17.1-1,4.4c-1,.74-2.72,1.32-2.92,2.24a95.31,95.31,0,0,0-1.27,9.72c-.56,2.44-3.11,4.71-.67,7.42a1.27,1.27,0,0,1,0,.92l-2.95,2.18-3-10.55.08.15-1.05-7.88q-.51-6.32-1-12.65l-.06-14.77c.77-3.17,1.55-6.33,2.32-9.49l-1.06-.24c-1.76,3-1.85,6.4-1.9,9.8a11,11,0,0,0-1,3c-.14,4.53-.1,9.06-.13,13.6l-3.18,10.74c-2.75,5-3.53,10.43-3.55,16-.5,1.44-1,2.88-1.6,4.59l-1.34-4.31-1.2-8.49.17-2.95a14.14,14.14,0,0,0,.84-3.1q.58-13.49,1-27A11.26,11.26,0,0,0,136.84,251Zm11.73-30.07,3.13-4.73-1.18-.77-3,4.34c-2.28,3.59-4.91,7-5.63,11.27l1,.48ZM173,206a55.38,55.38,0,0,0,3.12,32.73C174.12,227.91,172.36,217.07,173,206Zm60,34.76c1.35-5-1.28-15.06-4.34-18.18C230.21,229.06,231.6,234.92,233,240.77ZM227.1,219l1.48-.59-3.93-9.67-1.48.6Z" transform="translate(-78.01 -77.9)"/><path class="cls-30" d="M184.5,162.33,181.74,164c-.69-.52-1.88-1-2-1.59-1.3-7.12,6.56-16.93,13.78-17.19a28.39,28.39,0,0,1,5.08.72c.29,2,.52,3.49.74,5,2-11,7.17-19,18.44-22.05l6.88,0-.11-.07,11.84,8.54,2.46-3.47c6.76-3.21,13.35-2.6,19.81.88l7.84,8c.5,2.18,1.5,3.3,4.08,2.81a41.28,41.28,0,0,1,6.78-.19L287.9,149c3.82,3.25,7.7,6.6,8.64,11.79a5.92,5.92,0,0,0,4.27,5.13l7,6.91c1.31,3.46,4.33,6.65,1.78,10.75L294.9,171l-12.73-6.94-1.48.05c-1-.91-1.91-2.26-3.1-2.64-4.82-1.54-9.73-2.76-14.61-4.11l-1.05-.14-8-1.76-7.81-1.15-26.39-.06L211,155.3l-11.65,2.87-2.13.07Z" transform="translate(-78.01 -77.9)"/><path class="cls-50" d="M217,126.74c10.9-18.1,26.86-28,48.19-30.31l-.46,2.75c-1.38.16-2.88,0-4.1.52C247,105.37,236,114.06,228.48,126.86l-3.93,2,.11.07c-.85-.71-1.6-1.82-2.55-2A27.53,27.53,0,0,0,217,126.74Z" transform="translate(-78.01 -77.9)"/><path class="cls-51" d="M228.48,126.86C236,114.06,247,105.37,260.59,99.7c1.22-.51,2.72-.36,4.1-.52l-.05-.12a11,11,0,0,1-2.47,2c-13.05,5.27-23.75,13.41-31.46,25.33a8.45,8.45,0,0,1-2.14,1.67Z" transform="translate(-78.01 -77.9)"/><path class="cls-28" d="M153.33,184.61l-7.68,9.13C146.83,189.53,148.77,186,153.33,184.61Z" transform="translate(-78.01 -77.9)"/><path class="cls-52" d="M217,126.74a27.53,27.53,0,0,1,5.15.18c.95.21,1.7,1.32,2.55,2l-6.88,0C217.5,128.19,217.23,127.46,217,126.74Z" transform="translate(-78.01 -77.9)"/><path class="cls-53" d="M139.81,295.33c0-5.6.8-11,3.55-16,.94,1.67-2.46,4,.74,5.4.78-3,1.53-5.95,2.53-9.83.78,2.15,1.2,3.32,1.62,4.49.05,2.79-.49,5.75,2.18,7.82l-.08-.15a12.31,12.31,0,0,0-.54,3.12c.36,4,.92,8.06,1.34,12.09.7,6.77,1.34,13.54,2,20.31.66,2.67-.93,6,2.2,7.95l-.11,4.2c0,2-.07,3.92-.11,5.89-1.21,1.39-2.89,2.6-3.52,4.21-1.13,2.92-1.55,6.1-2.42,9.13-.23.79-1,1.4-1.58,2.09-2.07-7.59-4.31-15.14-6.18-22.78-2.12-8.69-3.9-17.47-5.83-26.21.1-1.28.32-2.38,2-1.36l1.92,3c.83-4.67,1.52-8.24,2-11.83C141.58,296.39,140.41,295.82,139.81,295.33Z" transform="translate(-78.01 -77.9)"/><path class="cls-54" d="M147.62,356c.54-.69,1.35-1.3,1.58-2.09.87-3,1.29-6.21,2.42-9.13.63-1.61,2.31-2.82,3.52-4.21l3,3.15q-1.38,8.08-2.74,16.16l-1.14,0a78.21,78.21,0,0,1,.07-8.39,82.41,82.41,0,0,1,1.78-8.41c-.88.21-1.26.2-1.45.38a4.73,4.73,0,0,0-.83,1.18c-3.17,5.8-3.5,11.68-.44,17.64l-1.28.11-2.64-3.89v2.83Z" transform="translate(-78.01 -77.9)"/><path class="cls-55" d="M137.6,305.67c-1.67-1-1.89.08-2,1.36-2.08-11.19-4.16-22.38-6.35-34.18,4.05,2.83,4.09,3.07,4.38,6.72.2,2.53.7,5,1.07,7.56L136,298.74C136.53,301.05,137.07,303.36,137.6,305.67Z" transform="translate(-78.01 -77.9)"/><path class="cls-56" d="M136.84,251a11.26,11.26,0,0,1,.81,3.11q-.37,13.48-1,27a14.14,14.14,0,0,1-.84,3.1C134.78,273.07,134.06,262,136.84,251Z" transform="translate(-78.01 -77.9)"/><path class="cls-57" d="M134.87,222.94l-3.1,6.6c-.55-.5-1.67-1.19-1.57-1.49,1.74-5.45,3.64-10.86,5.5-16.28l.92,2c-.77,2.27-1.64,4.51-2.26,6.82C134.17,221.29,134.68,222.16,134.87,222.94Z" transform="translate(-78.01 -77.9)"/><path class="cls-58" d="M129.81,259.73c-2,2.67.73,4.08,1.72,5.83,1.16,2.06,2.81,3.87,1.24,6.89-4.81-4.35-6.09-9.11-3.92-14.79Z" transform="translate(-78.01 -77.9)"/><path class="cls-59" d="M149.31,363.29l1,4.45-.79.72-6.41-5.78.58-1.09,5.61,1.74Z" transform="translate(-78.01 -77.9)"/><path class="cls-60" d="M129.81,259.73l-1-2.07,4.34-5,1.13.94C134.53,256.72,131.91,258.06,129.81,259.73Z" transform="translate(-78.01 -77.9)"/><path class="cls-61" d="M136,298.74l-1.29-11.61h1l1.2,8.49Z" transform="translate(-78.01 -77.9)"/><path class="cls-62" d="M149.51,361.32v-2.83l2.64,3.89a1.5,1.5,0,0,1,.18.93l-1.07,1.14-1.95-1.16,0,0Z" transform="translate(-78.01 -77.9)"/><path class="cls-63" d="M131.92,263.83V260l1.3,0c.07,1.22.14,2.45.2,3.68Z" transform="translate(-78.01 -77.9)"/><path class="cls-64" d="M313.52,193.06c-1.15-.95-3.17-1.62-1.21-3.61l3.08,3,6.89,8.84.94,2.25,4,10.28.87,7.84.84,9,.21,7.56,0,15.68c-.09,1.84-.18,3.69-.28,5.53-.28,2.32-.72,4.64-.77,7,0,1.2.64,2.41,1,3.62l0-.08c-.55.54-1.44,1-1.59,1.64q-2,8.67-3.68,17.41a11.35,11.35,0,0,0,.32,3.18,3.43,3.43,0,0,0,0,.64l-3.61-1c-.33-3.68-.76-7.37-.95-11.06a44,44,0,0,1,.06-9.11c.89-5.54,2.3-11,3.41-16.51.11-.55-.31-1.21-.48-1.81a16.87,16.87,0,0,0-1.89,5.6c-.72,2.89-1.59,5.75-2.39,8.63q-1-4-1.91-8l-4.85-18.44-2-1.46h0c.62-4.15,1.26-8.29,1.85-12.43.36-2.52.65-5.06,1-7.59Q313,206.4,313.52,193.06ZM322.9,251l.89-.23v-9l-.89.06Z" transform="translate(-78.01 -77.9)"/><path class="cls-2" d="M256.36,118.58c-3.22,7-8.68,10.65-15.55,10.16-.79-.05-2.05-.87-2.15-1.48-.18-1.13-.06-3,.65-3.44a6.38,6.38,0,0,0,3.2-5c.07-.66.86-1.35,1.48-1.82C246.43,115.18,253.92,116.18,256.36,118.58Z" transform="translate(-78.01 -77.9)"/><path class="cls-2" d="M364.67,285.55c-2.71-3.41-3.41-13.77-1.05-17.37.45-.69,1.87-1.57,2.21-1.35a4.9,4.9,0,0,1,2.24,2.64C369.19,275.08,368,280.32,364.67,285.55Z" transform="translate(-78.01 -77.9)"/><path class="cls-65" d="M334.84,231.48c1,3.8,2.65,7.57,2.9,11.42.69,10.63.82,21.29,1.07,32,0,.78-.74,1.59-1.14,2.38.06-1.6.13-3.19.19-4.79l0-19.51-1-8.78q-.56-3.37-1.1-6.76Q335.27,234.44,334.84,231.48Z" transform="translate(-78.01 -77.9)"/><path class="cls-51" d="M315.39,192.48l-3.08-3-3.69-4.94,1-1c2.55-4.1-.47-7.29-1.78-10.75l.77-.94c1.31,2.88,3.63,5.74,3.68,8.64.09,4.32,1.14,7.81,3.91,10.95Z" transform="translate(-78.01 -77.9)"/><path class="cls-66" d="M330.08,299.32a7.08,7.08,0,0,1-.17-2.31c1.28-4.63,2.67-9.23,4-13.83,1-1.94,2-3.87,3-5.8l-.07-.08q-1,6.21-2.06,12.42Q332.47,294.52,330.08,299.32Z" transform="translate(-78.01 -77.9)"/><path class="cls-67" d="M258.66,134.83c-6.46-3.48-13.05-4.09-19.81-.88l-1.58-.18c4.65-5.28,16.68-4.93,22.46.15Z" transform="translate(-78.01 -77.9)"/><path class="cls-68" d="M300.81,165.89a5.92,5.92,0,0,1-4.27-5.13c-.94-5.19-4.82-8.54-8.64-11.79l.18-1.48a22.29,22.29,0,0,1,10.09,12.23c.67,1.95,2.37,3.55,3.6,5.31Z" transform="translate(-78.01 -77.9)"/><path class="cls-69" d="M349.75,348l-1-1.29c.36-6.05.73-12.1,1.16-19.18C351.57,330.66,351.14,342.28,349.75,348Z" transform="translate(-78.01 -77.9)"/><path class="cls-70" d="M258.66,134.83l1.07-.91,4.27,2.83,4-2.11,1.87.3-4.07,3.44,1.67,3.24-1,1.18Z" transform="translate(-78.01 -77.9)"/><path class="cls-71" d="M237.27,133.77l1.58.18-2.46,3.47-11.84-8.54,3.93-2,.09,1.2c2.17,2.18,4.29,4.42,6.57,6.48C235.4,134.78,236.54,134.05,237.27,133.77Z" transform="translate(-78.01 -77.9)"/><path class="cls-72" d="M266.5,142.8l1-1.18c1.25.64,2.45,1.62,3.78,1.87,2.74.51,5.55.63,8.33.91l-2.21,1a41.28,41.28,0,0,0-6.78.19C268,146.1,267,145,266.5,142.8Z" transform="translate(-78.01 -77.9)"/><path class="cls-73" d="M297.89,128.82h-11.7v-1.26a25.79,25.79,0,0,1,13.83.21Z" transform="translate(-78.01 -77.9)"/><path class="cls-74" d="M328.92,230.71l-.84-9,3.13-1.22,1.65,5.16-.95,1.1-1.69-2.36-.17,3.2Z" transform="translate(-78.01 -77.9)"/><path class="cls-75" d="M331.21,220.47l-3.13,1.22-.87-7.84,1-1.09Z" transform="translate(-78.01 -77.9)"/><path class="cls-76" d="M331.91,226.73l.95-1.1,2,5.85q.42,3,.86,5.91c-.31,1-.61,2.08-.91,3.12Z" transform="translate(-78.01 -77.9)"/><path class="cls-77" d="M269.86,134.94l-1.87-.3a26.65,26.65,0,0,1,12.95-6l.44,1Z" transform="translate(-78.01 -77.9)"/><path class="cls-2" d="M352.75,339.83q.56-5.94,1.1-11.87C353.14,332,357.92,336.42,352.75,339.83Z" transform="translate(-78.01 -77.9)"/><path class="cls-78" d="M277.36,145.42l2.21-1,8.51,3.09L287.9,149Z" transform="translate(-78.01 -77.9)"/><path class="cls-79" d="M315.39,192.48l.8-1,6.09,9.87Z" transform="translate(-78.01 -77.9)"/><path class="cls-80" d="M328.2,212.76l-1,1.09-4-10.28Z" transform="translate(-78.01 -77.9)"/><path class="cls-81" d="M300.81,165.89l1-.86,6.83,6.83-.77.94Z" transform="translate(-78.01 -77.9)"/><path class="cls-82" d="M297.89,128.82l2.13-1,6.59,1.2-2,.95Z" transform="translate(-78.01 -77.9)"/><path class="cls-83" d="M337.86,272.44c-.06,1.6-.13,3.19-.19,4.79a6.68,6.68,0,0,1-.77.07l.07.08c-2.3-2.62-.72-5.34-.21-8Z" transform="translate(-78.01 -77.9)"/><path class="cls-84" d="M352.53,320.3l-.29,4.46c-2.11-2-2.11-2-.84-6.58Z" transform="translate(-78.01 -77.9)"/><path class="cls-85" d="M352.53,320.3l-1.13-2.12,1.11-5.68h.91Z" transform="translate(-78.01 -77.9)"/><path class="cls-86" d="M304.61,129.92l2-.95,4.7,1.39c-.15.49-.31,1-.46,1.46Z" transform="translate(-78.01 -77.9)"/><path class="cls-87" d="M353.42,312.5h-.91V307l1.71,0Q353.83,309.78,353.42,312.5Z" transform="translate(-78.01 -77.9)"/><path class="cls-88" d="M156.29,295.4a1.27,1.27,0,0,0,0-.92l2-7.38,2.1-7.4,1.81-.51,9.67-.09,7.82-1.81,7.67,5,4.13,5c2.17,1.3,4.43,2.48,6.5,3.93,4.75,3.31,9.35,6.85,14.14,10.09,1.29.87,3.07,1,4.63,1.49l4.91,6,1.13,2.5c2.41,2.66,3.45.63,3.72-1.4.84-6.53,1.49-13.08,2-19.65a36.71,36.71,0,0,0-.61-6.3,19.5,19.5,0,0,1,2.35,6.61c.52,2.15-.33,5.06,3.77,6,1-2.12,2.59-4.25,3.12-6.61a78.2,78.2,0,0,0,1.18-10.52c.26-2.86.6-5.6,4.24-6.06,3.7.13,7.42.5,11.11.32,3-.15,5.6.22,8,2.26,1.54,1.29,3.69,1.83,5.52,2.68-.53-2.81-.94-5-1.36-7.13l3.62-.91c.86.62,1.78,1.18,2.58,1.88,3.75,3.25,7.47,6.53,11.2,9.8l2.95,6.39,1,8.71c-2,3.11.56,6.18.08,9.28l-1.75,2.19-2.89-3.25-27.87,8.82-16.76,1c-.4,1.27-.81,2.61-1.24,4a53.86,53.86,0,0,0,24,1.81c7-1.92,14-1.66,21.77-1.09l-5.7-3.18,10.89-6.42c.22,2.07.37,3.5.53,4.94.09,1,.19,1.92.26,2.88q.74,10.13,1.45,20.24l-8.67-2.63,1.94-1,4.95-.23c-.52-3.36-.95-6.14-1.5-9.73-3.81-.78-7.75-1.71-11.74-2.36-2.23-.36-6.38,2.51-7.38,4.73-.69.43-1.82.73-2,1.3a36.67,36.67,0,0,0-.77,5.16l4.86,4.15c-2,1.52-3.75,3.59-6,4.41a7,7,0,0,0-5,5.84c-.56,3.45-.9,6.93-1.38,10.76-6.08.41-10.59,4-14.68,8.24l-3.16,1c-1.29,0-2.7-.35-3.84.06-10.51,3.71-21,2.2-31.54.17-4.07-1.21-8.71-1-11.67-5-.61-.83-2.3-.91-3.53-1.22-1.67-.41-3.37-.71-4.73-1-.58-3.52-.88-6.59-1.63-9.53-.88-3.49-2.59-6.3-6.95-6.09-.62,0-1.3-1-1.95-1.51l4.45-.85c3.1-4.91,3.31-6,1.91-12.15H163.19v6c-.43.71-.87,1.41-1.3,2.11l-.74-.32c-.33-3.2-.66-6.4-.94-9.07,3.07-1.33,5.79-2.1,8-3.61a5.43,5.43,0,0,1,5.27-.82c10.17,3,19.83,1.45,28.93-3.77-.6-1.52-1.09-2.8-1.29-3.3-6.77,0-13.33.67-19.68-.19s-12.67-3.26-19.23-5c2,2.4,1.2,3.86-1.13,4.43l-5.35-10Zm80.19,49.26c-5.77-2-11.53-1.59-17.29,0l-.86,1c-3.36-1.38-6.47.11-9.68.75-3.06.6-3.8,2.79-2.71,5,1.53,3.06,3.86,5.71,5.85,8.54,3.16,3.94,7.43,4.93,12.14,4.27,5.82-.81,13.63-8.81,14.69-14.71C239,347.35,238.53,345.68,236.48,344.66Zm-36-40.68.65-1.58-4.4-1.8-.55,1.32Zm40.44-4.82-.34-1.61-5.1,2.41.51,1.19Z" transform="translate(-78.01 -77.9)"/><path class="cls-89" d="M173.61,344.06c.65.53,1.33,1.54,1.95,1.51,4.36-.21,6.07,2.6,6.95,6.09.75,2.94,1.05,6,1.63,9.53,1.36.28,3.06.58,4.73,1,1.23.31,2.92.39,3.53,1.22,3,4,7.6,3.78,11.67,5l-3,.79c-1.34.49-2.16,1-.43,2.17,1.24.82,2.37,1.79,3.55,2.7l-2.92-.93-3,3.07-1,3.76-.12-.13c.11-1.52,0-2.88-2-2.91l1.91-3.2-1.18-.78c-.87,1-1.74,2-2.6,3.05h-1c.58-1.51,1.28-3,1.72-4.52.87-3.14-1.12-6-4.69-7.37-2.76-1-5-1.37-5.71,2.91a64.52,64.52,0,0,1-2-9.05,68.83,68.83,0,0,0-1.81-7.95c-.71-2.25-2.44-2.77-5-1.73v18.19l-1.22.15a32.06,32.06,0,0,1-.65-4.31c-.1-4.54,0-9.09-.11-13.64s-3.37-6.83-7.69-5.83l-2-1-1.87-.89-.08-2,.74.32,2,.65,7.07,1.8C171.82,342.43,172.72,343.24,173.61,344.06Z" transform="translate(-78.01 -77.9)"/><path class="cls-90" d="M227.21,380.89c-2.17,0-4.4-.3-6.47.13-4,.84-8,2.09-11.93,3.17l-.5-1c.31-.44.54-1.12.95-1.26,8.53-3,17-6.26,26.26-2.65,2.33.92,5,1,7.49,1.5l1.56,1.05c4,2.35,9.08,3,11.25,7.9a6.33,6.33,0,0,1-.08,1.39c-3.6.56-7.21,1-10.82,1.54.58-4.25,4.83-1.88,7.6-4.13a54.93,54.93,0,0,0-16.7-6.28c-.34-.06-.8.49-1.2.75Z" transform="translate(-78.01 -77.9)"/><path class="cls-91" d="M229.52,411.68a22.33,22.33,0,0,1,.49-4.82c.85-2.55.75-4.36-2.27-5l-1.35-2.37c-2.15.8-3.55,4.95-6.66,1.49l1.16-.65c4.24-1,4.49-1.36,3.65-5.21,1.91,1.86,3.92,3.62,5.71,5.58s3.47,2.49,5.48.33c-7-6.42-7-6.42-11.26-6.06l-.26-.33c.15-2.64.31-5.29.46-7.93l1.85,3.92c2.28,3,11.73,5.65,16.46,4.55.12.62.23,1.24.35,1.86a7.58,7.58,0,0,1-2.47.8c-3.82-.18-3.19,1.88-2,4.54C233.1,402.87,231.62,407.56,229.52,411.68Z" transform="translate(-78.01 -77.9)"/><path class="cls-92" d="M243,395.17c-4.73,1.1-14.18-1.52-16.46-4.55,0-2.69,2-2.77,3.9-3.05l13.48-1.18c-.33,3.38-.57,5.77-.8,8.16A1,1,0,0,0,243,395.17Z" transform="translate(-78.01 -77.9)"/><path class="cls-93" d="M244.57,381.79,243,380.74a40.33,40.33,0,0,0-6.26-2.77c-2.31-.61-2.42-1.57-1.35-3.3l2.44-.57a69.12,69.12,0,0,0,7.2-.93c2.9-.66,4.32.77,5.05,3.17.62,2,.91,4.16,1.3,6Z" transform="translate(-78.01 -77.9)"/><path class="cls-94" d="M216.93,387.05c-.11,2.16-.18,3.58-.28,5.57l-11.83,2.16c.19-3.75.33-6.69.5-10.32Z" transform="translate(-78.01 -77.9)"/><path class="cls-95" d="M237.84,374.1l-2.44.57c-2.46,0-4.57,3.46-7.5.45.24-2.3,1.57-3.55,4.07-4.18a71.71,71.71,0,0,0,7.48-2.78l3.16-1,3.4-.93c.3,1.74.53,3.09.82,4.81-2.16.44-4.06.7-5.87,1.26A15.8,15.8,0,0,0,237.84,374.1Z" transform="translate(-78.01 -77.9)"/><path class="cls-91" d="M243.1,394.55c.23-2.39.47-4.78.8-8.16l-13.48,1.18-3.78-2,10-.54v-1l-2-1.11c.4-.26.86-.81,1.2-.75a54.93,54.93,0,0,1,16.7,6.28c-2.77,2.25-7-.12-7.6,4.13Z" transform="translate(-78.01 -77.9)"/><path class="cls-96" d="M204.22,374.05c-1.18-.91-2.31-1.88-3.55-2.7-1.73-1.15-.91-1.68.43-2.17,4.52.95,9,2.21,13.56,2.73,2.9.34,4.41,1.39,5,5.17l-7.46-1.21Z" transform="translate(-78.01 -77.9)"/><path class="cls-97" d="M204.22,374.05l8,1.82,2.6,1.95-10.58,4.1c-1-3-2-5.91-2.94-8.8Z" transform="translate(-78.01 -77.9)"/><path class="cls-98" d="M224.67,386.7c-.15,2.64-.31,5.29-.46,7.93l-4.26-.09c-.09-.3-.17-.6-.27-.9C217.76,387.92,218.73,386.57,224.67,386.7Z" transform="translate(-78.01 -77.9)"/><path class="cls-99" d="M234.62,383l2,1.11v1l-10,.54.57-4.71Z" transform="translate(-78.01 -77.9)"/><path class="cls-100" d="M214.75,398.34l-2.71,3-3.84.22c1.92-4,4.08-6.73,8.9-6.94Z" transform="translate(-78.01 -77.9)"/><path class="cls-101" d="M197.35,380l1-3.76c3.91.34,2.83,3.84,4.27,6.21l-4.86,2.83Z" transform="translate(-78.01 -77.9)"/><path class="cls-102" d="M219.73,401c3.11,3.46,4.51-.69,6.66-1.49-1.33,2.76-2.64,5.54-4.06,8.26a10.39,10.39,0,0,1-1.81-.58,34,34,0,0,1-1.15-3.93A7.05,7.05,0,0,1,219.73,401Z" transform="translate(-78.01 -77.9)"/><path class="cls-103" d="M220,394.54l4.26.09.26.33.07.15c.84,3.85.59,4.21-3.65,5.21C220.07,398.48,217.18,397,220,394.54Z" transform="translate(-78.01 -77.9)"/><path class="cls-104" d="M220.52,407.16a10.39,10.39,0,0,0,1.81.58c1.42-2.72,2.73-5.5,4.06-8.26l1.35,2.37-5.55,10.33-1.06.06c-.43-1.67-.87-3.34-1.3-5A4,4,0,0,1,220.52,407.16Z" transform="translate(-78.01 -77.9)"/><path class="cls-105" d="M203.27,384.06c-.14,2.55-.23,4.19-.35,6.34l-5.52-2.56Z" transform="translate(-78.01 -77.9)"/><path class="cls-106" d="M215.15,384.15l8.42-2.45C222.48,385.1,219.42,386.07,215.15,384.15Z" transform="translate(-78.01 -77.9)"/><path class="cls-107" d="M161.23,340.9l1.87.89c-1.12,8-1.74,15.94-.3,23.86h1q.65-11.42,1.31-22.84c4.32-1,7.56,1.38,7.69,5.83s0,9.1.11,13.64a32.06,32.06,0,0,0,.65,4.31l1.22-.15V348.26c2.6-1,4.33-.52,5,1.73a68.83,68.83,0,0,1,1.81,7.95,64.52,64.52,0,0,0,2,9.05c.71-4.28,3-3.95,5.71-2.91,3.57,1.34,5.56,4.23,4.69,7.37-.44,1.54-1.14,3-1.72,4.52-4.65,5.71-10.51,5.47-16.71,3.32-4.9-1.7-9.87-3.2-13.39-7.47-1-1.2-2.58-1.93-3.89-2.87l-4.9-6.68c-3.06-6-2.73-11.84.44-17.64a4.73,4.73,0,0,1,.83-1.18c.19-.18.57-.17,1.45-.38a82.41,82.41,0,0,0-1.78,8.41,78.21,78.21,0,0,0-.07,8.39l1.14,0q1.37-8.07,2.74-16.16Z" transform="translate(-78.01 -77.9)"/><path class="cls-108" d="M166.52,378.22l11.08,3.67C172,383.47,169.8,382.81,166.52,378.22Z" transform="translate(-78.01 -77.9)"/><path class="cls-15" d="M153.43,362.27l4.9,6.68-.23,1.43-5.77-7.07a1.5,1.5,0,0,0-.18-.93Z" transform="translate(-78.01 -77.9)"/><path class="cls-109" d="M161.1,377l-.68-4,5.29,4-.38.79-4.26-.84Z" transform="translate(-78.01 -77.9)"/><path class="cls-110" d="M193.33,376c.86-1,1.73-2,2.6-3.05l1.18.78-1.91,3.2Z" transform="translate(-78.01 -77.9)"/><path class="cls-111" d="M237.84,374.1a15.8,15.8,0,0,1,3.12-1.75c1.81-.56,3.71-.82,5.87-1.26-.29-1.72-.52-3.07-.82-4.81l-3.4.93c4.09-4.26,8.6-7.83,14.68-8.24.48-3.83.82-7.31,1.38-10.76a7,7,0,0,1,5-5.84c2.22-.82,4-2.89,6-4.41,3.89-.58,7.45-3.06,11.62-2l8.67,2.63.61,1.82c.5-2.72.93-5,1.35-7.33.74,9.26,1.46,18.51,2.25,27.76a28.81,28.81,0,0,0,.94,4l.87,10.18c.33,2.87.53,5.76,1,8.61s1.28,5.9,1.94,8.85l-1.1,1.11c-3.64,1.73-7.21,3.64-10.94,5.14-4.61,1.85-9.36,3.35-14.05,5a41.57,41.57,0,0,1,3.61-2.17c6.54-3.1,13.12-6.14,20.41-9.54-3.55-9.39-6.88-18.18-10.42-27.55-9,8.08-18.62,12.74-29.58,14.55l-4.35.32c1.7,3.83,3.13,7.05,4.57,10.27l-1.22.09c-2.17-4.88-7.3-5.55-11.25-7.9l6.82.58c-.39-1.87-.68-4-1.3-6-.73-2.4-2.15-3.83-5.05-3.17A69.12,69.12,0,0,1,237.84,374.1Zm19-12.52c-5.62,0-8,1.38-8.67,4.94-.91,4.83,4.63,11.29,9.37,10.3,12.44-2.61,24-6.75,30.24-19.34,3-6.09,2.55-13.24-2.21-18.26-.12-.12-.58.07-1.21.17.4,5.43,4.48,10.64,1.57,17.08-3.84-17.63-3.84-17.63-8.14-18.9-.51,8.14,2.67,16.17,1.07,24.17l-1,0c-.78-7.58-1.56-15.16-2.33-22.66-5.82.24-8,2.33-7.69,6.13.38,5.15.52,10.33.66,15.5a6.29,6.29,0,0,1-.86,2.2c-1.35-6.29-.58-12.56-1.35-18.51-4.47-.32-5.75,2.06-6.19,4.94-.37,2.39-.11,4.87-.35,7.28-.27,2.78-.79,5.53-1.2,8.28l-1.13-.08C257.22,363.77,257,362.67,256.83,361.58Zm33.84-1.46c-2.17,3.1-.65,4.65,1.17,6.14Z" transform="translate(-78.01 -77.9)"/><path class="cls-112" d="M254.7,314.37l27.87-8.82,2.89,3.25,1.75-2.19,1-3.21q.47,3.9.92,7.79l-1,4.23c-.16-1.44-.31-2.87-.53-4.94l-10.89,6.42,5.7,3.18c-7.75-.57-14.78-.83-21.77,1.09-3.78-.29-7.57-.63-11.36-.85-3.3-.19-6.52-.52-9.48-2.48l20.11-2.5,0-.71Z" transform="translate(-78.01 -77.9)"/><path class="cls-113" d="M286.17,288.62l-2.95-6.39c.79-4.85-1.74-8.66-4-12.55l.11-2.25,1.9-.94,2.84,1.39,8.72-15.06c-4.88-2.88-9.56-5.68-14.29-8.37-.33-.19-1.07.33-1.61.52l-1.43.14-2.22-5.36,1-1.47c1.28,1.26,2.39,2.82,3.89,3.73,5.61,3.41,11.35,6.61,17.38,10.08-3.45,5.91-6.5,11.2-9.63,16.44-1.25,2.11-2.16,4.17-.55,7.13l6.79-12,1,1.12c-1.22,2.44-2.32,5-3.7,7.31C286.32,277.26,284.37,282.56,286.17,288.62Z" transform="translate(-78.01 -77.9)"/><path class="cls-114" d="M293.05,264.8l-1-1.12c1.46-2.33,3-4.6,4.35-7s2.83-2.29,4.75-.89c1.31,1,2.64,1.88,4,2.75,3.14,2,6.32,4,9.77,6.16.88-3.92-2.13-4.33-3.46-5.9l.15-1.41,2.17-1.55.46.07c.72,1.24,1.43,2.49,2.15,3.74q.94,4,1.91,8l-2,.91-17.32-12.18Z" transform="translate(-78.01 -77.9)"/><path class="cls-115" d="M316.39,268.54l2-.91c.8-2.88,1.67-5.74,2.39-8.63a16.87,16.87,0,0,1,1.89-5.6c.17.6.59,1.26.48,1.81-1.11,5.51-2.52,11-3.41,16.51a44,44,0,0,0-.06,9.11c.19,3.69.62,7.38.95,11.06l-1.18.09Q317.9,280.27,316.39,268.54Z" transform="translate(-78.01 -77.9)"/><path class="cls-116" d="M288.2,315.42c.32-1.41.65-2.82,1-4.23l2.7,21.84c-.42,2.3-.85,4.61-1.35,7.33l-.61-1.82q-.72-10.11-1.45-20.24C288.39,317.34,288.29,316.38,288.2,315.42Z" transform="translate(-78.01 -77.9)"/><path class="cls-117" d="M288.25,303.4l-1,3.21c.48-3.1-2-6.17-.08-9.28C287.5,299.35,287.88,301.38,288.25,303.4Z" transform="translate(-78.01 -77.9)"/><path class="cls-118" d="M295.93,375l-.87-10.18Z" transform="translate(-78.01 -77.9)"/><path class="cls-65" d="M336.76,269.35c-.51,2.69-2.09,5.41.21,8-1,1.93-2,3.86-3,5.8l-9.48,11.7-.46-1,.21-1a3.43,3.43,0,0,1,0-.64A63.08,63.08,0,0,0,329.14,270l0,.08.87-3.53c.11-1.52.21-3,.31-4.56q0-14.88-.05-29.74c-.06-1.56-.13-3.12-.19-4.67l.17-3.2,1.69,2.36,2.88,13.78c.33,1.65.67,3.31,1,5,.35,2.49.69,5,1,7.46Z" transform="translate(-78.01 -77.9)"/><path class="cls-119" d="M266.66,407.26l-1.9.91a60.08,60.08,0,0,0-2.52-6.76c-1.36-2.67-3.1-5.15-4.67-7.72l1.24-1.16a7.81,7.81,0,0,1,.84.35l7,12.17,6.17-1.28Z" transform="translate(-78.01 -77.9)"/><path class="cls-120" d="M258.81,392.53l-1.24,1.16a89.28,89.28,0,0,0-9.43.86c-1.7.33-3.21,1.62-4.81,2.48l-.35-1.86a1,1,0,0,1,.12-.62l1.82-1.93c3.61-.5,7.22-1,10.82-1.54a6.33,6.33,0,0,0,.08-1.39l1.22-.09Z" transform="translate(-78.01 -77.9)"/><path class="cls-121" d="M266.66,407.26l6.12-3.49,0,0c4.69-1.65,9.44-3.15,14.05-5,3.73-1.5,7.3-3.41,10.94-5.14,1.42,2.35-.59,3.05-2,3.92-3.19,2-6.44,3.91-9.67,5.85-4.79,1.68-9.59,3.32-14.34,5.08-.57.21-.87,1.13-1.3,1.72Z" transform="translate(-78.01 -77.9)"/><path class="cls-122" d="M279.23,269.68c2.25,3.89,4.78,7.7,4,12.55-3.73-3.27-7.45-6.55-11.2-9.8-.8-.7-1.72-1.26-2.58-1.88a11.47,11.47,0,0,0-6.81-4.91l-4.83-11.3c-1-2-1.93-4-2.9-6.05-.68-4.67-1.36-9.34-2.17-14.95l3.27,3.93L264.64,249Z" transform="translate(-78.01 -77.9)"/><path class="cls-123" d="M161.13,275.1c.32-1.47.63-2.93,1-4.4.81-.87,1.91-1.6,2.37-2.63,1.5-3.32,2.9-6.7,4.06-10.15.64-1.9,1.61-2.5,3.43-2l-.07-.11c-.36,4.55,2.93,7.39,5,10.8,1.46,2.41,2.91,4.83,4.68,7.75l-3.91.88-7.38-6.13L165,277.43l-3.7-.39Z" transform="translate(-78.01 -77.9)"/><path class="cls-124" d="M276.9,245c.54-.19,1.28-.71,1.61-.52,4.73,2.69,9.41,5.49,14.29,8.37l-8.72,15.06-2.84-1.39-1.9-13Q278.11,249.22,276.9,245Z" transform="translate(-78.01 -77.9)"/><path class="cls-125" d="M312.39,219.72c-.32,2.53-.61,5.07-1,7.59-.59,4.14-1.23,8.28-1.85,12.43-.92.63-2.13,1.06-2.69,1.92-1.56,2.36-2.84,4.89-4.23,7.36l-1-1.1c1.55-3,3-6,4.66-8.95,1.05-1.94,1.13-3.58-.51-4.72l-6,7,0,0c1.08-2.47,1.85-5.15,3.33-7.35,2.1-3.14,2.45-6,.62-9.35a18.1,18.1,0,0,1-1.11-3.64l1-1.11q2.27,5.66,4.52,11.3l.87-.14,1.68-11.18Z" transform="translate(-78.01 -77.9)"/><path class="cls-126" d="M265.82,271.46c.42,2.16.83,4.32,1.36,7.13-1.83-.85-4-1.39-5.52-2.68-2.44-2-5-2.41-8-2.26-3.69.18-7.41-.19-11.11-.32l-1.25-1.9-.06.1h13l-13.06-13.69,1-.9q7,6.57,14.12,13.14c2.14,2,4.26,2,6.29-.19l.21-1.51Q264.3,269.91,265.82,271.46Z" transform="translate(-78.01 -77.9)"/><path class="cls-127" d="M156.29,295.4l-.54,12.06-1.3.11c-.37.91-1.06,1.83-1,2.73.06,2.38.43,4.76.67,7.14l-.92,5.11c-.67-6.77-1.31-13.54-2-20.31-.42-4-1-8.05-1.34-12.09a12.31,12.31,0,0,1,.54-3.12l3,10.55Z" transform="translate(-78.01 -77.9)"/><path class="cls-128" d="M228.69,264.57c.93,3.21,3.34,4.44,7.35,4.88-.21-4.62-.41-9.12-.61-13.62l2.84-3.06-.09,1.35a10.57,10.57,0,0,0-.67,2.8c.08,3.18.83,6.43.38,9.51s.84,4.29,3.31,5.1l.06-.1-3.63,1.67c-.43,2-.84,4-1.26,6-.39-2.43-.78-4.86-1.17-7.27-2-1-3.91-2.69-5.68.18l-2.77-5.13-1.15-1.23v-3Z" transform="translate(-78.01 -77.9)"/><path class="cls-129" d="M191.43,287.27l-4.13-5-1.53-3,.78-1,2,2.31c.1-3.17.25-5.54-2-7.35l-1.13-.83c2.38-2.17.5-4.51.28-6.79l1.48-2.59,1.3,1.72c-1.22,2.41-.79,3.58,2.12,5.81-.21,1.65-.83,3.39-.54,4.95.58,3.17,1.76,6.22,2.46,9.37C192.64,285.55,191.81,286.46,191.43,287.27Z" transform="translate(-78.01 -77.9)"/><path class="cls-130" d="M185.39,272.39l1.13.83c-3.41,1.7-.49,3.36,0,5l-.78,1c-1.77-1.52-2.81-5.26-6.14-2l-7.82,1.81-9.67.09-1.81.51,1-2.66,3.7.39a17.87,17.87,0,0,0,12.66-2.22l3.91-.88c-1.77-2.92-3.22-5.34-4.68-7.75l.87-1a58.71,58.71,0,0,1,4.46,6.28C183.24,273.72,184.26,272.66,185.39,272.39Z" transform="translate(-78.01 -77.9)"/><path class="cls-131" d="M173,206c-.6,11.06,1.16,21.9,3.12,32.73A55.38,55.38,0,0,1,173,206Z" transform="translate(-78.01 -77.9)"/><path class="cls-132" d="M278.83,237.14l16.8,9.59,4.17-5.53,0,0c1,3.51-1.56,5.49-3.41,8.47L277,237.5Z" transform="translate(-78.01 -77.9)"/><path class="cls-133" d="M188.45,264.73l-1.3-1.72-1.48,2.59-8.48-22.66c.55.17,1.37.17,1.56.51q5.79,10.62,11.42,21.33a10.22,10.22,0,0,1,.53,2.83Z" transform="translate(-78.01 -77.9)"/><path class="cls-134" d="M228.69,264.57l-3.1-1.86-.86-1q-2.11-11-4.22-22.05l1-1.35Q225.08,251.45,228.69,264.57Z" transform="translate(-78.01 -77.9)"/><path class="cls-135" d="M219.7,154.25l26.39.06c0,.33,0,.65,0,1l-25.29.1Z" transform="translate(-78.01 -77.9)"/><path class="cls-136" d="M148.25,279.36c-.42-1.17-.84-2.34-1.62-4.49-1,3.88-1.75,6.81-2.53,9.83-3.2-1.41.2-3.73-.74-5.4l3.18-10.74,1.83-1.91q.51,6.33,1,12.65Z" transform="translate(-78.01 -77.9)"/><path class="cls-137" d="M278.83,237.14l-1.85.36c-1-.11-2.5-1.8-2.77.78l-1,1.47q-3.83-9.56-7.64-19.12l.89-.54c1,1.62,2.23,3.13,2.81,4.88C271.05,230.21,273.86,234.49,278.83,237.14Z" transform="translate(-78.01 -77.9)"/><path class="cls-138" d="M256,237.27l-3.27-3.93c.81,5.61,1.49,10.28,2.17,14.95-3.4-6.14-3.81-12.92-4.75-19.6l1.2-.64,5.58,8.1Z" transform="translate(-78.01 -77.9)"/><path class="cls-139" d="M279.23,269.68,264.64,249l.95-1,13.75,19.38Z" transform="translate(-78.01 -77.9)"/><path class="cls-140" d="M221.61,308.75l-4.91-6q-5.25-7.35-10.48-14.71l.86-1.08,12.51,16.36c1.07,1.4,2.15,2.78,3.22,4.16Z" transform="translate(-78.01 -77.9)"/><path class="cls-141" d="M136,298.74l.87-3.13,1.34,4.31c.59-1.71,1.1-3.15,1.6-4.59.6.49,1.77,1.06,1.71,1.47-.48,3.59-1.17,7.16-2,11.83l-1.92-3C137.07,303.36,136.53,301.05,136,298.74Z" transform="translate(-78.01 -77.9)"/><path class="cls-142" d="M312.39,219.72h-1.67c.49-7.68.93-15.37,1.51-23a14.36,14.36,0,0,1,1.29-3.63Q313,206.4,312.39,219.72Z" transform="translate(-78.01 -77.9)"/><path class="cls-143" d="M221.48,238.32l-1,1.35a169.67,169.67,0,0,1-7-22.23L215,217Z" transform="translate(-78.01 -77.9)"/><path class="cls-144" d="M309.61,183.55l-1,1L293.76,172l1.14-1Z" transform="translate(-78.01 -77.9)"/><path class="cls-145" d="M221.61,308.75l1.2-1.24q.78-7.77,1.55-15.55l.38-.93.94.07c-.32,6-.59,12.11-1.06,18.16-.05.71-1.23,1.33-1.88,2Z" transform="translate(-78.01 -77.9)"/><path class="cls-146" d="M166.12,231.43q1.81,8.81,3.64,17.62l-.87,2.06q-2.34-9.37-4.67-18.74l.93-2.06c.23.1.47.18.71.26A1.64,1.64,0,0,0,166.12,231.43Z" transform="translate(-78.01 -77.9)"/><path class="cls-147" d="M233,240.77c-1.4-5.85-2.79-11.71-4.34-18.18C231.72,225.71,234.35,235.81,233,240.77Z" transform="translate(-78.01 -77.9)"/><path class="cls-148" d="M263,157.36c4.88,1.35,9.79,2.57,14.61,4.11,1.19.38,2.08,1.73,3.1,2.64-5.82-1.8-11.65-3.58-17.45-5.44C263,158.6,263.06,157.81,263,157.36Z" transform="translate(-78.01 -77.9)"/><path class="cls-149" d="M148.37,266.65l-1.83,1.91c0-4.54,0-9.07.13-13.6a11,11,0,0,1,1-3l.3-.15.34.08Z" transform="translate(-78.01 -77.9)"/><path class="cls-150" d="M171.94,255.89c-1.82-.47-2.79.13-3.43,2-1.16,3.45-2.56,6.83-4.06,10.15-.46,1-1.56,1.76-2.37,2.63l6.69-17.1,2.75,1.29Z" transform="translate(-78.01 -77.9)"/><path class="cls-151" d="M225.68,291.1l-.94-.07-.3-27.33c.1-.66.19-1.32.29-2l.86,1v3l.05,25.46Z" transform="translate(-78.01 -77.9)"/><path class="cls-152" d="M224.44,263.7l.3,27.33-.38.93a26.22,26.22,0,0,1-.69-4.18q-.12-10,0-19.95A23.06,23.06,0,0,1,224.44,263.7Z" transform="translate(-78.01 -77.9)"/><path class="cls-153" d="M262.77,268.38l-.21,1.51c-1.76-4.35-3.59-8.67-5.23-13.06-.26-.68.29-1.65.47-2.49l4.83,11.3C262.68,266.56,262.73,267.47,262.77,268.38Z" transform="translate(-78.01 -77.9)"/><path class="cls-128" d="M265.59,248.05l-.95,1L256,237.27l.93-1.12Q261.27,242.11,265.59,248.05Z" transform="translate(-78.01 -77.9)"/><path class="cls-154" d="M134.87,222.94c-.19-.78-.7-1.65-.51-2.34.62-2.31,1.49-4.55,2.26-6.82l3-5.91,1.27.53Q137.88,215.66,134.87,222.94Z" transform="translate(-78.01 -77.9)"/><path class="cls-155" d="M294.9,171l-1.14,1c-3.07-1.74-6.19-3.41-9.18-5.28a12.9,12.9,0,0,1-2.41-2.62Z" transform="translate(-78.01 -77.9)"/><path class="cls-156" d="M184.5,162.33l12.68-4.09c0,.31.18.86.1.9C193.2,160.91,189.27,163.32,184.5,162.33Z" transform="translate(-78.01 -77.9)"/><path class="cls-68" d="M148.57,220.92l-5.63,10.59-1-.48c.72-4.24,3.35-7.68,5.63-11.27Z" transform="translate(-78.01 -77.9)"/><path class="cls-157" d="M161.31,277l-1,2.66-2.1,7.4-1.29,0a95.31,95.31,0,0,1,1.27-9.72c.2-.92,1.9-1.5,2.92-2.24Z" transform="translate(-78.01 -77.9)"/><path class="cls-158" d="M303.65,219.75l-1,1.11q-2.34-5.46-4.69-10.93c.34-.38.67-.77,1-1.15Q301.3,214.26,303.65,219.75Z" transform="translate(-78.01 -77.9)"/><path class="cls-159" d="M299,208.78c-.33.38-.66.77-1,1.15-1.6-3.43-3.2-6.86-5.2-11.13C296,201.05,296.77,202.35,299,208.78Z" transform="translate(-78.01 -77.9)"/><path class="cls-160" d="M199.31,158.17,211,155.3l.88.83Z" transform="translate(-78.01 -77.9)"/><path class="cls-161" d="M192.34,269.13l8.79,10.18-.93.95-7.64-8.83Z" transform="translate(-78.01 -77.9)"/><path class="cls-162" d="M177.77,265.54l-.87,1c-2.1-3.41-5.39-6.25-5-10.8Z" transform="translate(-78.01 -77.9)"/><path class="cls-163" d="M200.2,280.26l.93-.95,6,7.68-.86,1.08Z" transform="translate(-78.01 -77.9)"/><path class="cls-164" d="M211.84,156.13l-.88-.83,8.74-1.05,1.11,1.13Z" transform="translate(-78.01 -77.9)"/><path class="cls-165" d="M165.86,230.57c-.24-.08-.48-.16-.71-.26,0-3.69,0-7.38-.14-11.07a15.76,15.76,0,0,0-.87-3.35l1.76-1Q165.87,222.73,165.86,230.57Z" transform="translate(-78.01 -77.9)"/><path class="cls-166" d="M227.1,219l-3.93-9.66,1.48-.6,3.93,9.67Z" transform="translate(-78.01 -77.9)"/><path class="cls-167" d="M165.86,230.57q0-7.83,0-15.67c.36,1,1.07,1.95,1,2.91-.16,4.54-.52,9.08-.81,13.62A1.64,1.64,0,0,1,165.86,230.57Z" transform="translate(-78.01 -77.9)"/><path class="cls-168" d="M164.14,215.89a15.76,15.76,0,0,1,.87,3.35c.14,3.69.11,7.38.14,11.07l-.93,2.06Q164.18,224.14,164.14,215.89Z" transform="translate(-78.01 -77.9)"/><path class="cls-169" d="M238.27,252.77l-2.84,3.06-1-8.64.63-.24,3.18,5C238.27,252.23,238.27,252.5,238.27,252.77Z" transform="translate(-78.01 -77.9)"/><path class="cls-170" d="M148.31,251.88l-.34-.08-.3.15c.05-3.4.14-6.8,1.9-9.8l1.06.24Z" transform="translate(-78.01 -77.9)"/><path class="cls-171" d="M192.34,269.13l.22,2.3-2-.89c-2.91-2.23-3.34-3.4-2.12-5.81l2.25,2.88Z" transform="translate(-78.01 -77.9)"/><path class="cls-137" d="M276.9,245q1.22,4.26,2.44,8.5c-3.38-1.82-2.86-5.44-3.87-8.36Z" transform="translate(-78.01 -77.9)"/><path class="cls-172" d="M156.94,287.06l1.29,0q-1,3.69-2,7.38C153.83,291.77,156.38,289.5,156.94,287.06Z" transform="translate(-78.01 -77.9)"/><path class="cls-173" d="M246.1,155.28c0-.32,0-.64,0-1l7.81,1.15v.83Z" transform="translate(-78.01 -77.9)"/><path class="cls-174" d="M253.9,156.29v-.83l8,1.76Z" transform="translate(-78.01 -77.9)"/><path class="cls-175" d="M148.25,279.36l1.13-.06,1.05,7.88C147.76,285.11,148.3,282.15,148.25,279.36Z" transform="translate(-78.01 -77.9)"/><path class="cls-176" d="M238.27,252.77c0-.27,0-.54,0-.81l3.87,5-1,.9-3-3.72Z" transform="translate(-78.01 -77.9)"/><path class="cls-116" d="M171.52,254.89l-2.75-1.29.12-2.49.87-2.06Z" transform="translate(-78.01 -77.9)"/><path class="cls-177" d="M148.57,220.92l-1-1.16,3-4.34,1.18.77Z" transform="translate(-78.01 -77.9)"/><path class="cls-178" d="M154.45,307.57l1.3-.11,5.35,10c2.33-.57,3.08-2,1.13-4.43,6.56,1.79,12.79,4.18,19.23,5s12.91.19,19.68.19c.2.5.69,1.78,1.29,3.3-9.1,5.22-18.76,6.75-28.93,3.77a5.43,5.43,0,0,0-5.27.82c-2.23,1.51-4.95,2.28-8,3.61.28,2.67.61,5.87.94,9.07l.08,2-3,2.84-3-3.15c0-2,.07-3.93.11-5.89l2,5.91a3.53,3.53,0,0,0,1.89-2.9c-.15-4-.87-8.06-.77-12.08C158.51,319.24,158,313.11,154.45,307.57Zm10.89,14.73-4.82-2.86V328l.85.26Z" transform="translate(-78.01 -77.9)"/><path class="cls-179" d="M154.45,307.57c3.55,5.54,4.06,11.67,3.91,18.06-.1,4,.62,8.05.77,12.08a3.53,3.53,0,0,1-1.89,2.9l-2-5.91.11-4.2c-.28-.38-.79-.75-.81-1.14-.2-4-.32-7.94-.47-11.92-.24-2.38-.61-4.76-.67-7.14C153.39,309.4,154.08,308.48,154.45,307.57Z" transform="translate(-78.01 -77.9)"/><path class="cls-180" d="M154.08,317.44c.15,4,.27,7.95.47,11.92,0,.39.53.76.81,1.14-3.13-2-1.54-5.28-2.2-7.95Z" transform="translate(-78.01 -77.9)"/><path class="cls-181" d="M302.65,249c1.39-2.47,2.67-5,4.23-7.36.56-.86,1.77-1.29,2.69-1.92h0l4.29,16.09-2.17,1.55c-2.49-1.67-4.93-3.41-7.48-5C302.8,251.57,301.89,250.73,302.65,249Z" transform="translate(-78.01 -77.9)"/><path class="cls-182" d="M330.24,232.24q0,14.87.05,29.74l-1.12-8,0-15.68Z" transform="translate(-78.01 -77.9)"/><path class="cls-183" d="M329.14,270a63.08,63.08,0,0,1-4.95,22.23,11.35,11.35,0,0,1-.32-3.18q1.69-8.73,3.68-17.41C327.7,271,328.59,270.53,329.14,270Z" transform="translate(-78.01 -77.9)"/><path class="cls-184" d="M313.83,255.84l-4.29-16.09,2,1.46,2.7,14.7Z" transform="translate(-78.01 -77.9)"/><path class="cls-181" d="M314.29,255.91l-2.7-14.7,4.85,18.44C315.72,258.4,315,257.15,314.29,255.91Z" transform="translate(-78.01 -77.9)"/><path class="cls-185" d="M322.9,251v-9.21l.89-.06v9Z" transform="translate(-78.01 -77.9)"/><path class="cls-186" d="M329.17,254c.37,2.67.75,5.35,1.12,8-.1,1.52-.2,3-.31,4.56q-.54-3.54-1.09-7.06C329,257.64,329.08,255.79,329.17,254Z" transform="translate(-78.01 -77.9)"/><path class="cls-187" d="M328.89,259.48q.56,3.52,1.09,7.06l-.87,3.53c-.35-1.21-1-2.42-1-3.62C328.17,264.12,328.61,261.8,328.89,259.48Z" transform="translate(-78.01 -77.9)"/><path class="cls-188" d="M330.24,232.24l-1.11,6-.21-7.56c.38-1.05.75-2.1,1.13-3.14C330.11,229.12,330.18,230.68,330.24,232.24Z" transform="translate(-78.01 -77.9)"/><path class="cls-189" d="M336.76,269.35l.08-16.42h1l0,19.51Z" transform="translate(-78.01 -77.9)"/><path class="cls-190" d="M337.83,252.93h-1c-.35-2.49-.69-5-1-7.46l1-1.32C337.14,247.08,337.49,250,337.83,252.93Z" transform="translate(-78.01 -77.9)"/><path class="cls-191" d="M336.8,244.15l-1,1.32c-.34-1.65-.68-3.31-1-5,.3-1,.6-2.08.91-3.12Q336.24,240.78,336.8,244.15Z" transform="translate(-78.01 -77.9)"/><path class="cls-192" d="M218.33,345.68l.86-1a9,9,0,0,0,2.83,1.07c4.14,0,8.28-.19,12.42-.31,2.24,1,3,2.29,2,5-4.16,11.6-14.77,15.12-24.5,7.89l-2-2.85q2.49-3.9,5-7.8Z" transform="translate(-78.01 -77.9)"/><path class="cls-193" d="M190.57,270.54l2,.89,7.64,8.83,6,7.81q5.24,7.35,10.48,14.71c-1.56-.48-3.34-.62-4.63-1.49-4.79-3.24-9.39-6.78-14.14-10.09-2.07-1.45-4.33-2.63-6.5-3.93.38-.81,1.21-1.72,1.06-2.41-.7-3.15-1.88-6.2-2.46-9.37C189.74,273.93,190.36,272.19,190.57,270.54Z" transform="translate(-78.01 -77.9)"/><path class="cls-194" d="M222.74,311.25c.65-.66,1.83-1.28,1.88-2,.47-6.05.74-12.11,1.06-18.16l0,0a22.34,22.34,0,0,0,1-4.41c.13-6.6.1-13.21.13-19.82l2.77,5.13,1,.48c-.32.89-1,1.82-.88,2.66.76,6.26,1.66,12.52,2.57,18.76,0,.32.51.58,1.52,1.64,1-5.44,1.83-10.1,2.68-14.77l0-1.68c.42-2,.83-4,1.26-6l3.63-1.67,1.25,1.9c-3.64.46-4,3.2-4.24,6.06a78.2,78.2,0,0,1-1.18,10.52c-.53,2.36-2.08,4.49-3.12,6.61-4.1-.95-3.25-3.86-3.77-6a19.5,19.5,0,0,0-2.35-6.61,36.71,36.71,0,0,1,.61,6.3c-.51,6.57-1.16,13.12-2,19.65C226.19,311.88,225.15,313.91,222.74,311.25Z" transform="translate(-78.01 -77.9)"/><path class="cls-195" d="M281.24,335.91c-4.17-1-7.73,1.47-11.62,2l-4.86-4.15c.64-.51,1.59-.89,1.85-1.55a24.72,24.72,0,0,0,1-4.14c2.32-.82,4.65-1.63,7-2.48,3.77-1.37,7.79.35,8.89,4.21.44,1.55-.15,3.39-.27,5.09Zm-7.78-2.17,1.7-.18q-.44-2.93-.88-5.85l-1.34.13C273.11,329.81,273.29,331.77,273.46,333.74Z" transform="translate(-78.01 -77.9)"/><path class="cls-196" d="M173.61,344.06c-.89-.82-1.79-1.63-2.69-2.44,2.51-1.5,4-6.36,2.54-8.68-.21-.33-1.61.1-2.46.18h0c-1.43.71-2.62,3-4.31-.09-1.09-2-2.35-1-2.64,1l-.87,3.07v-6H180c1.4,6.11,1.19,7.24-1.91,12.15Z" transform="translate(-78.01 -77.9)"/><path class="cls-197" d="M283.18,334.94c.12-1.7.71-3.54.27-5.09-1.1-3.86-5.12-5.58-8.89-4.21-2.32.85-4.65,1.66-7,2.48a1.45,1.45,0,0,1-.08-.77c1-2.22,5.15-5.09,7.38-4.73,4,.65,7.93,1.58,11.74,2.36.55,3.59,1,6.37,1.5,9.73Z" transform="translate(-78.01 -77.9)"/><path class="cls-198" d="M254.7,314.37l5.24.26,0,.71-20.11,2.5c3,2,6.18,2.29,9.48,2.48,3.79.22,7.58.56,11.36.85a53.86,53.86,0,0,1-24-1.81c.43-1.4.84-2.74,1.24-4Z" transform="translate(-78.01 -77.9)"/><path class="cls-199" d="M211.94,358.32c9.73,7.23,20.34,3.71,24.5-7.89,1-2.68.24-3.94-2-5l2-.8c2.05,1,2.52,2.69,2.14,4.83-1.06,5.9-8.87,13.9-14.69,14.71-4.71.66-9-.33-12.14-4.27Z" transform="translate(-78.01 -77.9)"/><path class="cls-200" d="M211.94,358.32l-.15,1.61c-2-2.83-4.32-5.48-5.85-8.54-1.09-2.17-.35-4.36,2.71-5,3.21-.64,6.32-2.13,9.68-.75l-3.45,2c-2.61.14-5.46-.71-7.81,2.12l2.85,5.68Z" transform="translate(-78.01 -77.9)"/><path class="cls-201" d="M236.48,344.66l-2,.8c-4.14.12-8.28.31-12.42.31a9,9,0,0,1-2.83-1.07C225,343.07,230.71,342.71,236.48,344.66Z" transform="translate(-78.01 -77.9)"/><path class="cls-202" d="M262.77,268.38l-.14-2.74a11.47,11.47,0,0,1,6.81,4.91l-3.62.91Q264.31,269.92,262.77,268.38Z" transform="translate(-78.01 -77.9)"/><path class="cls-203" d="M179.63,277.29c3.33-3.27,4.37.47,6.14,2l1.53,3Z" transform="translate(-78.01 -77.9)"/><path class="cls-204" d="M163.19,337.06l.87-3.07,1.94-1c0,2.9.31,5.3-2.15,6.87l-2-.65C162.32,338.47,162.76,337.77,163.19,337.06Z" transform="translate(-78.01 -77.9)"/><path class="cls-205" d="M267.51,327.35a1.45,1.45,0,0,0,.08.77,24.72,24.72,0,0,1-1,4.14c-.26.66-1.21,1-1.85,1.55a36.67,36.67,0,0,1,.77-5.16C265.69,328.08,266.82,327.78,267.51,327.35Z" transform="translate(-78.01 -77.9)"/><path class="cls-206" d="M200.48,304l-4.3-2.06.55-1.32,4.4,1.8Z" transform="translate(-78.01 -77.9)"/><path class="cls-207" d="M240.92,299.16l-4.93,2-.51-1.19,5.1-2.41Z" transform="translate(-78.01 -77.9)"/><path class="cls-208" d="M162.14,279.19l9.67-.09Z" transform="translate(-78.01 -77.9)"/><path class="cls-209" d="M163.85,339.82c2.46-1.57,2.18-4,2.15-6.87l-1.94,1c.29-2,1.55-2.94,2.64-1,1.69,3.05,2.88.8,4.31.09.43,2.09-1.32,4.62,1.83,7.15-.69-3,2.17-5.78-1.84-7.14.85-.08,2.25-.51,2.46-.18,1.49,2.32,0,7.18-2.54,8.68Z" transform="translate(-78.01 -77.9)"/><path class="cls-210" d="M165.1,342.82q-.66,11.42-1.31,22.84h-1c-1.44-7.92-.82-15.89.3-23.86Z" transform="translate(-78.01 -77.9)"/><path class="cls-211" d="M224.54,395.11l-.07-.15c4.28-.36,4.28-.36,11.26,6.06-2,2.16-3.67,1.67-5.48-.33S226.45,397,224.54,395.11Z" transform="translate(-78.01 -77.9)"/><path class="cls-212" d="M272.8,403.72l0,0-6.17,1.28-7-12.17c-1.59-4.19-3.17-8.38-4.79-12.66l2-1.21c11-1.81,20.58-6.47,29.58-14.55,3.54,9.37,6.87,18.16,10.42,27.55-7.29,3.4-13.87,6.44-20.41,9.54A41.57,41.57,0,0,0,272.8,403.72Z" transform="translate(-78.01 -77.9)"/><path class="cls-107" d="M256.83,361.58c.2,1.09.39,2.19.58,3.28l1.13.08c.41-2.75.93-5.5,1.2-8.28.24-2.41,0-4.89.35-7.28.44-2.88,1.72-5.26,6.19-4.94.77,5.95,0,12.22,1.35,18.51a6.29,6.29,0,0,0,.86-2.2c-.14-5.17-.28-10.35-.66-15.5-.28-3.8,1.87-5.89,7.69-6.13.77,7.5,1.55,15.08,2.33,22.66l1,0c1.6-8-1.58-16-1.07-24.17,4.3,1.27,4.3,1.27,8.14,18.9,2.91-6.44-1.17-11.65-1.57-17.08.63-.1,1.09-.29,1.21-.17,4.76,5,5.25,12.17,2.21,18.26-6.28,12.59-17.8,16.73-30.24,19.34-4.74,1-10.28-5.47-9.37-10.3C248.82,363,251.21,361.59,256.83,361.58Z" transform="translate(-78.01 -77.9)"/><path class="cls-90" d="M256.82,379l-2,1.21c1.62,4.28,3.2,8.47,4.79,12.66a7.81,7.81,0,0,0-.84-.35L257,389.6c-1.44-3.22-2.87-6.44-4.57-10.27Z" transform="translate(-78.01 -77.9)"/><path class="cls-213" d="M290.67,360.12l1.17,6.14C290,364.77,288.5,363.22,290.67,360.12Z" transform="translate(-78.01 -77.9)"/><path class="cls-214" d="M274.21,238.28c.27-2.58,1.74-.89,2.77-.78l19.45,12.2c1.85-3,4.41-5,3.41-8.47l6-7c1.64,1.14,1.56,2.78.51,4.72-1.61,2.95-3.11,6-4.66,8.95l-2,3.68,11.89,7.2c1.33,1.57,4.34,2,3.46,5.9-3.45-2.18-6.63-4.15-9.77-6.16-1.37-.87-2.7-1.8-4-2.75-1.92-1.4-3.45-1.46-4.75.89s-2.89,4.67-4.35,7l-6.79,12c-1.61-3-.7-5,.55-7.13,3.13-5.24,6.18-10.53,9.63-16.44-6-3.47-11.77-6.67-17.38-10.08C276.6,241.1,275.49,239.54,274.21,238.28Z" transform="translate(-78.01 -77.9)"/><path class="cls-215" d="M311.51,258.8l-11.89-7.2,2-3.68,1,1.1c-.76,1.71.15,2.55,1.53,3.4,2.55,1.56,5,3.3,7.48,5Z" transform="translate(-78.01 -77.9)"/><path class="cls-216" d="M177.67,275.21A17.87,17.87,0,0,1,165,277.43l5.28-8.35Z" transform="translate(-78.01 -77.9)"/><path class="cls-217" d="M238.18,254.12l3,3.72,13.06,13.69h-13c-2.47-.81-3.77-2-3.31-5.1s-.3-6.33-.38-9.51A10.57,10.57,0,0,1,238.18,254.12Z" transform="translate(-78.01 -77.9)"/><path class="cls-218" d="M230.51,272.5l-1-.48c1.77-2.87,3.7-1.21,5.68-.18.39,2.41.78,4.84,1.17,7.27l0,1.68-3.27,5.28Z" transform="translate(-78.01 -77.9)"/><path class="cls-134" d="M226.75,266.89c0,6.61,0,13.22-.13,19.82a22.34,22.34,0,0,1-1,4.41l-.05-25.46Z" transform="translate(-78.01 -77.9)"/><path class="cls-219" d="M186.55,278.26c-.52-1.68-3.44-3.34,0-5,2.25,1.81,2.1,4.18,2,7.35Z" transform="translate(-78.01 -77.9)"/><path class="cls-220" d="M165.34,322.3l-4,6-.85-.26v-8.59Z" transform="translate(-78.01 -77.9)"/><path class="cls-221" d="M209.92,355.47l-2.85-5.68c2.35-2.83,5.2-2,7.81-2.12Q212.4,351.57,209.92,355.47Z" transform="translate(-78.01 -77.9)"/><path class="cls-222" d="M230.51,272.5l2.62,13.57,3.27-5.28c-.85,4.67-1.69,9.33-2.68,14.77-1-1.06-1.48-1.32-1.52-1.64-.91-6.24-1.81-12.5-2.57-18.76C229.53,274.32,230.19,273.39,230.51,272.5Z" transform="translate(-78.01 -77.9)"/><path class="cls-223" d="M273.46,333.74c-.17-2-.35-3.93-.52-5.9l1.34-.13q.45,2.93.88,5.85Z" transform="translate(-78.01 -77.9)"/><path class="cls-224" d="M171,333.12c4,1.36,1.15,4.12,1.84,7.14-3.15-2.53-1.4-5.06-1.83-7.15Z" transform="translate(-78.01 -77.9)"/></svg>
