<svg xmlns="http://www.w3.org/2000/svg" xmlns:xlink="http://www.w3.org/1999/xlink" width="160" height="160" viewBox="0 0 160 160">
    <defs>
        <path id="8svjqxrh6b" d="M27.028 63.676c5.926 0 10.898-.953 14.916-2.86 4.02-1.906 7.011-4.414 8.976-7.524 1.966-3.109 2.948-6.482 2.948-10.12 0-4.458-1.364-8.257-4.092-11.396-2.728-3.138-6.644-5.236-11.748-6.292l12.76-13.728V.844H6.26v13.464h24.288l-11 11.88v11h7.304c6.278 0 9.416 1.995 9.416 5.984 0 2.054-.88 3.638-2.64 4.752-1.76 1.115-4.136 1.672-7.128 1.672-2.933 0-5.91-.44-8.932-1.32-3.02-.88-5.734-2.14-8.14-3.784L3.092 57.604c3.11 1.936 6.791 3.432 11.044 4.488 4.254 1.056 8.551 1.584 12.892 1.584z"/>
        <path id="rid25qtdyc" d="M24.584 63.676c5.925 0 10.897-.953 14.916-2.86 4.019-1.906 7.01-4.414 8.976-7.524 1.965-3.109 2.948-6.482 2.948-10.12 0-4.458-1.364-8.257-4.092-11.396-2.728-3.138-6.644-5.236-11.748-6.292l12.76-13.728V.844H3.816v13.464h24.288l-11 11.88v11h7.304c6.277 0 9.416 1.995 9.416 5.984 0 2.054-.88 3.638-2.64 4.752-1.76 1.115-4.136 1.672-7.128 1.672-2.933 0-5.91-.44-8.932-1.32-3.021-.88-5.735-2.14-8.14-3.784L.648 57.604c3.11 1.936 6.79 3.432 11.044 4.488 4.253 1.056 8.55 1.584 12.892 1.584z"/>
        <filter id="eyuve7orra" width="115%" height="115%" x="-7.5%" y="-7.5%" filterUnits="objectBoundingBox">
            <feOffset dy="2" in="SourceAlpha" result="shadowOffsetOuter1"/>
            <feGaussianBlur in="shadowOffsetOuter1" result="shadowBlurOuter1" stdDeviation="2"/>
            <feColorMatrix in="shadowBlurOuter1" result="shadowMatrixOuter1" values="0 0 0 0 0 0 0 0 0 0 0 0 0 0 0 0 0 0 0.5 0"/>
            <feMerge>
                <feMergeNode in="shadowMatrixOuter1"/>
                <feMergeNode in="SourceGraphic"/>
            </feMerge>
        </filter>
    </defs>
    <g fill="none" fill-rule="evenodd">
        <g fill-rule="nonzero">
            <g filter="url(#eyuve7orra)" transform="translate(-1249 -649) translate(1249 649)">
                <g>
                    <path fill="#3469B3" d="M69.951 10.777L84.648 10.777 84.648 25.474 69.951 25.474z" opacity=".45" transform="translate(4.444 12.111) rotate(127.185 77.3 18.126)"/>
                    <path fill="#3469B3" d="M60.39 4.55c.06-3.509-22.861 4.475-21.924.362" opacity=".5" transform="translate(4.444 12.111)"/>
                    <path fill="#EB670F" d="M35.563 0.013L0.03 84.838 75.753 138.031 150.9 93.093 119.238 0.013z" transform="translate(4.444 12.111)"/>
                    <path fill="#E24104" d="M40.915 9.085L9.647 82.6 75.753 128.717 140.921 89.767 113.463 9.085z" transform="translate(4.444 12.111)"/>
                    <g>
                        <g fill="#000" opacity=".15" transform="translate(4.444 12.111) translate(50.111 32.111)">
                            <use xlink:href="#8svjqxrh6b"/>
                            <use xlink:href="#8svjqxrh6b"/>
                        </g>
                        <g transform="translate(4.444 12.111) translate(50.111 32.111)">
                            <use fill="#000" xlink:href="#rid25qtdyc"/>
                            <use fill="#F2F2F2" xlink:href="#rid25qtdyc"/>
                        </g>
                    </g>
                    <path fill="#FFF" d="M5.534 88.709L37.196 110.935 135.236 46.704 123.109 11.837zM41.218 113.778L57.124 124.937 143.552 71.29 136.869 51.845z" opacity=".15" transform="translate(4.444 12.111)"/>
                </g>
            </g>
        </g>
    </g>
</svg>
