<svg xmlns="http://www.w3.org/2000/svg" xmlns:xlink="http://www.w3.org/1999/xlink" width="160" height="160" viewBox="0 0 160 160"><defs><path id="b" d="M27.028 63.676c5.926 0 10.898-.953 14.916-2.86 4.02-1.906 7.011-4.414 8.976-7.524 1.966-3.109 2.948-6.482 2.948-10.12 0-4.458-1.364-8.257-4.092-11.396-2.728-3.138-6.644-5.236-11.748-6.292l12.76-13.728V.844H6.26v13.464h24.288l-11 11.88v11h7.304c6.278 0 9.416 1.995 9.416 5.984 0 2.054-.88 3.638-2.64 4.752-1.76 1.115-4.136 1.672-7.128 1.672-2.933 0-5.91-.44-8.932-1.32-3.02-.88-5.734-2.14-8.14-3.784L3.092 57.604c3.11 1.936 6.791 3.432 11.044 4.488a53.316 53.316 0 0 0 12.892 1.584z"/><path id="c" d="M24.584 63.676c5.925 0 10.897-.953 14.916-2.86 4.019-1.906 7.01-4.414 8.976-7.524 1.965-3.109 2.948-6.482 2.948-10.12 0-4.458-1.364-8.257-4.092-11.396-2.728-3.138-6.644-5.236-11.748-6.292l12.76-13.728V.844H3.816v13.464h24.288l-11 11.88v11h7.304c6.277 0 9.416 1.995 9.416 5.984 0 2.054-.88 3.638-2.64 4.752-1.76 1.115-4.136 1.672-7.128 1.672-2.933 0-5.91-.44-8.932-1.32-3.021-.88-5.735-2.14-8.14-3.784L.648 57.604c3.11 1.936 6.79 3.432 11.044 4.488a53.304 53.304 0 0 0 12.892 1.584z"/><filter id="a" width="115%" height="115%" x="-7.5%" y="-7.5%" filterUnits="objectBoundingBox"><feOffset dy="2" in="SourceAlpha" result="shadowOffsetOuter1"/><feGaussianBlur in="shadowOffsetOuter1" result="shadowBlurOuter1" stdDeviation="2"/><feColorMatrix in="shadowBlurOuter1" result="shadowMatrixOuter1" values="0 0 0 0 0 0 0 0 0 0 0 0 0 0 0 0 0 0 0.5 0"/><feMerge><feMergeNode in="shadowMatrixOuter1"/><feMergeNode in="SourceGraphic"/></feMerge></filter></defs><g fill="none" fill-rule="nonzero" filter="url(#a)"><path fill="#3469B3" d="M92.04 28.824l-8.882 11.709-11.71-8.883 8.884-11.709z" opacity=".45"/><path fill="#3469B3" d="M64.834 16.661c.06-3.509-22.861 4.475-21.924.362" opacity=".5"/><path fill="#EB670F" d="M40.007 12.124L4.474 96.949l75.723 53.193 75.147-44.938-31.662-93.08z"/><path fill="#E24104" d="M45.359 21.196L14.091 94.711l66.106 46.117 65.168-38.95-27.458-80.682z"/><g fill="#000" opacity=".15" transform="translate(54.555 44.222)"><use xlink:href="#b"/><use xlink:href="#b"/></g><g transform="translate(54.555 44.222)"><use fill="#000" xlink:href="#c"/><use fill="#F2F2F2" xlink:href="#c"/></g><path fill="#FFF" d="M9.978 100.82l31.662 22.226 98.04-64.231-12.127-34.867zm35.684 25.069l15.906 11.159 86.428-53.647-6.683-19.445z" opacity=".15"/></g></svg>