<svg xmlns="http://www.w3.org/2000/svg" xmlns:xlink="http://www.w3.org/1999/xlink" viewBox="0 0 50 58"><title>Bronze</title><defs><rect id="a" width="50" height="50" y="8" rx="25"/><mask id="b" width="50" height="50" x="0" y="0" fill="#fff"><use xlink:href="#a"/></mask><path id="d" d="M15.036 21L14 23.437l2.19 1.529 2.16-1.292L17.44 21z"/><filter id="c" width="200%" height="200%" x="-50%" y="-50%" filterUnits="objectBoundingBox"><feOffset dy="1" in="SourceAlpha" result="shadowOffsetOuter1"/><feColorMatrix in="shadowOffsetOuter1" values="0 0 0 0 0 0 0 0 0 0 0 0 0 0 0 0 0 0 0.15123981 0"/></filter><path id="f" d="M0 5.717l.6 4.147h2.509l.174 9.86s-.393 3.541 4.954 2.733c0 0 1.672-.5 1.62-1.684v-3.895s-1.127.673-2.351.673-1.232-.592-1.232-.592L5.945 9.32l3.91-.218V6.59l-4.003-.267.048-5.168L3.116 0v5.821L0 5.717z"/><filter id="e" width="200%" height="200%" x="-50%" y="-50%" filterUnits="objectBoundingBox"><feOffset dy="1" in="SourceAlpha" result="shadowOffsetOuter1"/><feColorMatrix in="shadowOffsetOuter1" values="0 0 0 0 0 0 0 0 0 0 0 0 0 0 0 0 0 0 0.15123981 0"/></filter><path id="h" d="M12 0l7.378 1.422-2.847 18.292z"/><filter id="g" width="200%" height="200%" x="-50%" y="-50%" filterUnits="objectBoundingBox"><feOffset dy="1" in="SourceAlpha" result="shadowOffsetOuter1"/><feColorMatrix in="shadowOffsetOuter1" values="0 0 0 0 0 0 0 0 0 0 0 0 0 0 0 0 0 0 0.15123981 0"/></filter></defs><g fill="none" fill-rule="evenodd"><path fill="#1368CE" d="M21.128 0l26.224 26.225-9.349 9.348L2.648.218 2.866 0h18.262z"/><path fill="#45A3E5" d="M28.872 0L2.648 26.225l9.349 9.348L47.352.218 47.134 0H28.872z"/><use fill="#F5A23D" stroke="#EB670F" stroke-width="4" mask="url(#b)" xlink:href="#a"/><g transform="translate(14 20)"><use fill="#000" filter="url(#c)" xlink:href="#d"/><use fill="#FFF" xlink:href="#d"/></g><g transform="translate(14 20)"><use fill="#000" filter="url(#e)" xlink:href="#f"/><use fill="#FFF" xlink:href="#f"/></g><g transform="translate(14 20)"><use fill="#000" filter="url(#g)" xlink:href="#h"/><use fill="#FFF" xlink:href="#h"/></g></g></svg>