<svg viewBox="0 0 50 58" xmlns="http://www.w3.org/2000/svg" xmlns:xlink="http://www.w3.org/1999/xlink"><title>Gold</title><defs><rect id="a" y="8" width="50" height="50" rx="25"/><mask id="b" x="0" y="0" width="50" height="50" fill="#fff"><use xlink:href="#a"/></mask><path d="M18.479 9.001c-3.369.06-6.265 2.917-6.468 6.383-.204 3.465 2.526 6.564 6.098 6.92 3.572.355 6.468-2.503 6.468-6.384 0-3.88-2.724-6.984-6.098-6.919zm.418 10.03c-1.853.218-3.429-1.477-3.318-3.632.112-2.155.967-3.505 2.715-3.541 1.748-.037 2.803 1.969 2.607 4.314-.156 1.793-1.267 2.772-1.998 2.859h-.006z" id="d"/><filter x="-50%" y="-50%" width="200%" height="200%" filterUnits="objectBoundingBox" id="c"><feOffset dy="1" in="SourceAlpha" result="shadowOffsetOuter1"/><feColorMatrix values="0 0 0 0 0 0 0 0 0 0 0 0 0 0 0 0 0 0 0.153504303 0" in="shadowOffsetOuter1"/></filter><path d="M25 16.919c0 3.88 2.896 6.738 6.468 6.383 3.572-.356 6.302-3.454 6.1-6.92-.203-3.465-3.096-6.327-6.465-6.381C27.735 9.946 25 13.039 25 16.919zm3.685.25c-.2-2.345.858-4.35 2.606-4.314 1.75.037 2.607 1.385 2.715 3.541.108 2.157-1.47 3.849-3.319 3.633-.733-.085-1.846-1.064-1.997-2.865l-.005.005z" id="f"/><filter x="-50%" y="-50%" width="200%" height="200%" filterUnits="objectBoundingBox" id="e"><feOffset dy="1" in="SourceAlpha" result="shadowOffsetOuter1"/><feColorMatrix values="0 0 0 0 0 0 0 0 0 0 0 0 0 0 0 0 0 0 0.153504303 0" in="shadowOffsetOuter1"/></filter><path d="M7.84 23.164h3.665l-1.38-9.755c-.52-5.698-2.598-5.711-6.477-4.473L3.568 0 0 .948l.569 22.088 3.502.118-.203-11.413c.768-.34 3.305-1.054 3.39 1.759l.342 4.027.24 5.637z" id="h"/><filter x="-50%" y="-50%" width="200%" height="200%" filterUnits="objectBoundingBox" id="g"><feOffset dy="1" in="SourceAlpha" result="shadowOffsetOuter1"/><feColorMatrix values="0 0 0 0 0 0 0 0 0 0 0 0 0 0 0 0 0 0 0.153504303 0" in="shadowOffsetOuter1"/></filter></defs><g fill="none" fill-rule="evenodd"><path d="M21.095 0l26.297 26.297-9.428 9.428L2.608.37l.37-.37h18.117z" fill="#1368CE"/><path d="M28.905 0L2.608 26.297l9.428 9.428L47.392.37l-.37-.37H28.905z" fill="#45A3E5"/><use stroke="#FFA602" mask="url(#b)" stroke-width="4" fill="#FFC00A" xlink:href="#a"/><g transform="translate(7 20)"><use fill="#000" filter="url(#c)" xlink:href="#d"/><use fill="#FFFFFA" xlink:href="#d"/></g><g transform="translate(7 20)"><use fill="#000" filter="url(#e)" xlink:href="#f"/><use fill="#FFF" xlink:href="#f"/></g><g transform="translate(7 20)"><use fill="#000" filter="url(#g)" xlink:href="#h"/><use fill="#FFFFFA" xlink:href="#h"/></g></g></svg>
