<svg xmlns="http://www.w3.org/2000/svg" xmlns:xlink="http://www.w3.org/1999/xlink" width="160" height="160" viewBox="0 0 160 160"><defs><path id="b" d="M31.836 62.444V.844H2.972v13.464h11.44v48.136z"/><path id="c" d="M29.392 62.444V.844H.528v13.464h11.44v48.136z"/><filter id="a" width="115%" height="115%" x="-7.5%" y="-7.5%" filterUnits="objectBoundingBox"><feOffset dy="2" in="SourceAlpha" result="shadowOffsetOuter1"/><feGaussianBlur in="shadowOffsetOuter1" result="shadowBlurOuter1" stdDeviation="2"/><feColorMatrix in="shadowBlurOuter1" result="shadowMatrixOuter1" values="0 0 0 0 0 0 0 0 0 0 0 0 0 0 0 0 0 0 0.5 0"/><feMerge><feMergeNode in="shadowMatrixOuter1"/><feMergeNode in="SourceGraphic"/></feMerge></filter></defs><g fill="none" fill-rule="nonzero" filter="url(#a)"><path fill="#3469B3" d="M92.184 29.028l-8.882 11.71-11.71-8.884 8.883-11.709z" opacity=".45"/><path fill="#3469B3" d="M64.986 16.871c.06-3.507-22.862 4.476-21.925.364" opacity=".5"/><path fill="#FFC00A" d="M40.158 12.336L4.625 97.16l75.723 53.194 75.148-44.938-31.662-93.08z"/><path fill="#FFA602" d="M45.511 21.408L14.272 94.953l66.106 46.117 65.138-38.98-27.458-80.682z"/><g fill="#000" opacity=".15" transform="translate(62.222 44.222)"><use xlink:href="#b"/><use xlink:href="#b"/></g><g transform="translate(62.222 44.222)"><use fill="#000" xlink:href="#c"/><use fill="#F2F2F2" xlink:href="#c"/></g><path fill="#FFF" d="M10.129 101.031l31.662 22.227 98.07-64.201-12.157-34.867zm35.684 25.07L61.75 137.29l86.397-53.677-6.683-19.415z" opacity=".15"/></g></svg>