<svg xmlns="http://www.w3.org/2000/svg" xmlns:xlink="http://www.w3.org/1999/xlink" viewBox="0 0 50 58"><title>Silver</title><defs><rect id="a" width="50" height="50" y="8" rx="25"/><mask id="b" width="50" height="50" x="0" y="0" fill="#fff"><use xlink:href="#a"/></mask><path id="d" d="M0 20.993V1.07L4.173 0l-.01 8.487 7.048-6.797 3.625 1.392-5.123 5.683 3.398 12.377H9.425L6.706 11.66 4.14 14.174l.034 6.968z"/><filter id="c" width="200%" height="200%" x="-50%" y="-50%" filterUnits="objectBoundingBox"><feOffset dy="1" in="SourceAlpha" result="shadowOffsetOuter1"/><feColorMatrix in="shadowOffsetOuter1" values="0 0 0 0 0 0 0 0 0 0 0 0 0 0 0 0 0 0 0.154268569 0"/></filter><path id="f" d="M13.848 5.886l.977 2.58c2.424-1.473 3.792 0 3.792 0l-.02 1.647c-7.219 1.29-5.39 8.043-5.39 8.043.73 2.652 3.109 2.56 3.109 2.56h5.416l.103-12.297c-.85-5.722-7.987-2.533-7.987-2.533zm4.739 12.478s-2.62.642-2.909-1.94c0 0 .056-3.995 3.007-3.566l-.098 5.506z"/><filter id="e" width="200%" height="200%" x="-50%" y="-50%" filterUnits="objectBoundingBox"><feOffset dy="1" in="SourceAlpha" result="shadowOffsetOuter1"/><feColorMatrix in="shadowOffsetOuter1" values="0 0 0 0 0 0 0 0 0 0 0 0 0 0 0 0 0 0 0.154268569 0"/></filter></defs><g fill="none" fill-rule="evenodd"><path fill="#1368CE" d="M20.82 0l26.297 26.297-9.428 9.428L2.333.37l.37-.37H20.82z"/><path fill="#45A3E5" d="M28.63 0L2.333 26.297l9.428 9.428L47.117.37l-.37-.37H28.63z"/><use fill="#CCC" stroke="#B2B2B2" stroke-width="4" mask="url(#b)" xlink:href="#a"/><g transform="translate(14 21)"><use fill="#000" filter="url(#c)" xlink:href="#d"/><use fill="#FFF" xlink:href="#d"/></g><g transform="translate(14 21)"><use fill="#000" filter="url(#e)" xlink:href="#f"/><use fill="#FFF" xlink:href="#f"/></g></g></svg>