<svg xmlns="http://www.w3.org/2000/svg" xmlns:xlink="http://www.w3.org/1999/xlink" width="160" height="160" viewBox="0 0 160 160">
    <defs>
        <path id="lk2q7f79nb" d="M54.044 63.444V49.628h-23.76L41.9 38.892c4.107-3.754 6.88-7.113 8.316-10.076 1.438-2.962 2.156-6.116 2.156-9.46 0-3.754-1.012-7.054-3.036-9.9-2.024-2.845-4.84-5.03-8.448-6.556C37.28 1.375 33.13.612 28.436.612c-5.925 0-11.058 1.144-15.4 3.432-4.34 2.288-7.714 5.427-10.12 9.416l12.936 7.216c1.232-1.936 2.802-3.417 4.708-4.444 1.907-1.026 4.004-1.54 6.292-1.54 2.582 0 4.547.558 5.896 1.672 1.35 1.115 2.024 2.67 2.024 4.664 0 1.526-.38 3.036-1.144 4.532-.762 1.496-2.258 3.3-4.488 5.412L6.084 52.532v10.912h47.96z"/>
        <path id="ph9csa8cec" d="M51.6 63.444V49.628H27.84l11.616-10.736c4.107-3.754 6.879-7.113 8.316-10.076 1.437-2.962 2.156-6.116 2.156-9.46 0-3.754-1.012-7.054-3.036-9.9-2.024-2.845-4.84-5.03-8.448-6.556C34.836 1.375 30.685.612 25.992.612c-5.925 0-11.059 1.144-15.4 3.432C6.251 6.332 2.877 9.471.472 13.46l12.936 7.216c1.232-1.936 2.801-3.417 4.708-4.444 1.907-1.026 4.004-1.54 6.292-1.54 2.581 0 4.547.558 5.896 1.672 1.35 1.115 2.024 2.67 2.024 4.664 0 1.526-.381 3.036-1.144 4.532-.763 1.496-2.259 3.3-4.488 5.412L3.64 52.532v10.912H51.6z"/>
        <filter id="6d5j8pacna" width="115%" height="115%" x="-7.5%" y="-7.5%" filterUnits="objectBoundingBox">
            <feOffset dy="2" in="SourceAlpha" result="shadowOffsetOuter1"/>
            <feGaussianBlur in="shadowOffsetOuter1" result="shadowBlurOuter1" stdDeviation="2"/>
            <feColorMatrix in="shadowBlurOuter1" result="shadowMatrixOuter1" values="0 0 0 0 0 0 0 0 0 0 0 0 0 0 0 0 0 0 0.5 0"/>
            <feMerge>
                <feMergeNode in="shadowMatrixOuter1"/>
                <feMergeNode in="SourceGraphic"/>
            </feMerge>
        </filter>
    </defs>
    <g fill="none" fill-rule="evenodd">
        <g fill-rule="nonzero">
            <g filter="url(#6d5j8pacna)" transform="translate(-504 -548) translate(504 548)">
                <g>
                    <path fill="#3469B3" d="M70.159 10.806L84.881 10.806 84.881 25.529 70.159 25.529z" opacity=".45" transform="translate(4.444 12.111) rotate(127.185 77.52 18.168)"/>
                    <path fill="#3469B3" d="M60.585 4.592c.06-3.514-22.901 4.483-21.962.363" opacity=".5" transform="translate(4.444 12.111)"/>
                    <path fill="#CCC" d="M35.685 0.048L0.091 85.018 75.974 138.303 151.251 93.258 119.504 0.048z" transform="translate(4.444 12.111)"/>
                    <path fill="#737373" d="M41.046 9.105L9.754 82.777 75.974 128.973 141.224 89.956 113.718 9.105z" transform="translate(4.444 12.111)"/>
                    <g>
                        <g fill="#000" opacity=".15" transform="translate(4.444 12.111) translate(50.111 28.889)">
                            <use xlink:href="#lk2q7f79nb"/>
                            <use xlink:href="#lk2q7f79nb"/>
                        </g>
                        <g transform="translate(4.444 12.111) translate(50.111 28.889)">
                            <use fill="#000" xlink:href="#ph9csa8cec"/>
                            <use fill="#F2F2F2" xlink:href="#ph9csa8cec"/>
                        </g>
                    </g>
                    <path fill="#FFF" d="M5.634 88.896L37.32 111.161 135.559 46.819 123.382 11.892zM41.38 114.008L57.314 125.186 143.89 71.447 137.195 51.969z" opacity=".15" transform="translate(4.444 12.111)"/>
                </g>
            </g>
        </g>
    </g>
</svg>
